<svg xmlns="http://www.w3.org/2000/svg" width="36px" height="36px" viewBox="0 0 36 36">
<path fill="#FFFFFF" d="M15.08,25.6l4.06-5.62l-0.1-0.1c-0.47,0.28-1.06,0.42-1.77,0.42c-0.9,0-1.77-0.25-2.61-0.75 c-0.84-0.5-1.53-1.19-2.05-2.06c-0.53-0.87-0.79-1.85-0.79-2.94s0.28-2.09,0.85-3.01c0.56-0.92,1.32-1.64,2.26-2.18
c0.94-0.54,1.96-0.8,3.05-0.8c1.21,0,2.3,0.28,3.25,0.84s1.69,1.31,2.21,2.24c0.52,0.93,0.78,1.93,0.78,2.98
c0,1.02-0.2,1.98-0.6,2.89s-0.99,1.93-1.77,3.07l-4.5,6.59L15.08,25.6z M19.65,17.39c0.52-0.29,0.94-0.68,1.25-1.19
s0.47-1.07,0.47-1.7s-0.15-1.18-0.46-1.68s-0.71-0.89-1.23-1.18c-0.52-0.28-1.08-0.43-1.69-0.43c-0.59,0-1.14,0.14-1.66,0.43
s-0.93,0.68-1.24,1.18c-0.3,0.5-0.46,1.06-0.46,1.68s0.16,1.19,0.47,1.7s0.72,0.91,1.23,1.19c0.51,0.29,1.06,0.43,1.65,0.43
C18.58,17.82,19.13,17.67,19.65,17.39z"/>
</svg>