<svg xmlns="http://www.w3.org/2000/svg" width="36px" height="36px" viewBox="0 0 36 36">
<path fill="#FFFFFF" d="M12.19,24.03c0.55-0.55,1.65-1.65,3.28-3.29s2.71-2.75,3.25-3.34c0.73-0.78,1.23-1.41,1.5-1.9
s0.4-1.07,0.4-1.74c0-0.68-0.26-1.27-0.78-1.77s-1.22-0.75-2.11-0.75c-0.82,0-1.48,0.24-1.99,0.72c-0.51,0.48-0.84,1.03-1,1.65
l-2.6-1.07c0.17-0.62,0.5-1.24,0.98-1.85c0.48-0.61,1.11-1.12,1.91-1.53c0.8-0.42,1.72-0.62,2.76-0.62c1.13,0,2.13,0.23,3,0.69
c0.88,0.46,1.55,1.08,2.03,1.87c0.48,0.79,0.71,1.66,0.71,2.61c0,1.02-0.27,2.01-0.79,2.95c-0.53,0.95-1.2,1.82-2.02,2.64
c-0.35,0.33-1.22,1.2-2.63,2.6l-2.13,2.13l0.05,0.1h7.75v2.6H12.19V24.03z"/>
</svg>