<svg xmlns="http://www.w3.org/2000/svg" width="36px" height="36px" viewBox="0 0 36 36">
<path fill="#FFFFFF" d="M14.79,26.31c-0.95-0.56-1.69-1.31-2.21-2.24s-0.78-1.93-0.78-2.98c0-1.02,0.2-1.98,0.6-2.89
c0.4-0.91,0.99-1.93,1.77-3.07l4.5-6.59l2.26,1.55l-4.06,5.62l0.1,0.1c0.47-0.28,1.06-0.42,1.77-0.42c0.9,0,1.77,0.25,2.61,0.75
s1.52,1.19,2.05,2.06c0.53,0.87,0.79,1.85,0.79,2.94s-0.28,2.09-0.85,3.01c-0.56,0.92-1.32,1.64-2.26,2.18
c-0.95,0.54-1.96,0.8-3.06,0.8C16.83,27.15,15.74,26.87,14.79,26.31z M19.68,24.04c0.52-0.28,0.93-0.68,1.23-1.18
s0.46-1.06,0.46-1.68s-0.16-1.19-0.47-1.7s-0.72-0.91-1.24-1.19s-1.06-0.43-1.65-0.43s-1.14,0.14-1.66,0.43s-0.94,0.68-1.25,1.19
s-0.47,1.07-0.47,1.7c0,0.62,0.15,1.18,0.46,1.68c0.3,0.5,0.72,0.89,1.24,1.18c0.52,0.29,1.08,0.43,1.69,0.43
C18.6,24.47,19.16,24.33,19.68,24.04z"/>
</svg>