<svg xmlns="http://www.w3.org/2000/svg" width="36px" height="36px" viewBox="0 0 36 36">
<path fill="#FFFFFF" d="M14.82,26.45c-0.94-0.47-1.69-1.11-2.22-1.94c-0.54-0.82-0.81-1.73-0.81-2.72c0-0.97,0.26-1.83,0.79-2.59
c0.53-0.75,1.2-1.34,2.02-1.76V17.3c-0.64-0.43-1.17-0.98-1.59-1.62s-0.62-1.36-0.62-2.12c0-0.94,0.24-1.79,0.71-2.56
c0.48-0.77,1.14-1.37,2-1.81s1.82-0.65,2.9-0.65c1.07,0,2.04,0.22,2.9,0.65c0.86,0.43,1.53,1.04,2,1.81
c0.48,0.77,0.72,1.62,0.72,2.56c0,0.76-0.21,1.47-0.62,2.12c-0.41,0.65-0.94,1.19-1.59,1.62v0.16c0.81,0.42,1.49,1,2.02,1.76
c0.53,0.75,0.79,1.62,0.79,2.59c0,0.99-0.27,1.89-0.81,2.72c-0.54,0.82-1.28,1.47-2.22,1.94c-0.95,0.47-2.01,0.7-3.18,0.7
C16.82,27.15,15.76,26.92,14.82,26.45z M20.38,23.65c0.63-0.53,0.95-1.22,0.95-2.07c0-0.83-0.32-1.52-0.95-2.05
c-0.63-0.53-1.43-0.8-2.38-0.8s-1.75,0.27-2.38,0.81c-0.63,0.54-0.95,1.22-0.95,2.05c0,0.85,0.32,1.54,0.95,2.07
s1.43,0.79,2.38,0.79C18.95,24.45,19.75,24.18,20.38,23.65z M19.99,15.46c0.53-0.46,0.79-1.07,0.79-1.83c0-0.75-0.26-1.34-0.78-1.78
s-1.19-0.66-2-0.66c-0.82,0-1.48,0.22-2,0.66s-0.78,1.04-0.78,1.78c0,0.76,0.26,1.37,0.79,1.83c0.53,0.46,1.19,0.69,1.99,0.69
S19.46,15.92,19.99,15.46z"/>
</svg>