<?xml version="1.0" encoding="utf-8"?>
<!-- Generator: Adobe Illustrator 23.0.4, SVG Export Plug-In . SVG Version: 6.00 Build 0)  -->
<svg version="1.1" id="Layer_1" xmlns="http://www.w3.org/2000/svg" xmlns:xlink="http://www.w3.org/1999/xlink" x="0px" y="0px"
	 width="36px" height="36px" viewBox="0 0 36 36" enable-background="new 0 0 36 36" xml:space="preserve">
<path d="M28.5,18c0-4.75-3.17-8.77-7.5-10.07V4.84C27.01,6.21,31.5,11.58,31.5,18c0,2.64-0.76,5.1-2.07,7.19l-2.19-2.19
	C28.03,21.51,28.5,19.8,28.5,18z M24.75,18c0,0.75-0.14,1.47-0.36,2.15L21,16.75v-4.8C23.22,13.07,24.75,15.34,24.75,18z M18,6v7.75
	l-3.89-3.87L18,6z M15,22.76l-3.26-3.26H7.5v-3h4.76L15,19.25V22.76z M4.22,4.22L2.09,6.33l7.17,7.17H4.5v9h6L18,30v-7.76l4.98,4.98
	c-0.63,0.34-1.27,0.63-1.98,0.84v3.09c1.5-0.35,2.9-0.96,4.16-1.76l4.51,4.52l2.11-2.12L4.22,4.22z"/>
</svg>
