<svg xmlns="http://www.w3.org/2000/svg" width="120" height="120" viewBox="0 0 120 120"><path fill="#DFE1E5" d="M42.09 90.39l65.55-37.85-14.86-8.58-50.69 29.26"/><path fill="#BABFC5" d="M27.22 40.42l-14.86-8.58v75.69l14.86 8.59z"/><path fill="#6199F6" d="M12.36 14.7z"/><path fill="#DFE1E5" d="M27.23 6.12L12.36 14.7l65.55 37.84 14.87-8.58z"/><path fill="#959CA5" d="M42.09 90.37V31.84l-14.87 8.58v75.7l14.87-8.59 65.55-37.85V52.52z"/><path fill="#BABFC5" d="M12.36 14.7v17.2l50.65 29.24 14.9-8.6z"/><g fill="#FFF"><path d="M26.58 15.12l7.17 4.14 1.37-.79-7.17-4.14zM40.44 21.54l-1.38.79 7.17 4.14 1.38-.79zM51.55 29.54l7.17 4.14 1.37-.79-7.17-4.14zM64.03 36.75l7.17 4.14 1.38-.79-7.17-4.14zM76.52 43.95l7.17 4.14 1.37-.79-7.17-4.14zM76.95 62.47l7.17-4.13-1.38-.8-7.17 4.14zM64.85 69.45l7.17-4.14-1.38-.79-7.17 4.14zM21.26 12.05l1.38-.79-2.16-1.25-1.37.79zM42.09 81.01v1.58l5.7-3.29-1.38-.79zM52.73 76.44l7.17-4.13-1.37-.79-7.17 4.13z"/></g><g fill="#EFF0F2"><path d="M20.48 104.33v-8.28l-1.38-.79.01 8.27zM20.48 112.22v-1.75l-1.38-.8.01 1.76zM20.48 89.91v-8.27l-1.37-.8v8.28zM20.48 75.5v-8.28l-1.37-.8v8.28zM20.48 61.08V52.8l-1.37-.79v8.27zM20.48 46.67v-8.28l-1.38-.8.01 8.28zM28.86 32.06v1.59l7.17 4.14V36.2zM41.34 39.27l.01 1.58 7.16 4.14v-1.58zM53.83 46.47l.01 1.59L61 52.2v-1.59zM66.32 53.68v1.58l3.44 1.99 1.37-.79zM23.73 29.04l-4.63-2.67v5.09l1.38.8v-3.51l3.25 1.87z"/></g><g fill="#CDD0D5"><path d="M35.33 98.29l-1.37.81v5.34l4.62-2.67v-1.58l-3.25 1.86zM33.96 49.14l1.37-.79v-3.19l-1.37-.79zM33.96 63.56l1.37-.8v-8.27l-1.37.79zM33.96 77.98l1.37-.8V68.9l-1.37.8zM33.96 92.39l1.38-.79v-8.28l-1.37.8zM93.08 70.3l7.17-4.14v-1.59l-7.17 4.14zM80.59 77.51l7.17-4.15v-1.58l-7.16 4.14zM107.64 60.31l-2.07 1.2v1.58l2.07-1.2zM68.11 84.71l7.16-4.14.01-1.58-7.17 4.13zM55.62 91.92l7.17-4.14v-1.59l-7.17 4.14zM43.14 99.13l7.17-4.14V93.4l-7.16 4.14z"/></g><g><linearGradient id="a" gradientUnits="userSpaceOnUse" x1="3560.7998" y1="-1399.4838" x2="3578.8938" y2="-1417.5778" gradientTransform="rotate(90 1110.03545 -2424.63275)"><stop offset="0" style="stop-color:#D23F31"/><stop offset="1" style="stop-color:#F44336"/></linearGradient><path fill="url(#a)" d="M103.55 28.49c-1.38-5.04-6.46-8.06-11.7-7-6.32 1.28-9.72 8.2-6.77 13.86.6 1.14 1.25 2.26 1.93 3.36.84 1.37 1.75 2.7 2.6 4.06 1.82 2.93 3.27 6.02 4.06 9.4.09.37.18.74.27 1.12.47-1.52.87-3.02 1.39-4.47 1.07-2.99 2.75-5.67 4.46-8.33 1.04-1.63 2.04-3.29 2.97-4.99 1.2-2.21 1.46-4.58.79-7.01z"/><linearGradient id="b" gradientUnits="userSpaceOnUse" x1="3562.6941" y1="-1406.0117" x2="3567.7329" y2="-1411.0505" gradientTransform="rotate(90 1110.03545 -2424.63275)"><stop offset="0" style="stop-color:#90130E"/><stop offset="1" style="stop-color:#680000"/></linearGradient><circle fill="url(#b)" cx="93.93" cy="30.55" r="3.56"/></g></svg>