<svg xmlns="http://www.w3.org/2000/svg" width="130" height="120" viewBox="0 0 130 120"><linearGradient id="a" gradientUnits="userSpaceOnUse" x1="3.232" y1="79.249" x2="53.232" y2="79.249"><stop offset="0" style="stop-color:#FFFFFF"/><stop offset="1" style="stop-color:#979DA5"/></linearGradient><path opacity=".8" fill="url(#a)" d="M-8.437 78.23h50v2.038h-50z"/><path fill="none" stroke="#E1E2E6" stroke-width="1.2" stroke-linecap="round" stroke-linejoin="round" stroke-miterlimit="10" d="M46.452 52.569v.001c-.789-.668-1.811-1.07-2.926-1.063-2.478.015-4.475 2.036-4.461 4.515.015 2.478 2.036 4.475 4.515 4.461 1.115-.007 2.118-.41 2.899-1.088l3.821-3.44-3.734-3.285-.054-.048-.06-.053z"/><path fill="#4285F4" d="M67.539 60.469c-5.787 0-10.881-2.957-13.86-7.441l-15.561 9.118s-10.096 2.098-12.755 2.652-7.38 1.123-7.861 5.294l-.255 4.192c-.075 1.391.775 2.423 2.192 2.987 7.369 2.929 17.135 2.982 22.371 2.982l35.432-.053-.235-22.692c-2.687 1.865-5.949 2.961-9.468 2.961z"/><linearGradient id="b" gradientUnits="userSpaceOnUse" x1="53.5859" y1="66.4652" x2="22.427" y2="97.6241"><stop offset="0" style="stop-color:#4285F4"/><stop offset="1" style="stop-color:#174689"/></linearGradient><path opacity=".5" fill="url(#b)" d="M41.888 80.2l35.215-13.441-.096-9.252c-2.688 1.865-5.949 2.961-9.468 2.961-5.787 0-10.881-2.957-13.86-7.441l-15.561 9.118s-2.35.488-5.081 1.056L41.888 80.2z"/><linearGradient id="c" gradientUnits="userSpaceOnUse" x1="43.6488" y1="56.6786" x2="55.1381" y2="88.2453"><stop offset="0" style="stop-color:#4285F4"/><stop offset=".4437" style="stop-color:#4184F2"/><stop offset=".6035" style="stop-color:#3F80EB"/><stop offset=".7174" style="stop-color:#3A79E0"/><stop offset=".8095" style="stop-color:#336FCF"/><stop offset=".8883" style="stop-color:#2A62B9"/><stop offset=".9569" style="stop-color:#1F529E"/><stop offset="1" style="stop-color:#174689"/></linearGradient><path opacity=".7" fill="url(#c)" d="M67.539 60.469c-5.787 0-10.881-2.957-13.86-7.441l-15.561 9.118s-10.096 2.098-12.755 2.652-7.38 1.123-7.861 5.294l-.255 4.192c-.075 1.391.775 2.423 2.192 2.987 7.369 2.929 17.135 2.982 22.371 2.982l35.432-.053-.235-22.692c-2.687 1.865-5.949 2.961-9.468 2.961z"/><path fill="#E1E2E6" d="M31.897 63.439l7.54 14.499 1.419-.738-7.332-14.1c-.528.11-1.075.224-1.627.339zM77.094 65.867L50.49 75.989l.569 1.495 26.053-9.912z"/><path fill="none" stroke="#E1E2E6" stroke-width="1.2" stroke-linecap="round" stroke-linejoin="round" stroke-miterlimit="10" d="M42.553 59.439l2.043 3.318M38.329 61.953l2.042 3.317M46.226 57.219l2.043 3.318M53.918 52.566v.001c.853-.584 1.911-.878 3.019-.757 2.464.269 4.243 2.485 3.974 4.948-.269 2.464-2.485 4.243-4.948 3.974-1.109-.121-2.065-.625-2.772-1.38l-3.448-3.814 4.051-2.885c.019-.014.039-.028.059-.042l.065-.045z"/><path fill="#979DA5" d="M24.79 73.302l-7.362-1.993-.181 2.976c-.075 1.391.775 2.423 2.192 2.987 7.369 2.929 17.135 2.982 22.371 2.982l35.432-.054-.05-4.805H41.407c-5.605 0-11.187-.703-16.617-2.093z"/><path fill="none" stroke="#686C71" stroke-width="1.2" stroke-linecap="round" stroke-linejoin="round" stroke-miterlimit="10" d="M34.508 77.793h42.373"/><path fill="none" stroke="#E1E2E6" stroke-width="1.2" stroke-linecap="round" stroke-linejoin="round" stroke-miterlimit="10" d="M49.688 55.267v27.325c0 2.754-2.233 4.987-4.987 4.987H34.99"/><g><linearGradient id="d" gradientUnits="userSpaceOnUse" x1="47.8762" y1="89.2374" x2="97.8762" y2="89.2374"><stop offset="0" style="stop-color:#FFFFFF"/><stop offset="1" style="stop-color:#979DA5"/></linearGradient><path opacity=".8" fill="url(#d)" d="M36.207 88.219h50v2.038h-50z"/><path fill="none" stroke="#E1E2E6" stroke-width="1.2" stroke-linecap="round" stroke-linejoin="round" stroke-miterlimit="10" d="M95.452 62.569v.001c-.789-.668-1.811-1.07-2.926-1.063-2.478.015-4.475 2.036-4.461 4.515.015 2.478 2.036 4.475 4.515 4.461 1.115-.007 2.118-.41 2.899-1.088l3.821-3.44-3.734-3.285-.054-.048-.06-.053z"/><path fill="#4285F4" d="M116.539 70.469c-5.787 0-10.881-2.957-13.86-7.441l-15.561 9.118s-10.096 2.098-12.755 2.652c-2.659.555-7.38 1.123-7.861 5.294l-.255 4.192c-.075 1.391.775 2.423 2.192 2.987 7.369 2.929 17.135 2.982 22.371 2.982l35.432-.053-.235-22.692c-2.687 1.865-5.949 2.961-9.468 2.961z"/><linearGradient id="e" gradientUnits="userSpaceOnUse" x1="102.5859" y1="76.4652" x2="71.427" y2="107.6241"><stop offset="0" style="stop-color:#4285F4"/><stop offset="1" style="stop-color:#174689"/></linearGradient><path opacity=".5" fill="url(#e)" d="M90.888 90.2l35.215-13.441-.096-9.252c-2.688 1.865-5.949 2.961-9.468 2.961-5.787 0-10.881-2.957-13.86-7.441l-15.561 9.118s-2.35.488-5.081 1.056L90.888 90.2z"/><path fill="#E1E2E6" d="M80.897 73.439l7.54 14.499 1.419-.738-7.332-14.1c-.528.11-1.075.224-1.627.339zM126.094 75.867L99.49 85.989l.569 1.495 26.053-9.912z"/><path fill="none" stroke="#E1E2E6" stroke-width="1.2" stroke-linecap="round" stroke-linejoin="round" stroke-miterlimit="10" d="M91.553 69.439l2.043 3.318M87.329 71.953l2.042 3.317M95.226 67.219l2.043 3.318M102.918 62.566v.001c.853-.584 1.911-.878 3.019-.757 2.464.269 4.243 2.485 3.974 4.948-.269 2.464-2.485 4.243-4.948 3.974-1.109-.121-2.064-.625-2.772-1.38l-3.448-3.814 4.051-2.885c.019-.014.039-.028.059-.042l.065-.045z"/><path fill="#979DA5" d="M73.79 83.302l-7.362-1.993-.181 2.976c-.075 1.391.775 2.423 2.192 2.987 7.369 2.929 17.135 2.982 22.371 2.982l35.432-.053-.05-4.805H90.407c-5.605-.001-11.187-.704-16.617-2.094z"/><path fill="none" stroke="#686C71" stroke-width="1.2" stroke-linecap="round" stroke-linejoin="round" stroke-miterlimit="10" d="M83.508 87.793h42.69"/><path fill="none" stroke="#E1E2E6" stroke-width="1.2" stroke-linecap="round" stroke-linejoin="round" stroke-miterlimit="10" d="M98.99 65.267v23.325c0 2.754 2.233 4.987 4.987 4.987h6.711"/></g></svg>