<svg xmlns="http://www.w3.org/2000/svg" width="92" height="85" viewBox="0 0 92 85"><path fill="none" d="M.021-.018h92v85h-92z"/><g fill="#EA4335"><path d="M27.768 8.993l-5.594.008v5.6c.004.035.043.129.071.163l7.858 7.867 5.691-5.708-7.866-7.866c-.025-.02-.116-.058-.16-.064zm-2.797 4.036c-.679 0-1.23-.551-1.23-1.23 0-.679.551-1.23 1.23-1.23.679 0 1.23.551 1.23 1.23 0 .68-.55 1.23-1.23 1.23z"/><path d="M42.482 12.114C40.739 4.223 32.929-.761 25.037.982c-7.891 1.743-12.875 9.554-11.132 17.445 1.743 7.891 9.554 12.875 17.445 11.132 7.892-1.743 12.876-9.553 11.132-17.445zm-5.379 5.622l-6.185 6.202c-.216.217-.505.337-.813.338h-.002c-.308 0-.597-.12-.814-.337l-8.112-8.121c-.296-.297-.503-.797-.503-1.216V8.654c0-.634.516-1.151 1.15-1.153l5.948-.008h.002c.419 0 .919.207 1.215.503l8.111 8.111c.449.449.45 1.179.003 1.629z"/></g><g fill="#34A853"><path d="M33.32 57.588c0-2.225-1.81-4.035-4.035-4.035s-4.035 1.81-4.035 4.035 1.81 4.035 4.035 4.035 4.035-1.811 4.035-4.035z"/><path d="M54.012 52.599c-2.364-14.668-16.171-24.642-30.839-22.278S-1.469 46.492.895 61.16c2.364 14.668 16.171 24.642 30.839 22.278s24.642-16.172 22.278-30.839zm-41.287-2.196l-.279-1.474 3.296-.624-.623-3.296 1.474-.279.624 3.296 3.296-.623.279 1.474-3.296.624.623 3.296-1.474.279-.624-3.296-3.296.623zm29.452 14.053c-.148.216-.372.36-.629.407l-21.054 3.895c-.06.012-.119.017-.178.017-.461 0-.874-.329-.961-.799l-2.048-11.073 1.475-.272 1.953 10.558 20.029-3.705L37.93 48.16l-5.089.882-2.375-1.889-5.862 1.084-.272-1.475 6.533-1.209 2.384 1.896 4.935-.855c.52-.09 1.031.26 1.128.784l3.023 16.345c.047.256-.009.517-.158.733zM23.75 57.588c0-3.052 2.483-5.535 5.535-5.535s5.535 2.483 5.535 5.535-2.483 5.535-5.535 5.535-5.535-2.483-5.535-5.535z"/></g><g fill="#FBBC05"><path d="M74.482 61.954l-.991-5.323-2.304 4.901-5.133-.658 3.811 3.648-2.236 4.749 4.571-2.568 3.774 3.639-.966-5.16 4.61-2.569z"/><path d="M71.926 46.56c-10.237 0-18.536 8.299-18.536 18.536 0 10.237 8.299 18.536 18.536 18.536s18.536-8.299 18.536-18.536c0-10.237-8.299-18.536-18.536-18.536zm6.308 27.975l-6.264-6.04-7.585 4.263 3.726-7.91-6.241-5.974 8.456 1.085 3.769-8.016 1.622 8.707 8.458 1.085-7.547 4.205 1.606 8.595z"/></g><g fill="#4285F4"><path d="M75.481 15.935l-16.437-1.561h-.01c-.055 0-.103.042-.108.099L57.589 28.56l1.986-1.649 14.732 1.398c.04-.002.112-.048.118-.098l1.154-12.158c.005-.059-.039-.112-.098-.118zm-15.137 9.073l.155-1.112 7.187-5.934c.106-.088.264-.073.352.033l.72.871c.088.106.073.264-.033.352l-7.196 5.942-1.185-.152zm10.267.76c-.013.138-.135.238-.273.225l-6.885-.659 1.777-1.469 5.263.505c.137.013.238.135.225.272l-.107 1.126z"/><path d="M66.276.66C53.458-.009 42.524 9.84 41.855 22.658c-.669 12.818 9.18 23.752 21.998 24.421 12.818.669 23.752-9.18 24.421-21.998S79.094 1.329 66.276.66zm9.642 27.693c-.041.428-.246.814-.577 1.088-.331.273-.747.4-1.177.361l-14.111-1.339-4.301 3.573 1.681-17.705c.084-.883.875-1.536 1.752-1.449l16.438 1.561c.882.084 1.532.87 1.449 1.752l-1.154 12.158z"/></g><linearGradient id="a" gradientUnits="userSpaceOnUse" x1="62.3173" y1="27.3642" x2="48.3288" y2="45.0684"><stop offset="0" style="stop-color:#174EA6;stop-opacity:0"/><stop offset="1" style="stop-color:#174EA6"/></linearGradient><path opacity=".7" fill="url(#a)" d="M68.19 42.762c-12.818-.669-22.667-11.603-21.998-24.421.254-4.862 1.987-9.294 4.737-12.89-5.214 3.996-8.715 10.162-9.084 17.237-.669 12.818 9.18 23.752 21.998 24.421 7.956.415 15.184-3.224 19.684-9.108-4.233 3.244-9.594 5.06-15.337 4.761z"/><linearGradient id="b" gradientUnits="userSpaceOnUse" x1="24.5923" y1="18.4726" x2="9.5383" y2="31.8515"><stop offset=".0013" style="stop-color:#A50E0E;stop-opacity:0"/><stop offset="1" style="stop-color:#A50E0E"/></linearGradient><path fill="url(#b)" d="M34.38 26.53c-7.891 1.743-15.702-3.241-17.445-11.132-.953-4.313.114-8.594 2.557-11.881-4.494 3.332-6.872 9.095-5.587 14.911 1.743 7.891 9.554 12.875 17.445 11.132 3.579-.79 6.549-2.836 8.575-5.564-1.603 1.189-3.47 2.075-5.545 2.534z"/><linearGradient id="c" gradientUnits="userSpaceOnUse" x1="70.8411" y1="66.2516" x2="55.116" y2="82.9948"><stop offset="0" style="stop-color:#E37400;stop-opacity:0"/><stop offset="1" style="stop-color:#E37400"/></linearGradient><path opacity=".65" fill="url(#c)" d="M75.615 79.944c-10.237 0-18.536-8.299-18.536-18.536 0-4.178 1.383-8.032 3.715-11.132-4.496 3.382-7.404 8.762-7.404 14.821 0 10.237 8.299 18.536 18.536 18.536 6.059 0 11.439-2.908 14.821-7.404-3.1 2.332-6.954 3.715-11.132 3.715z"/><linearGradient id="d" gradientUnits="userSpaceOnUse" x1="20.7402" y1="61.9551" x2="-5.9305" y2="82.4332"><stop offset=".0013" style="stop-color:#0D652D;stop-opacity:0"/><stop offset="1" style="stop-color:#0D652D"/></linearGradient><path fill="url(#d)" d="M37.18 77.753c-14.668 2.364-28.475-7.61-30.838-22.278-1.204-7.471.989-14.622 5.177-20.248C3.727 41.025-.73 50.735.867 60.995c2.326 14.942 16.105 24.674 30.721 22.407 7.203-1.117 13.317-5.194 17.351-10.613-3.357 2.498-7.343 4.252-11.759 4.964z"/></svg>