<svg xmlns:xlink="http://www.w3.org/1999/xlink" x="0px" y="0px" width="950px" height="600px" viewBox="0 0 950 600"><circle fill="#F2F3F5" cx="475.03" cy="325.17" r="266.13"/><path fill="#B8B9B9" d="M214.08 273.67c.63-3.12 42.86-5.75 62.19 48.08 0 0 14.11 31.36-27.18 84.67 0 0-17.77 28.22 12.54 33.97 18.28 3.47 36.52 12.33 50.54 24.55 6.35 5.54 12.35 12.21 15.45 20.18 4.91 12.64 1.63 25.72.88 38.72-.41 7.13 5.03 18.15-4.24 20.67-3.47.94-58.31-36.91-89.66-105.07C214.06 394.75 201.02 338.75 214.08 273.67zM429.5 62.53c-2.07.3-48.08 15.16-39.72 49.13 8.36 33.97 53.86 51.74 19.35 78.92s-24.06 81.53 3.12 98.25c38.86 23.91 81.49 44.25 115.41 75.28 5.94 5.43 12.82 11.72 14.73 19.89 1.93 8.25-1.2 14.92-3.75 22.54-5.51 16.45-8.33 34.26-5.28 51.5 2.39 13.51 10.91 24.86 13.87 38.18 3.55 16.02-4.39 30.82-12.65 43.92-10.15 16.1-25.28 37.6-39.37 50.42 0 0 104.4-2.12 181.44-91.67.82-.95-9.21-12.88-9.81-13.67-5.8-7.65-13.02-14.46-21.43-19.16-13.95-7.8-31.03-8.98-44.02-18.65-11.35-8.45-20.81-24.29-14.06-38.36 6.27-13.07 11.5-41.81-10.98-54.88s-40.77-22.47-37.63-33.97c3.14-11.5 20.91-6.79 20.91-6.79s59.58 7.32 70.55-4.18c7.69-8.06 16.37-14.22 18.46-25.93 3.29-18.46-4.77-39.41-19.42-51.09-6.85-5.47-14.81-9.57-22.83-13.04-6.56-2.84-14.22-4.44-19.76-9.19-6.3-5.4-7.73-16.16-6.52-23.88 2.42-15.48 19.37-24.2 32.82-28.4 4.27-1.33 29.36-7.01 23.52-15.18-5.23-7.32-48.6-9.93-42.86-26.65 5.75-16.72 11.5-24.04 11.5-24.04S540.82 46.33 429.5 62.53z"/><path fill="#547DBF" d="M662.36,399.47c-19.98,0-36.18,16.2-36.18,36.18c0,6.13,1.52,11.89,4.21,16.95 c0.01,0.01,0.01,0.02,0.02,0.03c0.02,0.03,0.03,0.06,0.05,0.09c0.21,0.38,0.42,0.76,0.64,1.14c3.53,6.21,7.56,11.82,12.1,17.3 c7.25,8.77,12.23,18.67,15.14,29.64c0.51,1.91,2.07,3.08,4.04,3.06c1.97,0.01,3.54-1.15,4.04-3.06 c2.91-10.97,7.89-20.86,15.14-29.64c4.83-5.84,9.09-11.82,12.78-18.52c0.02-0.04,0.04-0.08,0.05-0.11 c2.66-5.04,4.17-10.78,4.17-16.87C698.54,415.67,682.34,399.47,662.36,399.47z M662.32,447.75c-6.63-0.03-12.05-5.46-12.05-12.09 c0-6.66,5.5-12.13,12.14-12.09c6.64,0.04,12.05,5.47,12.05,12.09C674.46,442.32,668.98,447.77,662.32,447.75z"/><path fill="#F9BC15" d="M308.1,377.12c-19.98,0-36.18,16.2-36.18,36.18c0,6.13,1.52,11.89,4.21,16.95 c0.01,0.01,0.01,0.02,0.02,0.03c0.02,0.03,0.03,0.06,0.05,0.09c0.21,0.38,0.42,0.76,0.64,1.14c3.53,6.21,7.56,11.82,12.1,17.3 c7.25,8.77,12.23,18.67,15.14,29.64c0.51,1.91,2.07,3.08,4.04,3.06c1.97,0.01,3.54-1.15,4.04-3.06 c2.91-10.97,7.89-20.86,15.14-29.64c4.83-5.84,9.09-11.82,12.78-18.52c0.02-0.04,0.04-0.08,0.05-0.11 c2.66-5.04,4.17-10.78,4.17-16.87C344.28,393.32,328.08,377.12,308.1,377.12z M308.05,425.39c-6.63-0.03-12.05-5.46-12.05-12.09 c0-6.66,5.5-12.13,12.14-12.09c6.64,0.04,12.05,5.47,12.05,12.09C320.19,419.97,314.72,425.42,308.05,425.39z"/><path fill="#2C9C43" d="M438.34,119.47c-19.98,0-36.18,16.2-36.18,36.18c0,6.13,1.52,11.89,4.21,16.95 c0.01,0.01,0.01,0.02,0.02,0.03c0.02,0.03,0.03,0.06,0.05,0.09c0.21,0.38,0.42,0.76,0.64,1.14c3.53,6.21,7.56,11.82,12.1,17.3 c7.25,8.77,12.23,18.67,15.14,29.64c0.51,1.91,2.07,3.08,4.04,3.06c1.97,0.01,3.54-1.15,4.04-3.06 c2.91-10.97,7.89-20.86,15.14-29.64c4.83-5.84,9.09-11.82,12.78-18.52c0.02-0.04,0.04-0.08,0.05-0.11 c2.66-5.04,4.17-10.78,4.17-16.87C474.52,135.67,458.32,119.47,438.34,119.47z M438.29,167.75c-6.63-0.03-12.05-5.46-12.05-12.09 c0-6.66,5.5-12.13,12.14-12.09c6.64,0.04,12.05,5.47,12.05,12.09C450.44,162.32,444.96,167.77,438.29,167.75z"/><path fill="#EA4435" d="M532.69,8.7c-19.98,0-36.18,16.2-36.18,36.18c0,6.13,1.52,11.89,4.21,16.95c0.01,0.01,0.01,0.02,0.02,0.03 c0.02,0.03,0.03,0.06,0.05,0.09c0.21,0.38,0.42,0.76,0.64,1.14c3.53,6.21,7.56,11.82,12.1,17.3c7.25,8.77,12.23,18.67,15.14,29.64 c0.51,1.91,2.07,3.08,4.04,3.06c1.97,0.01,3.54-1.15,4.04-3.06c2.91-10.97,7.89-20.86,15.14-29.64 c4.83-5.84,9.09-11.82,12.78-18.52c0.02-0.04,0.04-0.08,0.05-0.11c2.66-5.04,4.17-10.78,4.17-16.87 C568.87,24.9,552.67,8.7,532.69,8.7z M532.64,56.97c-6.63-0.03-12.05-5.46-12.05-12.09c0-6.66,5.5-12.13,12.14-12.09 c6.64,0.04,12.05,5.47,12.05,12.09C544.78,51.55,539.31,57,532.64,56.97z"/></svg>
