<svg xmlns:xlink="http://www.w3.org/1999/xlink" x="0px" y="0px" width="96px" height="96px" viewBox="0 0 96 96"><path fill="#E6EBF0" d="M69.9 64.02H37.44c-4.56 0-8.28-3.73-8.28-8.28V23.28c0-4.56 3.73-8.28 8.28-8.28H69.9c4.56 0 8.28 3.73 8.28 8.28v32.46c0 4.56-3.72 8.28-8.28 8.28z"/><path fill="#E6EBF0" d="M13.14 46.37l8.23 31.4c1.16 4.41 5.71 7.07 10.11 5.91l31.4-8.23c3.69-.97 6.14-4.31 6.17-7.96H36.83c-5.88 0-10.69-4.81-10.69-10.69V36.98c0-1.31-1.23-2.26-2.5-1.93l-4.59 1.2c-4.41 1.16-7.07 5.71-5.91 10.12z"/><path fill="#FFFFFF" d="M38.59 56.94h29.99c1.5 0 2.34-1.73 1.41-2.91l-8.8-11.2c-.69-.88-2-.92-2.75-.09l-7.22 8.02c-.77.85-2.13.78-2.8-.16l-2.89-4.04c-.71-1-2.2-1.01-2.92-.01l-5.48 7.53c-.85 1.19-.01 2.86 1.46 2.86z"/><circle fill="#F7B00C" cx="44.74" cy="31.06" r="3.26"/><circle fill="#FFFFFF" cx="67.96" cy="66.92" r="7.95"/><path fill="#346CF2" d="M68 56.09c-7.27 0-13.48 4.52-16 10.91 2.52 6.39 8.73 10.91 16 10.91S81.48 73.39 84 67c-2.52-6.39-8.73-10.91-16-10.91zm0 18.18c-4.01 0-7.27-3.26-7.27-7.27s3.26-7.27 7.27-7.27 7.27 3.26 7.27 7.27-3.26 7.27-7.27 7.27zm0-11.63c-2.41 0-4.36 1.95-4.36 4.36s1.95 4.36 4.36 4.36 4.36-1.95 4.36-4.36-1.95-4.36-4.36-4.36z"/></svg>
