<?xml version="1.0" encoding="utf-8"?>
<!-- Generator: Adobe Illustrator 24.0.1, SVG Export Plug-In . SVG Version: 6.00 Build 0)  -->
<svg version="1.1" id="Layer_1" xmlns="http://www.w3.org/2000/svg" xmlns:xlink="http://www.w3.org/1999/xlink" x="0px" y="0px" width="290px" height="200px" viewBox="0 0 290 200" enable-background="new 0 0 290 200" xml:space="preserve">
    <linearGradient id="SVGID_1_" gradientUnits="userSpaceOnUse" x1="3927.6411" y1="94.4734" x2="3927.6411" y2="36.942" gradientTransform="matrix(-1 0 0 -1 4185.7856 200)">
        <stop offset="0" style="stop-color:#202124"></stop>
        <stop offset="1" style="stop-color:#202124;stop-opacity:0"></stop>
    </linearGradient>
    <path fill="url(#SVGID_1_)" d="M243.75,158.36h25.97c0,0,8.19,6.96-3.35,6.96C254.83,165.32,243.75,158.36,243.75,158.36z"></path>
    <path fill="#DADCE0" d="M280.15,89.97c0-1.14-0.12-2.26-0.34-3.33c-1.54-7.37-8.09-12.92-15.9-12.92h-37.19
	c-8.96,0-16.25,7.29-16.25,16.25c0,8.33,6.24,15.28,14.52,16.15c0.5,0.05,0.88,0.47,0.88,0.97v7.72l8.09-8.3
	c0.18-0.19,0.44-0.3,0.7-0.3h22.03h7.22C272.86,106.22,280.15,98.93,280.15,89.97z"></path>
    <path fill="#EA4335" d="M267.27,117.48c0-0.49-0.05-0.97-0.15-1.43c-0.66-3.17-3.48-5.55-6.84-5.55H244.3
	c-3.85,0-6.98,3.13-6.98,6.98c0,3.58,2.68,6.57,6.24,6.94c0.21,0.02,0.38,0.2,0.38,0.42v3.32l3.48-3.57
	c0.08-0.08,0.19-0.13,0.3-0.13h9.47h3.11C264.14,124.47,267.27,121.33,267.27,117.48z"></path>
    <linearGradient id="SVGID_2_" gradientUnits="userSpaceOnUse" x1="48.65" y1="110.7463" x2="48.65" y2="44.3564" gradientTransform="matrix(1 0 0 -1 0 200)">
        <stop offset="0" style="stop-color:#E8EAED"></stop>
        <stop offset="1" style="stop-color:#E8EAED;stop-opacity:0"></stop>
    </linearGradient>
    <path fill="url(#SVGID_2_)" d="M19.07,94.17v4.39L2.79,121.07h16.28v8.34h-2.15v-1.71h-6.2v16.67h6.2v-2.24h2.15v12.15h75.44V98.56
	v-4.39H19.07z M16.92,141.61V129.9h2.15v11.71H16.92z"></path>
    <path fill="#FFFFFF" d="M48.48,128.1H29.56c-0.14,0-0.25,0.11-0.25,0.25v25.92h0.51v-25.66h18.42v25.66h0.51v-25.92
	C48.73,128.22,48.62,128.1,48.48,128.1z"></path>
    <path fill="#FFFFFF" d="M94.52,98.31H19.07v0.51h42.62l-14.71,22H19.07v0.5h28.05c0.08,0,0.16-0.04,0.21-0.11L61.91,99.4v54.88h0.51
	V98.81h32.1C94.52,98.81,94.52,98.31,94.52,98.31z"></path>
    <path d="M138.1,155.21"></path>
    <path fill="none" stroke="#4285F4" stroke-width="0.6649" stroke-miterlimit="10" d="M109.89,120.22"></path>
    <path fill="none" stroke="#4285F4" stroke-width="0.6649" stroke-miterlimit="10" d="M109.89,114.04"></path>
    <path fill="#DADCE0" d="M269.72,158.36h-25.97c0,0,1.73-9.24,13.28-9.24C268.57,149.12,269.72,158.36,269.72,158.36z"></path>
    <path fill="#FFFFFF" d="M250.06,158.36l-4.69-3.68c0.12-0.19,0.26-0.38,0.4-0.57l5.41,4.25H250.06z"></path>
    <path fill="#FFFFFF" d="M253.76,158.36l-3.71-7.78c0.2-0.1,0.42-0.19,0.63-0.29l3.85,8.06L253.76,158.36L253.76,158.36z"></path>
    <path fill="#FFFFFF" d="M258.05,158.36l1.98-9c0.23,0.04,0.46,0.08,0.68,0.13l-1.95,8.87H258.05z"></path>
    <path fill="#FFFFFF" d="M260.98,158.36l5.01-6.42c0.18,0.15,0.36,0.3,0.52,0.46l-4.65,5.96L260.98,158.36L260.98,158.36z"></path>
    <path fill="#DADCE0" d="M30.61,159.33H56.2c0,0-2.77-7.36-10.79-7.36S30.61,159.33,30.61,159.33z"></path>
    <path fill="#F1F3F4" d="M46.65,159.33l-3.01-7.24c-0.24,0.03-0.47,0.07-0.71,0.11l2.97,7.13H46.65z"></path>
    <path fill="#DADCE0" d="M8.72,159.33h32.53c0,0-1.08-12.38-15.57-12.38S8.72,159.33,8.72,159.33z"></path>
    <path fill="#F1F3F4" d="M31.08,147.64l-1.9,6.27l0.31,0.41c0.12,0.15,0.09,0.37-0.06,0.49c-0.06,0.05-0.14,0.07-0.21,0.07
	c-0.1,0-0.21-0.05-0.28-0.14l-0.01-0.01l-1.39,4.6h0.73l3.47-11.49C31.53,147.77,31.31,147.7,31.08,147.64z"></path>
    <path fill="#F1F3F4" d="M15.79,149.53c2.37,2.86,5.3,6.46,8,9.8h0.9c-2.7-3.34-5.78-7.13-8.29-10.16
	C16.19,149.29,15.98,149.41,15.79,149.53z"></path>
    <path fill="#F1F3F4" d="M38.68,152.83l-6.98,6.5h1.02l6.35-5.91C38.95,153.22,38.82,153.03,38.68,152.83z"></path>
    <path fill="#F1F3F4" d="M10.52,154.98l7.23,4.35h1.35l-8.21-4.95C10.75,154.58,10.63,154.78,10.52,154.98z"></path>
    <path fill="#F1F3F4" d="M29.19,153.91l-5.28-6.89c-0.28,0.02-0.56,0.04-0.82,0.07l5.85,7.64L29.19,153.91z"></path>
    <path fill="#E6EBF0" d="M28.95,154.74c0.07,0.09,0.17,0.14,0.28,0.14c0.07,0,0.15-0.02,0.21-0.07c0.15-0.12,0.18-0.34,0.06-0.49
	l-0.31-0.41l-0.25,0.82L28.95,154.74z"></path>
    <path fill="none" stroke="#4285F4" stroke-width="0.6649" stroke-miterlimit="10" d="M109.89,114.04"></path>
    <rect x="86.36" y="41.57" fill="#DADCE0" width="108.5" height="117.76"></rect>
    <radialGradient id="SVGID_3_" cx="214.6074" cy="204.3262" r="155.3389" gradientTransform="matrix(1 0 0 -1 0 200)" gradientUnits="userSpaceOnUse">
        <stop offset="0" style="stop-color:#F1F3F4"></stop>
        <stop offset="1" style="stop-color:#F1F3F4;stop-opacity:0"></stop>
    </radialGradient>
    <rect x="86.36" y="41.57" fill="url(#SVGID_3_)" width="108.5" height="117.76"></rect>
    <polyline fill="#4285F4" points="83.08,107.62 174.49,107.62 198.14,107.62 "></polyline>
    <rect x="86.36" y="68.9" fill="#FFFFFF" width="108.5" height="0.56"></rect>
    <polygon fill="#FFFFFF" points="151.89,159.32 151.33,159.32 151.33,118.06 130.82,118.06 130.82,159.32 130.26,159.32 
	130.26,117.49 151.89,117.49 "></polygon>
    <path fill="#FFFFFF" d="M123.67,149.63h-31v-32.14h31V149.63z M93.23,149.07h29.87v-31.01H93.23V149.07z"></path>
    <path fill="#FFFFFF" d="M189.04,149.63h-31v-32.14h31V149.63z M158.6,149.07h29.87v-31.01H158.6V149.07z"></path>
    <rect x="86.36" y="155.93" fill="#FFFFFF" width="44.17" height="0.56"></rect>
    <rect x="151.61" y="155.93" fill="#FFFFFF" width="43.25" height="0.56"></rect>
    <path fill="#E8EAED" d="M104.4,159.33c-2.51-4.14-6.74-6.86-11.55-6.86c-4.24,0-8.04,2.13-10.6,5.48
	c-3.59-5.45-9.37-8.99-15.88-8.99c-7.05,0-13.23,4.14-16.71,10.37L104.4,159.33L104.4,159.33z"></path>
    <path fill="#FFFFFF" d="M68.01,159.33l-4.1-10.19c-0.19,0.03-0.38,0.06-0.57,0.1l4.06,10.1h0.61V159.33z"></path>
    <path fill="#FFFFFF" d="M62.33,159.33l-6.6-6.87c-0.15,0.11-0.3,0.23-0.45,0.34l6.27,6.52L62.33,159.33L62.33,159.33z"></path>
    <path fill="#FFFFFF" d="M74.51,159.33l4.28-5.43c-0.14-0.13-0.28-0.26-0.42-0.38l-4.58,5.81H74.51z"></path>
    <path fill="#FFFFFF" d="M92.39,159.33l-0.63-6.81c-0.19,0.02-0.38,0.03-0.56,0.06l0.62,6.75H92.39z"></path>
    <path fill="#FFFFFF" d="M96.75,159.33l3.85-4.22c-0.15-0.11-0.3-0.23-0.46-0.33l-4.15,4.56L96.75,159.33L96.75,159.33z"></path>
    <path fill="#FFFFFF" d="M149.24,129.32h-16.35v-8.95h16.35V129.32z M133.45,128.76h15.22v-7.82h-15.22V128.76z"></path>
    <path fill="#FFFFFF" d="M149.24,156.49h-16.35v-24.5h16.35V156.49z M133.45,155.93h15.22v-23.37h-15.22V155.93z"></path>
    <linearGradient id="SVGID_4_" gradientUnits="userSpaceOnUse" x1="168.83" y1="43.6579" x2="168.83" y2="-2.1765" gradientTransform="matrix(1 0 0 -1 0 200)">
        <stop offset="0" style="stop-color:#D6D6D6"></stop>
        <stop offset="1" style="stop-color:#FFFFFF;stop-opacity:0"></stop>
    </linearGradient>
    <path opacity="0.5" fill="url(#SVGID_4_)" enable-background="new    " d="M200.41,159.33h-5.54l0,0H104.4H86.38H49.66
	c9.42,4.73,19.55,7.88,26.59,7.88c6.51,0,8.91-2.69,7.32-6.83c5.3,2.35,10.65,3.89,14.79,4.11l65.07,28.05H288l-33.72-12.03
	l-14.73-21.59l-1,0.55l3.34,4.89h-17.78l-3.65-5.18l-1.01,0.29l3.59,4.89h-8.32c-0.09-0.24-0.22-0.49-0.38-0.75
	c0-0.01-0.01-0.01-0.01-0.02c0.34,0.03,0.67,0.06,0.97,0.06c1.62,0,2.45-0.48,2.5-1.27c0.01-0.2-0.03-0.41-0.12-0.64
	c-0.27-0.69-0.98-1.52-2.14-2.42h-6.07h-5.65h-1.72L200.41,159.33L200.41,159.33z M223.45,165.01l3.94,5.92l-12.98-4.63
	c0.31-0.31,0.46-0.7,0.45-1.14c0-0.01,0-0.02,0-0.03c0-0.04,0-0.08-0.01-0.12H223.45z"></path>
    <linearGradient id="SVGID_5_" gradientUnits="userSpaceOnUse" x1="140.675" y1="148.1372" x2="140.675" y2="62.1328" gradientTransform="matrix(1 0 0 -1 0 200)">
        <stop offset="0" style="stop-color:#202124"></stop>
        <stop offset="1" style="stop-color:#202124;stop-opacity:0"></stop>
    </linearGradient>
    <polygon opacity="0.82" fill="url(#SVGID_5_)" enable-background="new    " points="143.74,159.33 86.38,159.35 86.36,110.47 
	194.99,110.17 "></polygon>
    <path fill="#FABB04" d="M238.59,159.46l0.99-0.26l-10.6-39.87h-20.31l-8.18,39.9l1,0.21l1.85-9.02h13.68l2.5,9.05l0.98-0.27
	l-2.43-8.78h18.11L238.59,159.46z M203.55,149.4l5.62-27.37l7.57,27.37H203.55z"></path>
    <path fill="#4285F4" d="M83.09,73.21v33.11v4.09c0,1.76,1.43,3.19,3.19,3.19h0.01c1.76,0,3.19-1.43,3.19-3.19
	c0,1.76,1.43,3.19,3.19,3.19h0.01c1.76,0,3.19-1.43,3.19-3.19c0,1.76,1.43,3.19,3.19,3.19h0.01c1.76,0,3.19-1.43,3.19-3.19
	c0,1.76,1.43,3.19,3.19,3.19h0.01c1.76,0,3.19-1.43,3.19-3.19c0,1.76,1.43,3.19,3.19,3.19h0.01c1.76,0,3.19-1.43,3.19-3.19
	c0,1.76,1.43,3.19,3.19,3.19h0.01c1.76,0,3.19-1.43,3.19-3.19c0,1.76,1.43,3.19,3.19,3.19h0.01c1.76,0,3.19-1.43,3.19-3.19
	c0,1.76,1.43,3.19,3.19,3.19h0.01c1.76,0,3.19-1.43,3.19-3.19c0,1.76,1.43,3.19,3.19,3.19h0.01c1.76,0,3.19-1.43,3.19-3.19
	c0,1.76,1.43,3.19,3.19,3.19h0.01c1.76,0,3.19-1.43,3.19-3.19c0,1.76,1.43,3.19,3.19,3.19h0.01c1.76,0,3.19-1.43,3.19-3.19
	c0,1.76,1.43,3.19,3.19,3.19h0.01c1.76,0,3.19-1.43,3.19-3.19c0,1.76,1.43,3.19,3.19,3.19h0.01c1.76,0,3.19-1.43,3.19-3.19
	c0,1.76,1.43,3.19,3.19,3.19h0.01c1.76,0,3.19-1.43,3.19-3.19c0,1.76,1.43,3.19,3.19,3.19h0.01c1.76,0,3.19-1.43,3.19-3.19
	c0,1.76,1.43,3.19,3.19,3.19h0.01c1.76,0,3.19-1.43,3.19-3.19c0,1.76,1.43,3.19,3.19,3.19h0.01c1.76,0,3.19-1.43,3.19-3.19v0.01
	c0,1.76,1.43,3.18,3.2,3.18l0,0c1.77,0,3.2-1.42,3.2-3.18v-4.1v-0.03V73.21H83.09z"></path>
    <path fill="#FFFFFF" d="M172.69,73.21l-0.13,34.41h0.01v2.86c0.04,1.73,1.45,3.12,3.19,3.12h0.01c1.76,0,3.19-1.43,3.19-3.19
	c0,1.76,1.43,3.19,3.19,3.19h0.01c1.71,0,3.1-1.35,3.18-3.04v-2.94l0.13-34.41C185.47,73.21,172.69,73.21,172.69,73.21z"></path>
    <path fill="#FFFFFF" d="M147.01,107.62L147.01,107.62v2.86c0.04,1.73,1.45,3.12,3.19,3.12h0.01c1.76,0,3.19-1.43,3.19-3.19
	c0,1.76,1.43,3.19,3.19,3.19h0.01c1.71,0,3.1-1.35,3.18-3.04v-2.94l0.13-34.41h-12.77L147.01,107.62z"></path>
    <path fill="#FFFFFF" d="M121.45,107.62L121.45,107.62v2.86c0.04,1.73,1.45,3.12,3.19,3.12h0.01c1.76,0,3.19-1.43,3.19-3.19
	c0,1.76,1.43,3.19,3.19,3.19h0.02c1.71,0,3.1-1.35,3.18-3.04v-2.94l0.13-34.41h-12.77L121.45,107.62z"></path>
    <path fill="#FFFFFF" d="M95.87,107.62L95.87,107.62v2.86c0.04,1.73,1.45,3.12,3.19,3.12h0.01c1.76,0,3.19-1.43,3.19-3.19
	c0,1.76,1.43,3.19,3.19,3.19h0.01c1.71,0,3.1-1.35,3.18-3.04v-2.94l0.13-34.41H96.01L95.87,107.62z"></path>
    <linearGradient id="SVGID_6_" gradientUnits="userSpaceOnUse" x1="207.5034" y1="200.5597" x2="146.026" y2="117.6093" gradientTransform="matrix(1 0 0 -1 0 200)">
        <stop offset="0" style="stop-color:#F1F3F4"></stop>
        <stop offset="1" style="stop-color:#F1F3F4;stop-opacity:0"></stop>
    </linearGradient>
    <rect x="83.09" y="73.21" fill="url(#SVGID_6_)" width="115.06" height="32.95"></rect>
    <linearGradient id="SVGID_7_" gradientUnits="userSpaceOnUse" x1="140.635" y1="94.3526" x2="140.635" y2="80.2034" gradientTransform="matrix(1 0 0 -1 0 200)">
        <stop offset="0.1061" style="stop-color:#202124;stop-opacity:0.1"></stop>
        <stop offset="1" style="stop-color:#202124;stop-opacity:0"></stop>
    </linearGradient>
    <path fill="url(#SVGID_7_)" d="M191.75,106.32h-6.39h-6.39h-6.39h-6.39h-6.39h-6.39h-6.39h-6.39h-6.39h-6.39h-6.39h-6.39h-6.39
	h-6.39H95.9h-6.39h-6.39v4.09c0,1.76,1.43,3.19,3.19,3.19h0.01c1.76,0,3.19-1.43,3.19-3.19c0,1.76,1.43,3.19,3.19,3.19h0.01
	c1.76,0,3.19-1.43,3.19-3.19c0,1.76,1.43,3.19,3.19,3.19h0.01c1.76,0,3.19-1.43,3.19-3.19c0,1.76,1.43,3.19,3.19,3.19h0.01
	c1.76,0,3.19-1.43,3.19-3.19c0,1.76,1.43,3.19,3.19,3.19h0.01c1.76,0,3.19-1.43,3.19-3.19c0,1.76,1.43,3.19,3.19,3.19h0.01
	c1.76,0,3.19-1.43,3.19-3.19c0,1.76,1.43,3.19,3.19,3.19h0.01c1.76,0,3.19-1.43,3.19-3.19c0,1.76,1.43,3.19,3.19,3.19h0.01
	c1.76,0,3.19-1.43,3.19-3.19c0,1.76,1.43,3.19,3.19,3.19h0.01c1.76,0,3.19-1.43,3.19-3.19c0,1.76,1.43,3.19,3.19,3.19h0.01
	c1.76,0,3.19-1.43,3.19-3.19c0,1.76,1.43,3.19,3.19,3.19h0.01c1.76,0,3.19-1.43,3.19-3.19c0,1.76,1.43,3.19,3.19,3.19h0.01
	c1.76,0,3.19-1.43,3.19-3.19c0,1.76,1.43,3.19,3.19,3.19H163c1.76,0,3.19-1.43,3.19-3.19c0,1.76,1.43,3.19,3.19,3.19h0.01
	c1.76,0,3.19-1.43,3.19-3.19c0,1.76,1.43,3.19,3.19,3.19h0.01c1.76,0,3.19-1.43,3.19-3.19c0,1.76,1.43,3.19,3.19,3.19h0.01
	c1.76,0,3.19-1.43,3.19-3.19c0,1.76,1.43,3.19,3.19,3.19h0.01c1.76,0,3.19-1.43,3.19-3.19v0.01c0,1.76,1.43,3.18,3.2,3.18l0,0
	c1.77,0,3.2-1.42,3.2-3.18v-4.14L191.75,106.32z"></path>
    <path fill="#34A853" d="M245.67,58.4c0-0.74-0.08-1.45-0.22-2.15c-0.99-4.75-5.22-8.33-10.26-8.33H211.2
	c-5.78,0-10.48,4.7-10.48,10.48c0,5.38,4.03,9.86,9.37,10.42c0.32,0.03,0.57,0.31,0.57,0.63v4.98l5.22-5.35
	c0.12-0.12,0.28-0.19,0.45-0.19h14.21h4.66C240.96,68.88,245.67,64.18,245.67,58.4z"></path>
    <linearGradient id="SVGID_8_" gradientUnits="userSpaceOnUse" x1="94.9949" y1="125.6078" x2="78.8063" y2="103.4137" gradientTransform="matrix(1 0 0 -1 0 200)">
        <stop offset="0" style="stop-color:#202124"></stop>
        <stop offset="0.6727" style="stop-color:#202124;stop-opacity:0"></stop>
    </linearGradient>
    <polygon opacity="0.25" fill="url(#SVGID_8_)" enable-background="new    " points="83.08,105.38 104.36,82.15 83.08,70.13 "></polygon>
    <path id="asset_x5F_08_14_" fill="#E8EAED" d="M62.37,80.71c-18.11-6.9-27.19-27.18-20.29-45.29S69.25,8.23,87.36,15.13
	s27.2,27.18,20.29,45.29c-1.45,3.81-3.5,7.22-6,10.16l2.7,11.57l-9.94-5.1C85.28,83.17,73.42,84.92,62.37,80.71z"></path>
    <linearGradient id="asset_x5F_08_1_" gradientUnits="userSpaceOnUse" x1="41.6545" y1="178.2425" x2="101.0257" y2="131.4717" gradientTransform="matrix(1 0 0 -1 0 200)">
        <stop offset="0" style="stop-color:#FFFFFF;stop-opacity:0.6"></stop>
        <stop offset="1" style="stop-color:#E8EAED"></stop>
    </linearGradient>
    <path id="asset_x5F_08_7_" fill="url(#asset_x5F_08_1_)" d="M62.37,80.71c-18.11-6.9-27.19-27.18-20.29-45.29
	S69.25,8.23,87.36,15.13s27.2,27.18,20.29,45.29c-1.45,3.81-3.5,7.22-6,10.16l2.7,11.57l-9.94-5.1
	C85.28,83.17,73.42,84.92,62.37,80.71z"></path>
    <path fill="#4285F4" d="M93.89,44.71l-8.79,1.95l-1.63-7.33l8.79-1.95c0.65-0.16,1.47,0.16,1.79,0.81c0.33,0.49,0.49,1.3,0.81,2.44
	s0.33,1.95,0.33,2.44C95.19,43.9,94.7,44.55,93.89,44.71z"></path>
    <linearGradient id="SVGID_9_" gradientUnits="userSpaceOnUse" x1="70.1499" y1="1812.0862" x2="96.671" y2="1806.2662" gradientTransform="matrix(1 0 0 1 0 -1766)">
        <stop offset="0" style="stop-color:#202124"></stop>
        <stop offset="1" style="stop-color:#202124;stop-opacity:0"></stop>
    </linearGradient>
    <path fill="url(#SVGID_9_)" d="M93.89,44.71l-8.79,1.95l-1.63-7.33l8.79-1.95c0.65-0.16,1.47,0.16,1.79,0.81
	c0.33,0.49,0.49,1.3,0.81,2.44s0.33,1.95,0.33,2.44C95.19,43.9,94.7,44.55,93.89,44.71z"></path>
    <path fill="#4285F4" d="M71.75,66.37c0.16,1.63-0.98,3.26-2.77,3.58l0,0c-1.63,0.33-2.93-0.49-3.26-0.65L62.3,54l8.63-1.95
	L71.75,66.37z"></path>
    <linearGradient id="SVGID_10_" gradientUnits="userSpaceOnUse" x1="68.7394" y1="1794.8977" x2="66.6976" y2="1832.5569" gradientTransform="matrix(1 0 0 1 0 -1766)">
        <stop offset="0" style="stop-color:#202124"></stop>
        <stop offset="1" style="stop-color:#202124;stop-opacity:0"></stop>
    </linearGradient>
    <path fill="url(#SVGID_10_)" d="M71.75,66.37c0.16,1.63-0.98,3.26-2.77,3.58l0,0c-1.63,0.33-2.93-0.49-3.26-0.65L62.3,54l8.63-1.95
	L71.75,66.37z"></path>
    <linearGradient id="SVGID_11_" gradientUnits="userSpaceOnUse" x1="57.2998" y1="1758.4536" x2="76.68" y2="1829.2098" gradientTransform="matrix(1 0 0 1 0 -1766)">
        <stop offset="0" style="stop-color:#FFFFFF"></stop>
        <stop offset="0.837" style="stop-color:#4285F4"></stop>
    </linearGradient>
    <path fill="url(#SVGID_11_)" d="M85.91,28.27L85.91,28.27C85.91,28.27,85.91,28.11,85.91,28.27C85.91,28.11,85.75,28.27,85.91,28.27
	C85.75,28.27,85.75,28.27,85.91,28.27c-1.47,0.81-3.91,1.79-5.37,2.44c-0.81,0.33-1.3,0.98-1.47,1.95
	c-1.14,0.65-2.28,1.14-3.09,1.63c-2.6,1.14-3.91,1.63-5.05,1.95c-2.12,0.65-4.72,1.14-5.37,1.3c-0.16,0-0.33,0-0.49,0.16
	c-2.77,0.65-4.88,2.77-5.86,5.37l-3.09,0.65c-1.63,0.33-2.77,2.12-2.28,3.74l1.14,5.21c0.33,1.63,2.12,2.77,3.74,2.44l2.93-0.65
	c1.95,1.95,4.72,2.93,7.49,2.6c0.16,0,0.33,0,0.49,0c1.79-0.49,3.74-0.98,6.02-1.3c1.47-0.16,2.6-0.33,5.21-0.49
	c0.81,0,1.79,0,2.93,0c0.33,0.65,1.14,1.14,1.95,1.14c1.63,0,4.23,0,6.02,0.16C89.66,46.99,87.7,37.55,85.91,28.27z"></path>
    <path fill="#FFFFFF" d="M83.79,55.3l-4.72-22.63c-0.07,0.03-0.93,0.5-0.98,0.52l4.57,22.11C83.06,55.3,83.42,55.3,83.79,55.3z"></path>
</svg>
