<svg xmlns="http://www.w3.org/2000/svg" width="36px" height="36px" viewBox="0 0 36 36">
<path fill="#FFFFFF" d="M14.2,25.99c-1.14-0.77-1.93-1.9-2.37-3.39l2.65-1.09c0.24,0.92,0.66,1.63,1.26,2.13s1.32,0.75,2.17,0.75
c0.87,0,1.61-0.26,2.24-0.79c0.62-0.53,0.94-1.2,0.94-2.01c0-0.83-0.33-1.51-0.99-2.04c-0.66-0.53-1.48-0.79-2.47-0.79H16.1v-2.63
h1.38c0.85,0,1.56-0.23,2.15-0.69c0.58-0.46,0.87-1.09,0.87-1.89c0-0.71-0.26-1.28-0.78-1.7s-1.18-0.64-1.98-0.64
c-0.78,0-1.4,0.21-1.86,0.62c-0.46,0.42-0.79,0.93-1,1.53l-2.63-1.09c0.35-0.99,0.99-1.86,1.92-2.61c0.94-0.75,2.13-1.13,3.59-1.13
c1.07,0,2.04,0.21,2.9,0.62c0.86,0.42,1.53,0.99,2.01,1.73c0.49,0.74,0.73,1.56,0.73,2.48c0,0.94-0.22,1.73-0.68,2.38
s-1,1.15-1.66,1.49v0.16c0.87,0.36,1.58,0.92,2.13,1.66c0.55,0.75,0.83,1.64,0.83,2.68c0,1.04-0.27,1.97-0.79,2.78
s-1.26,1.46-2.18,1.92c-0.93,0.47-1.97,0.7-3.13,0.7C16.59,27.15,15.35,26.77,14.2,25.99z"/>
</svg>