<?xml version="1.0" encoding="utf-8"?>
<!-- Generator: Adobe Illustrator 23.0.4, SVG Export Plug-In . SVG Version: 6.00 Build 0)  -->
<svg version="1.1" id="Layer_1" xmlns="http://www.w3.org/2000/svg" xmlns:xlink="http://www.w3.org/1999/xlink" x="0px" y="0px"
	 width="36px" height="36px" viewBox="0 0 36 36" enable-background="new 0 0 36 36" xml:space="preserve">
<path d="M21,4.84C27.01,6.21,31.5,11.58,31.5,18S27.01,29.79,21,31.16v-3.09c4.33-1.29,7.5-5.31,7.5-10.07S25.33,9.23,21,7.93V4.84z
	 M24.75,18c0,2.65-1.53,4.94-3.75,6.03V11.95C23.22,13.07,24.75,15.34,24.75,18z M15,13.25l-3.26,3.25H7.5v3h4.24L15,22.76V13.25z
	 M4.5,13.5h6L18,6v24l-7.5-7.5h-6V13.5z"/>
</svg>
