<svg xmlns="http://www.w3.org/2000/svg" width="36px" height="36px" viewBox="0 0 36 36">
<path fill="#FFFFFF" d="M15.28,26.62c-0.84-0.35-1.58-0.89-2.22-1.61c-0.64-0.72-1.09-1.61-1.35-2.67l2.57-1.01
c0.23,0.94,0.65,1.69,1.26,2.26s1.37,0.86,2.28,0.86c0.97,0,1.78-0.31,2.42-0.92s0.96-1.41,0.96-2.38s-0.32-1.77-0.95-2.4
c-0.63-0.63-1.44-0.95-2.43-0.95c-0.55,0-1.08,0.12-1.56,0.36c-0.49,0.24-0.88,0.58-1.2,1.01l-2.83-1.25l1.09-8.97h9.67v2.6h-7.28
l-0.65,4.68l0.16,0.03c0.9-0.71,1.95-1.07,3.15-1.07c1,0,1.95,0.25,2.82,0.75c0.88,0.5,1.57,1.21,2.09,2.11
c0.52,0.9,0.78,1.92,0.78,3.07c0,1.14-0.27,2.18-0.81,3.09c-0.54,0.92-1.28,1.64-2.22,2.16s-2.01,0.78-3.18,0.78
C16.98,27.15,16.12,26.97,15.28,26.62z"/>
</svg>