<svg version="1.1" xmlns:xlink="http://www.w3.org/1999/xlink" x="0px" y="0px" width="2850px" height="1800px" viewBox="0 0 2850 1800" xml:space="preserve"><g><linearGradient id="a" gradientUnits="userSpaceOnUse" x1="609.7731" y1="2065.3914" x2="379.9356" y2="2463.4814" gradientTransform="matrix(1 0 0 1 0 -462)"><stop offset="0" style="stop-color:#202124;stop-opacity:0.15"/><stop offset="0.0295" style="stop-color:#202124;stop-opacity:0.1455"/><stop offset="0.1109" style="stop-color:#202124;stop-opacity:0.1333"/><stop offset="1" style="stop-color:#202124;stop-opacity:0"/></linearGradient><rect x="130.57" y="1685.43" fill="url(#a)" width="835.86" height="48.21"/><path fill="#BDC3C8" d="M1984.65,1741.09H976.38c-39.98,0-72.39-32.41-72.39-72.39V255.58c0-39.98,32.41-72.39,72.39-72.39h1008.27 c39.98,0,72.39,32.41,72.39,72.39V1668.7C2057.04,1708.68,2024.63,1741.09,1984.65,1741.09z"/><path fill="#E8EAED" d="M980.42,1623.43l1.94-1215.6c0.03-19.99,16.26-36.17,36.25-36.14l927.63,1.48 c19.99,0.03,36.17,16.26,36.14,36.25l-1.94,1215.6c-0.03,19.99-16.26,36.17-36.25,36.14l-927.63-1.48 C996.57,1659.66,980.39,1643.43,980.42,1623.43z"/><path fill="#979DA5" d="M1819.46,645.9c-0.04,0-0.08,0-0.12,0l-426.71-3.29c-8.49-0.06-15.33-7-15.26-15.5 c0.07-8.45,6.94-15.26,15.38-15.26c0.04,0,0.08,0,0.12,0l426.71,3.29c8.49,0.06,15.33,7,15.26,15.5 C1834.77,639.09,1827.9,645.9,1819.46,645.9z"/><path fill="#979DA5" d="M1819.46,876.43c-0.04,0-0.08,0-0.12,0l-426.71-3.3c-8.5-0.06-15.33-7.01-15.26-15.5 c0.07-8.45,6.94-15.26,15.38-15.26c0.04,0,0.08,0,0.12,0l426.71,3.3c8.5,0.06,15.33,7.01,15.26,15.5 C1834.77,869.62,1827.9,876.43,1819.46,876.43z"/><path fill="#979DA5" d="M1819.46,1115.1c-0.04,0-0.08,0-0.12,0l-426.71-3.3c-8.49-0.07-15.33-7-15.26-15.5 c0.07-8.45,6.94-15.26,15.38-15.26c0.04,0,0.08,0,0.12,0l426.71,3.3c8.49,0.07,15.33,7,15.26,15.5 C1834.77,1108.29,1827.9,1115.1,1819.46,1115.1z"/><path fill="#979DA5" d="M1819.46,1358.29c-0.04,0-0.08,0-0.12,0l-426.71-3.3c-8.49-0.07-15.33-7-15.26-15.5 c0.07-8.45,6.94-15.26,15.38-15.26c0.04,0,0.08,0,0.12,0l426.71,3.3c8.49,0.07,15.33,7,15.26,15.5 C1834.77,1351.49,1827.9,1358.29,1819.46,1358.29z"/><g transform="translate(69.509521, 52.000000)"><path fill-rule="evenodd" clip-rule="evenodd" fill="#979DA5" d="M1081.76,715.9h51.72l15.78,17.24h27.32 c9.53,0,17.24,7.72,17.24,17.24v103.44c0,9.53-7.72,17.24-17.24,17.24h-137.92c-9.53,0-17.24-7.72-17.24-17.24V750.37 c0-9.53,7.72-17.24,17.24-17.24h27.32L1081.76,715.9z M1107.62,845.2c23.79,0,43.1-19.31,43.1-43.1 c0-23.79-19.31-43.11-43.1-43.11s-43.1,19.31-43.1,43.1S1083.82,845.2,1107.62,845.2z M1107.62,829.69 c-15.23,0-27.58-12.35-27.58-27.58c0-15.23,12.35-27.58,27.58-27.58s27.59,12.34,27.59,27.57S1122.86,829.69,1107.62,829.69z"/></g><polygon fill-rule="evenodd" clip-rule="evenodd" fill="#979DA5" points="1233.3,1164.43 1211.68,1100.56 1267.65,1061.12 1199.01,1061.12 1177.13,996.33 1155.24,1061.12 1086.62,1061.12 1142.58,1100.56 1120.96,1164.43 1177.13,1124.55"/><path fill="#979DA5" d="M1086.62,685.99h25.86V582.55h-25.86V685.99z M1267.65,593.54c0-9.25-7.27-16.81-16.16-16.81h-51 l7.68-38.42l0.25-2.69c0-3.44-1.37-6.63-3.56-8.91l-8.57-8.82l-53.17,55.39c-2.99,3.03-4.77,7.23-4.77,11.86v84.05 c0,9.25,7.27,16.81,16.16,16.81h72.73c6.71,0,12.45-4.2,14.87-10.25l24.4-59.26c0.72-1.94,1.14-3.96,1.14-6.13 C1267.65,610.36,1267.65,593.54,1267.65,593.54z"/><path fill-rule="evenodd" clip-rule="evenodd" fill="#979DA5" d="M1137.31,1343.79l26.79-28.21l-66.41-69.94 c-14.77,15.56-14.77,40.82,0,56.38L1137.31,1343.79L1137.31,1343.79z M1201.53,1325.7c14.43,7.12,34.83,2.09,49.89-13.76 c18.13-19.09,21.58-46.36,7.72-60.97c-13.91-14.61-39.85-10.97-57.93,8.12c-15.05,15.85-19.78,37.33-13.06,52.54 c-21.06,22.14-92.44,97.3-92.44,97.3l13.4,14.11l65.13-68.58l65.13,68.58l13.4-14.11l-65.13-68.58L1201.53,1325.7L1201.53,1325.7z"/><path fill="#979DA5" d="M1747.48,238.19c-134.48-0.21-175.74-46.89-183.61-120.07c0.31-2.95,0.5-5.92,0.5-8.95 c0.08-46.37-37.46-84.02-83.83-84.09c-46.37-0.08-84.02,37.46-84.09,83.83c-5.72,78.35-44.99,128.67-184.91,128.45 c-139.93-0.22-196.09,117.23-196.09,117.23l426.79,0.67l34.98,0.05l465.98,0.72C1943.21,356.04,1887.41,238.41,1747.48,238.19z M1480.35,150.04c-22.65-0.04-40.98-18.43-40.95-41.07c0.03-22.64,18.43-40.98,41.07-40.95c22.65,0.04,40.98,18.43,40.95,41.07 C1521.39,131.73,1503,150.08,1480.35,150.04z"/><linearGradient id="b" gradientUnits="userSpaceOnUse" x1="1772.1279" y1="2137.8079" x2="1614.5245" y2="2410.7852" gradientTransform="matrix(1 0 0 1 0 -462)"><stop offset="0" style="stop-color:#202124;stop-opacity:0.15"/><stop offset="0.0873" style="stop-color:#202124;stop-opacity:0.1369"/><stop offset="1" style="stop-color:#202124;stop-opacity:0"/></linearGradient><rect x="1439.71" y="1734.27" fill="url(#b)" width="580.78" height="28.65"/><circle fill="#979DA5" cx="2019.14" cy="1492.3" r="268.3"/><path fill="#FFFFFF" d="M1987.82,1581.76c-4.5,0-8.81-1.87-11.87-5.19l-64.88-70.23c-6.06-6.56-5.65-16.79,0.9-22.84 c6.56-6.06,16.79-5.65,22.84,0.9l51.67,55.93l122.58-164.71c5.33-7.16,15.46-8.64,22.62-3.32c7.16,5.33,8.65,15.46,3.32,22.62 l-134.21,180.33c-2.87,3.86-7.31,6.23-12.11,6.49C1988.39,1581.75,1988.1,1581.76,1987.82,1581.76z"/></g></svg>
