<svg xmlns="http://www.w3.org/2000/svg" width="119" height="86" viewBox="0 0 119.05251 86.030289"><path d="M18 48.7h31.6a8.9 8.9 0 0 1 0 17.7l-39.3.4a8.9 8.9 0 0 0 0 17.8h79.4" fill="none" stroke="#4285f4" stroke-width="2.8" stroke-miterlimit="10"/><path d="M35.4 17.3a17.3 17.3 0 1 1-34.6 0 17.3 17.3 0 0 1 34.6 0" fill="#34a853"/><path d="M24.7 17.3a6.6 6.6 0 1 1-13.2 0 6.6 6.6 0 0 1 13.2 0" fill="#fff"/><path d="M18 50.1l-14.8-24L33 26z" fill="#34a853"/><path d="M119 30.3a29.3 29.3 0 1 1-58.6 0 29.3 29.3 0 0 1 58.7 0" fill="#ea4335"/><path d="M100.9 30.3a11.2 11.2 0 1 1-22.3 0 11.2 11.2 0 0 1 22.3 0" fill="none" stroke="#fff" stroke-width="3" stroke-miterlimit="10"/><path d="M89.7 86L64.5 45.2l50.6-.4z" fill="#ea4335"/></svg>