<svg width="20" height="20" viewBox="0 0 20 20" xmlns="http://www.w3.org/2000/svg"><title>ic_trip_reservations_20px@1x</title><g fill="none" fill-rule="evenodd"><path d="M11.5125 17.7875c.01458.76458.6375 1.37917 1.40417 1.37917.76666 0 1.38958-.61459 1.40416-1.37917v-.6h-2.81041l.00208.6zM5.625 17.7875c.01458.76458.6375 1.37917 1.40417 1.37917.76666 0 1.38958-.61459 1.40416-1.37917v-.6H5.625v.6zM7.76042.83333c-.37292 0-.67709.30209-.67709.67709V5H8.4375V2.1875h3.125V5h1.35208V1.51042c0-.37292-.30416-.67709-.67708-.67709H7.76042z" fill="#1967D2" fill-rule="nonzero"/><path d="M14.375 4.27083c.74792 0 1.35417.60625 1.35417 1.35417l-.00002.99783-5.72908 5.7295-5.72992-5.7305.00068-.99683c0-.70392.53703-1.28235 1.22375-1.34797l.13042-.0062z" fill="#EA4335" fill-rule="nonzero"/><path d="M10.00114 9.35096l5.72707 5.727.00096 1.16996c0 .70392-.53703 1.28235-1.22375 1.34796l-.13042.0062h-8.75c-.74792 0-1.35417-.60625-1.35417-1.35416l-.00062-1.16596 5.73093-5.731z" fill="#34A853" fill-rule="nonzero"/><path d="M4.34114 5.19315l5.65867 5.65757-5.69591 5.69595a1.35886 1.35886 0 0 1-.03307-.29875V5.625c0-.151.02471-.29623.07031-.43185z" fill="#FBBC04" fill-rule="nonzero"/><path d="M15.6592 5.19415c.04538.13534.06997.28022.06997.43085v10.62292c0 .10158-.01119.20055-.03239.29574l-4.02595-4.02491c-.86041.82708-2.22708.81875-3.075-.02917-.85833-.85625-.85833-2.24791 0-3.10625.81667-.81875 2.12084-.85416 2.98334-.11041z" fill="#4285F4"/><path d="M13.2875 10.33125h-3.13958v1.28958h1.79375c-.07709.41667-.3125.76875-.66459 1.00625-.29791.2-.68125.31875-1.12916.31875-.86875 0-1.60209-.58541-1.86459-1.375-.06666-.2-.10416-.41458-.10416-.63333 0-.21875.0375-.43333.10416-.63333.2625-.7875.99792-1.375 1.86459-1.375.48958 0 .92916.16875 1.275.49791l.95625-.95625c-.57709-.5375-1.33125-.86875-2.23125-.86875-1.30209 0-2.43125.74792-2.97917 1.83542-.225.45-.35417.95833-.35417 1.49792 0 .5375.12917 1.04791.35417 1.49791.54792 1.08959 1.675 1.83542 2.97917 1.83542.9 0 1.65416-.29792 2.20625-.80833.63125-.58125.99375-1.43542.99375-2.45 0-.23334-.02084-.46042-.06042-.67917z" fill="#FFF"/></g></svg>