<svg xmlns="http://www.w3.org/2000/svg" width="320" height="120" viewBox="0 0 320 120">
  <g fill="none" fill-rule="evenodd">
    <rect width="320" height="120" fill="#FFF" fill-rule="nonzero"/>
    <g transform="translate(0 6)">
      <g transform="translate(253 23)">
        <rect width="66.4" height="90.564" x=".6" y=".315" fill="#BABFC5" fill-rule="nonzero"/>
        <rect width="12.764" height="16.913" x="8.259" y="25.606" stroke="#FFF" stroke-linecap="round" stroke-linejoin="round" stroke-width="1.591"/>
        <rect width="12.764" height="16.913" x="27.724" y="25.606" stroke="#FFF" stroke-linecap="round" stroke-linejoin="round" stroke-width="1.591"/>
        <rect width="12.764" height="16.913" x="46.831" y="25.606" stroke="#FFF" stroke-linecap="round" stroke-linejoin="round" stroke-width="1.591"/>
        <path stroke="#FFF" stroke-linecap="round" stroke-linejoin="round" stroke-width="1.591" d="M8.151,34.514 L21.023,34.514 M28.201,34.514 L40.012,34.514 M46.977,34.514 L59.319,34.514"/>
        <rect width="22.349" height="20.103" x="8.511" y="57.438" stroke="#FFF" stroke-linecap="round" stroke-linejoin="round" stroke-width="1.591"/>
        <g fill-rule="nonzero" transform="translate(37 56)">
          <rect width="18.452" height="34.16" x=".753" y=".719" fill="#FFF"/>
          <rect width="5.405" height="9.559" x=".755" y=".702" fill="#E4A424"/>
          <polygon fill="#F9BC15" points="19.743 .7 .756 .7 6.101 10.273 25.088 10.273"/>
          <polygon fill="#E4A424" points="8.323 .692 4.54 .692 9.885 10.265 13.668 10.265"/>
          <polygon fill="#E4A424" points="15.92 .692 12.137 .692 17.482 10.265 21.265 10.265"/>
          <path fill="#F9BC15" d="M6.093,10.265 C6.091,10.278 6.089,10.291 6.089,10.305 C6.089,11.355 6.94,12.206 7.99,12.206 C9.04,12.206 9.891,11.355 9.891,10.305 C9.891,10.291 9.889,10.278 9.887,10.265 L6.093,10.265 Z"/>
          <path fill="#E4A424" d="M9.89,10.265 C9.888,10.278 9.886,10.291 9.886,10.305 C9.886,11.355 10.737,12.206 11.787,12.206 C12.837,12.206 13.688,11.355 13.688,10.305 C13.688,10.291 13.686,10.278 13.684,10.265 L9.89,10.265 Z"/>
          <path fill="#F9BC15" d="M13.689,10.268 C13.687,10.281 13.685,10.294 13.685,10.308 C13.685,11.358 14.536,12.209 15.586,12.209 C16.636,12.209 17.487,11.358 17.487,10.308 C17.487,10.294 17.485,10.281 17.483,10.268 L13.689,10.268 Z"/>
          <path fill="#E4A424" d="M17.488,10.268 C17.486,10.281 17.484,10.294 17.484,10.308 C17.484,11.358 18.335,12.209 19.385,12.209 C20.435,12.209 21.286,11.358 21.286,10.308 C21.286,10.294 21.284,10.281 21.282,10.268 L17.488,10.268 Z"/>
          <path fill="#F9BC15" d="M21.317,10.268 C21.315,10.281 21.313,10.294 21.313,10.308 C21.313,11.358 22.164,12.209 23.214,12.209 C24.264,12.209 25.115,11.358 25.115,10.308 C25.115,10.294 25.113,10.281 25.111,10.268 L21.317,10.268 Z"/>
        </g>
      </g>
      <g transform="translate(0 29)">
        <rect width="64.712" height="84.357" y=".581" fill="#E2E2E6" fill-rule="nonzero"/>
        <path stroke="#979DA5" stroke-linecap="round" stroke-linejoin="round" stroke-width="1.637" d="M17.754,22.314 L17.754,10 C17.754,5.103 13.785,1.134 8.888,1.134 C3.991,1.134 0.022,5.104 0.022,10 L0.022,22.314 L17.754,22.314 Z M46.839,22.314 L46.839,9.846 C46.839,4.949 42.87,0.98 37.973,0.98 C33.076,0.98 29.107,4.949 29.107,9.846 L29.107,22.315 L46.839,22.315 L46.839,22.314 Z" transform="translate(9 13)"/>
        <rect width="24.372" height="27.767" x="20.17" y="57.171" fill="#696D72" fill-rule="nonzero"/>
        <g stroke="#979DA5" transform="translate(28 56)">
          <path stroke-width="1.265" d="M4.356,29 L4.356,0.371"/>
          <path stroke-linecap="round" stroke-width="1.266" d="M0.662,17.24 L0.662,11.576 M8.05,17.24 L8.05,11.576"/>
        </g>
        <g fill="#557EBF" fill-rule="nonzero" transform="translate(20 45)">
          <path d="M24.769,12.532 C24.621,5.843 19.156,0.465 12.431,0.465 C5.706,0.465 0.241,5.843 0.093,12.532 L24.769,12.532 Z"/>
          <path d="M20.677,12.532 C20.578,5.843 16.926,0.465 12.431,0.465 C7.937,0.465 4.284,5.843 4.185,12.532 L20.677,12.532 Z" opacity=".4"/>
          <path d="M15.341,12.532 C15.306,5.843 14.017,0.465 12.431,0.465 C10.845,0.465 9.556,5.843 9.521,12.532 L15.341,12.532 Z"/>
        </g>
      </g>
      <g transform="translate(62)">
        <rect width="50.797" height="79.518" x="63.754" y="34.362" fill="#F2F2F2" fill-rule="nonzero"/>
        <g transform="translate(63 34)">
          <rect width="50.92" height="79.518" x=".689" y=".362" fill="#DFE1E5" fill-rule="nonzero"/>
          <path stroke="#979DA5" stroke-linecap="round" stroke-linejoin="round" stroke-width="1.429" d="M0.689,3.877 L51.859,3.877"/>
          <rect width="14.409" height="23.913" x="11.304" y="55.966" fill="#FFF" fill-rule="nonzero"/>
          <rect width="14.409" height="23.913" x="27.401" y="55.966" fill="#FFF" fill-rule="nonzero"/>
          <path stroke="#E2E2E6" stroke-width="1.429" d="M26.468,79.879 L26.468,51.305"/>
          <path fill="#EA4535" fill-rule="nonzero" d="M41.81,56.468 C41.531,48.346 34.877,41.843 26.687,41.843 L26.426,41.843 C18.236,41.843 11.582,48.346 11.303,56.468 L41.81,56.468 Z"/>
          <path fill="#B62825" fill-rule="nonzero" d="M34.939,55.028 C34.961,55.511 34.957,55.991 34.942,56.468 L41.81,56.468 C41.58,49.772 37.015,44.18 30.831,42.422 C33.261,46.05 34.732,50.403 34.939,55.028 Z" opacity=".5"/>
          <path fill="#FFF" fill-rule="nonzero" d="M34.98,27.548 L18.133,27.548 C14.361,27.548 11.303,24.49 11.303,20.718 L11.303,20.672 C11.303,16.9 14.361,13.842 18.133,13.842 L34.98,13.842 C38.752,13.842 41.81,16.9 41.81,20.672 L41.81,20.718 C41.81,24.49 38.752,27.548 34.98,27.548 Z"/>
          <path stroke="#979DA5" stroke-linecap="round" stroke-width="1.429" d="M22.372,68.862 L22.372,63.47 M30.565,68.862 L30.565,63.47"/>
          <path stroke="#DF392A" stroke-linecap="round" stroke-linejoin="round" stroke-width="1.429" d="M34.606,22.124 C32.596,22.124 32.596,19.266 30.586,19.266 C28.575,19.266 28.575,22.124 26.565,22.124 C24.551,22.124 24.551,19.266 22.537,19.266 C20.523,19.266 20.523,22.124 18.509,22.124"/>
        </g>
        <rect width="62.823" height="104.664" x="2.553" y="9.215" fill="#CED1D5" fill-rule="nonzero"/>
        <path stroke="#979DA5" stroke-linecap="round" stroke-linejoin="round" stroke-width="1.429" d="M19.032,0.37 L19.001,0.37 C16.444,0.37 14.372,2.443 14.372,4.999 L14.372,15.142 L23.661,15.142 L23.661,4.999 C23.661,2.443 21.588,0.37 19.032,0.37 Z M5.579,0.37 L5.548,0.37 C2.991,0.37 0.919,2.443 0.919,4.999 L0.919,15.142 L10.208,15.142 L10.208,4.999 C10.208,2.443 8.135,0.37 5.579,0.37 Z M32.485,0.37 L32.454,0.37 C29.897,0.37 27.825,2.443 27.825,4.999 L27.825,15.142 L37.114,15.142 L37.114,4.999 C37.114,2.443 35.042,0.37 32.485,0.37 Z M45.938,0.37 L45.907,0.37 C43.35,0.37 41.278,2.443 41.278,4.999 L41.278,15.142 L50.567,15.142 L50.567,4.999 C50.567,2.443 48.495,0.37 45.938,0.37 Z" transform="translate(8 23)"/>
        <path stroke="#979DA5" stroke-linecap="round" stroke-linejoin="round" stroke-width="1.429" d="M19.032,0.684 L19.001,0.684 C16.444,0.684 14.372,2.757 14.372,5.313 L14.372,15.456 L23.661,15.456 L23.661,5.313 C23.661,2.757 21.588,0.684 19.032,0.684 Z M5.579,0.684 L5.548,0.684 C2.991,0.684 0.919,2.757 0.919,5.313 L0.919,15.456 L10.208,15.456 L10.208,5.313 C10.208,2.757 8.135,0.684 5.579,0.684 Z M32.485,0.684 L32.454,0.684 C29.897,0.684 27.825,2.757 27.825,5.313 L27.825,15.456 L37.114,15.456 L37.114,5.313 C37.114,2.757 35.042,0.684 32.485,0.684 Z M45.938,0.684 L45.907,0.684 C43.35,0.684 41.278,2.757 41.278,5.313 L41.278,15.456 L50.567,15.456 L50.567,5.313 C50.567,2.757 48.495,0.684 45.938,0.684 Z" transform="translate(8 46)"/>
        <path stroke="#979DA5" stroke-linecap="round" stroke-linejoin="round" stroke-width="1.429" d="M67.696,9.295 L0.813,9.295 M67.696,13.189 L0.813,13.189"/>
        <rect width="31.907" height="21.458" x="29.099" y="82.09" fill="#FFF" fill-rule="nonzero"/>
        <path stroke="#979DA5" stroke-linecap="round" stroke-linejoin="round" stroke-width="1.429" d="M0.813,74.659 L67.696,74.659 M67.696,70.164 L0.813,70.164"/>
        <g transform="translate(2 82)">
          <g fill-rule="nonzero">
            <rect width="17.158" height="31.586" x="6.153" y=".294" fill="#FFF"/>
            <rect width="5.026" height="8.889" x="18.283" y=".276" fill="#E4A424" transform="rotate(-180 20.796 4.72)"/>
            <polygon fill="#F9BC15" points="5.654 .275 23.308 .275 18.338 9.177 .684 9.177"/>
            <polygon fill="#E4A424" points="16.272 .268 19.789 .268 14.819 9.17 11.302 9.17"/>
            <polygon fill="#E4A424" points="9.208 .268 12.725 .268 7.756 9.17 4.238 9.17"/>
            <path fill="#F9BC15" d="M18.346,9.169 C18.348,9.181 18.35,9.194 18.35,9.206 C18.35,10.182 17.559,10.973 16.583,10.973 C15.607,10.973 14.816,10.182 14.816,9.206 C14.816,9.193 14.818,9.181 14.82,9.169 L18.346,9.169 Z"/>
            <path fill="#E4A424" d="M14.815,9.169 C14.817,9.181 14.819,9.194 14.819,9.206 C14.819,10.182 14.028,10.973 13.052,10.973 C12.076,10.973 11.285,10.182 11.285,9.206 C11.285,9.193 11.287,9.181 11.289,9.169 L14.815,9.169 Z"/>
            <path fill="#F9BC15" d="M11.283,9.172 C11.285,9.184 11.287,9.197 11.287,9.209 C11.287,10.185 10.496,10.976 9.52,10.976 C8.544,10.976 7.753,10.185 7.753,9.209 C7.753,9.196 7.755,9.184 7.757,9.172 L11.283,9.172 Z"/>
            <path fill="#E4A424" d="M7.751,9.172 C7.753,9.184 7.755,9.197 7.755,9.209 C7.755,10.185 6.964,10.976 5.988,10.976 C5.012,10.976 4.221,10.185 4.221,9.209 C4.221,9.196 4.223,9.184 4.225,9.172 L7.751,9.172 Z"/>
            <path fill="#F9BC15" d="M4.19,9.172 C4.192,9.184 4.194,9.197 4.194,9.209 C4.194,10.185 3.403,10.976 2.427,10.976 C1.451,10.976 0.66,10.185 0.66,9.209 C0.66,9.196 0.662,9.184 0.664,9.172 L4.19,9.172 Z"/>
          </g>
          <path stroke="#979DA5" stroke-linecap="round" stroke-width="1.429" d="M19.789,20.847 L19.789,15.455"/>
        </g>
        <path stroke="#F8BB16" stroke-linecap="round" stroke-width="1.429" d="M0.631,4.185 C5.282,-0.466 12.822,-0.466 17.473,4.185 M6.194,6.941 L11.911,6.941" transform="translate(36 89)"/>
        <rect width="77.469" height="113.398" x="114.176" y=".482" fill="#CED1D5" fill-rule="nonzero"/>
        <rect width="77.661" height="27.91" x="113.997" y="74.88" fill="#F1F3F4" fill-rule="nonzero"/>
        <path stroke="#979DA5" stroke-linecap="round" stroke-linejoin="round" stroke-width="1.429" d="M113.713,102.862 L191.6,102.862 M113.713,11.542 L191.6,11.542 M113.713,7.048 L191.6,7.048"/>
        <path stroke="#36A852" stroke-linecap="round" stroke-linejoin="round" stroke-width="1.429" d="M0.668,4.262 C5.319,-0.389 12.859,-0.389 17.51,4.262 M17.511,11.408 C12.862,16.059 5.325,16.06 0.676,11.41" transform="translate(144 81)"/>
        <g transform="translate(95 55)">
          <polygon fill="#36A852" fill-rule="nonzero" points="96.645 .804 77.862 19.588 .076 19.588 18.859 .804"/>
          <polygon fill="#36A852" fill-rule="nonzero" points="96.645 .804 77.641 19.588 96.645 19.588"/>
          <polygon fill="#33A852" fill-rule="nonzero" points="96.645 .804 77.641 19.588 96.645 19.588" opacity=".5"/>
          <path stroke="#E2E2E6" stroke-linecap="round" stroke-linejoin="round" stroke-width="1.429" d="M0.817,12.25 L13.047,0.02 M9.609,12.25 L21.839,0.02 M18.401,12.25 L30.63,0.02 M27.192,12.25 L39.422,0.02 M35.984,12.25 L48.214,0.02 M44.775,12.25 L57.005,0.02 M53.567,12.25 L65.797,0.02 M62.359,12.25 L74.589,0.02" transform="translate(10 4)"/>
        </g>
        <path stroke="#33A852" stroke-linecap="round" stroke-linejoin="round" stroke-width="1.429" d="M162.162,88.835 L144.017,88.835"/>
      </g>
    </g>
  </g>
</svg>
