<svg xmlns="http://www.w3.org/2000/svg" width="40" height="40"><path opacity=".1" fill="#FFF" d="M38 20c0-9.94-8.06-18-18-18S2 10.06 2 20"/><path opacity=".1" fill="none" stroke="#202124" stroke-width=".283" stroke-linecap="round" stroke-linejoin="round" stroke-miterlimit="10" d="M38 20c0 9.94-8.06 18-18 18S2 29.94 2 20"/><circle fill="#FAFAFA" cx="20" cy="20" r="18"/><path opacity=".2" fill="none" stroke="#202124" stroke-width=".227" stroke-linecap="round" stroke-linejoin="round" stroke-miterlimit="10" d="M11.31 30.33h17.4s2.3-.33 2.3-2.33V16.89"/><path fill="#6C7479" d="M28.49 14.5h-3.61v-2.31c0-1.39-1.13-2.52-2.52-2.52h-4.83c-1.39 0-2.52 1.13-2.52 2.52v2.31H11.5c-1.37 0-2.5 1.13-2.5 2.51v10.82c0 1.38 1.13 2.51 2.51 2.51H28.5c1.38 0 2.51-1.13 2.51-2.51V17.01a2.533 2.533 0 0 0-2.52-2.51zm-10.91-2.57h4.73v2.57h-4.73v-2.57z"/><path fill="#FFF" d="M11.47 17.17h17.07v10.9H11.47z"/><path fill="#FBBC04" d="M11.47 28.07l9.04-5.96h-9.04z"/><path fill="#34A853" d="M19.9 22.45l-8.43-5.34v5.41z"/><path fill="#346CF2" d="M28.53 17.17H11.47l8.43 5.35z"/></svg>