<svg xmlns="http://www.w3.org/2000/svg" width="40" height="40"><path opacity=".1" fill="#FFF" d="M38 20c0-9.94-8.06-18-18-18S2 10.06 2 20"/><path opacity=".1" fill="none" stroke="#202124" stroke-width=".283" stroke-linecap="round" stroke-linejoin="round" stroke-miterlimit="10" d="M38 20c0 9.94-8.06 18-18 18S2 29.94 2 20"/><circle fill="#FAFAFA" cx="20" cy="20" r="18"/><path fill="#6C7479" d="M16.75 11v7h-2v-7h-2v7h-2v-7h-2v7s0 4 4 4h-.5v9h3v-9h-.5c4 0 4-4 4-4v-7h-2zM29 10s-4 0-5 4v8h2v5h3V10z"/><circle fill="#FFF" stroke="#D0D3D9" stroke-width=".227" stroke-miterlimit="10" cx="26" cy="27" r="8"/><path fill="#EA4335" d="M25.68 27.72v-3.86s1.14-1.54 2.94-.99c0 0 1.35.31 1.8 1.75.58 1.86-.36 3.1-.36 3.1h-4.38z"/><path fill="#34A853" d="M25.68 27.72v5.03s3.86-3.72 4.37-5.03h-4.37z"/><path fill="#FBBC04" d="M25.72 27.72v-3.86s-1.14-1.54-2.94-.99c0 0-1.35.31-1.8 1.75-.58 1.86.36 3.1.36 3.1h4.38z"/><path fill="#346CF2" d="M25.72 27.72v5.03s-3.86-3.72-4.37-5.03h4.37z"/></svg>