<?xml version="1.0" encoding="utf-8"?>
<svg version="1.0" id="Layer_1" xmlns="http://www.w3.org/2000/svg" xmlns:xlink="http://www.w3.org/1999/xlink" x="0px" y="0px"
  width="100px" height="100px" viewBox="0 0 100 100" enable-background="new 0 0 100 100" xml:space="preserve">
<g>
 <linearGradient id="SVGID_1_" gradientUnits="userSpaceOnUse" x1="0.9917" y1="98.5508" x2="21.9932" y2="98.5508">
  <stop  offset="0" style="stop-color:#292D33;stop-opacity:0"/>
  <stop  offset="0.1889" style="stop-color:#2C3036;stop-opacity:0.0378"/>
  <stop  offset="0.3452" style="stop-color:#373A40;stop-opacity:0.0691"/>
  <stop  offset="0.49" style="stop-color:#484C51;stop-opacity:0.0981"/>
  <stop  offset="0.6279" style="stop-color:#606469;stop-opacity:0.1257"/>
  <stop  offset="0.7608" style="stop-color:#808388;stop-opacity:0.1523"/>
  <stop  offset="0.8881" style="stop-color:#A5A9AE;stop-opacity:0.1778"/>
  <stop  offset="0.999" style="stop-color:#CDD0D5;stop-opacity:0.2"/>
 </linearGradient>
 <rect x="0.99" y="97.08" fill="url(#SVGID_1_)" width="21" height="2.94"/>
 <linearGradient id="SVGID_2_" gradientUnits="userSpaceOnUse" x1="87.5541" y1="54.9454" x2="87.5541" y2="100.0216">
  <stop  offset="0" style="stop-color:#DADCDF"/>
  <stop  offset="0.049" style="stop-color:#DEE0E3"/>
  <stop  offset="0.2459" style="stop-color:#EAEBED"/>
  <stop  offset="0.4454" style="stop-color:#EEEFF1"/>
 </linearGradient>
 <rect x="77.53" y="54.95" fill="url(#SVGID_2_)" width="20.04" height="45.08"/>
 <linearGradient id="SVGID_3_" gradientUnits="userSpaceOnUse" x1="49.624" y1="54.9454" x2="49.624" y2="100.0216">
  <stop  offset="0" style="stop-color:#D2D6D9"/>
  <stop  offset="0.0585" style="stop-color:#D7DBDE"/>
  <stop  offset="0.2507" style="stop-color:#E3E5E8"/>
  <stop  offset="0.4454" style="stop-color:#E7E9EC"/>
 </linearGradient>
 <rect x="21.71" y="54.95" fill="url(#SVGID_3_)" width="55.82" height="45.08"/>
 <path fill="#00AA4C" d="M76.85,2.33H42.44c-2.25,0-4.08,1.83-4.08,4.08v24.15c0,2.25,1.83,4.08,4.08,4.08h9.59
  c1.21,0,2.36,0.48,3.22,1.33l3.86,3.86c0.3,0.3,0.78,0.3,1.08,0l3.86-3.86c0.85-0.85,2.01-1.33,3.22-1.33h9.59
  c2.25,0,4.08-1.83,4.08-4.08V6.41C80.93,4.16,79.11,2.33,76.85,2.33z"/>
 <path fill="#FFFFFF" d="M64.82,9H54.47c-1.14,0-2.06,0.93-2.06,2.07l0,2.81h0l-0.01,12.49c0,0.6,0.61,1.01,1.17,0.77l5.76-2.47
  c0.21-0.09,0.45-0.09,0.66,0l5.76,2.47c0.55,0.24,1.17-0.17,1.17-0.77V14.1v-0.22v-2.81C66.9,9.93,65.96,9,64.82,9z"/>
 <rect x="19.29" y="48.93" fill="#BBC0C6" width="58.24" height="6.02"/>
 <rect x="77.53" y="48.93" fill="#D9DBDF" width="22.47" height="6.02"/>
 <rect x="77.53" y="66.12" fill="#FFFFFF" width="13.07" height="24.64"/>
 <path fill="#BBC0C6" d="M28.09,79.51c0.15-4.51,3.85-8.13,8.4-8.13h0.15c4.55,0,8.25,3.61,8.4,8.13H28.09z"/>
 <rect x="28.7" y="79.51" fill="#F4F4F4" width="15.74" height="20.51"/>
 <path fill="#9AA0A6" d="M41.63,93.48c-0.25,0-0.46-0.21-0.46-0.46v-3.35c0-0.25,0.21-0.46,0.46-0.46s0.46,0.21,0.46,0.46v3.35
  C42.09,93.27,41.89,93.48,41.63,93.48z"/>
 
  <linearGradient id="SVGID_4_" gradientUnits="userSpaceOnUse" x1="-15501.9844" y1="75.604" x2="-15495.8838" y2="75.604" gradientTransform="matrix(-1 0 0 1 -15466.2939 0)">
  <stop  offset="0" style="stop-color:#969CA1"/>
  <stop  offset="1" style="stop-color:#808184"/>
 </linearGradient>
 <path opacity="0.2" fill="url(#SVGID_4_)" d="M31.91,78.71c-0.01,0.27-0.01,0.54,0,0.8h-3.82c0.13-3.72,2.66-6.83,6.1-7.81
  C32.85,73.72,32.03,76.14,31.91,78.71z"/>
 <rect x="51.41" y="66.12" fill="#F4F4F4" width="26.12" height="24.64"/>
</g>
</svg>
