<?xml version="1.0" encoding="utf-8"?>
<!-- Generator: Adobe Illustrator 24.0.1, SVG Export Plug-In . SVG Version: 6.00 Build 0)  -->
<svg version="1.1" id="Layer_1" xmlns="http://www.w3.org/2000/svg" xmlns:xlink="http://www.w3.org/1999/xlink" x="0px" y="0px" width="334px" height="158px" viewBox="0 0 334 158" enable-background="new 0 0 334 158" xml:space="preserve">
    <radialGradient id="SVGID_1_" cx="162.6856" cy="77.7892" r="162.8724" gradientTransform="matrix(1 0 0 0.4829 0 40.2211)" gradientUnits="userSpaceOnUse">
        <stop offset="0" style="stop-color:#DADCE0"></stop>
        <stop offset="1" style="stop-color:#FFFFFF;stop-opacity:0"></stop>
    </radialGradient>
    <path fill="url(#SVGID_1_)" d="M-0.01,158.02c111.06-0.08,222.94,0.08,334,0v-79.9h-334C-0.01,78.13-0.01,158.02-0.01,158.02z
	 M311.87,91.01l-1.79,5.13l-8.91,4.31l-2.88,9.88l-20.42,8.04c-2.41,0.95-4.35-0.61-3.67-2.94l2.39-7.19
	c-2.3-0.22-3.86-1.69-4.24-3.74c-0.42,0.1-0.84,0.18-1.26,0.18c-2.58,0-4.07-2.1-3.31-4.68c0.75-2.58,3.46-4.68,6.05-4.68
	c1.18,0,2.11,0.45,2.73,1.17c0.52-0.34,1.07-0.62,1.64-0.85l-1.24-4.21c-0.02-0.07,0.04-0.16,0.12-0.2
	c0.02-0.01,0.06-0.02,0.08-0.02c0.05,0,0.09,0.03,0.11,0.08l1.24,4.23c0.63-0.23,1.28-0.38,1.93-0.44l1.19-4.07H311.87z
	 M162.94,106.98c-0.63,3.82-2.6,7.71-5.46,11.6c-3.78,5.16-9.77,8.05-16.4,8.05c-3.81,0-7.61-0.01-11.42,0.01
	c-2,0.02-3.73-0.3-5.12-0.99c-4.26-2.12-6.14-5.44-5.94-9.82c0.14-2.47,1.37-5.04,3.44-7.61c1.13-1.41,2.59-2.02,4.44-2.02h0.14
	c0.25-0.21,0.52-0.41,0.81-0.59c1-0.61,2.02-0.91,2.86-0.9h0.06c0.85-0.02,1.55,0.29,1.88,0.9c0.1,0.18,0.15,0.38,0.18,0.59h8.13
	c0.25-0.21,0.52-0.41,0.81-0.59c1-0.61,2.02-0.91,2.86-0.9h0.06c0.85-0.02,1.55,0.29,1.88,0.9c0.1,0.18,0.15,0.38,0.18,0.59
	c2.71,0,5.41,0.01,8.13,0c0.26-0.21,0.53-0.41,0.82-0.59c1-0.61,2.02-0.91,2.86-0.9h0.06c0.85-0.02,1.55,0.29,1.88,0.9
	c0.1,0.18,0.15,0.37,0.18,0.58c0.59,0,1.18,0,1.77-0.01C162.85,106.17,163.04,106.38,162.94,106.98z M196.46,143.95l-1.04,3.47
	h-1.18l-2.65,2.39c-0.58,0.49-1.44,1.16-2.56,1.53c0,0-1.39,0.38-3.01,0.42c1.13,0.05,1.85,0.7,1.6,1.53
	c-0.25,0.84-1.43,1.54-2.64,1.54c-1.21,0-1.97-0.69-1.72-1.54c0.24-0.8,1.31-1.46,2.44-1.53c-0.77,0-1.59-0.07-2.32-0.31
	c-1.23-0.5-1.34-0.89-1.43-1.32c-0.27-1.28-1.02-5.12-1.02-5.12c0.37-0.19,0.81-0.33,1.21-0.43c-0.02,0-0.05,0.01-0.07,0.01
	l0.01-0.68l0.01-0.03c0-0.03,0.01-0.06,0.02-0.09c0.09-0.31,0.53-0.56,0.96-0.56c0.08,0,0.15,0.02,0.23,0.03l0.11-0.98
	c1.04-0.3,2.02-0.49,2.96-0.61l0.36-0.77l-0.58-3.53l-0.3-1.69c-0.05-0.27,0.21-0.57,0.61-0.7c0.41-0.14,0.83-0.05,0.99,0.19
	l1.009,1.468c1.129-0.204,1.861-0.148,1.861-0.148l0.21,0.64l2.69-1.76l2.49,1.81l-4.1,3.19l0.45,1.35
	c1.44,0.24,2.29,0.55,2.29,0.55c-0.12,0.25-0.25,0.53-0.39,0.83h1.54C196.17,143.1,196.61,143.49,196.46,143.95z M211.65,139.21
	l-2.67,12.82c-0.17,0.83-1.77,1.51-3.54,1.51s-3.08-0.68-2.91-1.53l2.67-12.82c0.17-0.83,1.72-1.5,3.47-1.51l0.21-1.01
	c-2.44,1.65-5.54,1.54-5.54,1.54c-4.42,0-5.86-2.68-5.86-2.68h12.9c0,0-0.24,0.44-1.08,0.92l-0.26,1.25
	C210.65,137.77,211.81,138.41,211.65,139.21z M116.19,92.37c-1.34,2.69-6.08,4.86-10.59,4.86c-3.02,0-5.17-0.98-5.85-2.44
	c-0.08,0.03-0.15,0.07-0.23,0.1c-1.43,0.58-2.96,0.84-4.36,0.82c-0.99,1.39-3.25,2.6-5.86,3c-3.45,0.53-6.2-0.58-6.15-2.47
	l-12.93,5.97H55.89l-4.27,7.76H34.27l-11.16-4.37l7.49-12.13h57.98h0.01v-1.08c0.42-0.67,1.66-0.83,2.05-0.68
	c0.52-1.04,1.73-2.04,3.46-2.74c2.32-0.93,4.94-1.05,6.79-0.45l3.1-1.91l0.75-1.51c-0.92,0.15-2,0.12-3.19-0.3
	c0,0-2.68,1.62-6.31,1.64c-4.68,0.03-4.45-2.73-4.45-2.73h17.05c0,0-1.06,0.96-2.78,1.33l-0.78,1.56l1.67,1.6
	c1.44-0.43,2.98-0.68,4.5-0.68C114.96,87.52,117.53,89.69,116.19,92.37z M221.57,92.21h30.55c-1.38,4.47-5.28,4.56-5.3,4.55
	c-1.57,0-2.58-1.01-2.62-2.41c-0.96,1.56-2.75,2.7-4.45,2.7c-1.68,0-2.74-1.11-2.73-2.63c-0.96,1.71-2.9,2.97-4.73,2.97
	c-1.97,0-3.36-1.46-3.03-3.35c-1.07,1.67-2.76,2.87-4.6,2.87C222.52,96.91,220.8,95.27,221.57,92.21z"></path>
    <linearGradient id="SVGID_2_" gradientUnits="userSpaceOnUse" x1="68.243" y1="175.2757" x2="68.243" y2="78.3379" gradientTransform="matrix(1 0 0 -1 0 158)">
        <stop offset="0" style="stop-color:#DADCE0"></stop>
        <stop offset="1" style="stop-color:#FFFFFF;stop-opacity:0"></stop>
    </linearGradient>
    <path fill="url(#SVGID_2_)" d="M0,78.12l20.78-35.4c6.64-9.15,17.69-13.22,27.88-9.81c0.43,0.14,0.86,0.3,1.29,0.46
	c14.62,5.51,24.37-24.2,40.61-26.8c19.73-3.16,25.7,14.39,25.7,14.39l20.226,57.16H0z"></path>
    <path fill="#FFFFFF" d="M90.88,43.79c2.13,0,4.07-0.44,5.08-1.48c1.19-1.21,1.68-2.86,1.35-4.54c-0.39-1.97-1.84-3.64-3.99-4.56
	c-4.93-2.14-8.32-4.08-8.83-6.63c-0.33-1.64,0.56-3.51,2.71-5.74c3.94-4.08,10.38-6.39,16.39-5.88c3.86,0.33,9.29,1.94,13.29,7.77
	l-0.59-1.66c-3.98-4.89-9.01-6.33-12.66-6.64c-6.18-0.52-12.78,1.85-16.82,6.04c-2.28,2.36-3.22,4.4-2.85,6.22
	c0.55,2.78,4.05,4.82,9.14,7.02c1.98,0.86,3.33,2.38,3.68,4.18c0.29,1.5-0.15,2.98-1.21,4.06c-1.64,1.68-6.35,1.63-9.73,0.53
	l-30.28-8.66c-0.43,0.09-0.87,0.15-1.31,0.18l31.43,8.98C87.26,43.5,89.13,43.79,90.88,43.79z"></path>
    <linearGradient id="SVGID_3_" gradientUnits="userSpaceOnUse" x1="144.2" y1="150.1739" x2="144.2" y2="138.4225" gradientTransform="matrix(1 0 0 -1 0 158)">
        <stop offset="0" style="stop-color:#DADCE0"></stop>
        <stop offset="1" style="stop-color:#FFFFFF;stop-opacity:0"></stop>
    </linearGradient>
    <path fill="url(#SVGID_3_)" d="M166.67,19.04h-44.94c1.7-5.76,7.33-5,11.32-3.62c3.08,1.07,6.3,0.69,9.27-0.99l0.46-0.26
	c1.31-0.74,2.59-1.57,3.86-2.43c6.18-4.15,10.24-0.45,12.25,2.44c0.98,1.41,2.31,2.04,3.62,1.72
	C164.1,15.54,166.1,15.78,166.67,19.04L166.67,19.04z"></path>
    <linearGradient id="SVGID_4_" gradientUnits="userSpaceOnUse" x1="194.46" y1="126.8261" x2="194.46" y2="111.4446" gradientTransform="matrix(1 0 0 -1 0 158)">
        <stop offset="0" style="stop-color:#DADCE0"></stop>
        <stop offset="1" style="stop-color:#FFFFFF;stop-opacity:0"></stop>
    </linearGradient>
    <path fill="url(#SVGID_4_)" d="M220.35,44.24h-51.78c1.96-6.63,8.45-5.76,13.04-4.17c3.55,1.23,7.26,0.79,10.68-1.14l0.53-0.3
	c1.5-0.85,2.98-1.81,4.45-2.79c7.13-4.78,11.8-0.51,14.11,2.81c1.12,1.62,2.66,2.35,4.17,1.99C217.39,40.2,219.7,40.49,220.35,44.24
	z"></path>
    <g id="Layer_1_1_">
        <linearGradient id="SVGID_5_" gradientUnits="userSpaceOnUse" x1="289.7257" y1="121.2174" x2="289.7257" y2="42.923" gradientTransform="matrix(1 0 0 -1 0 158)">
            <stop offset="0" style="stop-color:#202124"></stop>
            <stop offset="1" style="stop-color:#202124;stop-opacity:0"></stop>
        </linearGradient>
        <path opacity="0.3" fill="url(#SVGID_5_)" enable-background="new    " d="M301.17,100.45l-2.88,9.88l-20.42,8.04
		c-2.41,0.95-4.35-0.61-3.67-2.94l2.39-7.19c-2.3-0.22-3.86-1.69-4.24-3.74c-0.42,0.1-0.84,0.18-1.26,0.18
		c-2.58,0-4.07-2.1-3.31-4.68c0.75-2.58,3.46-4.68,6.05-4.68c1.18,0,2.11,0.45,2.73,1.17c0.52-0.34,1.07-0.62,1.64-0.85l-1.24-4.21
		c-0.02-0.07,0.04-0.16,0.12-0.2c0.02-0.01,0.06-0.02,0.08-0.02c0.05,0,0.09,0.03,0.11,0.08l1.24,4.23
		c0.63-0.23,1.28-0.38,1.93-0.44l1.19-4.07h30.24l-1.79,5.13L301.17,100.45z"></path>
        <path fill="none" stroke="#DADCE0" stroke-width="2" stroke-miterlimit="10" d="M82,105.71h82.53"></path>
        <linearGradient id="SVGID_6_" gradientUnits="userSpaceOnUse" x1="320.0269" y1="605.53" x2="292.9125" y2="605.53" gradientTransform="matrix(1 0 0 -1 -237.6251 711.24)">
            <stop offset="0.0583" style="stop-color:#DADCE0"></stop>
            <stop offset="1" style="stop-color:#DADCE0;stop-opacity:0"></stop>
        </linearGradient>
        <path fill="url(#SVGID_6_)" d="M54.63,104.71H82v2H54.63V104.71z"></path>
        <linearGradient id="SVGID_7_" gradientUnits="userSpaceOnUse" x1="-539.0483" y1="534.3105" x2="-565.4187" y2="534.3105" gradientTransform="matrix(-1 0 0 1 -375.1784 -428.6055)">
            <stop offset="0.0583" style="stop-color:#DADCE0"></stop>
            <stop offset="1" style="stop-color:#DADCE0;stop-opacity:0"></stop>
        </linearGradient>
        <path fill="url(#SVGID_7_)" d="M190.88,104.71h-26.62v1.99h26.62V104.71z"></path>
        <path fill="#DADCE0" d="M265.4,78.12v-8.64c0-3.34,2.53-5.88,5.65-5.88s5.65,2.53,5.65,5.65v8.87h1.15v-8.87
		c0-3.75-3.05-6.8-6.8-6.8s-6.8,3.05-6.8,6.8v8.86h1.15V78.12z"></path>
        <path fill="#DADCE0" d="M219.82,78.12v-8.87c0-3.11,2.53-5.65,5.65-5.65s5.65,2.53,5.65,5.65v8.87h1.15v-8.87
		c0-3.75-3.05-6.8-6.8-6.8s-6.8,3.05-6.8,6.8v8.87H219.82L219.82,78.12z"></path>
        <path fill="#DADCE0" d="M242.02,78.12v-8.87c0-3.11,2.53-5.65,5.65-5.65s5.65,2.53,5.65,5.65v8.87h1.15v-8.87
		c0-3.75-3.05-6.8-6.8-6.8s-6.8,3.05-6.8,6.8v8.87H242.02L242.02,78.12z"></path>
        <linearGradient id="SVGID_8_" gradientUnits="userSpaceOnUse" x1="262.9055" y1="215.16" x2="156.7197" y2="215.16" gradientTransform="matrix(1 0 0 -1 0 278)">
            <stop offset="0.3724" style="stop-color:#DADCE0"></stop>
            <stop offset="0.5297" style="stop-color:#FFFFFF;stop-opacity:0"></stop>
        </linearGradient>
        <path fill="url(#SVGID_8_)" d="M172.87,62.19h109.29v1.3H172.87V62.19z"></path>
        <path fill="#DADCE0" d="M228.5,59.72c-0.68,0-1.24,0.55-1.24,1.23c0,0.67,0.55,1.23,1.23,1.23s1.24-0.55,1.24-1.23
		C229.73,60.28,229.18,59.72,228.5,59.72z"></path>
        <path fill="#DADCE0" d="M233.3,59.72c-0.68,0-1.24,0.55-1.24,1.23c0,0.67,0.55,1.23,1.23,1.23s1.24-0.55,1.24-1.23
		C234.53,60.28,233.98,59.72,233.3,59.72z"></path>
        <path fill="#DADCE0" d="M241.09,59.72c-0.68,0-1.24,0.55-1.24,1.23c0,0.67,0.55,1.23,1.23,1.23s1.24-0.55,1.24-1.23
		C242.31,60.28,241.76,59.72,241.09,59.72z"></path>
        <path fill="#DADCE0" d="M245.89,59.72c-0.68,0-1.24,0.55-1.24,1.23c0,0.67,0.55,1.23,1.23,1.23s1.24-0.55,1.24-1.23
		C247.12,60.28,246.57,59.72,245.89,59.72z"></path>
        <path fill="#DADCE0" d="M255.18,59.72c-0.68,0-1.24,0.55-1.24,1.23c0,0.67,0.55,1.23,1.23,1.23s1.24-0.55,1.24-1.23
		C256.4,60.28,255.85,59.72,255.18,59.72z"></path>
        <path fill="#DADCE0" d="M259.98,59.72c-0.68,0-1.24,0.55-1.24,1.23c0,0.67,0.55,1.23,1.23,1.23c0.68,0,1.24-0.55,1.24-1.23
		C261.2,60.28,260.65,59.72,259.98,59.72z"></path>
        <path fill="#DADCE0" d="M267.76,59.72c-0.68,0-1.24,0.55-1.24,1.23c0,0.67,0.55,1.23,1.23,1.23c0.68,0,1.24-0.55,1.24-1.23
		C268.99,60.28,268.44,59.72,267.76,59.72z"></path>
        <path fill="#DADCE0" d="M272.56,59.72c-0.68,0-1.24,0.55-1.24,1.23c0,0.67,0.55,1.23,1.23,1.23c0.68,0,1.24-0.55,1.24-1.23
		C273.79,60.28,273.24,59.72,272.56,59.72z"></path>
        <polygon fill="#DADCE0" points="226.5,55.71 249.79,55.71 249.79,53.89 229.2,53.89 	"></polygon>
        <polygon fill="none" points="229.2,53.89 226.5,55.71 231.39,55.71 231.39,53.89 	"></polygon>
        <rect x="231.83" y="53.89" fill="none" width="17.96" height="1.82"></rect>
        <polygon fill="none" points="226.5,55.71 231.39,55.71 231.39,53.89 229.2,53.89 	"></polygon>
        <rect x="231.83" y="53.89" fill="none" width="3" height="1.82"></rect>
        <rect x="235.27" y="53.89" fill="none" width="3.01" height="1.82"></rect>
        <rect x="241.77" y="53.89" fill="none" width="8.02" height="1.82"></rect>
        <path fill="#DADCE0" d="M238.72,53.89h-0.11v4.59c0,0.39,0.31,0.7,0.7,0.7h1.76c0.39,0,0.7-0.31,0.7-0.7v-2.77v-1.82H238.72z"></path>
        <path fill="#DADCE0" d="M262.29,53.89h-10.1v1.82h10.1v2.77c0,0.39,0.31,0.7,0.7,0.7h1.76c0.38,0,0.69-0.31,0.7-0.7v-2.77h9.83
		v-1.82h-9.83H262.29z"></path>
        <path fill="#DADCE0" d="M280.96,59.72c-0.68,0-1.24,0.55-1.24,1.23c0,0.67,0.55,1.23,1.23,1.23c0.68,0,1.24-0.55,1.24-1.23
		C282.19,60.28,281.64,59.72,280.96,59.72z"></path>
        <path fill="#DADCE0" d="M285.77,59.72c-0.68,0-1.24,0.55-1.24,1.23c0,0.67,0.55,1.23,1.23,1.23c0.68,0,1.24-0.55,1.24-1.23
		C286.99,60.28,286.44,59.72,285.77,59.72z"></path>
        <path fill="#DADCE0" d="M293.55,59.72c-0.68,0-1.24,0.55-1.24,1.23c0,0.67,0.55,1.23,1.23,1.23c0.68,0,1.24-0.55,1.24-1.23
		C294.78,60.28,294.23,59.72,293.55,59.72z"></path>
        <path fill="#DADCE0" d="M298.35,59.72c-0.68,0-1.24,0.55-1.24,1.23c0,0.67,0.55,1.23,1.23,1.23c0.68,0,1.24-0.55,1.24-1.23
		C299.58,60.28,299.03,59.72,298.35,59.72z"></path>
        <path fill="#34A853" d="M274.17,52.22c0,0-20.88,0-20.88,0c-0.8,0-1.45,0.65-1.45,1.45v5.14h-1.72v-4.95c0-0.9-0.73-1.63-1.63-1.63
		h-16.42c-0.71,0-1.4,0.24-1.95,0.68c-0.16,0.12-5.04,3.4-6.64,4.64c-0.39,0.3-0.5,0.85-0.5,1.35c0,0.46,0.15,0.88,0.4,1.23
		c0.38,0.51,0.98,0.84,1.66,0.84h23.4c0.93,0,1.68-0.75,1.68-1.68v-0.04h1.72v0.24c0,0.8,0.65,1.45,1.45,1.45h20.88
		c0.8,0,1.45-0.65,1.45-1.45v-5.82C275.62,52.87,274.97,52.22,274.17,52.22z"></path>
        <polygon fill="#F1F3F4" points="231.39,55.71 226.5,55.71 229.2,53.89 231.39,53.89 	"></polygon>
        <rect x="231.83" y="53.89" fill="#F1F3F4" width="3" height="1.82"></rect>
        <rect x="235.27" y="53.89" fill="#F1F3F4" width="3.01" height="1.82"></rect>
        <path fill="#F1F3F4" d="M239.97,59.18h-0.66c-0.39,0-0.7-0.31-0.7-0.7v-4.59h0.11h1.25V59.18z"></path>
        <path fill="#F1F3F4" d="M241.77,55.83v2.65c0,0.39-0.31,0.7-0.7,0.7h-0.66v-5.29h1.36V55.83z"></path>
        <rect x="242.11" y="53.89" fill="#F1F3F4" width="3.02" height="1.82"></rect>
        <rect x="245.57" y="53.89" fill="#F1F3F4" width="4.22" height="1.82"></rect>
        <rect x="252.19" y="53.89" fill="#F1F3F4" width="2.78" height="1.82"></rect>
        <rect x="255.41" y="53.89" fill="#F1F3F4" width="3.09" height="1.82"></rect>
        <rect x="258.94" y="53.89" fill="#F1F3F4" width="2.99" height="1.82"></rect>
        <path fill="#F1F3F4" d="M263.65,59.18h-0.66c-0.39,0-0.7-0.31-0.7-0.7v-2.745V53.89h1.36V59.18z"></path>
        <path fill="#F1F3F4" d="M265.45,55.745v2.735c-0.01,0.39-0.32,0.7-0.7,0.7h-0.66v-5.29h1.36V55.745z"></path>
        <rect x="265.75" y="53.89" fill="#F1F3F4" width="3.05" height="1.82"></rect>
        <rect x="269.24" y="53.89" fill="#F1F3F4" width="2.86" height="1.82"></rect>
        <rect x="272.54" y="53.89" fill="#F1F3F4" width="2.74" height="1.82"></rect>
        <path fill="#34A853" d="M299.96,52.22h-20.88c-0.8,0-1.45,0.65-1.45,1.45v5.14h-2v0.44h2v0.24c0,0.8,0.65,1.45,1.45,1.45h20.88
		c0.8,0,1.45-0.65,1.45-1.45v-5.82C301.41,52.87,300.76,52.22,299.96,52.22z"></path>
        <path fill="#DADCE0" d="M281.62,91.01v-49.7c0-2.33,2.4-3.89,4.53-2.94l18.07,8.04v9.88l7.64,4.31v30.41L281.62,91.01L281.62,91.01
		z"></path>
        <path fill="#FFFFFF" d="M287.06,46.965c-1.034,0-1.875,0.835-1.875,1.86V91.01h0.5V48.825c0-0.751,0.617-1.361,1.375-1.361
		s1.375,0.611,1.375,1.361V91h0.5V48.825C288.935,47.799,288.094,46.965,287.06,46.965z"></path>
        <path fill="#FFFFFF" d="M293.16,50.106c-1.034,0-1.875,0.834-1.875,1.859V91.01h0.5V51.966c0-0.75,0.617-1.361,1.375-1.361
		s1.375,0.611,1.375,1.361V91.01h0.5V51.966C295.035,50.94,294.194,50.106,293.16,50.106z"></path>
        <path fill="#FFFFFF" d="M299.27,53.407c-1.034,0-1.875,0.839-1.875,1.87V91.01h0.5V55.276c0-0.756,0.617-1.371,1.375-1.371
		s1.375,0.615,1.375,1.371V91.01h0.5V55.276C301.145,54.245,300.304,53.407,299.27,53.407z"></path>
        <circle fill="#70757A" cx="275.08" cy="82.03" r="4.68"></circle>
        <circle fill="#70757A" cx="282.25" cy="80.36" r="6.61"></circle>
        <path fill="#DADCE0" d="M281.25,83.56h-0.02l-5.77-0.89c-0.08-0.01-0.14-0.09-0.13-0.17s0.1-0.14,0.17-0.13l5.77,0.89
		c0.08,0.01,0.14,0.09,0.13,0.17C281.38,83.5,281.32,83.56,281.25,83.56L281.25,83.56z"></path>
        <path fill="#DADCE0" d="M277.1,91.53c-0.02,0-0.05-0.01-0.07-0.02c-0.07-0.04-0.1-0.13-0.06-0.2l5.96-11.41
		c0.04-0.07,0.13-0.1,0.2-0.06s0.1,0.13,0.06,0.2l-5.96,11.41C277.2,91.5,277.15,91.53,277.1,91.53z"></path>
        <path fill="#DADCE0" d="M260.19,18.37c-1.33-2.53-3.62-4.48-6.39-5.36c-1.04-0.33-2.14-0.5-3.29-0.5c-3.36,0-6.36,1.52-8.36,3.9
		c-1.59,1.9-2.56,4.34-2.56,7.02c0,2.06,0.41,3.72,1.1,5.21c1.14,2.5,3.03,4.51,4.98,7.03c0.63,0.82,1.27,1.69,1.89,2.65
		c2.21,3.43,1.55,5.48,2.95,5.48c1.43,0,0.8-2.05,3.01-5.48c3.66-5.68,7.91-8.27,7.91-14.9C261.43,21.6,260.98,19.88,260.19,18.37z"></path>
        <path fill="#DADCE0" d="M253.74,26.06c-0.01,0.01-0.02,0.03-0.03,0.04v0.01c-0.76,0.91-1.91,1.48-3.19,1.48
		c-2.3,0-4.17-1.87-4.17-4.17c0-0.98,0.34-1.88,0.91-2.59c0.02-0.03,0.04-0.06,0.06-0.08c0.76-0.91,1.91-1.49,3.2-1.49
		c2.3,0,4.17,1.87,4.17,4.17C254.68,24.42,254.33,25.34,253.74,26.06z"></path>
        <path fill="#FFFFFF" d="M250.56,24.34c2.64,0,4.93,1.46,6.13,3.61c0.95-1.28,1.52-2.87,1.52-4.59c0-4.27-3.46-7.73-7.73-7.73
		s-7.73,3.46-7.73,7.73c0,1.78,0.61,3.41,1.61,4.71C245.54,25.85,247.88,24.34,250.56,24.34L250.56,24.34z"></path>
        <ellipse fill="#34A853" cx="250.522" cy="21.618" rx="2.34" ry="2.34"></ellipse>
        <path fill="#34A853" d="M250.48,31.09c2.55,0,4.8-1.24,6.21-3.14c-1.2-2.15-3.49-3.61-6.13-3.61c-2.69,0-5.02,1.51-6.19,3.74
		C245.78,29.9,247.99,31.09,250.48,31.09L250.48,31.09z"></path>
        <path fill="#34A853" d="M250.67,10.53c2.28,0,4.39,0.68,6.17,1.84l1.45-1.44c-2.16-1.51-4.79-2.4-7.62-2.4
		c-2.36,0-4.57,0.62-6.5,1.7l1.54,1.46C247.21,10.96,248.89,10.53,250.67,10.53L250.67,10.53z"></path>
        <path fill="#34A853" d="M250.67,6.38c3.43,0,6.59,1.13,9.16,3.02l1.43-1.42c-2.94-2.25-6.61-3.6-10.59-3.6
		c-3.55,0-6.86,1.07-9.63,2.9l1.5,1.42C244.91,7.24,247.69,6.38,250.67,6.38z"></path>
        <path fill="#70757A" d="M132.73,97.21c-0.67-0.79-1.54-1.19-2.38-1.17h-0.06c-0.84-0.02-1.71,0.37-2.38,1.17
		c-1.43,1.69-1.43,4.65,0.01,6.35c0.67,0.78,1.53,1.17,2.37,1.15h0.06c0.84,0.02,1.71-0.37,2.37-1.15
		C134.16,101.86,134.16,98.9,132.73,97.21L132.73,97.21z"></path>
        <path fill="#4285F4" d="M144.96,102.81h-17.68c-1.85,0-2.98-0.78-3.35-2.58c-0.68-3.3-0.53-6.58,0.69-9.76
		c2.16-5.61,5.84-9.86,11.24-12.57c1.77-0.89,3.67-1.29,5.66-1.27c3.81,0.02,7.61,0.01,11.42,0.01c6.63,0.01,11.06,3.7,12.05,10.31
		c0.75,4.98,0.62,9.96-0.81,14.85c-0.22,0.77-0.52,1.04-1.34,1.03C156.87,102.78,150.91,102.8,144.96,102.81
		C144.96,102.8,144.96,102.8,144.96,102.81L144.96,102.81z"></path>
        <rect x="148.56" y="100.268" transform="matrix(0.9864 -0.1644 0.1644 0.9864 -14.4534 26.2117)" fill="#3267C0" width="5.119" height="0.304"></rect>
        <path fill="#3267C0" d="M133.55,99.68h-6.23c-0.7,0-1.27-0.57-1.27-1.27s0.57-1.27,1.27-1.27h6.23c0.7,0,1.27,0.57,1.27,1.27
		S134.25,99.68,133.55,99.68z"></path>
        <path fill="#4285F4" d="M127.32,97.44c-0.54,0-0.97,0.43-0.97,0.97s0.44,0.97,0.97,0.97h6.23c0.54,0,0.97-0.43,0.97-0.97
		s-0.44-0.97-0.97-0.97H127.32z"></path>
        <polygon fill="#3267C0" points="153.72,90.67 153.58,90.4 156.29,89.01 156.43,89.28 	"></polygon>
        <path fill="#DADCE0" d="M146.66,97.21c-0.67-0.79-1.54-1.19-2.38-1.17h-0.06c-0.84-0.02-1.71,0.37-2.38,1.17
		c-1.43,1.69-1.43,4.65,0.01,6.35c0.67,0.78,1.53,1.17,2.37,1.15h0.06c0.84,0.02,1.71-0.37,2.37-1.15
		C148.09,101.86,148.09,98.9,146.66,97.21L146.66,97.21z"></path>
        <path fill="#DADCE0" d="M160.59,97.21c-0.67-0.79-1.54-1.19-2.38-1.17h-0.06c-0.84-0.02-1.71,0.37-2.38,1.17
		c-1.43,1.69-1.43,4.65,0.01,6.35c0.67,0.78,1.53,1.17,2.37,1.15h0.06c0.84,0.02,1.71-0.37,2.37-1.15
		C162.02,101.86,162.02,98.9,160.59,97.21L160.59,97.21z"></path>
        <linearGradient id="SVGID_9_" gradientUnits="userSpaceOnUse" x1="140.775" y1="76.2826" x2="140.775" y2="30.5029" gradientTransform="matrix(1 0 0 -1 0 158)">
            <stop offset="0" style="stop-color:#202124"></stop>
            <stop offset="1" style="stop-color:#202124;stop-opacity:0"></stop>
        </linearGradient>
        <path opacity="0.3" fill="url(#SVGID_9_)" enable-background="new    " d="M122.04,108.22c1.13-1.41,2.59-2.02,4.44-2.02h0.14
		c0.25-0.21,0.52-0.41,0.81-0.59c1-0.61,2.02-0.91,2.86-0.9h0.06c0.85-0.02,1.55,0.29,1.88,0.9c0.1,0.18,0.15,0.38,0.18,0.59h8.13
		c0.25-0.21,0.52-0.41,0.81-0.59c1-0.61,2.02-0.91,2.86-0.9h0.06c0.85-0.02,1.55,0.29,1.88,0.9c0.1,0.18,0.15,0.38,0.18,0.59
		c2.71,0,5.41,0.01,8.13,0c0.26-0.21,0.53-0.41,0.82-0.59c1-0.61,2.02-0.91,2.86-0.9h0.06c0.85-0.02,1.55,0.29,1.88,0.9
		c0.1,0.18,0.15,0.37,0.18,0.58c0.59,0,1.18,0,1.77-0.01c0.82-0.01,1.01,0.2,0.91,0.8c-0.63,3.82-2.6,7.71-5.46,11.6
		c-3.78,5.16-9.77,8.05-16.4,8.05c-3.81,0-7.61-0.01-11.42,0.01c-2,0.02-3.73-0.3-5.12-0.99c-4.26-2.12-6.14-5.44-5.94-9.82
		C118.74,113.36,119.97,110.79,122.04,108.22z"></path>
        <path fill="#F1F3F4" d="M158.18,80.46c-2.05-2.48-4.82-3.03-7.73-2.4c-4.71,1.01-7.76,4.14-9.71,8.43
		c-0.1,0.22-0.13,0.48-0.22,0.86h1.58c0.53,0,1.06-0.02,1.59,0.02c1.1,0.09,1.81,0.92,1.58,1.84c-0.22,0.86-0.85,1.23-1.7,1.24
		c-1.15,0.01-2.29,0-3.56,0c0.96,2.75,3.01,3.86,5.16,2.85c3.92-1.86,7.81-3.75,11.66-5.74C159.56,86.15,160.13,82.83,158.18,80.46z
		"></path>
        <path fill="#F1F3F4" d="M145.42,79.08c0.25-0.19,0.51-0.38,0.76-0.57c-0.03-0.07-0.06-0.13-0.08-0.21c-3.47,0-6.94-0.02-10.41,0.02
		c-0.56,0-1.18,0.18-1.66,0.47c-3.74,2.27-6.55,5.4-8.51,9.31c-0.71,1.42-0.14,2.41,1.45,2.42c2.94,0.03,5.89,0.02,8.83,0
		c1.23-0.01,1.81-0.45,2.22-1.59C139.46,84.88,142.07,81.7,145.42,79.08z"></path>
        <path fill="#4285F4" d="M153.65,89.92c-0.11,0-0.2-0.09-0.2-0.2V77.49c0-0.11,0.09-0.2,0.2-0.2s0.2,0.09,0.2,0.2v12.23
		C153.85,89.83,153.76,89.92,153.65,89.92z"></path>
        <path fill="#FFFFFF" d="M138.98,93.78c0,0.95-0.68,1.82-1.45,1.85c-0.81,0.03-1.52-0.85-1.52-1.87c-0.01-1.03,0.67-1.89,1.5-1.89
		C138.3,91.85,138.98,92.73,138.98,93.78z"></path>
        <path fill="none" d="M123.761,93.667c0.089-0.533,0.204-1.064,0.346-1.591C123.964,92.604,123.849,93.134,123.761,93.667z"></path>
        <path fill="none" d="M123.556,95.518c0.03-0.566,0.089-1.132,0.177-1.695C123.645,94.385,123.586,94.951,123.556,95.518z"></path>
        <path fill="#3267C0" d="M162.67,89.23v3.3c0,1.42,1.16,2.58,2.58,2.58c0.03,0,0.06-0.01,0.1-0.01c0.01-0.1,0.02-0.2,0.02-0.3
		c-0.04-0.01-0.08,0-0.12,0c-1.26,0-2.28-1.02-2.28-2.28v-3.3c0-1.17,0.89-2.12,2.02-2.25v-0.02
		c-0.001-0.01-0.004-0.019-0.005-0.029c-0.013-0.083-0.032-0.16-0.045-0.241C163.67,86.84,162.67,87.91,162.67,89.23z"></path>
        <path fill="#FFFFFF" d="M125.24,93.76c-0.01-0.818-0.498-1.566-1.106-1.788c-0.01,0.034-0.017,0.069-0.027,0.104
		c-0.142,0.527-0.258,1.058-0.346,1.591c-0.009,0.052-0.02,0.104-0.028,0.156c-0.088,0.564-0.146,1.13-0.177,1.695
		c-0.001,0.021-0.001,0.042-0.002,0.063c0.089,0.029,0.187,0.039,0.275,0.049C124.58,95.63,125.25,94.73,125.24,93.76z"></path>
        <path fill="#FFFFFF" d="M158.17,94.5h-0.06l-0.01,0.15l-0.02-0.08V94.5h-0.02c-1.14,0-2.29,0.54-3.14,1.55
		c-1.49,1.76-1.77,4.55-0.89,6.74h0.32c-0.9-2.1-0.65-4.84,0.8-6.55c0.79-0.94,1.87-1.48,2.92-1.44h0.14c1.04,0,2.08,0.52,2.85,1.44
		c1.45,1.71,1.7,4.47,0.79,6.57h0.32c0.91-2.18,0.63-4.99-0.86-6.76C160.46,95.05,159.33,94.49,158.17,94.5z"></path>
        <path fill="#FFFFFF" d="M144.37,94.5h-0.06h-0.06l-0.01,0.15l-0.02-0.08V94.5h-0.02c-0.02,0.01-0.04,0-0.06,0
		c-1.13,0-2.25,0.56-3.08,1.55c-1.49,1.76-1.77,4.56-0.89,6.75h0.32c-0.9-2.11-0.65-4.85,0.79-6.56c0.79-0.94,1.87-1.48,2.92-1.44
		h0.14c1.04,0,2.08,0.52,2.85,1.44c1.44,1.71,1.7,4.45,0.8,6.55h0.32c0.9-2.18,0.62-4.98-0.86-6.74
		C146.62,95.06,145.5,94.5,144.37,94.5z"></path>
        <path fill="#DADCE0" d="M157.4,45.22c-1.33-2.53-3.62-4.48-6.39-5.36c-1.04-0.33-2.14-0.5-3.29-0.5c-3.36,0-6.36,1.52-8.36,3.9
		c-1.59,1.9-2.56,4.34-2.56,7.02c0,2.06,0.41,3.72,1.1,5.21c1.14,2.5,3.03,4.51,4.98,7.03c0.63,0.82,1.27,1.69,1.89,2.65
		c2.21,3.43,1.55,5.48,2.95,5.48c1.43,0,0.8-2.05,3.01-5.48c3.66-5.68,7.91-8.27,7.91-14.9C158.64,48.45,158.19,46.73,157.4,45.22z"></path>
        <path fill="#DADCE0" d="M150.95,52.9c-0.01,0.01-0.02,0.03-0.03,0.04v0.01c-0.76,0.91-1.91,1.48-3.19,1.48
		c-2.3,0-4.17-1.87-4.17-4.17c0-0.98,0.34-1.88,0.91-2.59c0.02-0.03,0.04-0.06,0.06-0.08c0.76-0.91,1.91-1.49,3.2-1.49
		c2.3,0,4.17,1.87,4.17,4.17C151.89,51.27,151.54,52.18,150.95,52.9z"></path>
        <path fill="#FFFFFF" d="M147.77,51.18c2.64,0,4.93,1.46,6.13,3.61c0.95-1.28,1.52-2.87,1.52-4.59c0-4.27-3.46-7.73-7.73-7.73
		s-7.73,3.46-7.73,7.73c0,1.78,0.61,3.41,1.61,4.71C142.75,52.7,145.09,51.18,147.77,51.18L147.77,51.18z"></path>
        <circle fill="#4285F4" cx="147.71" cy="48.44" r="2.34"></circle>
        <path fill="#4285F4" d="M147.69,57.93c2.55,0,4.8-1.24,6.21-3.14c-1.2-2.15-3.49-3.61-6.13-3.61c-2.69,0-5.02,1.51-6.19,3.74
		C142.99,56.75,145.2,57.93,147.69,57.93z"></path>
        <path fill="#4285F4" d="M147.88,37.38c2.28,0,4.39,0.68,6.17,1.84l1.45-1.44c-2.16-1.51-4.79-2.4-7.62-2.4
		c-2.36,0-4.57,0.62-6.5,1.7l1.54,1.46C144.42,37.8,146.1,37.38,147.88,37.38z"></path>
        <path fill="#4285F4" d="M147.88,33.22c3.43,0,6.59,1.13,9.16,3.02l1.43-1.42c-2.94-2.25-6.61-3.6-10.59-3.6
		c-3.55,0-6.86,1.07-9.63,2.9l1.5,1.42C142.12,34.08,144.9,33.22,147.88,33.22z"></path>
        <path fill="#DADCE0" d="M199.59,77.81c-1.33-2.53-3.62-4.48-6.39-5.36c-1.04-0.33-2.14-0.5-3.29-0.5c-3.36,0-6.36,1.52-8.36,3.9
		c-1.59,1.9-2.56,4.34-2.56,7.02c0,2.06,0.41,3.72,1.1,5.21c1.14,2.5,3.03,4.51,4.98,7.03c0.63,0.82,1.27,1.69,1.89,2.65
		c2.21,3.43,1.55,5.48,2.95,5.48c1.43,0,0.8-2.05,3.01-5.48c3.66-5.68,7.91-8.27,7.91-14.9C200.83,81.05,200.38,79.33,199.59,77.81z
		"></path>
        <path fill="#DADCE0" d="M193.14,85.5c-0.01,0.01-0.02,0.03-0.03,0.04v0.01c-0.76,0.91-1.91,1.48-3.19,1.48
		c-2.3,0-4.17-1.87-4.17-4.17c0-0.98,0.34-1.88,0.91-2.59c0.02-0.03,0.04-0.06,0.06-0.08c0.76-0.91,1.91-1.49,3.2-1.49
		c2.3,0,4.17,1.87,4.17,4.17C194.08,83.86,193.73,84.78,193.14,85.5z"></path>
        <path fill="#FFFFFF" d="M189.96,83.78c2.64,0,4.93,1.46,6.13,3.61c0.95-1.28,1.52-2.87,1.52-4.59c0-4.27-3.46-7.73-7.73-7.73
		s-7.73,3.46-7.73,7.73c0,1.78,0.61,3.41,1.61,4.71C184.94,85.29,187.27,83.78,189.96,83.78L189.96,83.78z"></path>
        <circle fill="#EA4335" cx="189.9" cy="81.04" r="2.34"></circle>
        <path fill="#EA4335" d="M189.88,90.53c2.55,0,4.8-1.24,6.21-3.14c-1.2-2.15-3.49-3.61-6.13-3.61c-2.69,0-5.02,1.51-6.19,3.74
		C185.18,89.35,187.39,90.53,189.88,90.53z"></path>
        <path fill="#EA4335" d="M190.07,69.98c2.28,0,4.39,0.68,6.17,1.84l1.45-1.44c-2.16-1.51-4.79-2.4-7.62-2.4
		c-2.36,0-4.57,0.62-6.5,1.7l1.54,1.46C186.61,70.4,188.29,69.98,190.07,69.98L190.07,69.98z"></path>
        <path fill="#EA4335" d="M190.07,65.82c3.43,0,6.59,1.13,9.16,3.02l1.43-1.42c-2.94-2.25-6.61-3.6-10.59-3.6
		c-3.55,0-6.86,1.07-9.63,2.9l1.5,1.42C184.31,66.68,187.09,65.82,190.07,65.82z"></path>
        <linearGradient id="SVGID_10_" gradientUnits="userSpaceOnUse" x1="188.7097" y1="42.77" x2="188.7097" y2="4.1752" gradientTransform="matrix(1 0 0 -1 0 158)">
            <stop offset="0" style="stop-color:#202124"></stop>
            <stop offset="1" style="stop-color:#202124;stop-opacity:0"></stop>
        </linearGradient>
        <path opacity="0.3" fill="url(#SVGID_10_)" enable-background="new    " d="M193.22,135.37l-2.69,1.76l-0.21-0.64
		c0,0-0.76-0.06-1.93,0.16c0.02,0,0.05-0.01,0.07-0.01l-1.01-1.47c-0.16-0.24-0.58-0.33-0.99-0.19c-0.4,0.13-0.66,0.43-0.61,0.7
		l0.3,1.69l0.58,3.53l-0.36,0.77c-0.94,0.12-1.92,0.31-2.96,0.61l-0.11,0.98c-0.08-0.01-0.15-0.03-0.23-0.03
		c-0.43,0-0.87,0.25-0.96,0.56c-0.01,0.03-0.02,0.06-0.02,0.09l-0.01,0.03l-0.01,0.68c0.02,0,0.05-0.01,0.07-0.01
		c-0.4,0.1-0.84,0.24-1.21,0.43c0,0,0.75,3.84,1.02,5.12c0.09,0.43,0.2,0.82,1.43,1.32c0.73,0.24,1.55,0.31,2.32,0.31
		c-1.13,0.07-2.2,0.73-2.44,1.53c-0.25,0.85,0.51,1.54,1.72,1.54s2.39-0.7,2.64-1.54c0.25-0.83-0.47-1.48-1.6-1.53
		c1.62-0.04,3.01-0.42,3.01-0.42c1.12-0.37,1.98-1.04,2.56-1.53l2.65-2.39h1.18l1.04-3.47c0.15-0.46-0.29-0.85-0.96-0.85l0,0h-1.54
		c0.14-0.3,0.27-0.58,0.39-0.83c0,0-0.85-0.31-2.29-0.55l-0.45-1.35l4.1-3.19L193.22,135.37z"></path>
        <circle fill="#70757A" cx="190.49" cy="109.66" r="2.18"></circle>
        <path fill="#DADCE0" d="M186.45,132.13l2.71-8.28h5.44l-4.25,9.51C190.35,133.36,188.47,133.59,186.45,132.13L186.45,132.13z"></path>
        <path fill="#DADCE0" d="M186.45,132.13l2.71-8.28h5.44l-4.25,9.51C190.35,133.36,188.47,133.59,186.45,132.13L186.45,132.13z"></path>
        <linearGradient id="SVGID_11_" gradientUnits="userSpaceOnUse" x1="192.6644" y1="120.2142" x2="189.2731" y2="132.5403">
            <stop offset="0" style="stop-color:#202124"></stop>
            <stop offset="1" style="stop-color:#202124;stop-opacity:0"></stop>
        </linearGradient>
        <path opacity="0.3" fill="url(#SVGID_11_)" enable-background="new    " d="M186.45,132.13l2.71-8.28h5.44l-4.25,9.51
		C190.35,133.36,188.47,133.59,186.45,132.13L186.45,132.13z"></path>
        <path fill="#70757A" d="M185.65,134.52l0.8-2.39c0.75,0.54,1.47,0.85,2.09,1.02l-1.45,2.08c-0.23,0.34-0.68,0.45-1.05,0.26
		C185.7,135.32,185.53,134.9,185.65,134.52z"></path>
        <path fill="#DADCE0" d="M192.77,134.85l-3.84-4.56c-0.36-0.44-0.59-0.97-0.66-1.53l-0.61-4.9h4.13l0.91,3.96l3.92,3.02
		L192.77,134.85L192.77,134.85z"></path>
        <path fill="#DADCE0" d="M193.03,124.03h4.46c0.68,0,1.22-0.55,1.22-1.22v-4.88h-6.91v4.88
		C191.81,123.48,192.35,124.03,193.03,124.03z"></path>
        <path fill="#EA4335" d="M198.72,121.43v1.38c0,0.67-0.54,1.21-1.21,1.21h-3.69c-1.11,0-2.01-0.9-2.01-2.01v-0.58L198.72,121.43
		L198.72,121.43z"></path>
        <path fill="#EA4335" d="M197.537,117.93l-1.947-3.37c-0.43-0.69-1.08-1.62-2.1-2.15c0,0-0.12-0.05-0.32-0.12
		c-0.84-0.28-3.18-0.91-5.29-0.03c-1.34,0.59-1.6,1.26-1.82,1.87c-0.65,1.79-2.55,7.21-2.55,7.21c0.75,0.64,2.03,0.9,2.03,0.9
		l-0.38,2.95c5.69,2.51,10.93,0,10.93,0c-0.27-2.53-0.967-7.26-0.967-7.26H197.537z"></path>
        <linearGradient id="SVGID_12_" gradientUnits="userSpaceOnUse" x1="-12.7487" y1="159.8365" x2="-7.6774" y2="164.9078" gradientTransform="matrix(-1 0 0 -1 184.6935 278)">
            <stop offset="0" style="stop-color:#EA4335;stop-opacity:0"></stop>
            <stop offset="0.0107" style="stop-color:#E94335;stop-opacity:0.0107"></stop>
            <stop offset="0.1991" style="stop-color:#D33C30;stop-opacity:0.1991"></stop>
            <stop offset="0.4066" style="stop-color:#C4382D;stop-opacity:0.4066"></stop>
            <stop offset="0.6479" style="stop-color:#BB352B;stop-opacity:0.6479"></stop>
            <stop offset="1" style="stop-color:#B8342A"></stop>
        </linearGradient>
        <path fill="url(#SVGID_12_)" d="M193.49,112.41c0,0-0.12-0.05-0.32-0.12c0.51,0.39,0.87,0.99,1.12,1.54
		c0.27,0.6,0.44,1.23,0.53,1.88l0.3,2.2h2.4l-1.94-3.36C195.17,113.87,194.51,112.95,193.49,112.41z"></path>
        <linearGradient id="SVGID_13_" gradientUnits="userSpaceOnUse" x1="-9.4615" y1="150.855" x2="-0.4665" y2="159.85" gradientTransform="matrix(-1 0 0 -1 184.6935 278)">
            <stop offset="0" style="stop-color:#EA4335;stop-opacity:0"></stop>
            <stop offset="0.0107" style="stop-color:#E94335;stop-opacity:0.0107"></stop>
            <stop offset="0.1991" style="stop-color:#D33C30;stop-opacity:0.1991"></stop>
            <stop offset="0.4066" style="stop-color:#C4382D;stop-opacity:0.4066"></stop>
            <stop offset="0.6479" style="stop-color:#BB352B;stop-opacity:0.6479"></stop>
            <stop offset="1" style="stop-color:#B8342A"></stop>
        </linearGradient>
        <path fill="url(#SVGID_13_)" d="M185.54,122.25c0.81,0.16,1.78,0.1,1.78,0.1l1.36-7.72l6.97,6.97c0.17,1.26,0.34,2.6,0.45,3.6
		c0,0-5.25,2.51-10.93,0L185.54,122.25"></path>
        <path fill="#FFFFFF" d="M193.36,112.36l3.57,5.49c0.04,0.06,0.02,0.14-0.04,0.17c-0.02,0.01-0.04,0.02-0.07,0.02
		c-0.04,0-0.08-0.02-0.1-0.06l-3.74-5.76C192.98,112.22,193.19,112.28,193.36,112.36z"></path>
        <path fill="none" d="M187.89,112.27c-1.38,0.72-1.6,1.26-1.82,1.87c-0.65,1.79-2.55,7.21-2.55,7.21c0.75,0.64,2.03,0.9,2.03,0.9
		l-0.38,2.95c5.69,2.51,10.93,0,10.93,0c-0.27-2.53-0.97-7.28-0.97-7.28h2.4l-1.94-3.36c-0.43-0.69-1.08-1.62-2.1-2.15
		C193.49,112.41,190.51,111.18,187.89,112.27z"></path>
        <path fill="#70757A" d="M194.36,133.19l1.76,2.47c0.3,0.43,0.24,1.02-0.16,1.37c-0.44,0.39-1.1,0.33-1.47-0.11l-1.72-2.07
		L194.36,133.19L194.36,133.19z"></path>
        <path fill="#70757A" d="M184.34,122.93v-0.02v-0.02l0.19-0.97c0.54,0.22,1.02,0.32,1.02,0.32c0.19,0.04,0.4,0.06,0.59,0.08
		l-0.26,0.89c-0.07,0.37-0.39,0.64-0.77,0.64c-0.43,0-0.79-0.35-0.79-0.79C184.33,123.01,184.33,122.97,184.34,122.93L184.34,122.93
		z"></path>
        <path fill="#70757A" d="M209.18,130.97c-1.77,0-3.23-1.45-3.23-3.23v-27.2c0-1.77,1.45-3.23,3.23-3.23c1.77,0,3.23,1.45,3.23,3.23
		v27.2C212.41,129.52,210.96,130.97,209.18,130.97z"></path>
        <path fill="#DADCE0" d="M197.48,135.54h12.9c0,0-0.86-4.59-6.59-4.59S197.48,135.54,197.48,135.54z"></path>
        <linearGradient id="SVGID_14_" gradientUnits="userSpaceOnUse" x1="204.5724" y1="37.7763" x2="204.5724" y2="6.8331" gradientTransform="matrix(1 0 0 -1 0 158)">
            <stop offset="0" style="stop-color:#202124"></stop>
            <stop offset="1" style="stop-color:#202124;stop-opacity:0"></stop>
        </linearGradient>
        <path opacity="0.3" fill="url(#SVGID_14_)" enable-background="new    " d="M203.34,138.21c-4.42,0-5.86-2.68-5.86-2.68h12.9
		c0,0-0.24,0.44-1.08,0.92l-0.26,1.25c1.61,0.07,2.77,0.71,2.61,1.51l-2.67,12.82c-0.17,0.83-1.77,1.51-3.54,1.51l0,0
		c-1.77,0-3.08-0.68-2.91-1.53l2.67-12.82c0.17-0.83,1.72-1.5,3.47-1.51l0.21-1.01C206.44,138.32,203.34,138.21,203.34,138.21z"></path>
        <path fill="#DADCE0" d="M211.61,114.82c-0.07-0.05-0.16-0.04-0.21,0.03l-1.95,2.58v-15.27c0-0.08-0.07-0.15-0.15-0.15
		c-0.08,0-0.15,0.07-0.15,0.15v32.96c0,0.08,0.07,0.15,0.15,0.15c0.08,0,0.15-0.07,0.15-0.15v-17.24c0.02-0.01,0.05-0.01,0.06-0.03
		l2.13-2.82C211.69,114.96,211.68,114.87,211.61,114.82z"></path>
        <path fill="#FBBC04" d="M75.88,74.52H61.55V60.17H44.2l-13.57,8.09v25.19h57.96v-4.38L75.88,74.52z"></path>
        <polygon fill="#FFFFFF" points="61.89,89.11 61.89,74.52 61.59,74.52 61.59,93.45 61.89,93.45 61.89,89.41 88.59,89.41 
		88.59,89.11 	"></polygon>
        <polygon fill="#FFFFFF" points="61.55,74.48 61.55,74.18 44.54,74.18 44.54,70.83 61.55,70.83 61.55,70.53 44.54,70.53 
		44.54,60.17 44.24,60.17 44.24,74.18 30.63,74.18 30.63,74.48 44.24,74.48 44.24,93.45 44.54,93.45 44.54,74.48 	"></polygon>
        <path fill="#FFFFFF" d="M53.33,77c-1.59,0-2.88,1.29-2.88,2.88v13.57h0.3v-1.56h5.16v1.56h0.3V79.88C56.21,78.29,54.91,77,53.33,77
		z"></path>
        <path fill="#FBBC04" d="M50.75,91.59V79.88c0-1.42,1.16-2.58,2.58-2.58s2.58,1.16,2.58,2.58v11.71H50.75z"></path>
        <path fill="#FFFFFF" d="M37.54,66.95c-1.37,0-2.48,1.11-2.48,2.48s1.11,2.49,2.48,2.49s2.48-1.12,2.48-2.49
		C40.02,68.07,38.91,66.95,37.54,66.95z"></path>
        <path fill="#FBBC04" d="M37.54,71.62c-1.2,0-2.19-0.98-2.19-2.19c0-1.2,0.98-2.18,2.19-2.18s2.19,0.98,2.19,2.18
		C39.72,70.64,38.74,71.62,37.54,71.62z"></path>
        <path fill="#DADCE0" d="M60.11,29.35c-1.33-2.53-3.62-4.48-6.39-5.36c-1.04-0.33-2.14-0.5-3.29-0.5c-3.36,0-6.36,1.52-8.36,3.9
		c-1.59,1.9-2.56,4.34-2.56,7.02c0,2.06,0.41,3.72,1.1,5.21c1.14,2.5,3.03,4.51,4.98,7.03c0.63,0.82,1.27,1.69,1.89,2.65
		c2.21,3.43,1.55,5.48,2.95,5.48c1.43,0,0.8-2.05,3.01-5.48c3.66-5.68,7.91-8.27,7.91-14.9C61.35,32.59,60.9,30.87,60.11,29.35z"></path>
        <path fill="#DADCE0" d="M53.66,37.04c-0.01,0.01-0.02,0.03-0.03,0.04v0.01c-0.76,0.91-1.91,1.48-3.19,1.48
		c-2.3,0-4.17-1.87-4.17-4.17c0-0.98,0.34-1.88,0.91-2.59c0.02-0.03,0.04-0.06,0.06-0.08c0.76-0.91,1.91-1.49,3.2-1.49
		c2.3,0,4.17,1.87,4.17,4.17C54.6,35.4,54.25,36.32,53.66,37.04z"></path>
        <path fill="#FFFFFF" d="M50.48,35.32c2.64,0,4.93,1.46,6.13,3.61c0.95-1.28,1.52-2.87,1.52-4.59c0-4.27-3.46-7.73-7.73-7.73
		s-7.73,3.46-7.73,7.73c0,1.78,0.61,3.41,1.61,4.71C45.46,36.83,47.79,35.32,50.48,35.32z"></path>
        <circle fill="#FBBC04" cx="50.42" cy="32.58" r="2.34"></circle>
        <path fill="#FBBC04" d="M50.4,42.07c2.55,0,4.8-1.24,6.21-3.14c-1.2-2.15-3.49-3.61-6.13-3.61c-2.69,0-5.02,1.51-6.19,3.74
		C45.7,40.89,47.91,42.07,50.4,42.07z"></path>
        <path fill="#FBBC04" d="M50.59,21.52c2.28,0,4.39,0.68,6.17,1.84l1.45-1.44c-2.16-1.51-4.79-2.4-7.62-2.4
		c-2.36,0-4.57,0.62-6.5,1.7l1.54,1.46C47.13,21.94,48.81,21.52,50.59,21.52z"></path>
        <path fill="#FBBC04" d="M50.59,17.36c3.43,0,6.59,1.13,9.16,3.02l1.43-1.42c-2.94-2.25-6.61-3.6-10.59-3.6
		c-3.55,0-6.86,1.07-9.63,2.9l1.5,1.42C44.83,18.22,47.61,17.36,50.59,17.36z"></path>
        <path fill="#DADCE0" d="M105.11,64.9c-1.14-0.96-2.54-1.4-3.95-1.37c-0.3-2.33-1.95-4.37-4.36-5.04c-3.2-0.89-6.52,0.99-7.4,4.19
		c-0.89,3.2,0.99,6.52,4.19,7.4c0.35,0.1,0.69,0.16,1.04,0.19c0,1.74,0.71,3.43,2.09,4.6c2.59,2.18,6.57,1.72,8.88-1.03
		S107.7,67.08,105.11,64.9z"></path>
        <circle fill="#DADCE0" cx="112.36" cy="69.13" r="8.16"></circle>
        <path fill="#70757A" d="M105.58,83.68c-0.08,0-0.15-0.07-0.15-0.15v-4.7l-9.28-13.86c-0.05-0.07-0.03-0.16,0.04-0.21
		c0.07-0.05,0.16-0.03,0.21,0.04l3.22,4.81l1.68-4.78c0.03-0.08,0.11-0.12,0.19-0.09c0.08,0.03,0.12,0.11,0.09,0.19l-1.76,4.99
		l5.77,8.62l5.04-5.49c0.06-0.06,0.15-0.06,0.21-0.01c0.06,0.06,0.06,0.15,0.01,0.21l-5.13,5.59v4.69
		C105.73,83.62,105.66,83.68,105.58,83.68z"></path>
        <path fill="#DADCE0" d="M90.79,83.7h17.06c0,0-1.45-4.01-5.76-1.83c0,0-1.87-2.71-5.49-2.75C91.94,79.07,90.79,83.7,90.79,83.7z"></path>
        <linearGradient id="SVGID_15_" gradientUnits="userSpaceOnUse" x1="69.8275" y1="87.8261" x2="69.8275" y2="49.5581" gradientTransform="matrix(1 0 0 -1 0 158)">
            <stop offset="0" style="stop-color:#202124"></stop>
            <stop offset="1" style="stop-color:#202124;stop-opacity:0"></stop>
        </linearGradient>
        <path opacity="0.3" fill="url(#SVGID_15_)" enable-background="new    " d="M110.45,87.52c-1.52,0-3.06,0.25-4.5,0.68l-1.67-1.6
		l0.78-1.56c1.72-0.37,2.78-1.33,2.78-1.33H90.79c0,0-0.23,2.76,4.45,2.73c3.63-0.02,6.31-1.64,6.31-1.64
		c1.19,0.42,2.27,0.45,3.19,0.3l-0.75,1.51l-3.1,1.91c-1.85-0.6-4.47-0.48-6.79,0.45c-1.73,0.7-2.94,1.7-3.46,2.74
		c-0.39-0.15-1.63,0.01-2.05,0.68v1.08h-0.01H30.6l-7.49,12.13l11.16,4.37h17.35l4.27-7.76h14.33l12.93-5.97
		c-0.05,1.89,2.7,3,6.15,2.47c2.61-0.4,4.87-1.61,5.86-3c1.4,0.02,2.93-0.24,4.36-0.82c0.08-0.03,0.15-0.07,0.23-0.1
		c0.68,1.46,2.83,2.44,5.85,2.44c4.51,0,9.25-2.17,10.59-4.86C117.53,89.69,114.96,87.52,110.45,87.52z"></path>
        <path fill="#70757A" d="M92.97,80.37c0.53,0.55,1.79,1.93,2.56,3.33h0.34c-0.77-1.49-2.09-2.93-2.67-3.52
		C93.12,80.24,93.05,80.3,92.97,80.37z"></path>
        <path fill="#70757A" d="M96.83,79.13c0.52,0.73,1.61,2.47,2.1,4.57h0.32c-0.44-2-1.46-3.69-2.04-4.54
		C97.09,79.14,96.96,79.14,96.83,79.13z"></path>
        <path fill="#70757A" d="M105.91,81.54c-0.11-0.05-0.23-0.1-0.34-0.14c-0.97,0.69-1.69,1.68-2.07,2.29h0.36
		C104.27,83.07,104.99,82.15,105.91,81.54z"></path>
        <path fill="#DADCE0" d="M221.55,92.21h30.55c-0.2-3.06-2.45-4.7-4.59-4.7c-1.84,0-3.15,1.2-3.69,2.87
		c-0.27-1.89-2.13-3.35-4.1-3.35c-1.83,0-3.37,1.26-3.79,2.97c-0.47-1.52-1.89-2.63-3.57-2.63c-1.7,0-3.13,1.14-3.59,2.7
		c-0.49-1.4-1.82-2.41-3.39-2.41C225.38,87.65,221.51,87.74,221.55,92.21z"></path>
        <linearGradient id="SVGID_16_" gradientUnits="userSpaceOnUse" x1="236.7514" y1="84.0435" x2="236.7514" y2="99.0457">
            <stop offset="0" style="stop-color:#202124"></stop>
            <stop offset="1" style="stop-color:#202124;stop-opacity:0"></stop>
        </linearGradient>
        <path opacity="0.3" fill="url(#SVGID_16_)" enable-background="new    " d="M252.12,92.21h-30.55c-0.77,3.06,0.95,4.7,3.09,4.7
		c1.84,0,3.53-1.2,4.6-2.87c-0.33,1.89,1.06,3.35,3.03,3.35c1.83,0,3.77-1.26,4.73-2.97c-0.01,1.52,1.05,2.63,2.73,2.63
		c1.7,0,3.49-1.14,4.45-2.7c0.04,1.4,1.05,2.41,2.62,2.41C246.84,96.77,250.74,96.68,252.12,92.21z"></path>
        <path fill="#70757A" d="M223.45,88.25c0.26,1.22,0.56,2.76,0.72,3.96h0.47c-0.18-1.33-0.52-3.03-0.76-4.18
		C223.74,88.09,223.6,88.16,223.45,88.25L223.45,88.25z"></path>
        <path fill="#70757A" d="M224.52,87.8l1.68,4.41h0.5l-1.72-4.52C224.85,87.72,224.7,87.75,224.52,87.8L224.52,87.8z"></path>
        <path fill="#70757A" d="M234.92,88.4l-2.88,3.81h0.59l2.61-3.46C235.15,88.63,235.04,88.51,234.92,88.4L234.92,88.4z"></path>
        <path fill="#70757A" d="M231.97,87.4c-0.18,0.02-0.35,0.05-0.52,0.09c-0.28,1.06-0.69,3.01-0.5,4.72h0.47
		C231.22,90.46,231.71,88.37,231.97,87.4z"></path>
        <path fill="#70757A" d="M242.88,88.45c-0.12-0.13-0.25-0.25-0.38-0.37c-2.65,0.93-4.3,2.89-5.11,4.13h0.58
		C238.83,90.99,240.43,89.23,242.88,88.45z"></path>
        <path fill="#70757A" d="M207.21,135.54l2.35-1.85c-0.05-0.08-0.12-0.16-0.18-0.24l-2.66,2.09L207.21,135.54L207.21,135.54z"></path>
        <path fill="#70757A" d="M205.38,135.54l1.85-3.87c-0.09-0.04-0.19-0.08-0.28-0.11l-1.9,3.99h0.33L205.38,135.54z"></path>
        <path fill="#70757A" d="M203.25,135.54l-0.98-4.46c-0.1,0.02-0.2,0.03-0.3,0.05l0.97,4.41H203.25z"></path>
        <path fill="#70757A" d="M199.32,132.37c-0.08,0.07-0.15,0.13-0.22,0.2l2.32,2.97h0.38L199.32,132.37L199.32,132.37z"></path>
    </g>
</svg>