<?xml version="1.0" encoding="utf-8"?>
<!-- Generator: Adobe Illustrator 24.3.0, SVG Export Plug-In . SVG Version: 6.00 Build 0)  -->
<svg version="1.1" id="Layer_1" xmlns="http://www.w3.org/2000/svg" xmlns:xlink="http://www.w3.org/1999/xlink" x="0px" y="0px"
	 width="290px" height="200px" viewBox="0 0 290 200" enable-background="new 0 0 290 200" xml:space="preserve">
<polygon fill="#70757A" points="105.98,70.42 105.95,177.8 205.35,177.8 205.35,70.42 "/>
<linearGradient id="SVGID_1_" gradientUnits="userSpaceOnUse" x1="155.6589" y1="140.9529" x2="155.6589" y2="70.4692" gradientTransform="matrix(1 0 0 -1 0 200)">
	<stop  offset="0" style="stop-color:#FFFFFF"/>
	<stop  offset="1" style="stop-color:#FFFFFF;stop-opacity:0"/>
</linearGradient>
<rect x="105.98" y="70.42" opacity="0.4" fill="url(#SVGID_1_)" width="99.36" height="107.38"/>
<polygon fill="#3C4043" points="166.07,174.59 166.07,139.38 146.07,139.38 146.07,174.59 105.82,174.59 105.82,175.27 
	146.07,175.27 146.07,177.8 146.76,177.8 146.76,140.06 165.38,140.06 165.38,177.8 166.07,177.8 166.07,175.27 205.47,175.27 
	205.47,174.59 "/>
<g>
	<rect x="105.85" y="93.59" fill="#3C4043" width="99.62" height="0.68"/>
	<rect x="105.85" y="75.58" fill="#3C4043" width="99.62" height="0.68"/>
</g>
<rect x="111.97" y="139.72" fill="#9AA0A6" width="27.89" height="28.93"/>
<rect x="171.87" y="139.72" fill="#9AA0A6" width="27.89" height="28.93"/>
<rect x="148.97" y="148.1" fill="#9AA0A6" width="14.2" height="26.83"/>
<rect x="148.97" y="141.82" fill="#9AA0A6" width="14.2" height="4.69"/>
<radialGradient id="SVGID_2_" cx="145.0054" cy="178.0577" r="144.2264" gradientTransform="matrix(1 0 0 0.1673 -0.2357 149.4453)" gradientUnits="userSpaceOnUse">
	<stop  offset="0" style="stop-color:#9AA0A6;stop-opacity:0.8"/>
	<stop  offset="1" style="stop-color:#3C4043;stop-opacity:0"/>
</radialGradient>
<path fill="url(#SVGID_2_)" d="M0,177.76l0.02,22.33l289.96,0.05l0.02-22.3L0,177.76z M102.18,179.07c0,0-5.26,8.3-14.25,8.3
	c-10.74,0-15.61-9.58-15.61-9.58l151.95,0.02c-1.06,3.18-4.77,4.53-7.5,2.89l-0.24,1.1l50.45,18.34H158.09l-40.75-17.41
	C107.8,187.26,102.18,179.07,102.18,179.07z"/>
<linearGradient id="SVGID_3_" gradientUnits="userSpaceOnUse" x1="155.6472" y1="145.7122" x2="155.6472" y2="47.1444" gradientTransform="matrix(1 0 0 -1 0 200)">
	<stop  offset="0" style="stop-color:#202124"/>
	<stop  offset="1" style="stop-color:#202124;stop-opacity:0"/>
</linearGradient>
<polygon fill="url(#SVGID_3_)" points="205.35,127.12 173.53,169.35 105.95,169.04 105.95,121.79 205.32,121.79 "/>
<path fill="#3C4043" d="M122.47,177.8c-2.3-3.79-6.18-6.29-10.58-6.29c-3.89,0-7.37,1.95-9.71,5.02c-3.29-4.99-8.58-8.23-14.54-8.23
	c-6.46,0-12.12,3.79-15.31,9.5H122.47z"/>
<path fill="#9AA0A6" d="M89.42,177.8l-3.77-9.37c-0.37,0.04-0.72,0.1-1.08,0.17l3.7,9.2L89.42,177.8L89.42,177.8z"/>
<path fill="#9AA0A6" d="M84.31,177.8l-6.2-6.45c-0.3,0.2-0.57,0.42-0.86,0.63l5.58,5.81L84.31,177.8L84.31,177.8z"/>
<path fill="#9AA0A6" d="M95.44,177.8l3.77-4.79c-0.26-0.24-0.52-0.48-0.8-0.7l-4.33,5.49L95.44,177.8L95.44,177.8z"/>
<path fill="#9AA0A6" d="M111.74,177.8l-0.57-6.24c-0.36,0.03-0.71,0.05-1.06,0.11l0.57,6.13L111.74,177.8L111.74,177.8z"/>
<path fill="#9AA0A6" d="M115.83,177.8l3.37-3.7c-0.28-0.22-0.57-0.43-0.87-0.62l-3.95,4.33L115.83,177.8L115.83,177.8z"/>
<path fill="#3C4043" d="M219.35,174.25c-0.94,0-1.83,0.25-2.58,0.7c-0.55-3.89-3.89-6.89-7.94-6.89c-3.16,0-5.89,1.83-7.19,4.48
	c-0.27-0.04-0.55-0.07-0.83-0.07c-2.96,0-5.37,2.41-5.37,5.37h5.56h5.17h8.25h2.23h7.62C223.6,175.75,221.65,174.25,219.35,174.25z"
	/>
<path fill="#9AA0A6" d="M199.41,172.65c1.19,1.34,3.05,3.46,4.57,5.18h1.42c-0.98-1.11-3.18-3.61-4.73-5.36
	C200.24,172.48,199.81,172.54,199.41,172.65z"/>
<path fill="#9AA0A6" d="M215.49,171.61l-2.78,6.22h1.16l2.26-5.05C215.96,172.37,215.74,171.98,215.49,171.61z"/>
<rect x="102.67" y="98.9" fill="#3C4043" width="105.41" height="30.33"/>
<linearGradient id="SVGID_4_" gradientUnits="userSpaceOnUse" x1="147.209" y1="26.2728" x2="156.6003" y2="127.2293">
	<stop  offset="0" style="stop-color:#9AA0A6"/>
	<stop  offset="0.9327" style="stop-color:#9AA0A6;stop-opacity:0.0673"/>
	<stop  offset="1" style="stop-color:#9AA0A6;stop-opacity:0"/>
</linearGradient>
<rect x="102.67" y="98.9" opacity="0.4" fill="url(#SVGID_4_)" width="105.41" height="30.33"/>
<path fill="#3C4043" d="M208.08,129.21v3.72c0,1.61-1.31,2.91-2.93,2.91l0,0c-1.62,0-2.93-1.3-2.93-2.91v-0.01
	c0,1.62-1.3,2.92-2.92,2.92h-0.02c-1.62,0-2.92-1.3-2.92-2.92c0,1.62-1.3,2.92-2.92,2.92h-0.02c-1.62,0-2.92-1.3-2.92-2.92
	c0,1.62-1.3,2.92-2.92,2.92h-0.02c-1.62,0-2.92-1.3-2.92-2.92c0,1.62-1.3,2.92-2.92,2.92h-0.02c-1.62,0-2.92-1.3-2.92-2.92
	c0,1.62-1.3,2.92-2.92,2.92h-0.02c-1.62,0-2.92-1.3-2.92-2.92c0,1.62-1.3,2.92-2.92,2.92h-0.02c-1.62,0-2.92-1.3-2.92-2.92
	c0,1.62-1.3,2.92-2.92,2.92h-0.02c-1.62,0-2.92-1.3-2.92-2.92c0,1.62-1.3,2.92-2.92,2.92h-0.02c-1.62,0-2.92-1.3-2.92-2.92
	c0,1.62-1.3,2.92-2.92,2.92h-0.02c-1.62,0-2.92-1.3-2.92-2.92c0,1.62-1.3,2.92-2.92,2.92h-0.02c-1.62,0-2.92-1.3-2.92-2.92
	c0,1.62-1.3,2.92-2.92,2.92h-0.02c-1.62,0-2.92-1.3-2.92-2.92c0,1.62-1.3,2.92-2.92,2.92h-0.02c-1.62,0-2.92-1.3-2.92-2.92
	c0,1.62-1.3,2.92-2.92,2.92h-0.02c-1.62,0-2.92-1.3-2.92-2.92c0,1.62-1.3,2.92-2.92,2.92h-0.02c-1.62,0-2.92-1.3-2.92-2.92
	c0,1.62-1.3,2.92-2.92,2.92h-0.02c-1.62,0-2.92-1.3-2.92-2.92c0,1.62-1.3,2.92-2.92,2.92h-0.02c-1.62,0-2.92-1.3-2.92-2.92
	c0,1.62-1.3,2.92-2.92,2.92h-0.02c-1.62,0-2.92-1.3-2.92-2.92v-3.76L208.08,129.21z"/>
<linearGradient id="SVGID_5_" gradientUnits="userSpaceOnUse" x1="155.345" y1="100.6479" x2="155.345" y2="63.2269" gradientTransform="matrix(1 0 0 -1 0 200)">
	<stop  offset="0" style="stop-color:#202124"/>
	<stop  offset="1" style="stop-color:#202124;stop-opacity:0"/>
</linearGradient>
<path fill="url(#SVGID_5_)" d="M208.08,129.26v3.72c0,1.61-1.31,2.91-2.93,2.91l0,0c-1.62,0-2.93-1.3-2.93-2.91v-0.01
	c0,1.62-1.3,2.92-2.92,2.92h-0.02c-1.62,0-2.92-1.3-2.92-2.92c0,1.62-1.3,2.92-2.92,2.92h-0.02c-1.62,0-2.92-1.3-2.92-2.92
	c0,1.62-1.3,2.92-2.92,2.92h-0.02c-1.62,0-2.92-1.3-2.92-2.92c0,1.62-1.3,2.92-2.92,2.92h-0.02c-1.62,0-2.92-1.3-2.92-2.92
	c0,1.62-1.3,2.92-2.92,2.92h-0.02c-1.62,0-2.92-1.3-2.92-2.92c0,1.62-1.3,2.92-2.92,2.92h-0.02c-1.62,0-2.92-1.3-2.92-2.92
	c0,1.62-1.3,2.92-2.92,2.92h-0.02c-1.62,0-2.92-1.3-2.92-2.92c0,1.62-1.3,2.92-2.92,2.92h-0.02c-1.62,0-2.92-1.3-2.92-2.92
	c0,1.62-1.3,2.92-2.92,2.92h-0.02c-1.62,0-2.92-1.3-2.92-2.92c0,1.62-1.3,2.92-2.92,2.92h-0.02c-1.62,0-2.92-1.3-2.92-2.92
	c0,1.62-1.3,2.92-2.92,2.92h-0.02c-1.62,0-2.92-1.3-2.92-2.92c0,1.62-1.3,2.92-2.92,2.92h-0.02c-1.62,0-2.92-1.3-2.92-2.92
	c0,1.62-1.3,2.92-2.92,2.92h-0.02c-1.62,0-2.92-1.3-2.92-2.92c0,1.62-1.3,2.92-2.92,2.92h-0.02c-1.62,0-2.92-1.3-2.92-2.92
	c0,1.62-1.3,2.92-2.92,2.92h-0.02c-1.62,0-2.92-1.3-2.92-2.92c0,1.62-1.3,2.92-2.92,2.92h-0.02c-1.62,0-2.92-1.3-2.92-2.92
	c0,1.62-1.3,2.92-2.92,2.92h-0.02c-1.62,0-2.92-1.3-2.92-2.92v-3.76L208.08,129.26z"/>
<linearGradient id="SVGID_6_" gradientUnits="userSpaceOnUse" x1="188.0619" y1="12.3231" x2="123.6272" y2="98.1492">
	<stop  offset="0" style="stop-color:#202124"/>
	<stop  offset="1" style="stop-color:#202124;stop-opacity:0"/>
</linearGradient>
<polygon fill="url(#SVGID_6_)" points="155.95,85.77 131.26,106.22 107.1,89.49 133.22,67.67 "/>
<path fill="#5F6368" d="M152.1,48.57L152.1,48.57c-3.19-2.3-7.21-3.29-11.16-2.66v0c0,0,0,0,0,0c0,0,0,0,0,0l0,0
	c-1.48,0.24-2.95,0.7-4.35,1.4c-4.13,2.07-6.89,5.78-7.89,9.95l0,0c-0.79,3.32-0.47,6.92,1.17,10.21c1.27,2.53,2.8,4.33,4.56,5.74
	l0,0c2.95,2.38,6.51,3.69,10.46,5.59l0,0c1.28,0.62,2.6,1.3,3.95,2.1c4.84,2.86,5.28,5.79,7.01,4.93c1.77-0.88-0.28-3.01,0.33-8.6
	c1.02-9.24,4.64-15.04,0.56-23.2C155.62,51.78,154.01,49.95,152.1,48.57z M140.73,55.61c2.83-1.42,6.28-0.27,7.7,2.57
	c0.61,1.22,0.74,2.56,0.47,3.8l0,0.02c-0.01,0.03-0.01,0.05-0.02,0.08l0,0.01c0,0,0,0.01,0,0.01l0,0c-0.38,1.59-1.44,3-3.01,3.79
	c-2.83,1.42-6.28,0.27-7.7-2.57c-0.6-1.19-0.73-2.49-0.49-3.7l0-0.01c0.01-0.06,0.02-0.11,0.03-0.17l0,0
	c0.01-0.03,0.02-0.06,0.03-0.09l0.02-0.08C138.18,57.72,139.21,56.37,140.73,55.61z"/>
<linearGradient id="SVGID_7_" gradientUnits="userSpaceOnUse" x1="132.4192" y1="61.1969" x2="139.0105" y2="78.532">
	<stop  offset="0" style="stop-color:#4F4F4F"/>
	<stop  offset="1" style="stop-color:#202124;stop-opacity:0"/>
</linearGradient>
<path fill="url(#SVGID_7_)" d="M137.56,64.92c0.05,0.29,0.06,0.58,0.06,0.87c0,0.04,0,0.07,0,0.11c-0.01,0.28-0.04,0.55-0.08,0.82
	c-0.01,0.04-0.02,0.08-0.02,0.13c-0.05,0.27-0.12,0.53-0.22,0.79c-0.01,0.03-0.02,0.06-0.04,0.09c-0.2,0.53-0.48,1.02-0.83,1.47
	c-0.02,0.03-0.05,0.06-0.07,0.09c-0.17,0.21-0.36,0.4-0.56,0.58c-0.04,0.03-0.07,0.07-0.11,0.1c-0.21,0.18-0.43,0.34-0.66,0.49
	c-0.04,0.02-0.07,0.04-0.11,0.06c-0.25,0.15-0.51,0.28-0.8,0.39l-1.51,0.59c0.58,0.63,1.18,1.2,1.82,1.71l0,0
	c2.3,1.86,4.98,3.06,7.92,4.41L137.56,64.92L137.56,64.92z"/>
<linearGradient id="SVGID_8_" gradientUnits="userSpaceOnUse" x1="98.7048" y1="41.2103" x2="36.8787" y2="28.8842">
	<stop  offset="0" style="stop-color:#9AA0A6"/>
	<stop  offset="1" style="stop-color:#6A6D71;stop-opacity:0"/>
	<stop  offset="1" style="stop-color:#9AA0A6;stop-opacity:0"/>
</linearGradient>
<path fill="url(#SVGID_8_)" d="M141.61,41.03l-0.27-0.2c0.66-0.33,1.22-0.85,1.61-1.53c0.95-1.68,0.51-3.81-1.04-4.97l-13.98-10.49
	c-1.83-1.37-4.09-2.04-6.37-1.87l-3.87,0.32l15.25-13.15c2.06-1.77,2.27-4.89,0.47-6.92c-1.65-1.87-4.44-2.2-6.48-0.76L76.46,37.08
	L40.21,18.87L25.96,68.78l43.56,6.76c0,0,12.97,15.43,29.6,9.09l33.49-13.13l1.51-0.59c2.79-1.09,4.2-4.22,3.18-7.04
	c-0.88-2.43-3.33-3.92-5.89-3.6l-3.11,0.39l-22.58,2.86c-4.68,0.59-6.6-5.81-2.37-7.89l13.25-6.51c1.24-0.61,2.69-0.67,3.97-0.15
	l9.9,3.97c1.42-2.34,3.48-4.32,6.11-5.64c1.41-0.7,2.88-1.17,4.35-1.4v0c0,0,0,0,0,0c0,0,0,0,0,0c0.61-0.1,1.21-0.14,1.82-0.16
	C143.54,44.11,143.08,42.13,141.61,41.03z"/>
<linearGradient id="SVGID_9_" gradientUnits="userSpaceOnUse" x1="116.6525" y1="74.9095" x2="38.0004" y2="66.9529">
	<stop  offset="0" style="stop-color:#202124"/>
	<stop  offset="1" style="stop-color:#202124;stop-opacity:0"/>
</linearGradient>
<path fill="url(#SVGID_9_)" d="M69.52,75.54c0,0-4.28-5.39-4.76-11.28l-38.13,1.07l-0.96,3.36L69.52,75.54z"/>
<path fill="#202124" d="M133.61,46c0.09-0.18,0.21-0.33,0.36-0.45c0.04-0.03,0.24-0.19,0.55-0.27c0.34-0.09,0.63-0.03,0.77,0.01
	c-0.07-0.05-0.15-0.1-0.22-0.16c-0.15-0.11-0.29-0.22-0.43-0.33c-0.06,0.01-0.14,0.02-0.23,0.04c-0.32,0.07-0.56,0.23-0.71,0.34
	c-0.21,0.16-0.38,0.37-0.51,0.62c-0.4,0.79-0.17,1.75,0.54,2.29l0.72,0.54c0.13-0.1,0.26-0.19,0.39-0.28l-0.84-0.63
	C133.48,47.31,133.31,46.6,133.61,46z"/>
<linearGradient id="SVGID_10_" gradientUnits="userSpaceOnUse" x1="97.588" y1="30.3829" x2="140.5011" y2="40.1655">
	<stop  offset="0" style="stop-color:#2D3032"/>
	<stop  offset="1" style="stop-color:#2D3032;stop-opacity:0"/>
</linearGradient>
<path fill="url(#SVGID_10_)" d="M140.94,45.91C140.94,45.91,140.94,45.91,140.94,45.91C140.95,45.91,140.95,45.91,140.94,45.91
	c0.61-0.1,1.22-0.14,1.83-0.16c0.78-1.64,0.32-3.62-1.15-4.72l-13.98-10.49c-0.11-0.09-0.23-0.17-0.35-0.25
	c-2.39-1.63-5.48-1.85-8.15-0.73l-19.24,8.07l19.19-1.59c2.28-0.17,4.54,0.5,6.37,1.87l12,9C138.6,46.44,139.77,46.1,140.94,45.91
	L140.94,45.91z"/>
<linearGradient id="SVGID_11_" gradientUnits="userSpaceOnUse" x1="82.8732" y1="15.6246" x2="141.5689" y2="36.1028">
	<stop  offset="0" style="stop-color:#2D3032"/>
	<stop  offset="1" style="stop-color:#2D3032;stop-opacity:0"/>
</linearGradient>
<path fill="url(#SVGID_11_)" d="M141.35,40.83c0.66-0.33,1.22-0.85,1.61-1.53l0,0c0.95-1.68,0.51-3.81-1.04-4.97l-13.98-10.49
	c-0.11-0.09-0.23-0.17-0.35-0.25c-2.4-1.64-5.49-1.85-8.16-0.71l-17.34,7.38l19.19-1.59c2.28-0.17,4.54,0.5,6.37,1.87L141.35,40.83"
	/>
<linearGradient id="SVGID_12_" gradientUnits="userSpaceOnUse" x1="92.5508" y1="29.7829" x2="123.7247" y2="17.6525">
	<stop  offset="0" style="stop-color:#4F4F4F"/>
	<stop  offset="1" style="stop-color:#202124;stop-opacity:0"/>
</linearGradient>
<polygon fill="url(#SVGID_12_)" points="117.7,22.29 103.62,23.46 127.39,13.93 "/>
<path fill="#202124" d="M131.52,65.95l-5.07,1.99c-1.53,0.6-2.32,2.29-1.81,3.85c0.13,0.41,0.35,0.77,0.62,1.08
	c0.13,0.15,0.46,0.49,1,0.75c0.19,0.09,0.36,0.15,0.49,0.18c0.29-0.11,0.57-0.22,0.85-0.33c-0.16,0-0.37-0.02-0.61-0.08
	c-0.28-0.07-0.49-0.16-0.54-0.19c-0.66-0.31-1.15-0.86-1.38-1.55c-0.23-0.69-0.16-1.41,0.15-2.01c0.28-0.56,0.76-1.02,1.39-1.27
	l5.07-1.99c0.68-0.27,1.42-0.24,2.08,0.07c0.66,0.31,1.15,0.86,1.38,1.55c0.02,0.06,0.11,0.35,0.13,0.74
	c0.04,0.83-0.28,1.51-0.48,1.85c0.1-0.06,0.22-0.12,0.33-0.2c0.11-0.07,0.21-0.14,0.3-0.21c0.14-0.3,0.33-0.82,0.31-1.47
	c-0.01-0.17-0.03-0.48-0.16-0.86c-0.27-0.81-0.85-1.46-1.62-1.83C133.18,65.67,132.32,65.64,131.52,65.95z"/>
<path fill="#202124" d="M137.03,30.83c-0.53,0.12-0.97,0.47-1.22,0.96c-0.4,0.79-0.17,1.75,0.54,2.29l3.51,2.63
	c0.44,0.33,0.99,0.44,1.52,0.32c0.27-0.06,0.51-0.18,0.72-0.35c0.29-0.23,0.44-0.49,0.5-0.62c0.18-0.35,0.19-0.67,0.19-0.84
	c-0.04-0.06-0.07-0.11-0.12-0.17c-0.18-0.24-0.38-0.44-0.56-0.58c0.08,0.14,0.28,0.55,0.2,1.02c-0.04,0.19-0.11,0.34-0.12,0.36
	c-0.18,0.36-0.51,0.63-0.91,0.72c-0.4,0.09-0.81,0.01-1.14-0.24l-3.51-2.63c-0.53-0.4-0.7-1.12-0.4-1.71
	c0.18-0.36,0.51-0.63,0.91-0.72c0.25-0.06,0.5-0.05,0.74,0.03l-0.67-0.51C137.14,30.81,137.08,30.82,137.03,30.83z"/>
<path fill="#202124" d="M127.32,1.22c0.11,0.01,0.63,0.09,0.94,0.52c0.15,0.2,0.2,0.41,0.21,0.45c0.04,0.16,0.04,0.33,0.02,0.5
	c-0.06,0.34-0.24,0.63-0.52,0.83l-3.72,2.62c-0.56,0.4-1.35,0.27-1.75-0.29c-0.2-0.28-0.28-0.61-0.22-0.95
	c0.01-0.06,0.03-0.12,0.04-0.18l-0.52,0.37c-0.01,0.37,0.11,0.73,0.33,1.03c0.55,0.76,1.62,0.94,2.39,0.4l3.72-2.62
	c0.24-0.17,0.42-0.38,0.55-0.63c0.08-0.15,0.13-0.32,0.16-0.5c0.04-0.23,0.03-0.46-0.02-0.67c-0.03-0.14-0.11-0.38-0.29-0.62
	c-0.24-0.33-0.54-0.49-0.69-0.55c-0.1,0.04-0.22,0.09-0.33,0.15C127.51,1.12,127.41,1.17,127.32,1.22z"/>
<path fill="#202124" d="M141.98,41.34c-0.06-0.06-0.12-0.11-0.19-0.17c-0.16-0.13-0.31-0.25-0.46-0.35
	c0.08,0.15,0.27,0.56,0.18,1.02c-0.04,0.19-0.11,0.34-0.12,0.37c-0.18,0.36-0.51,0.63-0.91,0.72c-0.4,0.09-0.81,0.01-1.14-0.24
	l-3.51-2.63c-0.53-0.4-0.7-1.12-0.4-1.71c0.18-0.36,0.51-0.63,0.91-0.72c0.14-0.03,0.26-0.04,0.3-0.04c0.26,0,0.46,0.08,0.59,0.14
	c-0.26-0.2-0.52-0.39-0.78-0.59c-0.05,0.01-0.13,0.01-0.21,0.03c-0.1,0.02-0.4,0.1-0.69,0.33c-0.22,0.17-0.4,0.38-0.52,0.63
	c-0.4,0.79-0.17,1.75,0.54,2.29l3.51,2.63c0.44,0.33,0.99,0.44,1.52,0.32c0.53-0.12,0.97-0.47,1.22-0.96
	c0.08-0.16,0.12-0.3,0.14-0.38C142.02,41.75,142,41.49,141.98,41.34z"/>
</svg>
