<?xml version="1.0" encoding="utf-8"?>
<!-- Generator: Adobe Illustrator 24.3.0, SVG Export Plug-In . SVG Version: 6.00 Build 0)  -->
<svg version="1.1" id="Layer_1" xmlns="http://www.w3.org/2000/svg" xmlns:xlink="http://www.w3.org/1999/xlink" x="0px" y="0px"
	 width="290px" height="200px" viewBox="0 0 290 200" enable-background="new 0 0 290 200" xml:space="preserve">
<path fill="#5F6368" d="M96.16,97.3l-69.45,0.14c-1.72,0-3.1-1.39-3.12-3.1l-0.13-70.35c-0.01-1.52,1.23-2.76,2.75-2.75l70.16-0.14
	c1.52-0.01,2.76,1.23,2.75,2.75l0.15,70.36C99.26,95.9,97.87,97.3,96.16,97.3z"/>
<linearGradient id="SVGID_1_" gradientUnits="userSpaceOnUse" x1="-84.5344" y1="-359.9731" x2="55.0055" y2="118.9023" gradientTransform="matrix(1 0 0 -1 0 200)">
	<stop  offset="0" style="stop-color:#202124"/>
	<stop  offset="1" style="stop-color:#202124;stop-opacity:0"/>
</linearGradient>
<path fill="url(#SVGID_1_)" d="M96.19,97.37l-69.45,0.14c-1.72,0-3.1-1.39-3.12-3.1l-0.13-70.35c-0.01-1.52,1.23-2.76,2.75-2.75
	l70.16-0.14c1.52-0.01,2.76,1.23,2.75,2.75l0.15,70.36C99.28,95.97,97.9,97.37,96.19,97.37z"/>
<path fill="#202124" d="M26.44,24.14L95.18,24l0.1,48.93l-68.74,0.14L26.44,24.14z"/>
<rect x="34.61" y="30.23" fill="#5D6166" width="51.47" height="36.94"/>
<path fill="none" stroke="#202124" stroke-width="0.6292" stroke-miterlimit="10" d="M71.09,52.42c-11.97-6.66-22.91,0-22.91,0
	l-1.74-5.73c0,0,12.53-6.66,26.24,0L71.09,52.42z"/>
<line fill="none" stroke="#202124" stroke-width="0.6292" stroke-miterlimit="10" x1="55.31" y1="54.06" x2="64.1" y2="54.06"/>
<line fill="none" stroke="#202124" stroke-width="0.6292" stroke-miterlimit="10" x1="57.31" y1="40.15" x2="61.79" y2="40.15"/>
<path fill="#5F6368" d="M251.09,126.33l-95.27,0.19c-2.35,0-4.26-1.9-4.28-4.25l-0.18-96.5c-0.01-2.08,1.69-3.78,3.77-3.77
	l96.25-0.19c2.08-0.01,3.78,1.69,3.77,3.77l0.21,96.52C255.33,124.41,253.43,126.33,251.09,126.33z"/>
<path fill="#202124" d="M155.44,25.98l94.3-0.19l0.14,67.11l-94.3,0.19L155.44,25.98z"/>
<rect x="173.64" y="37.68" fill="#70757A" width="59.04" height="55.22"/>
<path fill="none" stroke="#202124" stroke-width="0.3533" stroke-miterlimit="10" d="M197.22,92.9l-0.01-24.22
	c0-3.7,2.66-6.7,5.95-6.7l0,0c3.29,0,5.95,3,5.95,6.69l0.01,24.22"/>
<line fill="none" stroke="#202124" stroke-width="0.3533" stroke-miterlimit="10" x1="197.22" y1="84.45" x2="173.65" y2="84.46"/>
<line fill="none" stroke="#202124" stroke-width="0.3533" stroke-miterlimit="10" x1="232.59" y1="84.43" x2="209.12" y2="84.44"/>
<rect x="177.93" y="61.98" fill="none" stroke="#202124" stroke-width="0.3533" stroke-miterlimit="10" width="13.7" height="22.47"/>
<rect x="214.6" y="61.97" fill="none" stroke="#202124" stroke-width="0.3533" stroke-miterlimit="10" width="13.7" height="22.47"/>
<rect x="173.64" y="40.94" fill="#3C4043" width="59.04" height="16.03"/>
<linearGradient id="SVGID_2_" gradientUnits="userSpaceOnUse" x1="203.16" y1="186.2084" x2="203.16" y2="145.199" gradientTransform="matrix(1 0 0 -1 0 200)">
	<stop  offset="0" style="stop-color:#202124;stop-opacity:0.1"/>
	<stop  offset="1" style="stop-color:#202124;stop-opacity:0"/>
</linearGradient>
<rect x="173.64" y="40.94" fill="url(#SVGID_2_)" width="59.04" height="16.03"/>
<path fill="none" stroke="#202124" stroke-width="0.6822" stroke-miterlimit="10" d="M180.02,51.99c0,0,12.13-2.75,11.87-6.75
	c-0.17-2.61-8,6.74-0.24,6.75c6.07,0.01,9.74-6.95,10.7-3.2c1.08,4.24,8.29-1.6,7.66-2.34c-0.86-1-6.41,4.6-1.89,5.95
	c4.52,1.35,10.83-9.19,13.19-4.81s4.13,2.78,4.13,2.78"/>
<rect x="235.41" y="55.77" fill="#70757A" width="7.38" height="16.35"/>
<line fill="none" stroke="#70757A" stroke-width="0.496" stroke-miterlimit="10" x1="232.68" y1="58.29" x2="235.41" y2="58.29"/>
<line fill="none" stroke="#70757A" stroke-width="0.496" stroke-miterlimit="10" x1="232.68" y1="69.64" x2="235.41" y2="69.64"/>
<linearGradient id="SVGID_3_" gradientUnits="userSpaceOnUse" x1="274.0786" y1="247.3177" x2="59.4832" y2="99.8494" gradientTransform="matrix(1 0 0 -1 0 200)">
	<stop  offset="0" style="stop-color:#202124"/>
	<stop  offset="1" style="stop-color:#202124;stop-opacity:0"/>
</linearGradient>
<polygon fill="url(#SVGID_3_)" points="26.71,97.44 90.25,69.84 100.32,97.32 "/>
<linearGradient id="SVGID_4_" gradientUnits="userSpaceOnUse" x1="6.8456" y1="57.378" x2="221.0944" y2="57.378" gradientTransform="matrix(1 0 0 -1 0 200)">
	<stop  offset="0" style="stop-color:#202124;stop-opacity:0.2"/>
	<stop  offset="0.6257" style="stop-color:#5F6368"/>
</linearGradient>
<path fill="none" stroke="url(#SVGID_4_)" stroke-width="1.6089" stroke-linecap="round" stroke-miterlimit="10" stroke-dasharray="4.8268" d="
	M220.29,162.53c0,0-49.67,46.19-97.61,12.2c-29.77-21.11-49.67-77.56-22.66-76.69s-2.58,59.28-18.3,47.06
	c-15.44-12-47.93-47.06-74.07-38.34"/>
<path fill="#3C4043" d="M186.21,174.18l-95.27,0.19c-2.35,0-4.26-1.9-4.28-4.25l-0.18-96.5c-0.01-2.08,1.69-3.78,3.77-3.77
	l96.25-0.19c2.08-0.01,3.78,1.69,3.77,3.77l0.21,96.52C190.45,172.26,188.55,174.18,186.21,174.18z"/>
<linearGradient id="SVGID_5_" gradientUnits="userSpaceOnUse" x1="138.38" y1="-97.6119" x2="138.38" y2="115.6621" gradientTransform="matrix(1 0 0 -1 0 200)">
	<stop  offset="0" style="stop-color:#202124"/>
	<stop  offset="1" style="stop-color:#202124;stop-opacity:0"/>
</linearGradient>
<path fill="url(#SVGID_5_)" d="M186.11,174.4l-95.27,0.19c-2.35,0-4.26-1.9-4.28-4.25l-0.18-96.5c-0.01-2.08,1.69-3.78,3.77-3.77
	l96.25-0.19c2.08-0.01,3.78,1.69,3.77,3.77l0.21,96.52C190.35,172.48,188.45,174.4,186.11,174.4z"/>
<path fill="#202124" d="M90.56,73.83l94.3-0.19l0.17,67.07l-94.3,0.19L90.56,73.83z"/>
<path fill="#5F6368" d="M178.84,117.42l-8.16-10.24V78.54h-45.75c-2.76,0-5,2.24-5,4.99v57.34h50.75v-22.78h7.81
	C178.85,118.1,179.05,117.7,178.84,117.42z"/>
<radialGradient id="SVGID_6_" cx="113.8676" cy="113.9046" r="54.2695" gradientTransform="matrix(1 0 0 -1 2.8231 180.1664)" gradientUnits="userSpaceOnUse">
	<stop  offset="0" style="stop-color:#FFFFFF"/>
	<stop  offset="1" style="stop-color:#FFFFFF;stop-opacity:0"/>
</radialGradient>
<path opacity="0.4" fill="url(#SVGID_6_)" enable-background="new    " d="M178.84,117.42l-8.16-10.24V78.54h-45.75
	c-2.76,0-5,2.24-5,4.99v57.34h50.75v-22.78h7.81C178.85,118.1,179.05,117.7,178.84,117.42z"/>
<linearGradient id="SVGID_7_" gradientUnits="userSpaceOnUse" x1="149.4277" y1="-14.4958" x2="149.4277" y2="72.4173" gradientTransform="matrix(1 0 0 -1 0 200)">
	<stop  offset="0" style="stop-color:#202124"/>
	<stop  offset="1" style="stop-color:#202124;stop-opacity:0"/>
</linearGradient>
<path fill="url(#SVGID_7_)" d="M178.84,117.42l-8.16-10.24V78.54h-45.75c-2.76,0-5,2.24-5,4.99v57.34h50.75v-22.78h7.81
	C178.85,118.1,179.05,117.7,178.84,117.42z"/>
<linearGradient id="SVGID_8_" gradientUnits="userSpaceOnUse" x1="180.7035" y1="142.8843" x2="140.4589" y2="65.6803" gradientTransform="matrix(1 0 0 -1 0 200)">
	<stop  offset="0" style="stop-color:#202124"/>
	<stop  offset="1" style="stop-color:#202124;stop-opacity:0"/>
</linearGradient>
<polygon fill="url(#SVGID_8_)" points="170.74,118.23 160.78,141.02 130.49,141.02 130.49,107.76 "/>
<rect x="152.67" y="123.96" fill="#202124" width="0.33" height="16.92"/>
<rect x="143.48" y="119.14" fill="#202124" width="0.33" height="21.74"/>
<rect x="162.26" y="119.42" fill="#202124" width="0.33" height="21.46"/>
<rect x="143.52" y="123.8" fill="#202124" width="18.78" height="0.33"/>
<rect x="130.36" y="78.54" fill="#202124" width="0.33" height="62.34"/>
<path fill="#3C4043" d="M178.84,117.41l-8.16-10.24h-39.33c-0.46,0-0.75,0.5-0.52,0.91l7.99,9.56l31.85,0.46h7.81
	C178.85,118.1,179.05,117.7,178.84,117.41z"/>
<path fill="#3C4043" d="M178.93,117.66v1.41c0,0.61-0.5,1.11-1.11,1.11l0,0c-0.62,0-1.11-0.5-1.11-1.11l0,0
	c0,0.61-0.5,1.11-1.11,1.11h-0.01c-0.61,0-1.11-0.5-1.11-1.11c0,0.61-0.5,1.11-1.11,1.11h-0.01c-0.61,0-1.11-0.5-1.11-1.11
	c0,0.61-0.5,1.11-1.11,1.11h-0.01c-0.61,0-1.11-0.5-1.11-1.11c0,0.61-0.5,1.11-1.11,1.11h-0.01c-0.61,0-1.11-0.5-1.11-1.11
	c0,0.61-0.5,1.11-1.11,1.11h-0.01c-0.61,0-1.11-0.5-1.11-1.11c0,0.61-0.5,1.11-1.11,1.11h-0.01c-0.61,0-1.11-0.5-1.11-1.11
	c0,0.61-0.5,1.11-1.11,1.11h-0.01c-0.61,0-1.11-0.5-1.11-1.11c0,0.61-0.5,1.11-1.11,1.11h-0.01c-0.61,0-1.11-0.5-1.11-1.11
	c0,0.61-0.5,1.11-1.11,1.11h-0.01c-0.61,0-1.11-0.5-1.11-1.11c0,0.61-0.5,1.11-1.11,1.11h-0.01c-0.61,0-1.11-0.5-1.11-1.11
	c0,0.61-0.5,1.11-1.11,1.11h-0.01c-0.61,0-1.11-0.5-1.11-1.11c0,0.61-0.5,1.11-1.11,1.11h-0.01c-0.61,0-1.11-0.5-1.11-1.11
	c0,0.61-0.5,1.11-1.11,1.11h-0.01c-0.61,0-1.11-0.5-1.11-1.11c0,0.61-0.5,1.11-1.11,1.11h-0.01c-0.61,0-1.11-0.5-1.11-1.11
	c0,0.61-0.5,1.11-1.11,1.11h-0.01c-0.61,0-1.11-0.5-1.11-1.11c0,0.61-0.5,1.11-1.11,1.11h-0.01c-0.61,0-1.11-0.5-1.11-1.11
	c0,0.61-0.5,1.11-1.11,1.11h-0.01c-0.61,0-1.11-0.5-1.11-1.11v-1.43L178.93,117.66z"/>
<polygon fill="#5F6368" points="143.29,117.64 134.93,107.17 139.38,107.17 147.74,117.64 "/>
<path fill="#5F6368" d="M143.29,117.64v1.45c0.01,0.6,0.5,1.09,1.11,1.09h0.01c0.61,0,1.11-0.5,1.11-1.11c0,0.61,0.5,1.11,1.11,1.11
	h0.01c0.6,0,1.08-0.47,1.11-1.06v-1.48L143.29,117.64z"/>
<polygon fill="#5F6368" points="152.2,117.64 143.84,107.17 148.29,107.17 156.65,117.64 "/>
<path fill="#5F6368" d="M152.2,117.64v1.45c0.01,0.6,0.5,1.09,1.11,1.09h0.01c0.61,0,1.11-0.5,1.11-1.11c0,0.61,0.5,1.11,1.11,1.11
	h0.01c0.6,0,1.08-0.47,1.11-1.06v-1.48L152.2,117.64z"/>
<polygon fill="#5F6368" points="161.11,117.64 152.75,107.17 157.2,107.17 165.56,117.64 "/>
<path fill="#5F6368" d="M161.11,117.64v1.45c0.01,0.6,0.5,1.09,1.11,1.09h0.01c0.61,0,1.11-0.5,1.11-1.11c0,0.61,0.5,1.11,1.11,1.11
	h0.01c0.6,0,1.08-0.47,1.11-1.06v-1.48L161.11,117.64z"/>
<polygon fill="#5F6368" points="170.02,117.64 161.66,107.17 166.11,107.17 174.47,117.64 "/>
<path fill="#5F6368" d="M170.02,117.64v1.45c0.01,0.6,0.5,1.09,1.11,1.09h0.01c0.61,0,1.11-0.5,1.11-1.11c0,0.61,0.5,1.11,1.11,1.11
	h0.01c0.6,0,1.08-0.47,1.11-1.06v-1.48L170.02,117.64z"/>
<linearGradient id="SVGID_9_" gradientUnits="userSpaceOnUse" x1="158.865" y1="97.3403" x2="158.865" y2="79.4607" gradientTransform="matrix(1 0 0 -1 0 200)">
	<stop  offset="0" style="stop-color:#202124"/>
	<stop  offset="1" style="stop-color:#202124;stop-opacity:0"/>
</linearGradient>
<path fill="url(#SVGID_9_)" d="M178.93,117.66v1.41c0,0.61-0.5,1.11-1.11,1.11l0,0c-0.62,0-1.11-0.5-1.11-1.11l0,0
	c0,0.61-0.5,1.11-1.11,1.11h-0.01c-0.61,0-1.11-0.5-1.11-1.11c0,0.61-0.5,1.11-1.11,1.11h-0.01c-0.61,0-1.11-0.5-1.11-1.11
	c0,0.61-0.5,1.11-1.11,1.11h-0.01c-0.61,0-1.11-0.5-1.11-1.11c0,0.61-0.5,1.11-1.11,1.11h-0.01c-0.61,0-1.11-0.5-1.11-1.11
	c0,0.61-0.5,1.11-1.11,1.11h-0.01c-0.61,0-1.11-0.5-1.11-1.11c0,0.61-0.5,1.11-1.11,1.11h-0.01c-0.61,0-1.11-0.5-1.11-1.11
	c0,0.61-0.5,1.11-1.11,1.11h-0.01c-0.61,0-1.11-0.5-1.11-1.11c0,0.61-0.5,1.11-1.11,1.11h-0.01c-0.61,0-1.11-0.5-1.11-1.11
	c0,0.61-0.5,1.11-1.11,1.11h-0.01c-0.61,0-1.11-0.5-1.11-1.11c0,0.61-0.5,1.11-1.11,1.11h-0.01c-0.61,0-1.11-0.5-1.11-1.11
	c0,0.61-0.5,1.11-1.11,1.11h-0.01c-0.61,0-1.11-0.5-1.11-1.11c0,0.61-0.5,1.11-1.11,1.11h-0.01c-0.61,0-1.11-0.5-1.11-1.11
	c0,0.61-0.5,1.11-1.11,1.11h-0.01c-0.61,0-1.11-0.5-1.11-1.11c0,0.61-0.5,1.11-1.11,1.11h-0.01c-0.61,0-1.11-0.5-1.11-1.11
	c0,0.61-0.5,1.11-1.11,1.11h-0.01c-0.61,0-1.11-0.5-1.11-1.11c0,0.61-0.5,1.11-1.11,1.11h-0.01c-0.61,0-1.11-0.5-1.11-1.11
	c0,0.61-0.5,1.11-1.11,1.11h-0.01c-0.61,0-1.11-0.5-1.11-1.11v-1.43L178.93,117.66z"/>
<path fill="#5F6368" d="M164.16,95.72l-25.74,7.27c-0.31,0.09-0.56-0.09-0.56-0.4V91.46c0-0.31,0.25-0.63,0.56-0.71l25.74-7.27
	c0.31-0.09,0.56,0.09,0.56,0.4v11.13C164.71,95.31,164.46,95.63,164.16,95.72z"/>
<linearGradient id="SVGID_10_" gradientUnits="userSpaceOnUse" x1="205.8095" y1="54.7985" x2="150.1138" y2="94.0593">
	<stop  offset="0" style="stop-color:#F1F3F4"/>
	<stop  offset="1" style="stop-color:#F1F3F4;stop-opacity:0"/>
</linearGradient>
<path fill="url(#SVGID_10_)" d="M164.16,95.72l-25.74,7.27c-0.31,0.09-0.56-0.09-0.56-0.4V91.46c0-0.31,0.25-0.63,0.56-0.71
	l25.74-7.27c0.31-0.09,0.56,0.09,0.56,0.4v11.13C164.71,95.31,164.46,95.63,164.16,95.72z"/>
<path fill="none" stroke="#3C4043" stroke-width="0.6173" stroke-miterlimit="10" d="M140.03,99.55c0,0,7.35-1.48,7.35-7.31
	c0-1.39-2.21-2.02-2.41,0.2c-0.22,2.46,3.06,6.86,7.5,3.56c4.75-3.53,3.85-6.81,2.67-6.81c-2.07,0-1.68,8.19,8.1,3.36"/>
<path fill="#3C4043" d="M136.27,140.88c-1.94-4.18-5.2-6.93-8.9-6.93c-3.27,0-6.2,2.15-8.18,5.53c-2.77-5.51-7.22-9.08-12.24-9.08
	c-5.43,0-10.2,4.19-12.89,10.48H136.27z"/>
<path fill="#202124" d="M108.15,140.88l-3.16-10.29c-0.11,0.02-0.22,0.05-0.32,0.07l3.14,10.22L108.15,140.88L108.15,140.88z"/>
<path fill="#202124" d="M103.74,140.88l-5.05-6.89c-0.08,0.08-0.16,0.16-0.24,0.24l4.88,6.65H103.74z"/>
<path fill="#202124" d="M113.14,140.88l3.33-5.55c-0.08-0.09-0.15-0.18-0.23-0.27l-3.49,5.81L113.14,140.88z"/>
<path fill="#202124" d="M126.96,140.88l-0.48-6.86c-0.11,0.01-0.22,0.01-0.33,0.03l0.48,6.83H126.96z"/>
<path fill="#202124" d="M130.28,140.88l3.01-4.32c-0.08-0.08-0.16-0.16-0.24-0.24l-3.17,4.56L130.28,140.88L130.28,140.88z"/>
<linearGradient id="SVGID_11_" gradientUnits="userSpaceOnUse" x1="292.9404" y1="78.1013" x2="212.1773" y2="80.5653" gradientTransform="matrix(1 0 0 -1 0 200)">
	<stop  offset="0" style="stop-color:#202124"/>
	<stop  offset="1" style="stop-color:#202124;stop-opacity:0"/>
</linearGradient>
<polygon fill="url(#SVGID_11_)" points="190.66,126.8 255.35,112.73 218.26,126.51 "/>
<polygon fill="#2D3032" points="200.91,133.23 223.45,139.02 228.93,158.03 237.63,141.92 263.07,148.69 281.14,102.97 "/>
<linearGradient id="SVGID_12_" gradientUnits="userSpaceOnUse" x1="224.5379" y1="54.3448" x2="271.9008" y2="84.186" gradientTransform="matrix(1 0 0 -1 0 200)">
	<stop  offset="0" style="stop-color:#9AA0A6"/>
	<stop  offset="1" style="stop-color:#9AA0A6;stop-opacity:0.2"/>
</linearGradient>
<polygon fill="url(#SVGID_12_)" points="200.91,133.23 223.45,139.02 228.93,158.03 237.63,141.92 263.07,148.69 281.14,102.97 "/>
<linearGradient id="SVGID_13_" gradientUnits="userSpaceOnUse" x1="220.1713" y1="47.0837" x2="281.3601" y2="91.7279" gradientTransform="matrix(1 0 0 -1 0 200)">
	<stop  offset="0" style="stop-color:#3C4043"/>
	<stop  offset="0.6592" style="stop-color:#3C4043;stop-opacity:0.2"/>
</linearGradient>
<polygon fill="url(#SVGID_13_)" points="275.07,108.17 223.45,139.02 228.93,158.03 237.63,141.92 "/>
</svg>
