<?xml version="1.0" encoding="utf-8"?>
<!-- Generator: Adobe Illustrator 23.0.4, SVG Export Plug-In . SVG Version: 6.00 Build 0)  -->
<svg version="1.1" id="Layer_1" xmlns="http://www.w3.org/2000/svg" xmlns:xlink="http://www.w3.org/1999/xlink" x="0px" y="0px"
	 width="36px" height="36px" viewBox="0 0 36 36" enable-background="new 0 0 36 36" xml:space="preserve">
<path d="M18,19.5c-4.01,0-12,2.01-12,6V30h24v-4.5C30,21.51,22,19.5,18,19.5z M18,6c-3.31,0-6,2.68-6,6s2.69,6,6,6s6-2.68,6-6
	S21.32,6,18,6z M18,22.5c4.05,0,8.7,1.94,9,3V27H9v-1.49C9.3,24.44,13.95,22.5,18,22.5z M18,9c1.65,0,3,1.35,3,3s-1.35,3-3,3
	s-3-1.35-3-3S16.35,9,18,9z"/>
</svg>
