<svg xmlns="http://www.w3.org/2000/svg" width="410" height="176" viewBox="0 0 410 176"><linearGradient id="a" gradientUnits="userSpaceOnUse" x1="32.2427" y1="172.7126" x2="-.2586" y2="172.7126" gradientTransform="matrix(-1 0 0 1 32.4927 0)"><stop offset="0" style="stop-color:#EFF0F2;stop-opacity:0.2"/><stop offset=".9957" style="stop-color:#D0D3D9;stop-opacity:0.8"/></linearGradient><path fill-rule="evenodd" clip-rule="evenodd" fill="url(#a)" d="M.25 169.43h32.5V176H.25z"/><linearGradient id="b" gradientUnits="userSpaceOnUse" x1="-103.7573" y1="172.7126" x2="-136.2586" y2="172.7126" gradientTransform="matrix(-1 0 0 1 32.4927 0)"><stop offset="0" style="stop-color:#EFF0F2;stop-opacity:0.2"/><stop offset=".9957" style="stop-color:#D0D3D9;stop-opacity:0.8"/></linearGradient><path fill-rule="evenodd" clip-rule="evenodd" fill="url(#b)" d="M136.25 169.43h32.5V176h-32.5z"/><linearGradient id="c" gradientUnits="userSpaceOnUse" x1="-241.7573" y1="172.7126" x2="-274.2586" y2="172.7126" gradientTransform="matrix(-1 0 0 1 32.4927 0)"><stop offset="0" style="stop-color:#EFF0F2;stop-opacity:0.2"/><stop offset=".9957" style="stop-color:#D0D3D9;stop-opacity:0.8"/></linearGradient><path fill-rule="evenodd" clip-rule="evenodd" fill="url(#c)" d="M274.25 169.43h32.5V176h-32.5z"/><path fill-rule="evenodd" clip-rule="evenodd" fill="#2C9C43" d="M241.61 29.33h-64c-2.16 0-3.93 1.77-3.93 3.93v42.65c0 2.16 1.77 3.93 3.93 3.93h23.94c.02.04.02.08.04.11l6.58 12.75c.6 1.17 2.27 1.17 2.88 0l6.58-12.75c.02-.04.02-.08.04-.11h23.94c2.16 0 3.93-1.77 3.93-3.93V33.26c0-2.16-1.77-3.93-3.93-3.93z"/><linearGradient id="d" gradientUnits="userSpaceOnUse" x1="45.3792" y1="89.1928" x2="45.3792" y2="176"><stop offset="0" style="stop-color:#EFF0F2"/><stop offset="1" style="stop-color:#DADCE1"/></linearGradient><path fill-rule="evenodd" clip-rule="evenodd" fill="url(#d)" d="M32.75 176v-58.2l10.88-28.61 14.38 28.47V176z"/><linearGradient id="e" gradientUnits="userSpaceOnUse" x1="87.6581" y1="117.7974" x2="87.6581" y2="176"><stop offset="0" style="stop-color:#EFF0F2"/><stop offset=".9974" style="stop-color:#E8EBED"/></linearGradient><path fill-rule="evenodd" clip-rule="evenodd" fill="url(#e)" d="M117.31 117.8h-59.3V176h59.3v-58.2z"/><linearGradient id="f" gradientUnits="userSpaceOnUse" x1="80.4721" y1="89.1928" x2="80.4721" y2="117.7974"><stop offset="0" style="stop-color:#EFF0F2"/><stop offset="1" style="stop-color:#DADCE1"/></linearGradient><path fill-rule="evenodd" clip-rule="evenodd" fill="url(#f)" d="M102.94 89.19l14.37 28.61h-59.3L43.63 89.19z"/><linearGradient id="g" gradientUnits="userSpaceOnUse" x1="181.2626" y1="118.0299" x2="181.2626" y2="176"><stop offset="0" style="stop-color:#EFF0F2"/><stop offset="1" style="stop-color:#DADCE1"/></linearGradient><path fill-rule="evenodd" clip-rule="evenodd" fill="url(#g)" d="M193.82 118.03l-25.12 23.16V176h25.12z"/><linearGradient id="h" gradientUnits="userSpaceOnUse" x1="223.03" y1="118.0299" x2="223.03" y2="176"><stop offset="0" style="stop-color:#EFF0F2"/><stop offset=".6759" style="stop-color:#EDEEF1"/><stop offset=".919" style="stop-color:#E6E9EC"/><stop offset=".9975" style="stop-color:#E2E5E9"/></linearGradient><path fill-rule="evenodd" clip-rule="evenodd" fill="url(#h)" d="M193.82 118.03h58.42V176h-58.42z"/><linearGradient id="i" gradientUnits="userSpaceOnUse" x1="319.9135" y1="99.5184" x2="319.9135" y2="176"><stop offset="0" style="stop-color:#EFF0F2"/><stop offset="1" style="stop-color:#DADCE1"/></linearGradient><path fill-rule="evenodd" clip-rule="evenodd" fill="url(#i)" d="M319.22 99.52l-12.42 35.44V176h26.23v-41.32z"/><linearGradient id="j" gradientUnits="userSpaceOnUse" x1="355.3553" y1="98.8207" x2="355.3553" y2="134.6811"><stop offset="0" style="stop-color:#EFF0F2"/><stop offset="1" style="stop-color:#DADCE1"/></linearGradient><path fill-rule="evenodd" clip-rule="evenodd" fill="url(#j)" d="M377.26 98.82h-58.18l13.95 35.86h58.6z"/><linearGradient id="k" gradientUnits="userSpaceOnUse" x1="362.332" y1="134.6811" x2="362.332" y2="176"><stop offset="0" style="stop-color:#EFF0F2"/><stop offset="1" style="stop-color:#E8EBED"/></linearGradient><path fill-rule="evenodd" clip-rule="evenodd" fill="url(#k)" d="M333.03 134.68h58.6V176h-58.6z"/><path fill-rule="evenodd" clip-rule="evenodd" fill="#FFF" d="M193.36 58.45c.09 0 5.32-5.01 5.32-5.01l6.32 6.59 20.03-18.84 4.74 5.16L205 70.22l-11.64-11.77z"/><linearGradient id="l" gradientUnits="userSpaceOnUse" x1="87.7308" y1="153.3723" x2="87.7308" y2="175.3412" gradientTransform="matrix(1 0 0 2.9681 0 -346.3846)"><stop offset=".7822" style="stop-color:#EB4236"/><stop offset="1" style="stop-color:#EB4236;stop-opacity:0.5"/></linearGradient><path fill-rule="evenodd" clip-rule="evenodd" fill="url(#l)" d="M83.75 153.37h7.95v21.97h-7.95z"/><linearGradient id="m" gradientUnits="userSpaceOnUse" x1="361.7308" y1="157.1461" x2="361.7308" y2="175.3412" gradientTransform="matrix(1 0 0 2.9681 0 -346.3846)"><stop offset="0" style="stop-color:#346CF2"/><stop offset=".8543" style="stop-color:#346CF2;stop-opacity:0.5707"/><stop offset=".9949" style="stop-color:#346CF2;stop-opacity:0.5"/></linearGradient><path fill-rule="evenodd" clip-rule="evenodd" fill="url(#m)" d="M357.75 157.15h7.95v18.2h-7.95z"/><linearGradient id="n" gradientUnits="userSpaceOnUse" x1="223.7308" y1="157.2159" x2="223.7308" y2="175.3412"><stop offset="0" style="stop-color:#F7B00C"/><stop offset="1" style="stop-color:#F7B00C;stop-opacity:0.5"/></linearGradient><path fill-rule="evenodd" clip-rule="evenodd" fill="url(#n)" d="M219.75 157.22h7.95v18.13h-7.95z"/></svg>