<?xml version="1.0" encoding="utf-8"?>
<!-- Generator: Adobe Illustrator 21.0.2, SVG Export Plug-In . SVG Version: 6.00 Build 0)  -->
<svg version="1.0" id="Layer_1" xmlns="http://www.w3.org/2000/svg" xmlns:xlink="http://www.w3.org/1999/xlink" x="0px" y="0px"
	 width="88px" height="88px" viewBox="0 0 88 88" enable-background="new 0 0 88 88" xml:space="preserve">
<g>
	
		<linearGradient id="SVGID_1_" gradientUnits="userSpaceOnUse" x1="-18.9497" y1="257.8444" x2="-1.9628" y2="257.8444" gradientTransform="matrix(1 0 0.0206 0.8144 13.6642 -122.8735)">
		<stop  offset="0" style="stop-color:#282D34;stop-opacity:0"/>
		<stop  offset="0.1888" style="stop-color:#2C3037;stop-opacity:0.0378"/>
		<stop  offset="0.345" style="stop-color:#363A41;stop-opacity:0.0691"/>
		<stop  offset="0.4898" style="stop-color:#474C52;stop-opacity:0.098"/>
		<stop  offset="0.6275" style="stop-color:#5F646A;stop-opacity:0.1256"/>
		<stop  offset="0.7603" style="stop-color:#7F8389;stop-opacity:0.1522"/>
		<stop  offset="0.8876" style="stop-color:#A5A8AE;stop-opacity:0.1777"/>
		<stop  offset="0.999" style="stop-color:#CCD0D6;stop-opacity:0.2"/>
	</linearGradient>
	<polygon fill="url(#SVGID_1_)" points="0.04,86.26 17,86.26 17,88 0.06,88 	"/>
</g>
<circle fill="#E8EAED" cx="46.46" cy="62.27" r="25.72"/>
<polygon fill="#9AA0A6" points="47.06,87.99 46.45,87.99 46.45,36.55 47.06,36.56 "/>
<linearGradient id="SVGID_2_" gradientUnits="userSpaceOnUse" x1="54.3708" y1="62.2896" x2="43.6548" y2="62.2896">
	<stop  offset="0" style="stop-color:#969CA4;stop-opacity:0.3"/>
	<stop  offset="0.0587" style="stop-color:#A7ACB3;stop-opacity:0.2824"/>
	<stop  offset="0.1665" style="stop-color:#BEC3C8;stop-opacity:0.25"/>
	<stop  offset="0.2891" style="stop-color:#D1D4D9;stop-opacity:0.2133"/>
	<stop  offset="0.4333" style="stop-color:#DEE1E4;stop-opacity:0.17"/>
	<stop  offset="0.6198" style="stop-color:#E6E8EB;stop-opacity:0.1141"/>
	<stop  offset="1" style="stop-color:#E8EAED;stop-opacity:0"/>
</linearGradient>
<path fill="url(#SVGID_2_)" d="M47.82,87.99h10.15V41.73c0-1.59-0.96-2.96-2.41-3.53c-0.11-0.04-0.22-0.09-0.34-0.13l-1.95-0.62
	l-2.29-0.52l-3.17-0.35V87.99z"/>
<path fill="#9AA0A6" d="M26.74,78.8l-0.4-0.49c8.71-4.22,14.4-13.24,14.4-22.91c0-5.86-2.08-11.62-5.79-16.14l0.57-0.28
	c3.79,4.63,5.83,10.42,5.83,16.42C41.36,65.31,35.66,74.48,26.74,78.8z"/>
<path fill="#9AA0A6" d="M72.18,62.72c-3.46-2.58-11.57-7.05-25.81-7.05c-13.68,0-22.01,4.39-25.64,6.93v-0.75
	c3.7-2.58,11.8-6.8,25.64-6.8c14.41,0,22.28,4.27,25.81,6.9V62.72z"/>
<path fill="#9AA0A6" d="M66.21,78.75C57.22,74.34,51.7,65.41,51.7,55.4c0-5.97,2.03-11.75,5.79-16.37l0.57,0.28
	c-3.68,4.51-5.74,10.26-5.74,16.09c0,9.77,5.51,18.55,14.29,22.86L66.21,78.75z"/>
<linearGradient id="SVGID_3_" gradientUnits="userSpaceOnUse" x1="896.3813" y1="2426.7217" x2="857.3016" y2="2402.2139" gradientTransform="matrix(-0.9464 0.3231 0.3231 0.9464 89.6739 -2497.7588)">
	<stop  offset="0" style="stop-color:#969CA4;stop-opacity:0.3"/>
	<stop  offset="0.4345" style="stop-color:#B7BCC2;stop-opacity:0.1696"/>
	<stop  offset="1" style="stop-color:#E8EAED;stop-opacity:0"/>
</linearGradient>
<path fill="url(#SVGID_3_)" d="M25.05,48.02c-1.75,5.18-1.88,10.96,0.03,16.54C29.66,78,44.28,85.18,57.73,80.59
	c5.58-1.9,10.07-5.53,13.1-10.09c-2.47,7.31-8.19,13.43-16.06,16.12C41.32,91.2,26.7,84.03,22.11,70.58
	C19.43,62.71,20.77,54.45,25.05,48.02z"/>
<rect x="66.22" fill="#E0E1E5" width="5.38" height="10.05"/>
<rect x="65.52" y="7.31" fill="#4688F1" width="6.92" height="44.26"/>
<path fill="#4688F1" d="M81.73,33.8c0,6.91-5.61,17.16-12.53,17.16c-6.92,0-12.53-10.25-12.53-17.16s5.61-12.52,12.53-12.52
	C76.12,21.28,81.73,26.89,81.73,33.8z"/>
<rect x="56.67" y="33.46" fill="#4688F1" width="25.03" height="54.53"/>
<rect x="56.67" y="83.1" fill="#2376E5" width="25.03" height="4.89"/>
<rect x="68.71" y="41.69" fill="#3B78D8" width="13.01" height="23.38"/>
<path fill="#E0E1E5" d="M81.72,46.47h-9.29c-0.32,0-0.57-0.26-0.57-0.57s0.26-0.57,0.57-0.57h9.29V46.47z"/>
<path fill="#E8453C" d="M63.25,78.72l-3.64-2.29v0c1.33-6.48,4.15-12.55,8.24-17.75L84.87,37c0.55-0.7,1.55-0.88,2.31-0.4l0,0
	c0.76,0.48,1.04,1.45,0.64,2.25L75.67,63.6C72.76,69.54,68.51,74.71,63.25,78.72L63.25,78.72z"/>
<circle fill="#2A2C33" cx="58.59" cy="82.17" r="5.83"/>
<path fill="#2A2C33" d="M58.59,88H46.01c-0.63,0-0.95-0.77-0.49-1.21l9.1-8.87L58.59,88z"/>
<g opacity="0.6">
	
		<linearGradient id="SVGID_4_" gradientUnits="userSpaceOnUse" x1="-295.8293" y1="-4194.2715" x2="-295.8293" y2="-4145.8779" gradientTransform="matrix(0.8467 0.5321 -0.5321 0.8467 -1891.9399 3746.5842)">
		<stop  offset="0" style="stop-color:#E8453C"/>
		<stop  offset="0.2238" style="stop-color:#DB3938"/>
		<stop  offset="0.6964" style="stop-color:#C52530"/>
		<stop  offset="1" style="stop-color:#BD1E2D"/>
	</linearGradient>
	<path fill="url(#SVGID_4_)" d="M75.67,63.6l12.15-24.74c0.39-0.8,0.12-1.78-0.64-2.25L61.43,77.58l1.82,1.14
		C68.51,74.71,72.76,69.54,75.67,63.6z"/>
</g>
<g>
	<path fill="#E1E2E6" d="M61.55,69.78c-0.83,2.16-1.49,4.38-1.96,6.66l3.66,2.3c1.85-1.41,3.56-2.97,5.15-4.65L61.55,69.78z"/>
</g>
<g>
	
		<linearGradient id="SVGID_5_" gradientUnits="userSpaceOnUse" x1="-294.2134" y1="-4149.2041" x2="-302.3042" y2="-4149.2041" gradientTransform="matrix(0.8467 0.5321 -0.5321 0.8467 -1891.9399 3746.5842)">
		<stop  offset="0" style="stop-color:#808285;stop-opacity:0.4"/>
		<stop  offset="1" style="stop-color:#FFFFFF;stop-opacity:0"/>
	</linearGradient>
	<path fill="url(#SVGID_5_)" d="M61.55,69.78c-0.83,2.16-1.49,4.38-1.96,6.66l3.66,2.3c1.85-1.41,3.56-2.97,5.15-4.65L61.55,69.78z"
		/>
</g>
<circle fill="#70757A" cx="57.55" cy="80.4" r="1.77"/>
<polygon fill="#70757A" points="56.35,79.09 51.84,83.51 57.92,82.13 "/>
<path fill="#FBBC05" d="M46.06,71.72v-6.51c0-1.79-1.47-3.26-3.26-3.26H16.76c-1.79,0-3.24,1.47-3.24,3.26v6.51
	c1.79,0,3.24,1.47,3.24,3.26c0,1.79-1.45,3.26-3.26,3.26v6.51c0,1.79,1.47,3.26,3.26,3.26H42.8c1.79,0,3.26-1.46,3.26-3.26v-6.51
	c-1.79,0-3.26-1.47-3.26-3.26C42.8,73.19,44.27,71.72,46.06,71.72z"/>
<path fill="#E8453C" d="M54.05,78.52c-1,1.95-0.81,3.87,0.98,4.27c1.77,0.39,2.83,0.73,3.57,2s0,3.21,0,3.21H43.45L54.05,78.52z"/>
<linearGradient id="SVGID_6_" gradientUnits="userSpaceOnUse" x1="46.0603" y1="74.9772" x2="13.5033" y2="74.9772">
	<stop  offset="0" style="stop-color:#FABB05"/>
	<stop  offset="0.2585" style="stop-color:#F9B70C;stop-opacity:0.8441"/>
	<stop  offset="0.6278" style="stop-color:#F6AC1F;stop-opacity:0.6213"/>
	<stop  offset="0.9945" style="stop-color:#F39E38;stop-opacity:0.4"/>
</linearGradient>
<path fill="url(#SVGID_6_)" d="M46.06,71.72v-6.51c0-1.79-1.47-3.26-3.26-3.26H16.76c-1.79,0-3.24,1.47-3.24,3.26v6.51
	c1.79,0,3.24,1.47,3.24,3.26c0,1.79-1.45,3.26-3.26,3.26v6.51c0,1.79,1.47,3.26,3.26,3.26H42.8c1.79,0,3.26-1.46,3.26-3.26v-6.51
	c-1.79,0-3.26-1.47-3.26-3.26C42.8,73.19,44.27,71.72,46.06,71.72z"/>
<polygon fill="#FFFFFF" points="29.82,68.94 31.37,73.5 36.18,73.43 32.33,76.31 33.87,80.87 29.94,78.09 26.09,80.97 27.51,76.38 
	23.58,73.6 28.4,73.54 "/>
<path fill="#FFFFFF" d="M42.8,86.34H16.76c-0.86,0-1.59-0.73-1.59-1.59v-5.13l0.2-0.08c1.86-0.76,3.05-2.55,3.05-4.55
	c0-2-1.19-3.79-3.04-4.55l-0.2-0.08v-5.13c0-0.88,0.71-1.59,1.58-1.59H42.8c0.86,0,1.59,0.73,1.59,1.59v5.13l-0.2,0.08
	c-1.86,0.76-3.05,2.55-3.05,4.55c0,2,1.2,3.79,3.05,4.55l0.2,0.08v5.13C44.4,85.61,43.67,86.34,42.8,86.34z M15.82,80.04v4.7
	c0,0.51,0.43,0.94,0.94,0.94H42.8c0.51,0,0.94-0.43,0.94-0.94v-4.7c-1.98-0.91-3.26-2.87-3.26-5.07c0-2.19,1.27-4.16,3.26-5.07v-4.7
	c0-0.51-0.43-0.94-0.94-0.94H16.76c-0.51,0-0.93,0.42-0.93,0.94v4.7c1.98,0.91,3.24,2.87,3.24,5.06
	C19.07,77.17,17.8,79.14,15.82,80.04z"/>
<polygon fill="#979DA5" points="66.83,75.67 60.81,71.89 61.01,71.29 67.28,75.23 "/>
<polygon fill="#979DA5" points="64.55,77.7 59.96,74.82 60.12,74.2 65.04,77.29 "/>
</svg>
