<svg xmlns="http://www.w3.org/2000/svg" width="24px" height="24px" viewBox="0 0 24 24"><path d="M12,9.75c-0.97,0-1.75-0.78-1.75-1.75S11.03,6.25,12,6.25S13.75,7.03,13.75,8S12.97,9.75,12,9.75z M17,8.15 C17,5.06,14.7,3,12,3C9.3,3,7,5.06,7,8.15c0,2.13,1.62,4.75,5,7.73C15.38,12.89,17,10.28,17,8.15z M12,1c3.27,0,7,2.46,7,7.15
c0,3.12-2.33,6.57-7,10.35c-4.67-3.78-7-7.23-7-10.35C5,3.46,8.73,1,12,1z M5.8,14.34c0.37,0.52,0.79,1.04,1.25,1.56L5.49,17
L12,21.56L18.51,17l-1.57-1.1c0.46-0.52,0.88-1.05,1.25-1.56L22,17l-10,7L2,17L5.8,14.34z"/></svg>
