<?xml version="1.0" encoding="utf-8"?>
<!-- Generator: Adobe Illustrator 22.0.1, SVG Export Plug-In . SVG Version: 6.00 Build 0)  -->
<svg version="1.1" id="Layer_1" xmlns="http://www.w3.org/2000/svg" xmlns:xlink="http://www.w3.org/1999/xlink" x="0px" y="0px"
	 width="24px" height="24px" viewBox="0 0 24 24" enable-background="new 0 0 24 24" xml:space="preserve">
<g>
	<polygon points="10,2 10,4.26 12,5.6 12,4 22,4 22,19 17,19 17,21 24,21 24,2 	"/>
	<polygon points="14,6.93 15.61,8 16,8 16,6 14,6 	"/>
	<rect x="18" y="10" width="2" height="2"/>
	<rect x="18" y="6" width="2" height="2"/>
	<rect x="18" y="14" width="2" height="2"/>
</g>
<path fill-rule="evenodd" clip-rule="evenodd" d="M2,11l5.5-3.5L13,11v8h-3v-6H5v6H2V11z M0,10v11h15V10L7.5,5L0,10z"/>
</svg>
