<svg xmlns="http://www.w3.org/2000/svg" width="42" height="42" viewBox="0 0 42 42"><path fill="#A2CCFC" d="M34 42H8c-4.42 0-8-3.58-8-8V8c0-4.42 3.58-8 8-8h26c4.42 0 8 3.58 8 8v26c0 4.42-3.58 8-8 8z"/><path fill="#E8E8E8" d="M34 0h-5.47c-6.02 3.58-10.84 8.93-13.9 15.28C11.44 21.94 6.79 27.69 0 30.37V34c0 4.42 3.58 8 8 8h26c4.42 0 8-3.58 8-8V8c0-4.42-3.58-8-8-8z"/><path fill="#C5E09E" d="M39.22 4.56L31.5 7.5l-7.37 6.87L21 21.3l18.64 18.37C41.1 38.22 42 36.22 42 34V8c0-1.23-.29-2.4-.79-3.44h-1.99z"/><path fill="#FFF" d="M21.9 21.2c2.41-5.04 6.87-14.28 19.61-15.92-.25-.68-.58-1.32-.99-1.9C27.26 5.39 22.63 15.05 20.1 20.34 15.15 30.68 6.67 36.13.79 37.46c.31.64.69 1.23 1.15 1.76 6.34-1.75 14.94-7.51 19.96-18.02z"/><radialGradient id="a" cx="22.0707" cy="22.8615" r="12.9209" gradientTransform="matrix(.9024 -.3213 .3792 1.065 -6.7102 5.3649)" gradientUnits="userSpaceOnUse"><stop offset="0" style="stop-color:#000000;stop-opacity:0.1"/><stop offset=".0771" style="stop-color:#000000;stop-opacity:0.0923"/><stop offset="1" style="stop-color:#000000;stop-opacity:0"/></radialGradient><path opacity=".3" fill="url(#a)" d="M17.91 37.2c-1.94.69-4.2-.62-5.01-2.91L6.8 17.17c-.82-2.29.11-4.73 2.05-5.42l12.58-4.48c1.94-.69 4.58-.31 5.39 1.98l10.13 18.82c.82 2.29-.11 4.73-2.05 5.42l-17 3.69.01.02z"/><path fill="#FFF" d="M40.31 38.9L21.63 20.22l-1.41 1.41L38.9 40.31c.53-.41 1-.88 1.41-1.41z"/><path fill="#E8F0FE" d="M15.1 31.29c-1.28 0-2.42-.81-2.84-2.03L8.25 17.61c-.26-.76-.21-1.57.14-2.29s.96-1.26 1.72-1.52l11.65-4.01c.32-.11.65-.16.98-.16 1.28 0 2.42.81 2.84 2.03l4.01 11.65c.54 1.56-.3 3.27-1.86 3.81l-11.65 4.01c-.32.1-.65.16-.98.16z"/><path fill="#FFF" d="M22.74 10.62c.85 0 1.61.54 1.89 1.35l4.01 11.65c.17.51.14 1.05-.09 1.53s-.64.84-1.15 1.01l-11.65 4.01c-.21.07-.43.11-.65.11-.85 0-1.61-.54-1.89-1.35L9.2 17.28c-.17-.51-.14-1.05.09-1.53s.64-.84 1.15-1.01l11.65-4.01c.21-.07.43-.11.65-.11m0-2c-.43 0-.87.07-1.3.22L9.79 12.85c-2.09.72-3.2 2.99-2.48 5.08l4.01 11.65c.57 1.66 2.12 2.7 3.78 2.7.43 0 .87-.07 1.3-.22l11.65-4.01c2.09-.72 3.2-2.99 2.48-5.08l-4.01-11.65c-.57-1.66-2.12-2.7-3.78-2.7z"/><ellipse transform="rotate(-18.979 12.88764 17.4998)" fill="#4285F4" cx="12.89" cy="17.5" rx="1.61" ry="1.61"/><path fill="#4285F4" d="M20.09 23.43l1.11-3.71 3.16 2.25 2.23 1.59c.39.28.3.87-.15 1.03l-3.2 1.1-2.39.82-1.88.65-1.33.46-2.14.74c-.45.15-.88-.26-.75-.72l.51-1.71.84-2.79 2.38 1.69.99.7.62-2.1z"/><radialGradient id="b" cx="24.8037" cy="23.8329" r="13.5747" gradientTransform="matrix(.9579 0 0 1.1305 .5012 -2.8863)" gradientUnits="userSpaceOnUse"><stop offset="0" style="stop-color:#000000;stop-opacity:0.2"/><stop offset=".138" style="stop-color:#000000;stop-opacity:0.1724"/><stop offset="1" style="stop-color:#000000;stop-opacity:0"/></radialGradient><path opacity=".3" fill="url(#b)" d="M14.68 36.03c-2.29 0-4.16-2.21-4.16-4.91l.4-16.58c0-2.7 1.87-4.91 4.16-4.91h14.83c2.29 0 4.9 1.38 4.9 4.08L38 33.57c0 2.7-1.87 4.91-4.16 4.91l-19.16-2.47v.02z"/><path fill="#E8F0FE" d="M16.4 31.29c-1.65 0-3-1.35-3-3V15.96c0-1.65 1.35-3 3-3h12.32c1.65 0 3 1.35 3 3v12.32c0 1.65-1.35 3-3 3H16.4v.01z"/><path fill="#FFF" d="M28.72 13.96c1.1 0 2 .9 2 2v12.32c0 1.1-.9 2-2 2H16.4c-1.1 0-2-.9-2-2V15.96c0-1.1.9-2 2-2h12.32m0-2H16.4c-2.21 0-4 1.79-4 4v12.32c0 2.21 1.79 4 4 4h12.32c2.21 0 4-1.79 4-4V15.96c0-2.21-1.79-4-4-4z"/><g><circle fill="#4285F4" cx="17.81" cy="17.37" r="1.61"/></g><g><path fill="#4285F4" d="M22.7 25.32l2.26-3.15 2.26 3.15 1.6 2.23c.28.39 0 .92-.47.92H16.78c-.47 0-.75-.54-.47-.92l1.04-1.45 1.7-2.37 1.7 2.37.7.99 1.25-1.77z"/></g></svg>