<svg xmlns="http://www.w3.org/2000/svg" width="24" height="24" viewBox="0 0 24 24"><path d="M15.55 17.1h-5.32c0 1.72-1.39 3.11-3.1 3.11s-3.1-1.39-3.1-3.11H2.26V7.34c0-1.96 1.59-3.55 3.55-3.55h9.73c.58 0 1.12.28 1.45.75 1.71 2.42 2.69 4.54 2.94 6.35h1.83v1.33h-1.77L20 14.3c1.04.5 1.76 1.57 1.76 2.8 0 1.72-1.39 3.11-3.1 3.11-1.73 0-3.11-1.39-3.11-3.11zm-.89-6.21h3.46c-.26-1.44-1.11-3.22-2.59-5.33h-.87v5.33zm-1.33 4.44V5.56H7.57v5.33c1.47 0 2.66 1.19 2.66 2.66v1.78h3.1zm2.77 0c.48-.69 1.23-1.18 2.1-1.3v-1.81h-3.55v3.11h1.45zM5.8 17.1c0 .74.6 1.33 1.33 1.33s1.33-.6 1.33-1.33H5.8zm12.85 1.34c.73 0 1.33-.6 1.33-1.33s-.6-1.33-1.33-1.33c-.73 0-1.33.6-1.33 1.33s.59 1.33 1.33 1.33zM4.02 12.22v3.11H8.9v-1.78c0-.74-.6-1.33-1.33-1.33H4.02z"/></svg>