<svg xmlns:xlink="http://www.w3.org/1999/xlink" x="0px" y="0px" width="96px" height="96px" viewBox="0 0 96 96"><path fill="#E6EBF0" d="M74.94,65.91H21.06c-2.89,0-5.24-2.34-5.24-5.24V29.15c0-2.89,2.34-5.24,5.24-5.24h53.89 c2.89,0,5.24,2.34,5.24,5.24v31.53C80.18,63.56,77.84,65.91,74.94,65.91z"/><path fill="#BEE0C7" d="M27.73,35.92c-4.96,0-8.98,4.03-8.98,8.98s4.03,8.98,8.98,8.98s8.98-4.03,8.98-8.98 S32.69,35.92,27.73,35.92z"/><circle fill="#2C9C43" cx="27.73" cy="45.03" r="6.4"/><path fill="#FFFFFF" d="M27.75 43.98c1.23 0 2.23-1 2.23-2.23 0-1.23-1-2.23-2.23-2.23-1.23 0-2.23 1-2.23 2.23C25.52 42.99 26.51 43.98 27.75 43.98zM27.75 45.69c-3.03 0-5.4 1.46-5.4 2.81 1.14 1.76 3.15 2.93 5.4 2.93s4.26-1.17 5.4-2.93C33.15 47.15 30.77 45.69 27.75 45.69z"/><path fill="#F7B00C" d="M53.57 37.98l1.59.96-.42-1.81 1.4-1.22-1.85-.16-.72-1.7-.72 1.7L51 35.92l1.4 1.22-.42 1.81L53.57 37.98zM60 37.98l1.59.96-.42-1.81 1.4-1.22-1.85-.16L60 34.06l-.72 1.7-1.85.16 1.4 1.22-.42 1.81L60 37.98zM66.43 37.98l1.59.96-.42-1.81 1.4-1.22-1.85-.16-.72-1.7-.72 1.7-1.85.16 1.4 1.22-.42 1.81L66.43 37.98z"/><path fill="#FFFFFF" d="M40.77 38.25h5.5c.96 0 1.74-.78 1.74-1.74v0c0-.96-.78-1.74-1.74-1.74h-5.5c-.96 0-1.74.78-1.74 1.74v0C39.03 37.47 39.81 38.25 40.77 38.25zM40.77 46.94h26.07c.96 0 1.74-.78 1.74-1.74v0c0-.96-.78-1.74-1.74-1.74H40.77c-.96 0-1.74.78-1.74 1.74v0C39.03 46.16 39.81 46.94 40.77 46.94zM40.77 55.63h26.07c.96 0 1.74-.78 1.74-1.74v0c0-.96-.78-1.74-1.74-1.74H40.77c-.96 0-1.74.78-1.74 1.74v0C39.03 54.85 39.81 55.63 40.77 55.63z"/><circle fill="#FFFFFF" cx="67.96" cy="66.92" r="7.95"/><g><path fill="#346CF2" d="M68,56.09c-7.27,0-13.48,4.52-16,10.91c2.52,6.39,8.73,10.91,16,10.91S81.48,73.39,84,67 C81.48,60.61,75.27,56.09,68,56.09z M68,74.27c-4.01,0-7.27-3.26-7.27-7.27s3.26-7.27,7.27-7.27s7.27,3.26,7.27,7.27 S72.01,74.27,68,74.27z M68,62.64c-2.41,0-4.36,1.95-4.36,4.36s1.95,4.36,4.36,4.36s4.36-1.95,4.36-4.36S70.41,62.64,68,62.64z"/></g></svg>
