<?xml version="1.0" encoding="utf-8"?>
<!-- Generator: Adobe Illustrator 24.1.1, SVG Export Plug-In . SVG Version: 6.00 Build 0)  -->
<svg version="1.1" id="Layer_1" xmlns="http://www.w3.org/2000/svg" xmlns:xlink="http://www.w3.org/1999/xlink" x="0px" y="0px"
	 width="144px" height="144px" viewBox="0 0 144 144" enable-background="new 0 0 144 144" xml:space="preserve">
<g>
	<path fill="#EAEAEA" d="M72.773,81.721c24.605-0.105,46.08,13.285,57.291,33.141c8.816-11.885,14.004-26.568,13.936-42.446
		c-0.169-39.365-32.54-71.138-72.305-70.968C31.931,1.618-0.168,33.667,0.001,73.032c0.07,16.382,5.731,31.438,15.167,43.435
		C26.021,95.908,47.711,81.828,72.773,81.721z"/>
</g>
<path fill="#4383F2" d="M72.305,143.999c23.725-0.102,44.716-11.556,57.759-29.138c-11.211-19.856-32.685-33.246-57.291-33.141
	c-25.061,0.107-46.751,14.187-57.605,34.746C28.407,133.298,49.089,144.099,72.305,143.999z"/>
<ellipse transform="matrix(1 -0.0043 0.0043 1 -0.2408 0.3089)" fill="#4285F4" cx="72.1" cy="56.455" rx="21.798" ry="21.579"/>
<linearGradient id="SVGID_1_" gradientUnits="userSpaceOnUse" x1="121.3475" y1="12.1257" x2="81.9325" y2="51.3397">
	<stop  offset="0" style="stop-color:#202124;stop-opacity:0.5"/>
	<stop  offset="0.0706" style="stop-color:#202124;stop-opacity:0.4587"/>
	<stop  offset="0.8533" style="stop-color:#202124;stop-opacity:0"/>
</linearGradient>
<polygon fill="url(#SVGID_1_)" points="92.166,4.279 62.72,31.09 100.126,66.924 134.9,38.006 "/>
<g>
	<g>
		<path fill="#34A853" d="M105.842,6.642H98.27c-1.045,0-1.892-0.847-1.892-1.892V1.892C96.378,0.847,97.225,0,98.27,0h7.572
			c1.045,0,1.892,0.847,1.892,1.892V4.75C107.734,5.795,106.887,6.642,105.842,6.642z"/>
		<path fill="#EAEAEA" d="M141.284,38.006H91.976c-1.058,0-1.916-0.858-1.916-1.916V8.404c0-2.769,2.245-5.014,5.014-5.014h43.114
			c2.769,0,5.014,2.245,5.014,5.014V36.09C143.201,37.148,142.343,38.006,141.284,38.006z"/>
		<path fill="none" stroke="#FFFFFF" stroke-width="0.6997" stroke-miterlimit="10" d="M137.547,8.993h-5.239
			c-0.818,0-1.48-0.663-1.48-1.48v0c0-0.818,0.663-1.48,1.48-1.48h5.239c0.818,0,1.48,0.663,1.48,1.48v0
			C139.028,8.331,138.365,8.993,137.547,8.993z"/>
	</g>
	<path fill="#34A853" d="M142.607,32.119H90.654c-0.769,0-1.393-0.624-1.393-1.393V12.814c0-0.769,0.624-1.393,1.393-1.393h51.954
		c0.769,0,1.393,0.624,1.393,1.393v17.912C144,31.496,143.376,32.119,142.607,32.119z"/>
	<linearGradient id="SVGID_2_" gradientUnits="userSpaceOnUse" x1="-56.5577" y1="19.2966" x2="171.1897" y2="18.9177">
		<stop  offset="0" style="stop-color:#202124"/>
		<stop  offset="0.8119" style="stop-color:#202124;stop-opacity:0"/>
	</linearGradient>
	<path fill="url(#SVGID_2_)" d="M143.201,11.565V8.404c0-2.769-2.245-5.014-5.014-5.014h-30.453V1.892
		c0-1.045-0.847-1.892-1.892-1.892H98.27c-1.045,0-1.892,0.847-1.892,1.892V3.39h-1.305c-2.769,0-5.014,2.245-5.014,5.014v3.162
		c-0.469,0.224-0.799,0.694-0.799,1.249v17.912c0,0.555,0.33,1.024,0.799,1.249v4.115c0,1.058,0.858,1.916,1.916,1.916h49.308
		c1.058,0,1.916-0.858,1.916-1.916v-4.115c0.469-0.224,0.799-0.694,0.799-1.249V12.814C144,12.259,143.67,11.789,143.201,11.565z"/>
	<path fill="#34A853" stroke="#FFFFFF" stroke-width="0.6997" stroke-miterlimit="10" d="M116.827,32.663h-0.393
		c-5.908,0-10.697-4.789-10.697-10.697v-0.393c0-5.908,4.789-10.697,10.697-10.697h0.393c5.908,0,10.697,4.789,10.697,10.697v0.393
		C127.524,27.874,122.734,32.663,116.827,32.663z"/>
	<path fill="#34A853" stroke="#FFFFFF" stroke-width="0.6997" stroke-miterlimit="10" d="M116.725,26.999h-0.188
		c-2.836,0-5.135-2.299-5.135-5.135v-0.188c0-2.836,2.299-5.135,5.135-5.135h0.188c2.836,0,5.135,2.299,5.135,5.135v0.188
		C121.859,24.7,119.56,26.999,116.725,26.999z"/>
</g>
</svg>
