<svg xmlns="http://www.w3.org/2000/svg" width="40" height="40"><path opacity=".1" fill="#FFF" d="M38 20c0-9.94-8.06-18-18-18S2 10.06 2 20"/><path opacity=".1" fill="none" stroke="#202124" stroke-width=".283" stroke-linecap="round" stroke-linejoin="round" stroke-miterlimit="10" d="M38 20c0 9.94-8.06 18-18 18S2 29.94 2 20"/><circle fill="#FAFAFA" cx="20" cy="20" r="18"/><path fill="#6C7479" d="M30.51 10.61c-1.11-1.91-2.86-1.59-2.86-1.59H11.58c-1.43-.16-2.23.8-2.23.8h.01c-.51.49-.81 1.27-.81 1.27s-1.58 6.14-1.59 6.36c-.16 2.86 2.39 3.98 2.39 3.98v7.32c-.16 2.23 2.23 2.39 2.23 2.39h14.64c3.98.32 3.98-2.39 3.98-2.39v-7.48c2.07-1.11 2.07-3.66 2.07-3.66l-1.76-7z"/><path fill="#D0D3D9" d="M13.33 11.41h-2.04c-.25 0-.46.16-.53.4l-1.73 5.97c-.02.07.05.22.07.28.06.22.15.44.27.63.79 1.31 2.98.71 3.16-.75 0-.01.8-6.53.8-6.53zM15.71 11.41h2.56c0 .84 0 1.68-.01 2.52 0 .78 0 1.55-.01 2.33 0 .76.09 1.55-.3 2.25-.85 1.52-3.07.86-3.05-.84 0-.07 0-.14.01-.21l.8-6.05zM20.65 11.41h2.55c.11.86.21 1.71.32 2.57.15 1.17.28 2.34.44 3.5.06.45-.06.93-.33 1.3-.43.57-1.23.79-1.9.56-.78-.28-1.07-1.12-1.07-1.88v-6.05zM25.74 11.41h1.94c.23 0 .42.15.49.37l1.73 6.08c.02.08-.05.24-.07.31-.08.24-.19.46-.35.65-.46.55-1.26.74-1.91.44-.84-.4-.96-1.42-1.05-2.24-.02-.14-.03-.28-.05-.42-.08-.61-.17-1.22-.25-1.84-.15-1.1-.31-2.2-.46-3.31-.02 0-.02-.04-.02-.04z"/><path fill="#FFF" d="M11.71 21.69s1.77-.42 2.09-1.21c0 0 1.27 1.43 2.86 1.27l2.77-1.27s1.36 1.43 2.96 1.27c0 0 2.23 0 2.86-1.27 0 0 .78 1.14 2.46 1.29v5.9s.09 1.09-1.03 1.09h-14s-1.11-.16-1.11-1.27v-5.73l.14-.07z"/><path fill="#6C7479" d="M19.53 20.32s-.48 1.43-3.02 1.43c-3.35 0 2.86-2.07 2.86-2.07l.16.64z"/><circle fill="#FFF" stroke="#D0D3D9" stroke-width=".227" stroke-miterlimit="10" cx="26" cy="27" r="8"/><path fill="#34A853" d="M25.34 26.35v6.15h2.61v-4.15z"/><path fill="#FBBC04" d="M21.5 26.05h3.85v2.56H21.5z"/><path fill="#346CF2" d="M27.65 26.05h3.85v2.56l-6.16.05z"/><path fill="#EA4335" d="M25.34 28.66v-6.15h2.61v3.54z"/></svg>