<?xml version="1.0" encoding="utf-8"?>
<svg version="1.0" id="Layer_1" xmlns="http://www.w3.org/2000/svg" xmlns:xlink="http://www.w3.org/1999/xlink" x="0px" y="0px"
  width="100px" height="100px" viewBox="0 0 100 100" enable-background="new 0 0 100 100" xml:space="preserve">
<linearGradient id="SVGID_1_" gradientUnits="userSpaceOnUse" x1="0.9394" y1="86.524" x2="17.5407" y2="86.524">
 <stop  offset="0" style="stop-color:#292D33;stop-opacity:0"/>
 <stop  offset="0.1889" style="stop-color:#2C3036;stop-opacity:0.0378"/>
 <stop  offset="0.3452" style="stop-color:#373A40;stop-opacity:0.0691"/>
 <stop  offset="0.49" style="stop-color:#484C51;stop-opacity:0.0981"/>
 <stop  offset="0.6279" style="stop-color:#606469;stop-opacity:0.1257"/>
 <stop  offset="0.7608" style="stop-color:#808388;stop-opacity:0.1523"/>
 <stop  offset="0.8881" style="stop-color:#A5A9AE;stop-opacity:0.1778"/>
 <stop  offset="0.999" style="stop-color:#CDD0D5;stop-opacity:0.2"/>
</linearGradient>
<rect x="0.94" y="85.05" fill="url(#SVGID_1_)" width="16.6" height="2.94"/>
<polygon fill="#E8EAED" points="73.95,86.2 92.86,88.97 92.96,34.47 74.05,31.69 "/>
<polygon fill="#D9DBDF" points="55.03,88.49 73.95,86.2 74.05,31.69 55.13,33.99 "/>
<polygon fill="#E8EAED" points="36.12,85.72 55.03,88.49 55.13,33.99 36.22,31.22 "/>
<polygon fill="#D9DBDF" points="36.22,31.22 17.31,33.52 17.2,88.02 36.12,85.72 "/>
<polygon fill="#E9EBEC" points="36.21,34.67 20.86,37.01 20.77,84.62 36.12,82.28 "/>
<polygon fill="#EEEFF1" points="36.13,82.28 55.03,85.05 55.12,37.43 36.22,34.66 "/>
<polygon fill="#E9EBEC" points="55.04,85.05 73.96,82.76 74.04,35.13 55.12,37.43 "/>
<polygon fill="#EEEFF1" points="73.96,82.76 89.42,85.48 89.51,37.86 74.04,35.13 "/>
<polygon fill="#F4F4F4" points="54.64,50.28 36.02,42.29 20.85,45.45 20.85,43.41 36.22,40.2 54.93,48.22 74.04,45.68 89.49,47.4 
 89.45,49.41 74.06,47.7 "/>
<path fill="#F4F4F4" d="M81.25,84.04l-5.59-6.43c-6.63-7.63-15.33-12.86-25.18-15.12L40.4,60.17c-4.22-0.97-7.5-4.34-8.35-8.59
 l-3.16-15.74l1.96-0.39L34,51.19c0.7,3.48,3.38,6.24,6.84,7.03l10.09,2.32c10.26,2.36,19.34,7.81,26.24,15.76l7.21,8.3L81.25,84.04z
 "/>
<polygon fill="#F4F4F4" points="50.26,84.35 41.55,71.24 43.22,70.14 52.92,84.74 "/>
<polygon fill="#F4F4F4" points="20.79,77.51 20.77,75.49 35.31,73.27 56.09,62.37 57.02,64.14 35.95,75.19 "/>
<polygon fill="#F4F4F4" points="27.6,75.77 20.77,62.06 20.84,57.71 29.39,74.88 "/>
<polygon fill="#F4F4F4" points="89.43,79.12 68.87,60.84 65.09,36.25 67.06,35.95 70.73,59.82 89.44,76.45 "/>
<path fill="#FABB05" d="M37.53,12.33H12.1c-1.67,0-3.02,1.35-3.02,3.02v17.85c0,1.67,1.35,3.01,3.01,3.01h7.09
 c0.89,0,1.75,0.35,2.38,0.98l2.85,2.85c0.22,0.22,0.58,0.22,0.8,0l2.85-2.85c0.63-0.63,1.49-0.98,2.38-0.98h7.09
 c1.67,0,3.02-1.35,3.02-3.02V15.34C40.55,13.68,39.2,12.33,37.53,12.33z"/>
<path fill="#4285F4" d="M97.18,39.73H73.39c-1.56,0-2.82,1.26-2.82,2.82v16.69c0,1.56,1.26,2.82,2.82,2.82h6.63
 c0.83,0,1.63,0.33,2.22,0.92l2.67,2.67c0.21,0.21,0.54,0.21,0.74,0l2.67-2.67c0.59-0.59,1.39-0.92,2.22-0.92h6.63
 c1.56,0,2.82-1.26,2.82-2.82V42.55C100,40.99,98.74,39.73,97.18,39.73z"/>
<path fill="#E94335" d="M51.96,56.76H31.14c-1.36,0-2.47,1.1-2.47,2.47v14.61c0,1.36,1.1,2.47,2.47,2.47h5.8
 c0.73,0,1.43,0.29,1.95,0.81l2.33,2.33c0.18,0.18,0.47,0.18,0.65,0l2.33-2.33c0.52-0.52,1.22-0.81,1.95-0.81h5.8
 c1.36,0,2.47-1.1,2.47-2.47V59.23C54.43,57.87,53.32,56.76,51.96,56.76z"/>
<path fill="#FFFFFF" d="M32.22,20.63h-16.9c-0.55,0-1-0.45-1-1s0.45-1,1-1h16.9c0.55,0,1,0.45,1,1S32.77,20.63,32.22,20.63z"/>
<path fill="#FFFFFF" d="M29.5,24.88H15.32c-0.55,0-1-0.45-1-1s0.45-1,1-1H29.5c0.55,0,1,0.45,1,1S30.05,24.88,29.5,24.88z"/>
<path fill="#FFFFFF" d="M34.31,29.14H15.32c-0.55,0-1-0.45-1-1s0.45-1,1-1h18.99c0.55,0,1,0.45,1,1S34.86,29.14,34.31,29.14z"/>
<path fill="#FFFFFF" d="M46.81,62.34c-1.4-1.53-3.77-1.58-5.23-0.14c-0.01,0.01-0.03,0.01-0.04,0c-1.46-1.44-3.83-1.39-5.23,0.14
 c-1.34,1.46-1.12,3.78,0.28,5.19l4.65,4.65c0.18,0.18,0.47,0.18,0.65,0l4.65-4.65C47.93,66.13,48.15,63.81,46.81,62.34z"/>
<path fill="#FCFCFC" d="M91.66,46.11l-2.87,0.29l1.87,1.87l-3.13,3.14l-3.3-3.16l-7.79,7.56c-0.4,0.38-0.41,1.02-0.02,1.41
 c0.2,0.2,0.46,0.3,0.72,0.3c0.25,0,0.5-0.09,0.7-0.28l6.4-6.22l3.32,3.18l4.52-4.52l1.87,1.87l0.29-2.87l0.29-2.87L91.66,46.11z"/>
</svg>
