<svg xmlns="http://www.w3.org/2000/svg" xmlns:xlink="http://www.w3.org/1999/xlink" width="320" height="140" viewBox="0 0 320 140"><path fill="#D2E3FC" d="M0 0h320v140H0z"/><linearGradient id="a" gradientUnits="userSpaceOnUse" x1="98.6022" y1="131.7091" x2="160.716" y2="69.5953"><stop offset="0" style="stop-color:#FFFFFF;stop-opacity:0"/><stop offset=".1236" style="stop-color:#F6F9FE;stop-opacity:0.1236"/><stop offset=".3252" style="stop-color:#DEEAFD;stop-opacity:0.3252"/><stop offset=".5797" style="stop-color:#B6D0FB;stop-opacity:0.5797"/><stop offset=".8744" style="stop-color:#7FADF7;stop-opacity:0.8744"/><stop offset="1" style="stop-color:#669DF6"/></linearGradient><path opacity=".8" fill="url(#a)" d="M130.837 42.849l-60.548 60.547 58.693 54.559 60.047-60.047z"/><linearGradient id="b" gradientUnits="userSpaceOnUse" x1="26.3005" y1="91.1972" x2="54.5847" y2="62.913" gradientTransform="matrix(.8943 .2607 .2607 .8943 -8.2228 -5.1712)"><stop offset="0" style="stop-color:#FFFFFF;stop-opacity:0"/><stop offset=".1236" style="stop-color:#F6F9FE;stop-opacity:0.1236"/><stop offset=".3252" style="stop-color:#DEEAFD;stop-opacity:0.3252"/><stop offset=".5797" style="stop-color:#B6D0FB;stop-opacity:0.5797"/><stop offset=".8744" style="stop-color:#7FADF7;stop-opacity:0.8744"/><stop offset="1" style="stop-color:#669DF6"/></linearGradient><path opacity=".3" fill="url(#b)" d="M74.965 83.293l-17.92 17.921-35.937-35.937 17.92-17.92z"/><linearGradient id="c" gradientUnits="userSpaceOnUse" x1="-18.9511" y1="178.9138" x2="9.3332" y2="150.6295" gradientTransform="matrix(.6134 -.0202 -.0202 .6134 27.9728 31.0244)"><stop offset="0" style="stop-color:#FFFFFF;stop-opacity:0"/><stop offset=".1236" style="stop-color:#F6F9FE;stop-opacity:0.1236"/><stop offset=".3252" style="stop-color:#DEEAFD;stop-opacity:0.3252"/><stop offset=".5797" style="stop-color:#B6D0FB;stop-opacity:0.5797"/><stop offset=".8744" style="stop-color:#7FADF7;stop-opacity:0.8744"/><stop offset="1" style="stop-color:#669DF6"/></linearGradient><path opacity=".5" fill="url(#c)" d="M39.886 132.461l-17.92 17.921-18.457-18.457 17.921-17.92z"/><linearGradient id="d" gradientUnits="userSpaceOnUse" x1="70.1556" y1="194.5431" x2="98.4399" y2="166.2588" gradientTransform="matrix(.6789 .0453 .0453 .6789 11.2477 14.2993)"><stop offset="0" style="stop-color:#FFFFFF;stop-opacity:0"/><stop offset=".1236" style="stop-color:#F6F9FE;stop-opacity:0.1236"/><stop offset=".3252" style="stop-color:#DEEAFD;stop-opacity:0.3252"/><stop offset=".5797" style="stop-color:#B6D0FB;stop-opacity:0.5797"/><stop offset=".8744" style="stop-color:#7FADF7;stop-opacity:0.8744"/><stop offset="1" style="stop-color:#669DF6"/></linearGradient><path opacity=".4" fill="url(#d)" d="M96.866 142.887l-17.92 17.921-22.53-22.53 17.921-17.921z"/><linearGradient id="e" gradientUnits="userSpaceOnUse" x1="-10.7883" y1="77.5715" x2="17.496" y2="49.2873" gradientTransform="matrix(.718 .2495 .2495 .718 -18.573 -17.8161)"><stop offset="0" style="stop-color:#FFFFFF;stop-opacity:0"/><stop offset=".1236" style="stop-color:#F6F9FE;stop-opacity:0.1236"/><stop offset=".3252" style="stop-color:#DEEAFD;stop-opacity:0.3252"/><stop offset=".5797" style="stop-color:#B6D0FB;stop-opacity:0.5797"/><stop offset=".8744" style="stop-color:#7FADF7;stop-opacity:0.8744"/><stop offset="1" style="stop-color:#669DF6"/></linearGradient><path opacity=".3" fill="url(#e)" d="M21.336 36.99L8.082 50.244-22.02 20.142-8.766 6.888z"/><linearGradient id="f" gradientUnits="userSpaceOnUse" x1="431.6622" y1="-45.3374" x2="459.9464" y2="-73.6216" gradientTransform="matrix(.3815 .0613 .0613 .3815 10.0722 15.5467)"><stop offset="0" style="stop-color:#FFFFFF;stop-opacity:0"/><stop offset=".1236" style="stop-color:#F6F9FE;stop-opacity:0.1236"/><stop offset=".3252" style="stop-color:#DEEAFD;stop-opacity:0.3252"/><stop offset=".5797" style="stop-color:#B6D0FB;stop-opacity:0.5797"/><stop offset=".8744" style="stop-color:#7FADF7;stop-opacity:0.8744"/><stop offset="1" style="stop-color:#669DF6"/></linearGradient><path opacity=".4" fill="url(#f)" d="M187.908 22.534l-9.057 9.057-13.775-13.775 9.056-9.057z"/><linearGradient id="g" gradientUnits="userSpaceOnUse" x1="-82.389" y1="241.4056" x2="-54.1047" y2="213.1213" gradientTransform="matrix(.3815 .0613 .0613 .3815 10.0722 15.5467)"><stop offset="0" style="stop-color:#FFFFFF;stop-opacity:0"/><stop offset=".1236" style="stop-color:#F6F9FE;stop-opacity:0.1236"/><stop offset=".3252" style="stop-color:#DEEAFD;stop-opacity:0.3252"/><stop offset=".5797" style="stop-color:#B6D0FB;stop-opacity:0.5797"/><stop offset=".8744" style="stop-color:#7FADF7;stop-opacity:0.8744"/><stop offset="1" style="stop-color:#669DF6"/></linearGradient><path opacity=".4" fill="url(#g)" d="M9.38 100.42l-9.057 9.057-13.775-13.776 9.057-9.056z"/><linearGradient id="h" gradientUnits="userSpaceOnUse" x1="553.4301" y1="-40.8508" x2="581.7143" y2="-69.1351" gradientTransform="matrix(.5459 .0741 .0741 .5459 -81.948 22.2405)"><stop offset="0" style="stop-color:#FFFFFF;stop-opacity:0"/><stop offset=".1236" style="stop-color:#F6F9FE;stop-opacity:0.1236"/><stop offset=".3252" style="stop-color:#DEEAFD;stop-opacity:0.3252"/><stop offset=".5797" style="stop-color:#B6D0FB;stop-opacity:0.5797"/><stop offset=".8744" style="stop-color:#7FADF7;stop-opacity:0.8744"/><stop offset="1" style="stop-color:#669DF6"/></linearGradient><path opacity=".6" fill="url(#h)" d="M240.148 37.222l-13.346 13.346-19.289-19.289 13.346-13.347z"/><linearGradient id="i" gradientUnits="userSpaceOnUse" x1="681.6229" y1="-31.8529" x2="709.9072" y2="-60.1372" gradientTransform="matrix(.7326 .0369 .0369 .7326 -214.4276 62.0703)"><stop offset="0" style="stop-color:#FFFFFF;stop-opacity:0"/><stop offset=".1236" style="stop-color:#F6F9FE;stop-opacity:0.1236"/><stop offset=".3252" style="stop-color:#DEEAFD;stop-opacity:0.3252"/><stop offset=".5797" style="stop-color:#B6D0FB;stop-opacity:0.5797"/><stop offset=".8744" style="stop-color:#7FADF7;stop-opacity:0.8744"/><stop offset="1" style="stop-color:#669DF6"/></linearGradient><path opacity=".4" fill="url(#i)" d="M315.379 56.208l-19.675 19.676-23.942-23.942 19.676-19.675z"/><linearGradient id="j" gradientUnits="userSpaceOnUse" x1="544.5886" y1="69.5537" x2="572.8729" y2="41.2695" gradientTransform="matrix(.9897 .1591 .1591 .9897 -331.895 -37.0065)"><stop offset="0" style="stop-color:#FFFFFF;stop-opacity:0"/><stop offset=".1236" style="stop-color:#F6F9FE;stop-opacity:0.1236"/><stop offset=".3252" style="stop-color:#DEEAFD;stop-opacity:0.3252"/><stop offset=".5797" style="stop-color:#B6D0FB;stop-opacity:0.5797"/><stop offset=".8744" style="stop-color:#7FADF7;stop-opacity:0.8744"/><stop offset="1" style="stop-color:#669DF6"/></linearGradient><path opacity=".7" fill="url(#j)" d="M259.495 112.837l-23.493 23.492-35.74-35.74 23.492-23.493z"/><linearGradient id="k" gradientUnits="userSpaceOnUse" x1="505.5843" y1="120.0832" x2="533.8685" y2="91.7989" gradientTransform="matrix(.8113 .2628 .2628 .8113 -247.3538 -77.1779)"><stop offset="0" style="stop-color:#FFFFFF;stop-opacity:0"/><stop offset=".1236" style="stop-color:#F6F9FE;stop-opacity:0.1236"/><stop offset=".3252" style="stop-color:#DEEAFD;stop-opacity:0.3252"/><stop offset=".5797" style="stop-color:#B6D0FB;stop-opacity:0.5797"/><stop offset=".8744" style="stop-color:#7FADF7;stop-opacity:0.8744"/><stop offset="1" style="stop-color:#669DF6"/></linearGradient><path opacity=".6" fill="url(#k)" d="M226.61 154.318l-15.514 15.513-33.419-33.419 15.514-15.513z"/><linearGradient id="l" gradientUnits="userSpaceOnUse" x1="650.5014" y1="91.3979" x2="678.7856" y2="63.1136" gradientTransform="matrix(.892 .238 .238 .892 -304.54 -100.8781)"><stop offset="0" style="stop-color:#FFFFFF;stop-opacity:0"/><stop offset=".1236" style="stop-color:#F6F9FE;stop-opacity:0.1236"/><stop offset=".3252" style="stop-color:#DEEAFD;stop-opacity:0.3252"/><stop offset=".5797" style="stop-color:#B6D0FB;stop-opacity:0.5797"/><stop offset=".8744" style="stop-color:#7FADF7;stop-opacity:0.8744"/><stop offset="1" style="stop-color:#669DF6"/></linearGradient><path opacity=".25" fill="url(#l)" d="M333.52 134.574l-18.497 18.496-35.157-35.158 18.496-18.496z"/><path fill="#FFF" d="M288.00563-46.38745l29.35526 29.35525-41.01463 41.01463L246.991-5.37282z"/><linearGradient id="m" gradientUnits="userSpaceOnUse" x1="248.1705" y1="22.8059" x2="262.6852" y2="8.2911"><stop offset="0" style="stop-color:#FFFFFF;stop-opacity:0"/><stop offset=".1236" style="stop-color:#F6F9FE;stop-opacity:0.1236"/><stop offset=".3252" style="stop-color:#DEEAFD;stop-opacity:0.3252"/><stop offset=".5797" style="stop-color:#B6D0FB;stop-opacity:0.5797"/><stop offset=".8744" style="stop-color:#7FADF7;stop-opacity:0.8744"/><stop offset="1" style="stop-color:#669DF6"/></linearGradient><path opacity=".4" fill="url(#m)" d="M262.848 37.484L233.493 8.128l14.515-14.515 29.355 29.356z"/><path fill="#669DF6" d="M288.00545-40.14918l23.1158 23.1158-33.27542 33.27542-23.1158-23.1158z"/><ellipse transform="rotate(-45 275.7497 -7.30563)" fill="none" stroke="#D2E3FC" stroke-width="2" stroke-miterlimit="10" cx="275.748" cy="-7.309" rx="8.421" ry="8.421"/><path fill="#FFF" d="M225.16396 92.009l35.02903-35.02903 27.45386 27.45387-35.02903 35.02902z"/><linearGradient id="n" gradientUnits="userSpaceOnUse" x1="270.1332" y1="113.1265" x2="270.1332" y2="82.5894"><stop offset="0" style="stop-color:#FFFFFF"/><stop offset=".1486" style="stop-color:#F8FBFF"/><stop offset=".3616" style="stop-color:#E5EFFD"/><stop offset=".6133" style="stop-color:#C6DBFC"/><stop offset=".8925" style="stop-color:#9CBFF9"/><stop offset=".9945" style="stop-color:#8AB4F8"/></linearGradient><path opacity=".3" fill="url(#n)" d="M252.62 119.462l35.03-35.03-.034-.034h-28.631c-3.517 0-6.368 2.851-6.368 6.368v28.692l.003.004z"/><linearGradient id="o" gradientUnits="userSpaceOnUse" x1="242.778" y1="42.5672" x2="242.778" y2="78.7823"><stop offset="0" style="stop-color:#FFFFFF"/><stop offset=".1243" style="stop-color:#F8FBFF"/><stop offset=".3024" style="stop-color:#E5EFFD"/><stop offset=".513" style="stop-color:#C6DBFC"/><stop offset=".7484" style="stop-color:#9BBFF9"/><stop offset=".9945" style="stop-color:#669DF6"/></linearGradient><path opacity=".3" fill="url(#o)" d="M260.284 57.067l-.089-.089-34.924 34.924h28.645c3.517 0 6.368-2.851 6.368-6.368V57.067z"/><path fill="none" d="M225.16396 92.009l35.02903-35.02903 27.45386 27.45387-35.02903 35.02902z"/><linearGradient id="p" gradientUnits="userSpaceOnUse" x1="233.1015" y1="81.4029" x2="233.1015" y2="106.2688" gradientTransform="rotate(-45 230.49184 65.89218)"><stop offset="0" style="stop-color:#FFFFFF"/><stop offset=".1486" style="stop-color:#F8FBFF"/><stop offset=".3616" style="stop-color:#E5EFFD"/><stop offset=".6133" style="stop-color:#C6DBFC"/><stop offset=".8925" style="stop-color:#9CBFF9"/><stop offset=".9945" style="stop-color:#8AB4F8"/></linearGradient><path opacity=".3" fill="url(#p)" d="M260.196 56.978l-34.924 34.924h28.645c3.517 0 6.368-2.851 6.368-6.368V57.067l-.089-.089z"/><defs><path id="q" d="M217.65 91.928h36.292c3.517 0 6.368-2.851 6.368-6.368V49.268l-14.085 2.966-26.674 25.144-1.901 14.55z"/></defs><clipPath id="r"><use xlink:href="#q" overflow="visible"/></clipPath><g clip-path="url(#r)"><path fill="#669DF6" d="M247.502 53.259l-25.738 25.738 13.142 13.119 9.571.072 10.706-.081 8.546 3.315-3.234-8.627V76.497l-.199-10.425z"/><path fill="#4285F4" d="M221.71704 78.95163l25.73703-25.73703 4.1825 4.1825-25.73703 25.73702z"/><ellipse transform="rotate(-45 226.0219 78.83343)" fill="#FFF" cx="226.022" cy="78.83" rx="1.157" ry="1.157"/><g fill="none" stroke="#FFF" stroke-width="2" stroke-linecap="round" stroke-linejoin="round" stroke-miterlimit="10"><path d="M247.143 74.848c-1.799.656-3.206 2.614-3.02 4.52s1.593 3.594 3.379 4.285c.837.324 1.75.289 2.559-.1 1.145-.551 2.056-1.722 1.834-2.973-.222-1.251-1.139-2.214-1.992-3.068s-2.693-2.693-2.693-2.693l-.067.029z"/><path d="M256.598 84.39c-.361.552-.784 1.075-1.269 1.56-3.801 3.801-9.963 3.801-13.763 0s-3.801-9.963 0-13.763c4.541-4.541 9.788-3.017 13.384.977 1.184 1.316 1.745 2.773 1.184 4.007-.409.899-1.264 1.892-2.632 2.09-1.367.198-2.272-.42-3.569-1.717"/></g></g><path fill="#FFF" d="M26.515 14.661l8.653-4.836c1.21-.847 1.61-2.475.89-3.799-.68-1.252-2.197-1.796-3.552-1.355L21.888 8.126c-.883.287-1.853.055-2.509-.602L4.917-6.938-10.192 8.171l27.564 27.564 15.109-15.109-5.966-5.965z"/><linearGradient id="s" gradientUnits="userSpaceOnUse" x1="8.7025" y1="22.8763" x2="33.3767" y2="22.8763" gradientTransform="rotate(45 22.74846 15.32821)"><stop offset="0" style="stop-color:#FFFFFF"/><stop offset=".281" style="stop-color:#F8FBFF"/><stop offset=".6825" style="stop-color:#E5EFFD"/><stop offset=".9945" style="stop-color:#D2E3FC"/></linearGradient><path fill="url(#s)" d="M26.541 14.686l-2.058 1.19c-6.504 3.582-14.387 2.243-19.377-2.769l-5.181 5.181 17.447 17.447 15.109-15.109-5.94-5.94z"/><path fill="#FFF" d="M34.382 22.528l-5.59-5.59c-1.042-1.042-2.732-1.042-3.774 0-1.042 1.042-1.042 2.732 0 3.774l5.59 5.59c1.03 1.03 2.7 1.03 3.73 0l.044-.044c1.03-1.03 1.03-2.7 0-3.73zM30.245 25.945l-5.59-5.59c-1.042-1.042-2.732-1.042-3.774 0-1.042 1.042-1.042 2.732 0 3.774l5.59 5.59c1.03 1.03 2.7 1.03 3.73 0l.044-.044c1.03-1.03 1.03-2.7 0-3.73zM26.288 29.543l-5.59-5.59c-1.042-1.042-2.732-1.042-3.774 0-1.042 1.042-1.042 2.732 0 3.774l5.59 5.59c1.03 1.03 2.7 1.03 3.73 0l.044-.044c1.03-1.031 1.03-2.7 0-3.73zM21.971 32.78l-5.59-5.59c-1.042-1.042-2.732-1.042-3.774 0-1.042 1.042-1.042 2.732 0 3.774l5.59 5.59c1.03 1.03 2.7 1.03 3.73 0l.044-.044c1.03-1.03 1.03-2.7 0-3.73z"/><ellipse transform="rotate(-58.453 232.22745 25.68534)" fill="#FFF" cx="232.226" cy="25.684" rx="13.885" ry="13.885"/><path fill="none" stroke="#EE675C" stroke-width="1.5" stroke-linecap="round" stroke-linejoin="round" stroke-miterlimit="10" d="M227.729 30.189s-.534-4.907-.676-6.449c-.34-3.694 2.386-5.089 4.346-4.462 3.011.963 2.105 5.019 2.105 5.019s3.814-.942 4.837 1.833c.819 2.222-.657 4.565-4.37 4.528-1.663-.017-6.242-.469-6.242-.469"/><path opacity=".4" fill="#D2E3FC" d="M228.47 37.517c-6.535-4.012-8.581-12.563-4.568-19.098 2.29-3.73 6.058-5.994 10.086-6.508-5.249-.668-10.647 1.705-13.595 6.508-4.012 6.535-1.967 15.086 4.568 19.098 2.805 1.722 5.982 2.325 9.012 1.939-1.895-.241-3.77-.875-5.503-1.939z"/><ellipse transform="rotate(-45 303.64637 43.76357)" fill="#FFF" cx="303.645" cy="43.76" rx="16.959" ry="16.959"/><path fill="#F9AB00" d="M306.542 59.054c-1.645-1.645-2.55-3.831-2.55-6.156s.905-4.512 2.55-6.156 3.831-2.55 6.156-2.55 4.512.905 6.156 2.55c.44.44.822.92 1.153 1.43.229-.853.397-1.718.491-2.591-.078-.083-.149-.172-.23-.253-2.021-2.022-4.71-3.136-7.57-3.136s-5.549 1.113-7.57 3.136c-2.022 2.021-3.136 4.71-3.136 7.57s1.113 5.549 3.136 7.57c.059.059.124.11.184.167.871-.085 1.732-.254 2.584-.474-.482-.32-.936-.689-1.354-1.107zM300.372 46.01c-1.443 0-2.799-.562-3.819-1.582-2.104-2.105-2.104-5.532 0-7.638 1.021-1.021 2.376-1.582 3.819-1.582 1.442 0 2.799.562 3.818 1.582 2.105 2.105 2.105 5.532 0 7.638-1.019 1.02-2.376 1.582-3.818 1.582zm0-8.802c-.908 0-1.763.354-2.405.996-1.325 1.326-1.325 3.483 0 4.81 1.285 1.285 3.524 1.285 4.81 0 1.326-1.326 1.326-3.483 0-4.81-.643-.642-1.497-.996-2.405-.996z"/><linearGradient id="t" gradientUnits="userSpaceOnUse" x1="251.0042" y1="87.398" x2="238.0659" y2="100.3362" gradientTransform="rotate(-45 228.17643 3.49862)"><stop offset="0" style="stop-color:#FFFFFF"/><stop offset="1" style="stop-color:#D2E3FC"/></linearGradient><path opacity=".8" fill="url(#t)" d="M315.637 49.943c-6.623 6.623-17.36 6.623-23.983 0-2.57-2.57-4.138-5.76-4.713-9.088-.908 5.249.66 10.842 4.713 14.895 6.623 6.623 17.36 6.623 23.983 0 4.053-4.053 5.621-9.646 4.713-14.895-.575 3.329-2.143 6.519-4.713 9.088z"/><g fill="#EA8600"><path opacity=".8" d="M302.174 54.84c.386 2.12 1.398 4.072 2.954 5.628.059.059.124.11.184.167h.002c.438-.043.874-.112 1.309-.189.427-.08.851-.176 1.273-.285-.482-.32-.936-.689-1.354-1.107-1.165-1.165-1.95-2.605-2.314-4.171-.686.023-1.371.016-2.054-.043zM320.269 45.327c-.307-.307-.634-.586-.97-.851-.261.629-.572 1.24-.912 1.84.159.138.318.275.468.425.44.44.822.92 1.153 1.43.228-.849.395-1.71.489-2.579 0-.004.001-.008.001-.013-.079-.082-.149-.171-.229-.252z"/></g><path fill="#FFF" d="M66.43518 19.86065l35.9836 35.9836-28.20126 28.20128-35.98361-35.98361z"/><linearGradient id="u" gradientUnits="userSpaceOnUse" x1="64.475" y1="25.2098" x2="64.475" y2="50.7531" gradientTransform="rotate(45 58.08977 55.42908)"><stop offset="0" style="stop-color:#8AB4F8"/><stop offset=".3261" style="stop-color:#83B0F8"/><stop offset=".7921" style="stop-color:#70A4F7"/><stop offset=".9945" style="stop-color:#669DF6"/></linearGradient><path opacity=".3" fill="url(#u)" d="M102.5 55.925L66.624 20.05v29.425c0 3.613 2.929 6.542 6.542 6.542h29.243l.091-.092z"/><path fill="#E8F0FE" d="M102.419 55.845l.189-29.431c0-3.613-2.929-6.542-6.542-6.542l-29.631-.011 35.984 35.984z"/><linearGradient id="v" gradientUnits="userSpaceOnUse" x1="56.2425" y1="84.3224" x2="56.2425" y2="52.9809"><stop offset="0" style="stop-color:#FFFFFF"/><stop offset=".1486" style="stop-color:#F8FBFF"/><stop offset=".3616" style="stop-color:#E5EFFD"/><stop offset=".6133" style="stop-color:#C6DBFC"/><stop offset=".8925" style="stop-color:#9CBFF9"/><stop offset=".9945" style="stop-color:#8AB4F8"/></linearGradient><path opacity=".3" fill="url(#v)" d="M74.252 54.601c0-3.613-2.929-6.542-6.542-6.542H38.237l-.004.004 35.984 35.984.035-.035V54.601z"/><path fill="none" d="M66.43518 19.86065l35.9836 35.9836-28.20126 28.20128-35.98361-35.98361z"/><path fill="#4285F4" d="M79.61823 16.80967l26.44695 26.44696-4.29634 4.29634L75.3219 21.106z"/><path fill="none" d="M66.517 12.14v37.281c0 3.613 2.929 6.542 6.542 6.542h37.281l-3.047-14.469-25.829-27.4-14.947-1.954z"/><defs><path id="w" d="M66.606 12.176v37.281c0 3.613 2.929 6.542 6.542 6.542h37.281L66.606 12.176z"/></defs><clipPath id="x"><use xlink:href="#w" overflow="visible"/></clipPath><g clip-path="url(#x)"><path fill="#4285F4" d="M106.363 42.929L79.925 16.49l-13.477 13.5-.075 9.831.084 10.998-3.405 8.779 8.862-3.322h10.578l10.709-.205z"/><linearGradient id="y" gradientUnits="userSpaceOnUse" x1="86.1797" y1="46.6534" x2="54.5288" y2="15.0026" gradientTransform="rotate(45 58.08977 55.42908)"><stop offset="0" style="stop-color:#185ABC"/><stop offset="1" style="stop-color:#4285F4"/></linearGradient><path opacity=".4" fill="url(#y)" d="M105.813 43.478L79.375 17.04l-13.477 13.5-.074 9.831.084 10.998-3.406 8.779 8.862-3.322h10.578l10.709-.205z"/></g><path fill="none" stroke="#F9AB00" stroke-linecap="round" stroke-linejoin="round" stroke-miterlimit="10" d="M73.241 29.655c1.612 1.613.198 3.027 1.811 4.639 1.614 1.614 3.029.2 4.643 1.814 1.615 1.615.2 3.029 1.815 4.643 1.615 1.615 3.029.201 4.644 1.816 1.618 1.618.203 3.032 1.821 4.649 1.618 1.618 3.032.203 4.649 1.821M71.155 31.741c1.613 1.613.198 3.027 1.811 4.639 1.614 1.614 3.029.2 4.643 1.814 1.615 1.615.2 3.029 1.815 4.643 1.615 1.615 3.029.201 4.644 1.816 1.618 1.618.203 3.032 1.821 4.649 1.618 1.618 3.032.203 4.649 1.821M69.069 33.827c1.613 1.613.198 3.027 1.811 4.639 1.614 1.614 3.029.2 4.643 1.814 1.615 1.615.2 3.029 1.815 4.643 1.615 1.615 3.029.201 4.644 1.816 1.618 1.618.203 3.032 1.821 4.649 1.618 1.618 3.032.203 4.649 1.821"/><ellipse transform="rotate(-45 159.99997 70.00211)" fill="#FFF" cx="160" cy="70" rx="40" ry="40"/><ellipse transform="rotate(-45 159.99997 70.00211)" fill="#E8F0FE" cx="160" cy="70" rx="30" ry="30"/><ellipse transform="rotate(-45 159.99997 70.00211)" fill="#FFF" cx="160" cy="70" rx="20" ry="20"/><path fill="#F29900" d="M164.205 65.795L160 56.545l-4.205 9.25-9.25 4.205 9.25 4.205 4.205 9.25 4.205-9.25 9.25-4.205z"/><path fill="#8AB4F8" d="M23.478 60.613c-.572.572-1.499.572-2.071 0l-26.3 26.3c.572.572.572 1.499 0 2.071-.012.012-.026.023-.038.035l11.617 11.617c.012-.013.022-.026.035-.038.572-.572 1.499-.572 2.071 0 .017.017.033.036.049.054l26.204-26.204c-.014-.013-.03-.025-.044-.039-.616-.615-.616-1.613 0-2.229.022-.022.045-.041.068-.062l-11.55-11.549c-.013.013-.026.029-.041.044zm-6.974 31.272c-.209.209-.548.209-.758 0-.209-.209-.209-.548 0-.758.209-.209.548-.209.758 0 .21.21.21.549 0 .758zm-1.319-1.319c-.209.209-.548.209-.758 0-.209-.209-.209-.548 0-.758.209-.209.548-.209.758 0 .209.21.209.549 0 .758zm-1.32-1.32c-.209.209-.548.209-.758 0-.209-.209-.209-.548 0-.758.209-.209.548-.209.758 0 .209.21.209.549 0 .758zm-1.32-1.319c-.209.209-.548.209-.758 0-.209-.209-.209-.548 0-.758.209-.209.548-.209.758 0 .21.209.21.549 0 .758zm-1.319-1.32c-.209.209-.548.209-.758 0-.209-.209-.209-.548 0-.758.209-.209.548-.209.758 0 .209.21.209.549 0 .758zm-1.32-1.319c-.209.209-.548.209-.758 0-.209-.209-.209-.548 0-.758.209-.209.548-.209.758 0 .209.209.209.548 0 .758zm-1.319-1.32c-.209.209-.548.209-.758 0-.209-.209-.209-.548 0-.758.209-.209.548-.209.758 0 .209.21.209.549 0 .758zm-1.32-1.32c-.209.209-.548.209-.758 0-.209-.209-.209-.548 0-.758.209-.209.548-.209.758 0 .209.21.209.549 0 .758zm-1.32-1.319c-.209.209-.548.209-.758 0s-.209-.548 0-.758c.209-.209.548-.209.758 0s.209.549 0 .758zm-1.319-1.32c-.209.209-.548.209-.758 0s-.209-.548 0-.758c.209-.209.548-.209.758 0s.209.549 0 .758z"/><path fill="#669DF6" d="M7.641 78.172l14.367-14.367c.391-.391 1.024-.391 1.414 0l8.529 8.529c.391.391.391 1.024 0 1.414L17.584 88.115c-.391.391-1.024.391-1.414 0l-8.529-8.529c-.391-.39-.391-1.023 0-1.414zM-1.62 87.433l4.367-4.367c.391-.391 1.024-.391 1.414 0l8.529 8.529c.391.391.391 1.024 0 1.414l-4.367 4.367c-.391.391-1.024.391-1.414 0l-8.529-8.529c-.391-.39-.391-1.024 0-1.414z"/><g><path fill="#FFF" d="M202.266-17.317c-.572.572-1.499.572-2.071 0l-26.3 26.3c.572.572.572 1.499 0 2.071-.012.012-.026.023-.038.035l11.617 11.617c.012-.013.022-.026.035-.038.572-.572 1.499-.572 2.071 0 .017.017.033.036.049.054l26.204-26.204c-.014-.013-.03-.025-.044-.039-.616-.615-.616-1.613 0-2.229.022-.022.045-.041.068-.062l-11.55-11.549c-.014.013-.027.029-.041.044zm-6.974 31.272c-.209.209-.548.209-.758 0-.209-.209-.209-.548 0-.758.209-.209.548-.209.758 0 .209.21.209.549 0 .758zm-1.32-1.319c-.209.209-.548.209-.758 0-.209-.209-.209-.548 0-.758.209-.209.548-.209.758 0 .21.209.21.549 0 .758zm-1.319-1.32c-.209.209-.548.209-.758 0-.209-.209-.209-.548 0-.758.209-.209.548-.209.758 0 .209.21.209.549 0 .758zm-1.32-1.319c-.209.209-.548.209-.758 0-.209-.209-.209-.548 0-.758.209-.209.548-.209.758 0 .209.209.209.548 0 .758zm-1.319-1.32c-.209.209-.548.209-.758 0-.209-.209-.209-.548 0-.758.209-.209.548-.209.758 0 .209.21.209.549 0 .758zm-1.32-1.319c-.209.209-.548.209-.758 0s-.209-.548 0-.758c.209-.209.548-.209.758 0s.209.548 0 .758zm-1.32-1.32c-.209.209-.548.209-.758 0s-.209-.548 0-.758c.209-.209.548-.209.758 0 .209.21.209.549 0 .758zm-1.319-1.32c-.209.209-.548.209-.758 0-.209-.209-.209-.548 0-.758.209-.209.548-.209.758 0 .209.21.209.549 0 .758zm-1.32-1.319c-.209.209-.548.209-.758 0-.209-.209-.209-.548 0-.758.209-.209.548-.209.758 0s.209.549 0 .758zm-1.32-1.32c-.209.209-.548.209-.758 0-.209-.209-.209-.548 0-.758.209-.209.548-.209.758 0s.209.549 0 .758z"/><path fill="#E8F0FE" d="M186.428.242l14.367-14.367c.391-.391 1.024-.391 1.414 0l8.529 8.529c.391.391.391 1.024 0 1.414l-14.367 14.367c-.391.391-1.024.391-1.414 0l-8.529-8.529c-.39-.39-.39-1.023 0-1.414zM177.168 9.503l4.367-4.367c.391-.391 1.024-.391 1.414 0l8.529 8.529c.391.391.391 1.024 0 1.414l-4.367 4.367c-.391.391-1.024.391-1.414 0l-8.529-8.529c-.391-.391-.391-1.024 0-1.414z"/></g><g><linearGradient id="z" gradientUnits="userSpaceOnUse" x1="7768.8208" y1="2482.1887" x2="7768.8267" y2="2482.1887" gradientTransform="rotate(-29.518 -490.71195 15644.57071)"><stop offset="0" style="stop-color:#FFFFFF"/><stop offset="1" style="stop-color:#979DA5"/></linearGradient><path opacity=".8" fill="url(#z)" d="M211.546 120.833l.005-.003-.004-.004z"/></g><g><path fill="#FFF" d="M236.848 144.024c-.588-.587-.589-1.54-.002-2.128l-31.205-31.145c-.587.588-1.54.589-2.128.002-.013-.013-.024-.026-.036-.039l-11.926 11.945c.013.012.027.023.039.036.588.587.589 1.54.002 2.128-.018.018-.037.033-.056.05l31.107 31.047c.014-.015.026-.03.04-.045.632-.633 1.657-.634 2.29-.002.023.022.042.047.063.07l11.857-11.876c-.014-.015-.03-.028-.045-.043zm-36.299-11.285c-.215-.215-.215-.563-.001-.778s.563-.215.778-.001c.215.215.215.563.001.778-.214.215-.562.216-.778.001zm1.355-1.357c-.215-.215-.215-.563-.001-.778.215-.215.563-.215.778-.001.215.215.215.563.001.778-.214.215-.563.216-.778.001zm1.355-1.357c-.215-.215-.215-.563-.001-.778s.563-.215.778-.001c.215.215.215.563.001.778s-.563.216-.778.001zm1.355-1.357c-.215-.215-.215-.563-.001-.778s.563-.215.778-.001.215.563.001.778-.563.216-.778.001zm1.354-1.357c-.215-.215-.215-.563-.001-.778.215-.215.563-.215.778-.001.215.215.215.563.001.778-.214.216-.562.216-.778.001zm1.355-1.356c-.215-.215-.215-.563-.001-.778.215-.215.563-.215.778-.001.215.215.215.563.001.778s-.563.215-.778.001zm1.355-1.357c-.215-.215-.215-.563-.001-.778s.563-.215.778-.001c.215.215.215.563.001.778s-.563.215-.778.001zm1.355-1.357c-.215-.215-.215-.563-.001-.778.215-.215.563-.215.778-.001s.215.563.001.778c-.215.215-.563.216-.778.001zm1.354-1.357c-.215-.215-.215-.563-.001-.778s.563-.215.778-.001c.215.215.215.563.001.778s-.562.216-.778.001zm1.355-1.357c-.215-.215-.215-.563-.001-.778s.563-.215.778-.001c.215.215.215.563.001.778-.214.216-.563.216-.778.001z"/><path fill="#AECBFA" d="M223.588 132.552l9.998 9.983c.391.39.391 1.023.001 1.414l-8.795 8.809c-.39.391-1.023.391-1.414.001l-9.998-9.983c-.391-.39-.391-1.023-.001-1.414l8.795-8.809c.39-.391 1.023-.392 1.414-.001zM205.09 114.094l4.53 4.523c.391.39.391 1.023.001 1.414l-8.795 8.809c-.39.391-1.023.391-1.414.001l-4.53-4.523c-.391-.39-.391-1.023-.001-1.414l8.795-8.809c.39-.391 1.023-.391 1.414-.001z"/><path opacity=".6" fill="none" stroke="#AECBFA" stroke-linecap="round" stroke-linejoin="round" stroke-miterlimit="10" d="M212.333 137.517l-5.221-5.221M215.539 134.311l-5.221-5.222M218.746 131.105l-3.129-3.129"/></g><g><path fill="#8AB4F8" d="M93.198 100.844l-17.095 17.095c-5.042 5.042-5.043 13.218 0 18.261 4.315 4.315 10.922 4.934 15.898 1.865l4.814 4.814v-9.13l14.643-14.643c5.042-5.042 5.043-13.218 0-18.261-5.042-5.043-13.217-5.043-18.26-.001z"/><g fill="none" stroke="#FFF" stroke-width="2" stroke-linecap="round" stroke-linejoin="round" stroke-miterlimit="10"><path d="M82.082 125.277l18.084-18.084M87.25 130.445l18.084-18.084"/></g></g><g><path fill="#FFF" d="M34.969 100.109l-12.95 12.95c-5.211 5.211-5.24 13.63-.066 18.804 5.174 5.174 13.593 5.145 18.804-.066l9.979-9.979 9.489-.033-4.899-4.899c3.523-5.185 3.012-12.276-1.554-16.842-5.174-5.175-13.593-5.146-18.803.065z"/><path fill="none" stroke="#8AB4F8" stroke-width="3" stroke-linecap="round" stroke-linejoin="round" stroke-miterlimit="10" d="M30.777 122.291l13.99-13.991"/></g><linearGradient id="A" gradientUnits="userSpaceOnUse" x1="266.0659" y1="151.1162" x2="285.0089" y2="132.1732"><stop offset="0" style="stop-color:#FFFFFF;stop-opacity:0"/><stop offset=".1236" style="stop-color:#F6F9FE;stop-opacity:0.1236"/><stop offset=".3252" style="stop-color:#DEEAFD;stop-opacity:0.3252"/><stop offset=".5797" style="stop-color:#B6D0FB;stop-opacity:0.5797"/><stop offset=".8744" style="stop-color:#7FADF7;stop-opacity:0.8744"/><stop offset="1" style="stop-color:#669DF6"/></linearGradient><path opacity=".5" fill="url(#A)" d="M295.204 142.369l-18.848 19.038-20.486-20.486 18.848-19.038z"/><linearGradient id="B" gradientUnits="userSpaceOnUse" x1="108.6441" y1="27.13" x2="131.497" y2="4.2771"><stop offset="0" style="stop-color:#FFFFFF;stop-opacity:0"/><stop offset=".1236" style="stop-color:#F6F9FE;stop-opacity:0.1236"/><stop offset=".3252" style="stop-color:#DEEAFD;stop-opacity:0.3252"/><stop offset=".5797" style="stop-color:#B6D0FB;stop-opacity:0.5797"/><stop offset=".8744" style="stop-color:#7FADF7;stop-opacity:0.8744"/><stop offset="1" style="stop-color:#669DF6"/></linearGradient><path opacity=".5" fill="url(#B)" d="M137.062 9.842l-22.853 22.853-11.13-11.13 22.853-22.853z"/><g><ellipse transform="rotate(-45 132.52339 2.93381)" fill="#34A853" cx="132.523" cy="2.932" rx="8.115" ry="8.115"/><path fill="#34A853" d="M121.635 13.82L124.651.95l9.973 9.805z"/><linearGradient id="C" gradientUnits="userSpaceOnUse" x1="137.6557" y1="133.6743" x2="150.5534" y2="120.0499" gradientTransform="rotate(45 281.65428 40.8622)"><stop offset="0" style="stop-color:#006838"/><stop offset="1" style="stop-color:#34A853"/></linearGradient><path opacity=".5" fill="url(#C)" d="M138.261 8.67c3.169-3.169 3.169-8.307 0-11.476-3.169-3.169-8.307-3.169-11.476 0-1.077 1.077-1.787 2.381-2.132 3.758l-.002-.002-3.016 12.87 12.243-2.889c1.605-.27 3.144-1.022 4.383-2.261z"/></g><g><g fill="#EA4335"><ellipse transform="rotate(-45 281.89827 129.04894)" cx="281.898" cy="129.045" rx="9.92" ry="9.92"/><path d="M295.209 142.356l-15.734-3.688 11.987-12.191z"/></g><linearGradient id="D" gradientUnits="userSpaceOnUse" x1="-321.8672" y1="883.3048" x2="-312.7265" y2="876.8394" gradientTransform="rotate(-45 -913.27435 -216.07376)"><stop offset="0" style="stop-color:#EA4335"/><stop offset="1" style="stop-color:#EA4335"/></linearGradient><path opacity=".5" fill="url(#D)" d="M274.917 122.042c-3.874 3.874-3.874 10.155 0 14.029 1.316 1.316 2.911 2.184 4.594 2.606l-.002.002 15.733 3.688-3.532-14.967c-.331-1.962-1.25-3.844-2.764-5.358-3.874-3.874-10.155-3.874-14.029 0z"/></g><ellipse transform="rotate(-45 281.89827 129.04894)" fill="none" stroke="#FFF" stroke-width="1.2" stroke-miterlimit="10" cx="281.898" cy="129.045" rx="3.772" ry="3.772"/><g><path fill="#AECBFA" d="M166.518 144.611l-2.325 3.109.914 3.773-3.341 1.977-.603 3.835-3.842.552-2.021 3.315-3.76-.963-3.139 2.284-3.108-2.324-3.773.913-1.978-3.341-3.834-.603-.553-3.842-3.315-2.02.963-3.761-2.284-3.138 2.325-3.109-.914-3.773 3.341-1.977.603-3.835 3.842-.553 2.021-3.315 3.76.963 3.139-2.284 3.108 2.325 3.773-.914 1.978 3.342 3.834.602.553 3.843 3.315 2.02-.963 3.761z"/><path fill="none" stroke="#FFF" stroke-width="3" stroke-linecap="round" stroke-linejoin="round" stroke-miterlimit="10" d="M148.504 147.203l.076-11.748"/></g><g><path fill="#AECBFA" d="M295.23063 102.48838l28.284-28.284 35.355 35.355-28.284 28.284z"/><path fill="#669DF6" d="M295.25163 102.50827l28.284-28.284 4.2426 4.2426-28.284 28.284z"/><circle fill="#FFF" cx="299.581" cy="102.424" r="1.157"/></g><ellipse transform="rotate(-45 132.52339 2.93381)" fill="#FFF" cx="132.523" cy="2.932" rx="3.086" ry="3.086"/></svg>