<svg version="1.1" xmlns="http://www.w3.org/2000/svg" xmlns:xlink="http://www.w3.org/1999/xlink" x="0px" y="0px" width="256px" height="256px" viewBox="0 0 256 256" enable-background="new 0 0 256 256" xml:space="preserve"><path fill="#FABB04" d="M241.32,21.88c3.64,2.27,6.65,4.95,8.75,7.63l5.92-9.92c-3.68-4.9-12.45-10.75-19.37-12.12l-5.92,9.92C234.01,18.11,237.71,19.62,241.32,21.88z"></path><path fill="#34A853" d="M68.21,23.32c3.22-2.84,6.64-4.96,9.81-6.22L70.2,8.6c-5.74,2.13-13.85,8.87-17.13,15.12l7.82,8.5C62.51,29.25,65.02,26.14,68.21,23.32z"></path><path fill="#EA4335" d="M170.1,185.4c-1.95,3.82-4.37,7.04-6.85,9.37l10.39,5.06c4.57-4.08,9.65-13.32,10.42-20.34l-10.39-5.06C173.23,177.8,172.04,181.61,170.1,185.4z"></path><linearGradient id="SVGID_1_" gradientUnits="userSpaceOnUse" x1="12.802" y1="224.351" x2="16.2199" y2="205.9799" gradientTransform="matrix(1 0 0 -1 0 256)"><stop offset="0" style="stop-color:#E6EBEF"></stop><stop offset="0.3981" style="stop-color:#EAEEF2;stop-opacity:0.6019"></stop><stop offset="0.8077" style="stop-color:#F6F8FA;stop-opacity:0.1923"></stop><stop offset="1" style="stop-color:#FFFFFF;stop-opacity:0"></stop></linearGradient><path fill="url(#SVGID_1_)" d="M13.16,34.16c-4.78,0.92-9.35,1-13.16,0.4l2.71,12.82c6.84,1.24,18.64-0.64,25.46-4.85l-2.71-12.82C22.15,31.66,17.91,33.26,13.16,34.16z"></path><linearGradient id="SVGID_2_" gradientUnits="userSpaceOnUse" x1="218.2214" y1="84.618" x2="222.1977" y2="61.9536" gradientTransform="matrix(1 0 0 -1 0 256)"><stop offset="0" style="stop-color:#E6EBEF"></stop><stop offset="1" style="stop-color:#FFFFFF;stop-opacity:0"></stop></linearGradient><path fill="url(#SVGID_2_)" d="M218.35,173.2c-4.01,0.77-7.84,0.84-11.05,0.33l2.94,13.78c5.74,1.04,15.65-0.54,21.36-4.07l-2.94-13.78C225.89,171.1,222.33,172.44,218.35,173.2z"></path><linearGradient id="SVGID_3_" gradientUnits="userSpaceOnUse" x1="65.5815" y1="59.41" x2="50.8419" y2="41.3861" gradientTransform="matrix(1 0 0 -1 0 256)"><stop offset="0" style="stop-color:#E6EBEF"></stop><stop offset="1" style="stop-color:#FFFFFF;stop-opacity:0"></stop></linearGradient><path fill="url(#SVGID_3_)" d="M63.81,198.18c-3.54-2.59-6.41-5.55-8.35-8.43l-9.32,12.98c3.38,5.27,11.89,11.9,18.85,13.8l9.32-12.98C70.99,202.57,67.33,200.75,63.81,198.18z"></path><linearGradient id="SVGID_4_" gradientUnits="userSpaceOnUse" x1="205.56" y1="257.6023" x2="205.56" y2="227.3234" gradientTransform="matrix(1 0 0 -1 0 256)"><stop offset="0" style="stop-color:#E6EBEF"></stop><stop offset="0.6243" style="stop-color:#F4F6F8;stop-opacity:0.3757"></stop><stop offset="1" style="stop-color:#FFFFFF;stop-opacity:0"></stop></linearGradient><path fill="url(#SVGID_4_)" d="M208.85,15.11c2.59-3.53,5.55-6.38,8.44-8.31L207.66,0c-5.27,3.36-11.9,11.83-13.83,18.77l9.63,6.8C204.46,22.25,206.28,18.61,208.85,15.11z"></path><path fill="#EA4335" d="M52.97,53.94c-2.96,1.13-5.88,1.7-8.39,1.74l2.67,7.04c4.52,0.02,11.88-2.52,15.77-5.99l-2.67-7.04C58.44,51.32,55.91,52.82,52.97,53.94z"></path><path fill="#4285F4" d="M172.43,15.44c-2.77-1.54-5.08-3.41-6.74-5.3l-4.15,7.21c2.89,3.48,9.58,7.47,14.73,8.22l4.15-7.21C177.96,17.95,175.18,16.97,172.43,15.44z"></path><path fill="#34A853" d="M227.6,119.51c-3.17,0.04-6.1-0.44-8.48-1.26l0.14,15.05c4.24,1.58,12.02,1.74,16.87-0.17L236,118.08C233.65,118.94,230.75,119.47,227.6,119.51z"></path><path fill="#4285F4" d="M20.52,163.38c-2.92-1.23-5.43-2.83-7.28-4.53l-5.86,13.86c3.26,3.14,10.34,6.38,15.55,6.55l5.86-13.86C26.29,165.27,23.42,164.6,20.52,163.38z"></path><linearGradient id="SVGID_5_" gradientUnits="userSpaceOnUse" x1="162.7669" y1="233.997" x2="165.6345" y2="163.872" gradientTransform="matrix(1 0 0 -1 0 256)"><stop offset="0" style="stop-color:#E6EBEF"></stop><stop offset="0.6243" style="stop-color:#F4F6F8;stop-opacity:0.3757"></stop><stop offset="1" style="stop-color:#FFFFFF;stop-opacity:0"></stop></linearGradient><path fill="url(#SVGID_5_)" d="M249.42,90.56H107.48c-15.61,0-28.27-12.66-28.27-28.27v-4.86c0-15.61,12.66-28.27,28.27-28.27h113.67c15.61,0,28.27,12.66,28.27,28.27L249.42,90.56L249.42,90.56z"></path><path fill="#E6EBF0" d="M117.51,41.72l2.16,4.38c0.04,0.08,0.12,0.14,0.21,0.15l4.83,0.7c0.23,0.03,0.32,0.31,0.15,0.47l-3.5,3.41c-0.07,0.06-0.1,0.16-0.08,0.25l0.83,4.81c0.04,0.23-0.2,0.4-0.4,0.29l-4.32-2.27c-0.08-0.04-0.18-0.04-0.26,0l-4.32,2.27c-0.2,0.11-0.44-0.07-0.4-0.29l0.83-4.81c0.02-0.09-0.01-0.18-0.08-0.25l-3.5-3.41c-0.16-0.16-0.07-0.44,0.15-0.47l4.83-0.7c0.09-0.01,0.17-0.07,0.21-0.15l2.16-4.38C117.11,41.51,117.4,41.51,117.51,41.72z"></path><path fill="#E6EBF0" d="M140.85,41.72l2.16,4.38c0.04,0.08,0.12,0.14,0.21,0.15l4.83,0.7c0.23,0.03,0.32,0.31,0.15,0.47l-3.5,3.41c-0.07,0.06-0.1,0.16-0.08,0.25l0.83,4.81c0.04,0.23-0.2,0.4-0.4,0.29l-4.32-2.27c-0.08-0.04-0.18-0.04-0.26,0l-4.32,2.27c-0.2,0.11-0.44-0.07-0.4-0.29l0.83-4.81c0.02-0.09-0.01-0.18-0.08-0.25l-3.5-3.41c-0.16-0.16-0.07-0.44,0.15-0.47l4.83-0.7c0.09-0.01,0.17-0.07,0.21-0.15l2.16-4.38C140.46,41.51,140.75,41.51,140.85,41.72z"></path><path fill="#E6EBF0" d="M164.2,41.72l2.16,4.38c0.04,0.08,0.12,0.14,0.21,0.15l4.83,0.7c0.23,0.03,0.32,0.31,0.15,0.47l-3.5,3.41c-0.07,0.06-0.1,0.16-0.08,0.25l0.83,4.81c0.04,0.23-0.2,0.4-0.4,0.29l-4.32-2.27c-0.08-0.04-0.18-0.04-0.26,0l-4.32,2.27c-0.2,0.11-0.44-0.07-0.4-0.29l0.83-4.81c0.02-0.09-0.01-0.18-0.08-0.25l-3.5-3.41c-0.16-0.16-0.07-0.44,0.15-0.47l4.83-0.7c0.09-0.01,0.17-0.07,0.21-0.15l2.16-4.38C163.8,41.51,164.1,41.51,164.2,41.72z"></path><path fill="#E6EBF0" d="M187.54,41.72l2.16,4.38c0.04,0.08,0.12,0.14,0.21,0.15l4.83,0.7c0.23,0.03,0.32,0.31,0.15,0.47l-3.5,3.41c-0.07,0.06-0.1,0.16-0.08,0.25l0.83,4.81c0.04,0.23-0.2,0.4-0.4,0.29l-4.32-2.27c-0.08-0.04-0.18-0.04-0.26,0l-4.32,2.27c-0.2,0.11-0.44-0.07-0.4-0.29l0.83-4.81c0.02-0.09-0.01-0.18-0.08-0.25l-3.5-3.41c-0.16-0.16-0.07-0.44,0.15-0.47l4.83-0.7c0.09-0.01,0.17-0.07,0.21-0.15l2.16-4.38C187.15,41.51,187.44,41.51,187.54,41.72z"></path><path fill="#E6EBF0" d="M210.89,41.72l2.16,4.38c0.04,0.08,0.12,0.14,0.21,0.15l4.83,0.7c0.23,0.03,0.32,0.31,0.15,0.47l-3.5,3.41c-0.07,0.06-0.1,0.16-0.08,0.25l0.83,4.81c0.04,0.23-0.2,0.4-0.4,0.29l-4.32-2.27c-0.08-0.04-0.18-0.04-0.26,0l-4.32,2.27c-0.2,0.11-0.44-0.07-0.4-0.29l0.83-4.81c0.02-0.09-0.01-0.18-0.08-0.25l-3.5-3.41c-0.16-0.16-0.07-0.44,0.15-0.47l4.83-0.7c0.09-0.01,0.17-0.07,0.21-0.15l2.16-4.38C210.49,41.51,210.79,41.51,210.89,41.72z"></path><path fill="#E6EBF0" d="M217.59,68.1H111.05c-0.82,0-1.48-0.66-1.48-1.48l0,0c0-0.82,0.66-1.48,1.48-1.48h106.54c0.82,0,1.48,0.66,1.48,1.48l0,0C219.07,67.44,218.4,68.1,217.59,68.1z"></path><path fill="#E6EBF0" d="M171.21,73.49c0.82,0,1.48,0.66,1.48,1.48l0,0c0,0.82-0.66,1.48-1.48,1.48h-60.16c-0.82,0-1.48-0.66-1.48-1.48l0,0c0-0.82,0.66-1.48,1.48-1.48H171.21z"></path><path fill="#E6EBF0" d="M208.61,156.05H37.02c-18.87,0-34.17-15.3-34.17-34.17V116c0-18.87,15.3-34.17,34.17-34.17h137.41c18.87,0,34.17,15.3,34.17,34.17v40.05H208.61z"></path><path fill="#FABB04" d="M47.92,95.77l2.64,5.34c0.05,0.1,0.14,0.17,0.25,0.19l5.9,0.86c0.28,0.04,0.39,0.38,0.19,0.58l-4.27,4.16c-0.08,0.08-0.12,0.19-0.1,0.3l1.01,5.87c0.05,0.28-0.24,0.49-0.49,0.36l-5.28-2.77c-0.1-0.05-0.22-0.05-0.31,0l-5.28,2.77c-0.25,0.13-0.54-0.08-0.49-0.36l1.01-5.87c0.02-0.11-0.02-0.22-0.1-0.3l-4.27-4.16c-0.2-0.2-0.09-0.54,0.19-0.58l5.9-0.86c0.11-0.02,0.21-0.09,0.25-0.19l2.64-5.34C47.44,95.52,47.8,95.52,47.92,95.77z"></path><path fill="#FABB04" d="M76.42,95.77l2.64,5.34c0.05,0.1,0.14,0.17,0.25,0.19l5.9,0.86c0.28,0.04,0.39,0.38,0.19,0.58l-4.27,4.16c-0.08,0.08-0.12,0.19-0.1,0.3l1.01,5.87c0.05,0.28-0.24,0.49-0.49,0.36l-5.28-2.77c-0.1-0.05-0.22-0.05-0.31,0l-5.28,2.77c-0.25,0.13-0.54-0.08-0.49-0.36l1.01-5.87c0.02-0.11-0.02-0.22-0.1-0.3l-4.27-4.16c-0.2-0.2-0.09-0.54,0.19-0.58l5.9-0.86c0.11-0.02,0.21-0.09,0.25-0.19l2.64-5.34C75.94,95.52,76.3,95.52,76.42,95.77z"></path><path fill="#FABB04" d="M104.92,95.77l2.64,5.34c0.05,0.1,0.14,0.17,0.25,0.19l5.9,0.86c0.28,0.04,0.39,0.38,0.19,0.58l-4.27,4.16c-0.08,0.08-0.12,0.19-0.1,0.3l1.01,5.87c0.05,0.28-0.24,0.49-0.49,0.36l-5.28-2.77c-0.1-0.05-0.22-0.05-0.31,0l-5.28,2.77c-0.25,0.13-0.54-0.08-0.49-0.36l1.01-5.87c0.02-0.11-0.02-0.22-0.1-0.3l-4.27-4.16c-0.2-0.2-0.09-0.54,0.19-0.58l5.9-0.86c0.11-0.02,0.21-0.09,0.25-0.19l2.64-5.34C104.43,95.52,104.79,95.52,104.92,95.77z"></path><path fill="#FABB04" d="M133.41,95.77l2.64,5.34c0.05,0.1,0.14,0.17,0.25,0.19l5.9,0.86c0.28,0.04,0.39,0.38,0.19,0.58l-4.27,4.16c-0.08,0.08-0.12,0.19-0.1,0.3l1.01,5.87c0.05,0.28-0.24,0.49-0.49,0.36l-5.28-2.77c-0.1-0.05-0.22-0.05-0.31,0l-5.28,2.77c-0.25,0.13-0.54-0.08-0.49-0.36l1.01-5.87c0.02-0.11-0.02-0.22-0.1-0.3l-4.27-4.16c-0.2-0.2-0.09-0.54,0.19-0.58l5.9-0.86c0.11-0.02,0.21-0.09,0.25-0.19l2.64-5.34C132.93,95.52,133.29,95.52,133.41,95.77z"></path><path fill="#FABB04" d="M161.91,95.77l2.64,5.34c0.05,0.1,0.14,0.17,0.25,0.19l5.9,0.86c0.28,0.04,0.39,0.38,0.19,0.58l-4.27,4.16c-0.08,0.08-0.12,0.19-0.1,0.3l1.01,5.87c0.05,0.28-0.24,0.49-0.49,0.36l-5.28-2.77c-0.1-0.05-0.22-0.05-0.31,0l-5.28,2.77c-0.25,0.13-0.54-0.08-0.49-0.36l1.01-5.87c0.02-0.11-0.02-0.22-0.1-0.3l-4.27-4.16c-0.2-0.2-0.09-0.54,0.19-0.58l5.9-0.86c0.11-0.02,0.21-0.09,0.25-0.19l2.64-5.34C161.42,95.52,161.78,95.52,161.91,95.77z"></path><path fill="#BEC3C8" d="M164.42,130.62H44.5c-1,0-1.8-0.81-1.8-1.8l0,0c0-1,0.81-1.8,1.8-1.8h119.91c1,0,1.8,0.81,1.8,1.8l0,0C166.22,129.81,165.41,130.62,164.42,130.62z"></path><path fill="#BEC3C8" d="M86.57,140.8H44.5c-1,0-1.8-0.81-1.8-1.8l0,0c0-1,0.81-1.8,1.8-1.8h42.07c1,0,1.8,0.81,1.8,1.8l0,0C88.38,139.99,87.57,140.8,86.57,140.8z"></path><linearGradient id="SVGID_6_" gradientUnits="userSpaceOnUse" x1="117.1576" y1="171.5844" x2="160.5563" y2="88.2215" gradientTransform="matrix(1 0 0 -1 0 256)"><stop offset="0" style="stop-color:#000000;stop-opacity:0.15"></stop><stop offset="0.5972" style="stop-color:#161719;stop-opacity:0.0604"></stop><stop offset="1" style="stop-color:#202124;stop-opacity:0"></stop></linearGradient><path fill="url(#SVGID_6_)" d="M145.81,81.82c3.76,0,4.87,0,8.63,0c15.79,24.74,34.24,49.48,50.03,74.21c-33.35,0-66.7,0-100.06,0C118.21,131.3,132.01,106.56,145.81,81.82z"></path><linearGradient id="SVGID_7_" gradientUnits="userSpaceOnUse" x1="54.9957" y1="175.7224" x2="89.6522" y2="114.8394" gradientTransform="matrix(1 0 0 -1 0 256)"><stop offset="0" style="stop-color:#000000;stop-opacity:0.15"></stop><stop offset="0.5972" style="stop-color:#161719;stop-opacity:0.0604"></stop><stop offset="1" style="stop-color:#202124;stop-opacity:0"></stop></linearGradient><path fill="url(#SVGID_7_)" d="M105.73,148.61L70.37,81.82c-3.76,0-8.79,0-12.55,0l25.8,74.21L105.73,148.61z"></path><path fill="#4285F4" d="M100.03,172.2c16.29-30.13,32.56-60.25,48.83-90.38c-8.87,0-17.75,0-26.62,0c-10.22,18.78-20.44,37.55-30.66,56.33c-10.22-18.78-20.45-37.55-30.67-56.33c-8.06,0-16.12,0-24.19,0c15.46,30.13,30.93,60.25,46.39,90.38H100.03z"></path><radialGradient id="SVGID_8_" cx="61.335" cy="176.324" r="73.4573" gradientTransform="matrix(1 0 0 -1 0 256)" gradientUnits="userSpaceOnUse"><stop offset="0" style="stop-color:#FFFFFF"></stop><stop offset="0.7545" style="stop-color:#FFFFFF;stop-opacity:0.0673"></stop><stop offset="0.8089" style="stop-color:#FFFFFF;stop-opacity:0"></stop></radialGradient><path opacity="0.22" fill="url(#SVGID_8_)" enable-background="new" d="M100.03,172.2c16.29-30.13,32.56-60.25,48.83-90.38c-8.87,0-17.75,0-26.62,0c-10.22,18.78-20.44,37.55-30.66,56.33c-10.22-18.78-20.45-37.55-30.67-56.33c0,0-24.19,0.01-24.19,0c15.46,30.13,30.93,60.25,46.39,90.38H100.03z"></path><path fill="#FABB04" d="M90.73,178.55L90.73,178.55c-11.34,0-20.53-9.19-20.53-20.53l0,0c0-11.34,9.19-20.53,20.53-20.53l0,0c11.34,0,20.53,9.19,20.53,20.53l0,0C111.27,169.35,102.07,178.55,90.73,178.55z"></path><path fill="#FFFFFF" d="M90.73,174.94c-9.335,0-16.93-7.595-16.93-16.931c0-9.335,7.595-16.93,16.93-16.93s16.93,7.595,16.93,16.93C107.66,167.346,100.065,174.94,90.73,174.94z"></path><path fill="#FABB04" d="M90.73,142.08c-8.784,0-15.93,7.146-15.93,15.93c0,8.784,7.146,15.931,15.93,15.931s15.93-7.146,15.93-15.931C106.66,149.227,99.514,142.08,90.73,142.08z"></path></svg>
