<svg xmlns="http://www.w3.org/2000/svg" width="410" height="176" viewBox="0 0 410 176"><linearGradient id="a" gradientUnits="userSpaceOnUse" x1="-2768.7776" y1="166.6553" x2="-2801.2788" y2="166.6553" gradientTransform="matrix(-1 0 0 1 -2547.5073 0)"><stop offset="0" style="stop-color:#EFF0F2;stop-opacity:0.2"/><stop offset=".9987" style="stop-color:#D0D3D9;stop-opacity:0.8"/></linearGradient><path fill-rule="evenodd" clip-rule="evenodd" fill="url(#a)" d="M244.25 168.27l-22.98-5.64v8.05h32.5z"/><linearGradient id="b" gradientUnits="userSpaceOnUse" x1="204.9344" y1="170.681" x2="204.9344" y2="28.3557"><stop offset=".00426" style="stop-color:#EFF0F2;stop-opacity:0.1"/><stop offset="1" style="stop-color:#DADCE1"/></linearGradient><path fill-rule="evenodd" clip-rule="evenodd" fill="url(#b)" d="M108.93 158.68V28.36l49.12 12 46.95-12 48.49 10.88 47.44-10.88v130.32l-46.88 12-47.72-11.72-48 11.72z"/><linearGradient id="c" gradientUnits="userSpaceOnUse" x1="181.353" y1="28.3725" x2="181.353" y2="170.681"><stop offset=".00426" style="stop-color:#EFF0F2;stop-opacity:0.1"/><stop offset=".9962" style="stop-color:#DADCE1"/></linearGradient><path fill-rule="evenodd" clip-rule="evenodd" fill="url(#c)" d="M157.77 170.68V40.29l47.16-11.92v130.59z"/><linearGradient id="d" gradientUnits="userSpaceOnUse" x1="277.3528" y1="28.3557" x2="277.3528" y2="170.681"><stop offset=".00426" style="stop-color:#EFF0F2;stop-opacity:0.1"/><stop offset="1" style="stop-color:#DADCE1"/></linearGradient><path fill-rule="evenodd" clip-rule="evenodd" fill="url(#d)" d="M253.77 170.68V39.18l47.16-10.82v129.48z"/><circle fill-rule="evenodd" clip-rule="evenodd" fill="#F7B00C" cx="88.93" cy="93.9" r="6"/><circle fill-rule="evenodd" clip-rule="evenodd" fill="#2C9C43" cx="30.93" cy="145.9" r="6"/><circle fill-rule="evenodd" clip-rule="evenodd" fill="#F7B00C" cx="279.03" cy="136" r="6"/><circle fill-rule="evenodd" clip-rule="evenodd" fill="#346CF2" cx="354.93" cy="121.9" r="6"/><circle fill-rule="evenodd" clip-rule="evenodd" fill="#F7B00C" cx="389.93" cy="28.9" r="6"/><path fill-rule="evenodd" clip-rule="evenodd" fill="#346CF2" d="M339.63 42.96l-9.24 12.58c-1.24 1.69-3.65 2.06-5.34.82l-.14-.1c-1.69-1.24-2.06-3.65-.82-5.34l9.24-12.58c1.24-1.69 3.65-2.06 5.34-.82l.14.1c1.69 1.24 2.06 3.65.82 5.34z"/><path fill-rule="evenodd" clip-rule="evenodd" fill="#EB4236" d="M30.96 38.22l9.28 12.55c1.25 1.69.89 4.09-.8 5.34l-.14.1c-1.69 1.25-4.09.89-5.34-.8l-9.28-12.55c-1.25-1.69-.89-4.09.8-5.34l.14-.1c1.69-1.25 4.09-.89 5.34.8z"/><linearGradient id="e" gradientUnits="userSpaceOnUse" x1="-2623.9407" y1="156.1777" x2="-2656.4419" y2="156.1777" gradientTransform="matrix(-1 0 0 1 -2547.5073 0)"><stop offset="0" style="stop-color:#EFF0F2;stop-opacity:0.2"/><stop offset=".9987" style="stop-color:#D0D3D9;stop-opacity:0.8"/></linearGradient><path fill-rule="evenodd" clip-rule="evenodd" fill="url(#e)" d="M76.43 152.89h32.5v6.57h-32.5z"/><path fill-rule="evenodd" clip-rule="evenodd" fill="#346CF2" d="M226.72 49.29h-42.74c-2.52 0-4.58 2.06-4.58 4.58v39.67c0 2.52 2.06 4.58 4.58 4.58h13.61c1.47 2.53 3.86 6.67 5.51 9.53.82 1.42 2.86 1.42 3.69.01l5.62-9.54h14.31c2.52 0 4.58-2.06 4.58-4.58V53.87c.01-2.52-2.06-4.58-4.58-4.58z"/><path fill="#E8EBED" d="M117.6 115c5.49 0 9.95 4.46 9.95 9.95 0 7.5-8.38 11.4-9.36 22.11-.03.3-.28.53-.59.53s-.56-.23-.59-.53c-.99-10.71-9.36-14.61-9.36-22.11 0-5.49 4.46-9.95 9.95-9.95z"/><circle fill="#BDC2C7" cx="117.6" cy="124.95" r="3.48"/><path fill="#D9DBE0" d="M290.98 70.71c5.49 0 9.95 4.46 9.95 9.95 0 7.5-8.38 11.4-9.36 22.11-.03.3-.28.53-.59.53s-.56-.23-.59-.53c-.99-10.71-9.36-14.61-9.36-22.11 0-5.5 4.46-9.95 9.95-9.95z"/><circle fill="#BDC2C7" cx="290.98" cy="80.66" r="3.48"/><path fill-rule="evenodd" clip-rule="evenodd" fill="#FFF" d="M223.13 92.68h-35.71c-1.27 0-2.29-1.03-2.29-2.29v-25.2h40.6v24.89c0 1.44-1.17 2.6-2.6 2.6z"/><circle fill-rule="evenodd" clip-rule="evenodd" fill="#EB4236" cx="192.66" cy="74.26" r="4.47"/></svg>