<?xml version="1.0" encoding="utf-8"?>
<!-- Generator: Adobe Illustrator 23.0.4, SVG Export Plug-In . SVG Version: 6.00 Build 0)  -->
<svg version="1.1" id="Layer_1" xmlns="http://www.w3.org/2000/svg" xmlns:xlink="http://www.w3.org/1999/xlink" x="0px" y="0px"
	 width="36px" height="36px" viewBox="0 0 36 36" enable-background="new 0 0 36 36" xml:space="preserve">
<path d="M19.5,18l6.34,4.41l-1.89,2.33L16.5,19.5V9h3V18z M6,6v3.01C8.74,5.37,13.1,3,18.01,3C26.3,3,33,9.72,33,18
	s-6.7,15-14.99,15C9.72,33,3,26.28,3,18h3c0,6.63,5.37,12,12,12s12-5.37,12-12S24.63,6,18,6c-4.44,0-8.3,2.42-10.36,6H12v3H3V6H6z"
	/>
</svg>
