<?xml version="1.0" encoding="utf-8"?>
<!-- Generator: Adobe Illustrator 23.0.4, SVG Export Plug-In . SVG Version: 6.00 Build 0)  -->
<svg version="1.1" id="Layer_1" xmlns="http://www.w3.org/2000/svg" xmlns:xlink="http://www.w3.org/1999/xlink" x="0px" y="0px"
	 width="36px" height="36px" viewBox="0 0 36 36" enable-background="new 0 0 36 36" xml:space="preserve">
<path d="M15,9v7.5h3L12,27v-6.75H9L15,9z M27,15c0.83,0,1.5-0.67,1.5-1.5S27.83,12,27,12s-1.5,0.67-1.5,1.5S26.17,15,27,15z
	 M18,16.5v-9H9v12.75v8.25h9v-8.25v-3V16.5z M29.66,10.84c0.67,0.68,1.09,1.62,1.09,2.66v14.25c0,2.07-1.68,3.75-3.75,3.75
	s-3.75-1.68-3.75-3.75v-7.5H21V31.5H6v-24c0-1.65,1.35-3,3-3h9c1.65,0,3,1.35,3,3V18h1.5c1.65,0,3,1.35,3,3v6.75
	c0,0.83,0.67,1.5,1.5,1.5s1.5-0.67,1.5-1.5V16.93c-0.47,0.19-0.96,0.32-1.5,0.32c-2.07,0-3.75-1.68-3.75-3.75c0-1.6,1-2.95,2.42-3.5
	L22.5,6.84l1.59-1.59l5.58,5.58L29.66,10.84z"/>
</svg>
