<svg xmlns="http://www.w3.org/2000/svg" width="164" height="136" viewBox="0 0 164 136"><circle fill="#FFF" cx="100.832" cy="7.871" r="5.021"/><linearGradient id="a" gradientUnits="userSpaceOnUse" x1="100.6932" y1="133.3519" x2="100.6932" y2="12.7349"><stop offset="0" style="stop-color:#FBA105"/><stop offset="1" style="stop-color:#FBBC06"/></linearGradient><path fill="url(#a)" d="M56.107 12.735l89.365.143-.193 120.474-89.365-.143z"/><path fill="#FFF" d="M61.89665 122.44515l.15937-99.608 77.338.12375-.15937 99.608z"/><path fill="#979DA5" d="M121.504 17.565c-10.4-.016-13.591-3.626-14.2-9.286.024-.228.039-.458.039-.692.006-3.586-2.897-6.498-6.483-6.503-3.586-.006-6.498 2.897-6.503 6.483-.442 6.059-3.479 9.951-14.3 9.934-10.822-.017-15.165 9.066-15.165 9.066l33.006.052 2.705.004 36.037.056c.001 0-4.314-9.097-15.136-9.114zm-20.659-6.817c-1.752-.003-3.169-1.425-3.167-3.176s1.425-3.169 3.176-3.167c1.752.003 3.169 1.425 3.167 3.176s-1.424 3.17-3.176 3.167z"/><path fill="none" stroke="#E8EAED" stroke-width="2.3791" stroke-linecap="round" stroke-linejoin="round" stroke-miterlimit="10" d="M93.789 44.423l33 .254M93.789 62.88l33 .255M93.789 81.338l33 .255M93.789 99.796l33 .255"/><linearGradient id="b" gradientUnits="userSpaceOnUse" x1="13.5963" y1="6.647" x2="68.8043" y2="6.647" gradientTransform="matrix(1 0 0 -1 0 138)"><stop offset="0" style="stop-color:#FFFFFF;stop-opacity:0"/><stop offset=".0326" style="stop-color:#F1F2F3;stop-opacity:0.0326"/><stop offset=".1128" style="stop-color:#D5D8DB;stop-opacity:0.1128"/><stop offset=".2036" style="stop-color:#BEC2C7;stop-opacity:0.2036"/><stop offset=".3078" style="stop-color:#ADB1B8;stop-opacity:0.3078"/><stop offset=".4334" style="stop-color:#A0A6AD;stop-opacity:0.4334"/><stop offset=".6023" style="stop-color:#999FA7;stop-opacity:0.6023"/><stop offset="1" style="stop-color:#979DA5"/></linearGradient><path opacity=".5" fill="url(#b)" d="M.712 129.489H55.92v3.728H.712z"/><linearGradient id="c" gradientUnits="userSpaceOnUse" x1="117.4607" y1="3.626" x2="150.2757" y2="3.626" gradientTransform="matrix(1 0 0 -1 0 138)"><stop offset="0" style="stop-color:#FFFFFF;stop-opacity:0"/><stop offset=".0326" style="stop-color:#F1F2F3;stop-opacity:0.0326"/><stop offset=".1128" style="stop-color:#D5D8DB;stop-opacity:0.1128"/><stop offset=".2036" style="stop-color:#BEC2C7;stop-opacity:0.2036"/><stop offset=".3078" style="stop-color:#ADB1B8;stop-opacity:0.3078"/><stop offset=".4334" style="stop-color:#A0A6AD;stop-opacity:0.4334"/><stop offset=".6023" style="stop-color:#999FA7;stop-opacity:0.6023"/><stop offset="1" style="stop-color:#979DA5"/></linearGradient><path fill="url(#c)" d="M109.803 133.266h32.815v2.216h-32.815z"/><linearGradient id="d" gradientUnits="userSpaceOnUse" x1="97.7025" y1="12.581" x2="97.7025" y2="15.581" gradientTransform="matrix(1 0 0 -1 0 138)"><stop offset="0" style="stop-color:#F3F3F3;stop-opacity:0"/><stop offset="1" style="stop-color:#F26522"/></linearGradient><path opacity=".3" fill="url(#d)" d="M61.839 122.419h71.727v3H61.839z"/><ellipse fill="#34A853" cx="142.515" cy="114.589" rx="20.747" ry="20.908"/><linearGradient id="e" gradientUnits="userSpaceOnUse" x1="147.8276" y1="109.8767" x2="118.4323" y2="135.179"><stop offset="0" style="stop-color:#FFFFFF;stop-opacity:0"/><stop offset=".0104" style="stop-color:#F9F9F9;stop-opacity:0.0104"/><stop offset=".1047" style="stop-color:#CACACA;stop-opacity:0.1047"/><stop offset=".2046" style="stop-color:#A0A0A0;stop-opacity:0.2046"/><stop offset=".3085" style="stop-color:#7C7C7C;stop-opacity:0.3085"/><stop offset=".4175" style="stop-color:#5F5F5F;stop-opacity:0.4175"/><stop offset=".5333" style="stop-color:#494949;stop-opacity:0.5333"/><stop offset=".659" style="stop-color:#393939;stop-opacity:0.659"/><stop offset=".802" style="stop-color:#303030;stop-opacity:0.802"/><stop offset="1" style="stop-color:#2D2D2D"/></linearGradient><path opacity=".15" fill="url(#e)" d="M151.069 131.241c-11.111 2.823-22.389-3.966-25.189-15.163-1.643-6.569-.003-13.195 3.877-18.121-6.281 4.94-9.432 13.317-7.359 21.603 2.801 11.197 14.079 17.986 25.189 15.163 4.592-1.167 8.436-3.794 11.169-7.264-2.207 1.736-4.799 3.049-7.687 3.782z"/><path fill="none" stroke="#FFF" stroke-width="2.5" stroke-linecap="round" stroke-linejoin="round" stroke-miterlimit="10" d="M135.073 114.791l5.018 5.431 10.379-13.946"/><path fill-rule="evenodd" clip-rule="evenodd" fill="#E8EAED" d="M75.11352 53.482h4l1.22 1.333h2.113c.737 0 1.333.597 1.333 1.333v8c0 .737-.597 1.333-1.333 1.333h-10.666c-.737 0-1.333-.597-1.333-1.333v-8c0-.737.597-1.333 1.333-1.333h2.113l1.22-1.333zm2 10c1.84 0 3.333-1.493 3.333-3.333s-1.493-3.334-3.333-3.334-3.333 1.493-3.333 3.333 1.493 3.334 3.333 3.334zm0-1.2c-1.178 0-2.133-.955-2.133-2.133s.955-2.133 2.133-2.133 2.134.954 2.134 2.132-.955 2.134-2.134 2.134zM81.458 84.148l-1.672-4.939 4.328-3.05h-5.308l-1.692-5.011-1.693 5.011h-5.307l4.328 3.05-1.672 4.939 4.344-3.084z"/><path fill="#E8EAED" d="M70.114 47.148h2v-8h-2v8zm14-7.15c0-.715-.562-1.3-1.25-1.3H78.92l.594-2.971.019-.208c0-.266-.106-.513-.275-.689l-.663-.682-4.112 4.284c-.231.234-.369.559-.369.917v6.5c0 .715.562 1.3 1.25 1.3h5.625c.519 0 .963-.325 1.15-.793l1.887-4.583c.056-.15.088-.306.088-.474v-1.301z"/><path fill-rule="evenodd" clip-rule="evenodd" fill="#E8EAED" d="M74.034 98.019l2.072-2.182-5.136-5.409c-1.142 1.203-1.142 3.157 0 4.36l3.064 3.231zm4.967-1.399c1.116.551 2.694.162 3.858-1.064 1.402-1.476 1.669-3.585.597-4.715-1.076-1.13-3.082-.848-4.48.628-1.164 1.226-1.53 2.887-1.01 4.063-1.629 1.712-7.149 7.525-7.149 7.525l1.036 1.091 5.037-5.304 5.037 5.304 1.036-1.091-5.037-5.304 1.075-1.133z"/></svg>