<?xml version="1.0" encoding="utf-8"?>
<!-- Generator: Adobe Illustrator 24.0.1, SVG Export Plug-In . SVG Version: 6.00 Build 0)  -->
<svg version="1.1" id="commnication_mobile_screen_share_24px"
	 xmlns="http://www.w3.org/2000/svg" xmlns:xlink="http://www.w3.org/1999/xlink" x="0px" y="0px" width="48px" height="48px"
	 viewBox="0 0 48 48" enable-background="new 0 0 48 48" xml:space="preserve">
<path fill="#5F6368" d="M23.949,3.939L6.063,17.352v26.631h35.769V17.352L23.949,3.939z M10.449,40.038V19.554l13.5-10.125
	l13.5,10.125v20.484h-6.75C30.699,40.038,10.449,40.038,10.449,40.038z"/>
<path id="ic_restaurant_24px-2_3_" fill="#5F6368" d="M29.604,37.152v-7.158h-2.685v-7.155c0-1.575,2.004-3.579,4.473-3.579v17.889
	h-1.788V37.152z M18.87,37.152V29.1c-1.977,0-3.579-1.602-3.579-3.579v-6.258h1.788v6.261h1.791v-6.261h1.788v6.261h1.788v-6.261
	h1.788v6.261c0,1.977-1.602,3.579-3.579,3.579v8.049C20.655,37.152,18.87,37.152,18.87,37.152z"/>
</svg>
