<svg xmlns:xlink="http://www.w3.org/1999/xlink" x="0px" y="0px" width="96px" height="96px" viewBox="0 0 96 96"><path fill="#E6EBF0" d="M28.56 42.26c-.14-1.03-1.02-1.79-2.06-1.78-1.75.02-3.98.05-5.95.05-2.08 0-3.87-.03-4.51-.11-.62-.08-1.28-.33-1.93-.66-.88-.45-1.95.04-2.15 1.01-.47 2.34-.71 4.75-.71 7.22 0 0 0 .01 0 .01 0 .8.67 1.44 1.47 1.44h14.45c1.25 0 2.21-1.1 2.04-2.33L28.56 42.26zM29 53.55H13.17c-.8 0-1.38.73-1.23 1.51.77 3.94 2.17 7.66 4.09 11.04.32.56.93.9 1.58.9h12.24c1.1 0 1.95-.97 1.8-2.06l-1.4-10.31C30.16 54.02 29.63 53.55 29 53.55zM27.76 36.36l-2.35-17.33c-5.14 4.01-9.18 9.37-11.61 15.53 1.04.89 2.3 1.72 2.76 1.79C17.43 36.46 22.73 36.44 27.76 36.36zM45.62 22.39l4.35 42.43c.13 1.25 1.18 2.19 2.43 2.19h3.04c1.48 0 2.62-1.31 2.42-2.77l-6.94-50.86c-.16-1.19-1.17-2.1-2.37-2.12-.18 0-.36 0-.54 0-6.25 0-12.13 1.56-17.28 4.31-.91.49-1.45 1.48-1.31 2.5l0 0c.16 1.21 1.2 2.11 2.42 2.11h11.36C44.45 20.19 45.49 21.14 45.62 22.39zM20.82 72.71c3.23 3.55 7.15 6.47 11.54 8.54.69.32 1.47-.23 1.36-.99l-1.13-8.33c-.06-.47-.47-.82-.94-.82H21.53C20.7 71.11 20.27 72.1 20.82 72.71zM61.74 62.37l.47 3.41c.1.7.69 1.22 1.4 1.22h15.03c.51 0 .98-.26 1.23-.7 2.54-4.41 4.19-9.4 4.71-14.72.11-1.12-1.09-1.91-2.09-1.38L62.47 60.93C61.95 61.21 61.66 61.79 61.74 62.37zM84.55 44.45l.02.05c-.83-8.73-4.71-16.58-10.57-22.45-.53-.53-1.43-.07-1.33.67l3.63 24.97c.08.53.66.83 1.14.57L84.55 44.45zM72.42 49.43l-4.58-31.5c-.09-.6-.43-1.14-.95-1.45-2.82-1.69-5.88-3.01-9.12-3.9-1.39-.38-2.71.82-2.52 2.25l5.36 39.34c.19 1.4 1.73 2.19 2.97 1.52l7.77-4.17C72.12 51.11 72.54 50.28 72.42 49.43zM57.5 71.11h-5.24c-.88 0-1.57.76-1.48 1.64l1.05 10.26c.09.83.84 1.45 1.67 1.32 2.35-.35 4.63-.93 6.82-1.71.76-.27-.13-1.23-.24-2.04l-1.12-8.19C58.87 71.66 58.24 71.11 57.5 71.11zM64.85 80.66c4.25-2.19 8.01-5.19 11.09-8.79.25-.29.03-.75-.35-.75H63.45c-.28 0-.49.24-.45.52l1.18 8.68C64.23 80.62 64.57 80.8 64.85 80.66zM36.91 73.22l1.22 8.97c.1.75.65 1.38 1.39 1.56 2 .47 4.06.78 6.18.92 1.15.07 2.1-.9 1.98-2.05l-1.01-9.83c-.1-.95-.9-1.67-1.85-1.67h-6.07C37.62 71.11 36.75 72.1 36.91 73.22zM44 61.72h-6.71c-1.03 0-1.82.91-1.68 1.93l.26 1.9c.11.84.83 1.47 1.68 1.47h6.64c1.01 0 1.79-.87 1.69-1.87l-.19-1.9C45.6 62.37 44.87 61.72 44 61.72z"/><path fill="#E6EBF0" d="M40.18,24.29h-7.99c-1.02,0-1.81,0.9-1.67,1.91l4.03,29.65c0.14,1.01,1,1.76,2.01,1.76h6.68 c1,0,1.78-0.86,1.68-1.86l-3.07-29.95C41.76,24.95,41.04,24.29,40.18,24.29z"/><path fill="#EA4435" d="M25.41,10.29c-6.78,0-12.27,5.49-12.27,12.27c0,2.08,0.52,4.03,1.43,5.75c0,0,0,0.01,0.01,0.01	c0.01,0.01,0.01,0.02,0.02,0.03c0.07,0.13,0.14,0.26,0.22,0.39c1.2,2.11,2.57,4.01,4.1,5.87c2.46,2.98,4.15,6.33,5.13,10.05 c0.17,0.65,0.7,1.04,1.37,1.04c0.67,0,1.2-0.39,1.37-1.04c0.99-3.72,2.67-7.08,5.13-10.05c1.64-1.98,3.08-4.01,4.34-6.28 c0.01-0.01,0.01-0.03,0.02-0.04c0.9-1.71,1.41-3.66,1.41-5.72C37.68,15.79,32.19,10.29,25.41,10.29z M25.4,26.67 c-2.25-0.01-4.09-1.85-4.09-4.1c0-2.26,1.87-4.12,4.12-4.1c2.25,0.01,4.09,1.86,4.09,4.1C29.51,24.83,27.66,26.68,25.4,26.67z"/><circle fill="#FFFFFF" cx="67.96" cy="66.92" r="7.95"/><g><path fill="#346CF2" d="M68,56.09c-7.27,0-13.48,4.52-16,10.91c2.52,6.39,8.73,10.91,16,10.91S81.48,73.39,84,67 C81.48,60.61,75.27,56.09,68,56.09z M68,74.27c-4.01,0-7.27-3.26-7.27-7.27s3.26-7.27,7.27-7.27s7.27,3.26,7.27,7.27 S72.01,74.27,68,74.27z M68,62.64c-2.41,0-4.36,1.95-4.36,4.36s1.95,4.36,4.36,4.36s4.36-1.95,4.36-4.36S70.41,62.64,68,62.64z"/></g></svg>
