<?xml version="1.0" encoding="utf-8"?>
<!-- Generator: Adobe Illustrator 23.0.2, SVG Export Plug-In . SVG Version: 6.00 Build 0)  -->
<svg version="1.1" id="Layer_1" xmlns="http://www.w3.org/2000/svg" xmlns:xlink="http://www.w3.org/1999/xlink" x="0px" y="0px"
	 width="24px" height="24px" viewBox="0 0 24 24" enable-background="new 0 0 24 24" xml:space="preserve">
<g>
	<path fill="#3C4043" d="M13.96,9.28c0-1.08-0.88-1.96-1.96-1.96s-1.96,0.88-1.96,1.96s0.88,1.96,1.96,1.96S13.96,10.36,13.96,9.28z
		"/>
	<path fill="#3C4043" d="M12.02,2.01c-0.01,0-0.01,0-0.02,0s-0.01,0-0.02,0c-4,0-7.25,3.25-7.25,7.25c0,3.07,1.46,4.86,3,6.74
		c0.59,0.72,1.19,1.46,1.77,2.32c0.55,0.83,1.05,1.96,1.31,2.56c0.27,0.61,0.48,1.1,1.16,1.1c0.01,0,0.01,0,0.02,0s0.01,0,0.02,0
		c0.68,0,0.9-0.49,1.16-1.1c0.26-0.6,0.76-1.73,1.31-2.56c0.58-0.86,1.18-1.6,1.77-2.32c1.54-1.89,3-3.67,3-6.74
		C19.27,5.27,16.02,2.01,12.02,2.01z M14.7,14.72c-0.59,0.72-1.26,1.54-1.89,2.48c-0.3,0.45-0.57,0.95-0.81,1.42l0,0l0,0
		c-0.24-0.47-0.51-0.98-0.81-1.42c-0.63-0.95-1.3-1.76-1.89-2.48c-1.48-1.81-2.55-3.11-2.55-5.46c0-2.88,2.34-5.22,5.22-5.22
		c0.01,0,0.01,0,0.02,0s0.01,0,0.02,0c2.88,0,5.22,2.34,5.22,5.22C17.24,11.61,16.18,12.92,14.7,14.72z"/>
</g>
</svg>
