<?xml version="1.0" encoding="utf-8"?>
<!-- Generator: Adobe Illustrator 24.1.0, SVG Export Plug-In . SVG Version: 6.00 Build 0)  -->
<svg version="1.0" id="Layer_1" xmlns="http://www.w3.org/2000/svg" xmlns:xlink="http://www.w3.org/1999/xlink" x="0px" y="0px"
	 width="778.6px" height="828.3px" viewBox="0 0 778.6 828.3" enable-background="new 0 0 778.6 828.3" xml:space="preserve">
<circle fill="#F2F2F2" cx="390" cy="417" r="384"/>
<linearGradient id="SVGID_1_" gradientUnits="userSpaceOnUse" x1="164.3617" y1="550.7939" x2="277.3188" y2="991.1415">
	<stop  offset="0" style="stop-color:#34A853"/>
	<stop  offset="1" style="stop-color:#00EB67"/>
</linearGradient>
<path fill="url(#SVGID_1_)" d="M209.79,345.77l-19.65-16.84l-20.66,16.84l-20.97-16.84l-20.48,16.84l-20.99-16.84l-21.64,16.84
	l-18.93-16.84l-22.53,16.84l-19.83-16.84l-11.33,10.77c-2.96,14.51-5.11,29.32-6.38,44.37v65.85
	C19,598.37,116.06,722.74,249.33,774.8V345.77l-18.44-16.84L209.79,345.77z"/>
<linearGradient id="SVGID_2_" gradientUnits="userSpaceOnUse" x1="644.2677" y1="530.5732" x2="743.0059" y2="915.4904">
	<stop  offset="0" style="stop-color:#FBBC04"/>
	<stop  offset="0.9874" style="stop-color:#FFE1F1"/>
</linearGradient>
<path fill="url(#SVGID_2_)" d="M737.4,345.77l-19.65-16.84l-20.66,16.84l-20.97-16.84l-20.48,16.84l-20.99-16.84l-21.64,16.84
	l-18.93-16.84l-22.53,16.84l-19.83-16.84L534,345.77v427.95C675.57,717.16,775.6,578.76,775.6,417c0-27.47-2.89-54.25-8.37-80.09
	l-8.74-7.98L737.4,345.77z"/>
<linearGradient id="SVGID_3_" gradientUnits="userSpaceOnUse" x1="390.4378" y1="504.606" x2="532.7913" y2="1059.5521">
	<stop  offset="0" style="stop-color:#2B83FC"/>
	<stop  offset="1" style="stop-color:#9CC5FD"/>
</linearGradient>
<path fill="url(#SVGID_3_)" d="M492.08,234.01l-24.5-21l-25.77,21l-26.16-21l-25.55,21l-26.18-21l-26.99,21l-23.61-21l-28.1,21
	l-24.74-21l-22.1,21v536.94c46.48,19.98,97.7,31.05,151.5,31.05c53.8,0,105.02-11.07,151.5-31.05V234.01l-23-21L492.08,234.01z"/>
<g>
	<path fill="#FFFFFF" d="M423.27,330.68h-15.99l-14.62-21.9c-0.63-0.93-1.7-1.4-2.77-1.4c-1.07,0-2.14,0.47-2.77,1.44l-14.62,21.86
		h-15.99c-1.84,0-3.34,1.5-3.34,3.34c0,0.3,0.03,0.6,0.13,0.9l8.48,30.94c0.77,2.8,3.34,4.87,6.41,4.87h43.39
		c3.07,0,5.64-2.07,6.44-4.87l8.48-30.94l0.1-0.9C426.61,332.18,425.11,330.68,423.27,330.68z M389.89,316.66l9.35,14.02h-18.69
		L389.89,316.66z M411.59,364.05l-43.36,0.03l-7.34-26.74h58.04L411.59,364.05z"/>
	<circle fill="#FFFFFF" cx="389.89" cy="350.7" r="6.68"/>
</g>
<g>
	<path opacity="0.6" fill="#FFFFFF" d="M313.21,444.6h-19.27c-2.21,0-4-1.79-4-4v-19.27c0-2.21,1.79-4,4-4h19.27c2.21,0,4,1.79,4,4
		v19.27C317.21,442.81,315.42,444.6,313.21,444.6z"/>
	<path opacity="0.6" fill="#FFFFFF" d="M426.85,444.6h-19.27c-2.21,0-4-1.79-4-4v-19.27c0-2.21,1.79-4,4-4h19.27c2.21,0,4,1.79,4,4
		v19.27C430.85,442.81,429.05,444.6,426.85,444.6z"/>
	<path opacity="0.6" fill="#FFFFFF" d="M363.16,444.6h-3.27c-6.63,0-12-5.37-12-12v-3.27c0-6.63,5.37-12,12-12h3.27
		c6.63,0,12,5.37,12,12v3.27C375.16,439.22,369.79,444.6,363.16,444.6z"/>
	<path opacity="0.6" fill="#FFFFFF" d="M472.75,419.91l-11.17,19.35c-1.54,2.67,0.38,6,3.46,6h22.34c3.08,0,5-3.33,3.46-6
		l-11.17-19.35C478.14,417.25,474.29,417.25,472.75,419.91z"/>
</g>
<path fill="#FFFFFF" d="M99.24,406.98c-4.18,4.18-4.18,10.95,0,15.16l11.22,11.19l7.58-7.58L99.24,406.98z M128.61,428.49
	c4.1,1.9,9.85,0.56,14.11-3.7c5.11-5.11,6.11-12.45,2.17-16.39c-3.91-3.91-11.25-2.95-16.39,2.17c-4.26,4.26-5.6,10.02-3.7,14.11
	l-26.14,26.14l3.78,3.78l18.45-18.4l18.42,18.42l3.78-3.78l-18.42-18.42L128.61,428.49z"/>
<path fill="#FFFFFF" d="M683.74,417.43l0.03-0.03l-9.88-9.88l-2.81,2.81l5.6,5.6c-2.5,0.96-4.28,3.35-4.28,6.19
	c0,3.66,2.97,6.64,6.64,6.64c0.96,0,1.83-0.21,2.66-0.56v19.15c0,1.46-1.2,2.66-2.66,2.66c-1.46,0-2.66-1.2-2.66-2.66v-11.95
	c0-2.92-2.39-5.31-5.31-5.31h-2.66v-18.59c0-2.92-2.39-5.31-5.31-5.31h-15.93c-2.92,0-5.31,2.39-5.31,5.31V454h26.56v-19.92h3.98
	v13.28c0,3.66,2.97,6.64,6.64,6.64c3.66,0,6.64-2.97,6.64-6.64v-25.23C685.68,420.3,684.94,418.63,683.74,417.43z M663.11,424.79
	h-15.93v-13.28h15.93V424.79z M679.04,424.79c-1.46,0-2.66-1.2-2.66-2.66s1.2-2.66,2.66-2.66c1.46,0,2.66,1.2,2.66,2.66
	S680.5,424.79,679.04,424.79z"/>
<g>
	<path opacity="0.6" fill="#FFFFFF" d="M71.56,504.76h-9.76c-2.21,0-4-1.79-4-4V491c0-2.21,1.79-4,4-4h9.76c2.21,0,4,1.79,4,4v9.76
		C75.56,502.97,73.77,504.76,71.56,504.76z"/>
	<path opacity="0.6" fill="#FFFFFF" d="M145.57,504.76h-9.76c-2.21,0-4-1.79-4-4V491c0-2.21,1.79-4,4-4h9.76c2.21,0,4,1.79,4,4v9.76
		C149.57,502.97,147.78,504.76,145.57,504.76z"/>
	<path opacity="0.6" fill="#FFFFFF" d="M104.42,504.76L104.42,504.76c-4.91,0-8.88-3.98-8.88-8.88v0c0-4.91,3.98-8.88,8.88-8.88h0
		c4.91,0,8.88,3.98,8.88,8.88v0C113.31,500.79,109.33,504.76,104.42,504.76z"/>
	<path opacity="0.6" fill="#FFFFFF" d="M175.66,490.78l-4.86,8.42c-1.54,2.67,0.38,6,3.46,6h9.72c3.08,0,5-3.33,3.46-6l-4.86-8.42
		C181.05,488.11,177.2,488.11,175.66,490.78z"/>
</g>
<g>
	<path opacity="0.6" fill="#FFFFFF" d="M603.56,504.76h-9.76c-2.21,0-4-1.79-4-4V491c0-2.21,1.79-4,4-4h9.76c2.21,0,4,1.79,4,4v9.76
		C607.56,502.97,605.77,504.76,603.56,504.76z"/>
	<path opacity="0.6" fill="#FFFFFF" d="M677.57,504.76h-9.76c-2.21,0-4-1.79-4-4V491c0-2.21,1.79-4,4-4h9.76c2.21,0,4,1.79,4,4v9.76
		C681.57,502.97,679.78,504.76,677.57,504.76z"/>
	<path opacity="0.6" fill="#FFFFFF" d="M636.42,504.76L636.42,504.76c-4.91,0-8.88-3.98-8.88-8.88v0c0-4.91,3.98-8.88,8.88-8.88h0
		c4.91,0,8.88,3.98,8.88,8.88v0C645.31,500.79,641.33,504.76,636.42,504.76z"/>
	<path opacity="0.6" fill="#FFFFFF" d="M707.66,490.78l-4.86,8.42c-1.54,2.67,0.38,6,3.46,6h9.72c3.08,0,5-3.33,3.46-6l-4.86-8.42
		C713.05,488.11,709.2,488.11,707.66,490.78z"/>
</g>
<g>
	<g opacity="0.8">
		<circle fill="#FFFFFF" cx="295.56" cy="520.41" r="12.56"/>
		<path fill="#FFFFFF" d="M499,532.97H323.47c-2.21,0-4-1.79-4-4v-17.12c0-2.21,1.79-4,4-4H499c2.21,0,4,1.79,4,4v17.12
			C503,531.17,501.21,532.97,499,532.97z"/>
	</g>
	<g opacity="0.6">
		<circle fill="#FFFFFF" cx="295.56" cy="578.75" r="12.56"/>
		<path fill="#FFFFFF" d="M499,591.31H323.47c-2.21,0-4-1.79-4-4v-17.12c0-2.21,1.79-4,4-4H499c2.21,0,4,1.79,4,4v17.12
			C503,589.52,501.21,591.31,499,591.31z"/>
	</g>
	<g opacity="0.4">
		<circle fill="#FFFFFF" cx="295.56" cy="637.09" r="12.56"/>
		<path fill="#FFFFFF" d="M499,649.66H323.47c-2.21,0-4-1.79-4-4v-17.12c0-2.21,1.79-4,4-4H499c2.21,0,4,1.79,4,4v17.12
			C503,647.86,501.21,649.66,499,649.66z"/>
	</g>
	<g opacity="0.2">
		<circle fill="#FFFFFF" cx="295.56" cy="695.44" r="12.56"/>
		<path fill="#FFFFFF" d="M499,708H323.47c-2.21,0-4-1.79-4-4v-17.12c0-2.21,1.79-4,4-4H499c2.21,0,4,1.79,4,4V704
			C503,706.21,501.21,708,499,708z"/>
	</g>
</g>
<g>
	<g opacity="0.8">
		<circle fill="#FFFFFF" cx="54.79" cy="570.56" r="8.85"/>
		<path fill="#FFFFFF" d="M197,579.41H75.64c-2.21,0-4-1.79-4-4v-9.71c0-2.21,1.79-4,4-4H197c2.21,0,4,1.79,4,4v9.71
			C201,577.62,199.21,579.41,197,579.41z"/>
	</g>
	<g opacity="0.6">
		<circle fill="#FFFFFF" cx="54.79" cy="611.68" r="8.85"/>
		<path fill="#FFFFFF" d="M197,620.53H75.64c-2.21,0-4-1.79-4-4v-9.71c0-2.21,1.79-4,4-4H197c2.21,0,4,1.79,4,4v9.71
			C201,618.74,199.21,620.53,197,620.53z"/>
	</g>
	<g opacity="0.4">
		<circle fill="#FFFFFF" cx="54.79" cy="652.8" r="8.85"/>
		<path fill="#FFFFFF" d="M197,661.65H75.64c-2.21,0-4-1.79-4-4v-9.71c0-2.21,1.79-4,4-4H197c2.21,0,4,1.79,4,4v9.71
			C201,659.86,199.21,661.65,197,661.65z"/>
	</g>
	<g opacity="0.2">
		<circle fill="#FFFFFF" cx="54.79" cy="693.92" r="8.85"/>
		<path fill="#FFFFFF" d="M197,702.78H75.64c-2.21,0-4-1.79-4-4v-9.71c0-2.21,1.79-4,4-4H197c2.21,0,4,1.79,4,4v9.71
			C201,700.98,199.21,702.78,197,702.78z"/>
	</g>
</g>
<g>
	<g opacity="0.8">
		<circle fill="#FFFFFF" cx="594.79" cy="570.56" r="8.85"/>
		<path fill="#FFFFFF" d="M737,579.41H615.64c-2.21,0-4-1.79-4-4v-9.71c0-2.21,1.79-4,4-4H737c2.21,0,4,1.79,4,4v9.71
			C741,577.62,739.21,579.41,737,579.41z"/>
	</g>
	<g opacity="0.6">
		<circle fill="#FFFFFF" cx="594.79" cy="611.68" r="8.85"/>
		<path fill="#FFFFFF" d="M737,620.53H615.64c-2.21,0-4-1.79-4-4v-9.71c0-2.21,1.79-4,4-4H737c2.21,0,4,1.79,4,4v9.71
			C741,618.74,739.21,620.53,737,620.53z"/>
	</g>
	<g opacity="0.4">
		<circle fill="#FFFFFF" cx="594.79" cy="652.8" r="8.85"/>
		<path fill="#FFFFFF" d="M737,661.65H615.64c-2.21,0-4-1.79-4-4v-9.71c0-2.21,1.79-4,4-4H737c2.21,0,4,1.79,4,4v9.71
			C741,659.86,739.21,661.65,737,661.65z"/>
	</g>
	<g opacity="0.2">
		<circle fill="#FFFFFF" cx="594.79" cy="693.92" r="8.85"/>
		<path fill="#FFFFFF" d="M737,702.78H615.64c-2.21,0-4-1.79-4-4v-9.71c0-2.21,1.79-4,4-4H737c2.21,0,4,1.79,4,4v9.71
			C741,700.98,739.21,702.78,737,702.78z"/>
	</g>
</g>
</svg>
