<?xml version="1.0" encoding="utf-8"?>
<!-- Generator: Adobe Illustrator 23.0.1, SVG Export Plug-In . SVG Version: 6.00 Build 0)  -->
<svg version="1.1" id="Layer_1" xmlns="http://www.w3.org/2000/svg" xmlns:xlink="http://www.w3.org/1999/xlink" x="0px" y="0px"
	 width="245px" height="258px" viewBox="0 0 245 258" enable-background="new 0 0 245 258" xml:space="preserve">
<g>
	
		<line fill="none" stroke="#686C71" stroke-width="7.3022" stroke-linecap="round" stroke-linejoin="round" stroke-miterlimit="10" x1="67.98" y1="168.41" x2="186.91" y2="219.77"/>
	
		<polyline fill="none" stroke="#686C71" stroke-width="7.3022" stroke-linecap="round" stroke-linejoin="round" stroke-miterlimit="10" points="
		68.88,168.17 186.91,87.32 99.07,31.91 	"/>
	<circle fill="#4285F4" cx="98.05" cy="30.88" r="30.69"/>
	<circle fill="#EA4335" cx="188.46" cy="85.48" r="56.67"/>
	<circle fill="#FBBC05" cx="69.48" cy="167.36" r="69.21"/>
	<circle fill="#34A853" cx="189.01" cy="218.93" r="39.27"/>
	<g>
		<defs>
			<circle id="SVGID_1_" cx="69.48" cy="167.36" r="69.21"/>
		</defs>
		<clipPath id="SVGID_2_">
			<use xlink:href="#SVGID_1_"  overflow="visible"/>
		</clipPath>
		
			<circle clip-path="url(#SVGID_2_)" fill="none" stroke="#FFFFFF" stroke-width="4.7141" stroke-linecap="round" stroke-linejoin="round" stroke-miterlimit="10" cx="69.23" cy="219.86" r="39.62"/>
	</g>
	
		<circle fill="none" stroke="#FFFFFF" stroke-width="4.7141" stroke-linecap="round" stroke-linejoin="round" stroke-miterlimit="10" cx="69.12" cy="148.82" r="17.96"/>
	
		<path fill="none" stroke="#FFFFFF" stroke-width="4.7141" stroke-linecap="round" stroke-linejoin="round" stroke-miterlimit="10" d="
		M188.49,111.46c0,0-15.7-12.62-20.56-16.66c-11.64-9.68-7.8-21.57-0.33-25.42c11.47-5.91,20.56,8.41,20.56,8.41
		s8.29-13.73,19.25-8.67c8.78,4.05,11.28,15.07,0.45,25.68C203.01,99.55,188.49,111.46,188.49,111.46"/>
</g>
</svg>
