<svg xmlns="http://www.w3.org/2000/svg" width="40" height="40"><path opacity=".1" fill="#FFF" d="M38 20c0-9.94-8.06-18-18-18S2 10.06 2 20"/><circle fill="#FAFAFA" stroke="#E8EAED" stroke-miterlimit="10" cx="20" cy="20" r="18"/><path fill="#EA4335" d="M8 19.94v-7.05C8 11.29 9.29 10 10.89 10h8.99c.07 0 .12.06.12.12V20"/><path fill="#FBBC04" d="M8 19.66v7.05c0 1.6 1.29 2.89 2.89 2.89h8.99c.07 0 .12-.06.12-.12V19.6"/><path fill="#346CF2" d="M32 19.94v-7.05c0-1.6-1.29-2.89-2.89-2.89h-8.99c-.06 0-.12.06-.12.12V20"/><path fill="#34A853" d="M32 19.66v7.05c0 1.6-1.29 2.89-2.89 2.89h-8.99c-.07 0-.12-.06-.12-.12V19.6"/><path fill="#FAFAFA" d="M32 22.5a2.5 2.5 0 0 1 0-5M8 22.5a2.5 2.5 0 0 0 0-5"/><path fill="#FFF" d="M20 23.45l4.33 3.05-1.66-4.93L27 18.59h-5.31L20 13.5l-1.69 5.09H13l4.33 2.98-1.66 4.93L20 23.45z"/><path fill="none" stroke="#FFF" stroke-width=".227" stroke-miterlimit="10" d="M-9-10h53v59H-9z"/></svg>