<svg xmlns="http://www.w3.org/2000/svg" width="40" height="40"><circle fill="#FAFAFA" cx="20" cy="20" r="18"/><path opacity=".1" fill="#FFF" d="M38 20c0-9.94-8.06-18-18-18S2 10.06 2 20"/><path opacity=".1" fill="none" stroke="#202124" stroke-width=".283" stroke-linecap="round" stroke-linejoin="round" stroke-miterlimit="10" d="M38 20c0 9.94-8.06 18-18 18S2 29.94 2 20"/><path fill="#FBBC04" d="M5.27 25.63l9.95-10.2v7.04L7.94 30z"/><path fill="#346CF2" d="M20.8 28.06v-7.04l-5.58-5.59v7.29z"/><path fill="#34A853" d="M20.56 21.26l5.14-5.14 3.51 3.51-8.41 8.43z"/><path fill="#EA4335" d="M22.88 13.45l9.37 9.3c.19.19.52.07.54-.2l.88-9.68a.803.803 0 0 0-.83-.87l-9.55.4c-.54.02-.79.67-.41 1.05z"/></svg>