<svg xmlns="http://www.w3.org/2000/svg" width="203.88" height="212" version="1.0" viewBox="0 0 203.88 212"><linearGradient id="a" x1="1.82" x2="64.09" y1="1.995" y2="1.995" gradientTransform="matrix(1 0 0 -1 0 212)" gradientUnits="userSpaceOnUse"><stop offset="0" style="stop-color:#282d34;stop-opacity:0"/><stop offset=".1888" style="stop-color:#2c3037;stop-opacity:.0378"/><stop offset=".8876" style="stop-color:#a5a8ae;stop-opacity:.1777"/><stop offset=".999" style="stop-color:#ccd0d6;stop-opacity:.2"/></linearGradient><path fill="url(#a)" d="M1.82 208.01h62.27V212H1.82z"/><path fill="#E6E8EB" d="M143.91 69.8v14.18c2.03 0 4.01-.21 5.92-.61 3.85-3.82 6.92-8.43 8.95-13.57h-14.87z"/><path fill="#BABFC5" d="M126.27 55.37h-11.1c.02 5.27 1.47 10.2 3.96 14.44h9.91c-1.77-4.48-2.75-9.35-2.77-14.44z"/><path fill="#E6E8EB" d="M126.27 55.37c.02 5.1 1 9.97 2.77 14.44h14.87V55.37h-17.64zM126.27 55.24c0-5.05.95-9.87 2.67-14.31h-9.96c-2.42 4.21-3.82 9.1-3.82 14.31v.13h11.1c.01-.05.01-.09.01-.13zM143.91 40.93V26.49c-2.03 0-4 .21-5.91.61-3.92 3.89-7.03 8.59-9.06 13.83h14.97z"/><path fill="#BABFC5" d="M138 27.1c-8.13 1.7-15 6.84-19.02 13.83h9.96c2.03-5.24 5.14-9.94 9.06-13.83zM158.88 40.93c-2.03-5.24-5.15-9.94-9.07-13.83-1.91-.4-3.88-.61-5.91-.61v14.44h14.98z"/><path fill="#E6E8EB" d="M168.84 40.93c-4.02-6.99-10.89-12.13-19.02-13.83 3.92 3.89 7.04 8.59 9.07 13.83h9.95zM158.88 40.93h-14.97v14.44h17.64v-.13c.01-5.05-.95-9.87-2.67-14.31z"/><path fill="#BABFC5" d="M161.56 55.24v.13h11.1v-.13c0-5.21-1.39-10.09-3.82-14.31h-9.95c1.71 4.44 2.67 9.26 2.67 14.31zM143.91 69.8h14.87c1.77-4.47 2.76-9.34 2.77-14.44h-17.64V69.8z"/><path fill="#E6E8EB" d="M161.55 55.37c-.02 5.1-1 9.97-2.77 14.44h9.91c2.5-4.24 3.94-9.17 3.96-14.44h-11.1z"/><path fill="#BABFC5" d="M149.83 83.37c8.03-1.68 14.82-6.71 18.86-13.57h-9.91c-2.03 5.14-5.1 9.75-8.95 13.57z"/><path fill="#FFF" d="M143.91 84.98c-2.05 0-4.11-.21-6.12-.63-8.15-1.71-15.27-6.82-19.52-14.04-2.66-4.51-4.08-9.68-4.1-14.94v-.13c0-5.19 1.37-10.31 3.95-14.81 4.24-7.36 11.41-12.58 19.68-14.31 4.01-.84 8.22-.84 12.22 0 8.27 1.73 15.45 6.94 19.68 14.31 2.58 4.49 3.95 9.61 3.95 14.81v.13c-.02 5.26-1.44 10.43-4.1 14.95-4.25 7.21-11.36 12.33-19.51 14.04-2.02.41-4.08.62-6.13.62zm-27.74-29.62c.02 4.91 1.34 9.72 3.83 13.93 3.96 6.73 10.6 11.5 18.21 13.1 3.75.79 7.68.79 11.43 0 7.6-1.59 14.24-6.36 18.2-13.09 2.48-4.21 3.8-9.03 3.83-13.93l1-.12h-1c0-4.84-1.27-9.62-3.68-13.81-3.95-6.87-10.65-11.74-18.36-13.35-3.74-.78-7.66-.78-11.41 0-7.71 1.61-14.4 6.48-18.36 13.35-2.41 4.19-3.68 8.96-3.68 13.81l-1 .13.99-.02z"/><path fill="#BABFC5" d="M129.04 69.8c2.03 5.13 5.09 9.75 8.95 13.57 1.91.4 3.89.61 5.92.61V69.8h-14.87z"/><path fill="#E6E8EB" d="M119.13 69.8c4.04 6.85 10.83 11.89 18.86 13.57-3.85-3.82-6.92-8.43-8.95-13.57h-9.91z"/><path fill="#BABFC5" d="M143.91 40.93h-14.97c-1.72 4.44-2.67 9.26-2.67 14.31v.13h17.64V40.93z"/><path fill="#FFF" d="M137.29 84.08c-7.75-7.69-12.02-17.93-12.02-28.85 0-11.01 4.33-21.31 12.19-29.01l1.4 1.43c-7.48 7.32-11.59 17.12-11.59 27.58 0 10.38 4.06 20.12 11.43 27.43l-1.41 1.42z"/><path fill="#4588EB" d="M158.44 82.73c-8.54 0-15.47 6.92-15.47 15.46 0 2.91.82 5.61 2.21 7.94h-.02l13.28 21.41 12.66-20.48c1.76-2.51 2.81-5.57 2.81-8.87-.01-8.53-6.93-15.46-15.47-15.46z"/><path fill="#E7E9EC" d="M79.51 107.39h1.33v34.72h-1.33zM143.24 80.97h1.33v60.97h-1.33z"/><path fill="#4588EB" d="M105.23 73.4c-1.34 16.59-17.98 29.98-24.85 29.95-8.58-.03-23.56-12.95-24.79-30.12-1.19-16.55 11.24-30 24.99-29.95s25.99 13.58 24.65 30.12z"/><path fill="#FFF" d="M142.91 26.56h2v57.47h-2z"/><path fill="#FFF" d="M119.09 68.8h49.64v2h-49.64z"/><circle cx="80.17" cy="105.15" r="2.73" fill="#4588EB"/><path fill="#4588EB" d="M83.21 108.04l-6.07-.02c-.36 0-.65-.29-.65-.65s.29-.65.65-.65l6.07.02c.36 0 .65.29.65.65s-.29.65-.65.65z"/><path fill="#E4EEFC" d="M97.64 59.57c-.38 0-.75-.2-.95-.56-.94-1.67-2.11-3.22-3.47-4.62-.42-.43-.41-1.13.03-1.55.43-.42 1.13-.41 1.55.03 1.49 1.54 2.76 3.24 3.8 5.07.3.53.11 1.2-.41 1.49-.18.1-.37.14-.55.14z" opacity=".4"/><path fill="#FFB700" d="M146.84 92.86c1 0 1.81-.8 1.83-1.8v-.39c0-14.08-11.42-24.51-25.5-24.51s-25.5 10.43-25.5 24.51v.39c.02 1 .83 1.8 1.83 1.8h47.34z"/><path fill="#E6E8EB" d="M42.4 141.93h91.35V212H42.4z"/><path fill="#EFF1F2" d="M133.75 141.93h24.65V212h-24.65z"/><path fill="#D8DADE" d="M117.71 173.94c.66-.66 1.07-1.58 1.07-2.59s-.41-1.93-1.07-2.59l-9.12-9.12-3.03 4.99-9.25 7.29H94.6l1.72 9.28c10.46 0 18.92-5.02 21.37-7.24 0-.01.01-.01.02-.02zM17.75 183.57H42.4v-41.64z"/><path fill="#D8DADE" d="M133.75 174.31H92.8v-32.38h-9.44v32.38H42.4v9.45h40.96V212h9.44v-28.24h40.95z" opacity=".79"/><linearGradient id="b" x1="117.71" x2="94.6" y1="38.83" y2="38.83" gradientTransform="matrix(1 0 0 -1 0 212)" gradientUnits="userSpaceOnUse"><stop offset="0" style="stop-color:#d9dbdf;stop-opacity:0"/><stop offset="1" style="stop-color:#c1c3c7"/></linearGradient><path fill="url(#b)" d="M117.71 173.94c-2.44 2.21-10.9 7.25-21.39 7.25l-1.72-9.28h1.71l11.88-6.76 9.52 8.79z"/><path fill="#E6E8EB" d="M158.41 174.31h-7.06v-32.2h-9.45v32.2h-8.15v9.45h8.15V212h9.45v-28.24h7.06z"/><path fill="#EE4D31" d="M143.02 98.11h-39.74c-3.07 0-5.57 2.49-5.57 5.57 0 3.07 2.49 5.57 5.57 5.57h39.74c3.07 0 5.57-2.49 5.57-5.57s-2.5-5.57-5.57-5.57z"/><path fill="#FFB700" d="M146.55 98.68l-46.7-.12c-.96 0-1.74-.78-1.74-1.75s.79-1.75 1.75-1.75l46.7.12c.96 0 1.74.78 1.74 1.75.01.97-.78 1.75-1.75 1.75z"/><linearGradient id="c" x1="90.1978" x2="109.6664" y1="132.49" y2="132.49" gradientTransform="matrix(1 0 0 -1 0 212)" gradientUnits="userSpaceOnUse"><stop offset="0" style="stop-color:#ffa000"/><stop offset=".9987" style="stop-color:#ffb700"/></linearGradient><path fill="url(#c)" d="M128.25 66.62c-1.64-.3-3.33-.46-5.07-.46-14.08 0-25.5 10.43-25.5 24.51v.39c.02 1 .83 1.8 1.83 1.8h5.61c.92-13.08 10.54-23.75 23.13-26.24z"/><path fill="#26A353" d="M138.54 96.54c-2.52 0-3.83-1.26-4.88-2.26-.89-.86-1.49-1.43-2.8-1.43-1.32 0-1.91.57-2.8 1.43-1.05 1.01-2.35 2.26-4.88 2.26s-3.83-1.26-4.88-2.26c-.89-.86-1.48-1.43-2.8-1.43s-1.91.57-2.8 1.43c-1.05 1.01-2.36 2.26-4.88 2.26s-3.83-1.26-4.88-2.26c-.89-.86-1.48-1.43-2.8-1.43-.83 0-1.5-.67-1.5-1.5s.67-1.5 1.5-1.5c2.52 0 3.83 1.26 4.88 2.26.89.86 1.48 1.43 2.8 1.43s1.91-.57 2.8-1.43c1.05-1.01 2.36-2.26 4.88-2.26s3.83 1.26 4.88 2.26c.89.86 1.48 1.43 2.8 1.43s1.91-.57 2.8-1.43c1.05-1.01 2.36-2.26 4.88-2.26s3.83 1.26 4.88 2.26c.89.86 1.49 1.43 2.8 1.43s1.91-.57 2.8-1.43c1.05-1.01 2.35-2.26 4.88-2.26.83 0 1.5.67 1.5 1.5s-.67 1.5-1.5 1.5c-1.32 0-1.91.57-2.8 1.43-1.05 1-2.35 2.26-4.88 2.26z"/><path fill="#FFB700" d="M145.55 115.2h-44.37c-1.5 0-2.71-1.22-2.71-2.71v-.57c0-1.5 1.22-2.71 2.71-2.71h44.37c1.5 0 2.71 1.22 2.71 2.71v.57c.01 1.49-1.21 2.71-2.71 2.71z"/><path fill="#E7E9EC" d="M157.69 129.75h1.33v12.2h-1.33zM122.38 119.07h1.33v22.87h-1.33z"/><linearGradient id="d" x1="55.5112" x2="96.14" y1="135.995" y2="135.995" gradientTransform="matrix(1 0 0 -1 0 212)" gradientUnits="userSpaceOnUse"><stop offset="0" style="stop-color:#4588eb"/><stop offset="1" style="stop-color:#4f79cc"/></linearGradient><path fill="url(#d)" d="M84.38 99.35c-8.58-.03-23.56-12.95-24.79-30.12-.57-7.96 2.02-15.2 6.38-20.57-6.7 5.42-11.11 14.41-10.38 24.57 1.23 17.17 16.21 30.09 24.79 30.12 3.72.01 10.29-3.91 15.76-10.14-4.41 3.86-8.92 6.15-11.76 6.14z"/><path fill="#E7E9EC" d="M104.32 52.19h1.33v89.75h-1.33zM57.73 126.53h1.33v15.58h-1.33z"/><path fill="#00A54D" d="M43.86 97.58l-.02 27.69c0 1.21 1.24 2.03 2.35 1.55l11.62-4.98c.42-.18.91-.18 1.33 0l11.63 4.98c1.11.48 2.35-.34 2.35-1.55V97.58H43.86z"/><path fill="#008C38" d="M73.13 94.37c0-2.3-1.88-4.18-4.18-4.18H48.03c-2.3 0-4.16 1.88-4.16 4.18v3.22h29.27v-3.22h-.01z"/><path fill="#FFF" d="M119.09 39.93h49.64v2h-49.64z"/><circle cx="58.39" cy="123.75" r="2.78" fill="#00A54D"/><path fill="#00A54D" d="M61.52 126.6s-.01 0 0 0l-6.07-.02c-.36 0-.65-.29-.65-.65s.29-.65.65-.65l6.07.02c.36 0 .65.29.65.65 0 .36-.29.65-.65.65z"/><circle cx="69.83" cy="120.48" r="1.3" fill="#95D7B1" opacity=".7"/><path fill="#95D7B1" d="M69.83 113.28c-.55 0-1-.45-1-1V95.46c0-.49-.4-.9-.9-.9h-1.22c-.55 0-1-.45-1-1s.45-1 1-1h1.22c1.6 0 2.9 1.3 2.9 2.9v16.81c0 .56-.45 1.01-1 1.01z" opacity=".7"/><path fill="#EE4D31" d="M132.37 5.67c-7.56-7.56-19.82-7.56-27.39 0-7.56-7.56-19.82-7.56-27.39 0-7.56 7.56-7.56 19.82 0 27.39l25.78 25.78c.89.89 2.33.89 3.21 0l25.78-25.78c7.57-7.57 7.57-19.83.01-27.39z"/><path fill="#F28E84" d="M111.42 7.19c-.37 0-.72-.19-.92-.53-.29-.51-.11-1.15.4-1.43 2.4-1.35 5.13-2.07 7.9-2.07.58 0 1.05.47 1.05 1.05s-.47 1.05-1.05 1.05c-2.41 0-4.78.62-6.86 1.8-.16.08-.34.13-.52.13zM132.9 15.05c-.43 0-.83-.26-.99-.69-1.5-4.04-4.85-7.21-8.96-8.49-.55-.17-.86-.76-.69-1.32.17-.55.76-.86 1.32-.69 4.73 1.47 8.58 5.12 10.3 9.76.2.54-.07 1.15-.62 1.35-.11.06-.23.08-.36.08z"/><circle cx="133.96" cy="18.65" r="1.2" fill="#E4EEFC" opacity=".4"/><circle cx="104.98" cy="59.23" r="3.17" fill="#ED4F38"/><path fill="#ED4F38" d="M108.55 62.56l-7.14-.02c-.36 0-.65-.29-.65-.65s.29-.65.65-.65l7.14.02c.36 0 .65.29.65.65s-.29.65-.65.65z"/><path fill="#FFF5DC" d="M144.62 85.01c-.42 0-.81-.26-.95-.68-2.07-6.14-6.93-10.86-13.34-12.94-.53-.17-.81-.73-.64-1.26.17-.52.73-.81 1.26-.64 7.02 2.28 12.35 7.45 14.62 14.2.18.52-.1 1.09-.63 1.27-.1.03-.21.05-.32.05z" opacity=".7"/><ellipse cx="115.95" cy="71.85" fill="#FFF5DC" opacity=".7" rx="1.41" ry="1.41" transform="rotate(-45 115.94578942 71.85125402)"/><ellipse cx="111.52" cy="75.14" fill="#FFF5DC" opacity=".7" rx="1.01" ry="1.01" transform="rotate(-45 111.51985753 75.14137501)"/><circle cx="123.04" cy="115.99" r="2.94" fill="#FFB700"/><path fill="#FFB700" d="M126.44 119.1l-6.57-.02c-.36 0-.65-.29-.65-.65s.29-.65.65-.65l6.57.02c.36 0 .65.29.65.65s-.29.65-.65.65z"/><ellipse cx="145.21" cy="112.2" fill="#FFF5DC" opacity=".7" rx="1.01" ry="1.01" transform="rotate(-45 145.20790256 112.20618676)"/><path fill="#FFF" d="M158.44 105.46c-3.97 0-7.21-3.23-7.21-7.21 0-3.97 3.23-7.21 7.21-7.21 3.97 0 7.21 3.23 7.21 7.21-.01 3.97-3.24 7.21-7.21 7.21zm0-12.41c-2.87 0-5.21 2.33-5.21 5.21s2.33 5.21 5.21 5.21c2.87 0 5.21-2.34 5.21-5.21s-2.34-5.21-5.21-5.21z"/><path fill="#E4EEFC" d="M170.76 99.25c-.55 0-1-.45-1-1 0-6.25-5.08-11.33-11.33-11.33-.55 0-1-.45-1-1s.45-1 1-1c7.35 0 13.33 5.98 13.33 13.33 0 .55-.44 1-1 1z" opacity=".4"/><circle cx="168.44" cy="105.66" r="1.2" fill="#E4EEFC" opacity=".4"/><circle cx="158.35" cy="127.5" r="2.73" fill="#4588EB"/><path fill="#4588EB" d="M161.47 130.4l-6.07-.02c-.36 0-.65-.29-.65-.65s.29-.65.65-.65l6.07.02c.36 0 .65.29.65.65s-.29.65-.65.65z"/><path fill="#FFF" d="M150.53 84.08l-1.41-1.42c7.37-7.31 11.43-17.05 11.43-27.43 0-10.56-4.18-20.43-11.78-27.77l1.39-1.44c7.99 7.72 12.39 18.1 12.39 29.21.01 10.92-4.27 21.17-12.02 28.85z"/><path fill="#FFF" d="M114.98 54.37h57.86v2h-57.86z"/><path fill="#BABFC5" d="M150.12 26.94h-2c0-2.08-1.7-3.78-3.78-3.78h-.86c-2.08 0-3.78 1.7-3.78 3.78h-2c0-3.19 2.59-5.78 5.78-5.78h.86c3.19 0 5.78 2.59 5.78 5.78z"/><path fill="#F6F7F8" d="M168.38 51.46c-.47 0-.89-.33-.98-.81-.5-2.57-1.42-5.04-2.74-7.33-3.41-5.93-9.18-10.12-15.83-11.51-.54-.11-.89-.64-.77-1.18.11-.54.64-.89 1.18-.77 7.21 1.51 13.47 6.05 17.16 12.47 1.43 2.48 2.42 5.15 2.97 7.94.11.54-.25 1.07-.79 1.17-.07.02-.14.02-.2.02z" opacity=".7"/><path fill="#E6E8EB" d="M162.17 18.95l.74 1.47c.06.11.15.2.27.25l1.41.63c.43.19.43.8.01 1l-1.43.67c-.11.05-.2.14-.26.25l-.74 1.44c-.2.4-.77.4-.98 0l-.74-1.44c-.06-.11-.15-.2-.26-.25l-1.44-.67c-.43-.2-.42-.81.01-1l1.42-.63c.12-.05.21-.14.27-.26l.74-1.47c.21-.39.78-.39.98.01z"/><path fill="#D8DADE" d="M169.57 25.32l1.08 2.15c.08.17.22.3.39.37l2.06.92c.63.28.63 1.17.01 1.46l-2.09.98c-.16.08-.29.2-.37.36l-1.08 2.11c-.3.58-1.13.58-1.43 0l-1.08-2.11c-.08-.16-.21-.29-.38-.36l-2.11-.98c-.63-.29-.62-1.18.01-1.46l2.08-.92c.17-.08.31-.21.39-.37l1.08-2.14c.3-.6 1.14-.6 1.44-.01z"/><path fill="#EFF1F2" d="M170.44 17.69l.5 1c.04.08.1.14.18.17l.96.43c.29.13.3.55.01.68l-.98.46c-.08.04-.14.09-.17.17l-.51.99c-.14.27-.53.27-.67 0l-.51-.99c-.04-.07-.1-.13-.18-.17l-.99-.46c-.29-.14-.29-.55.01-.68l.97-.43c.08-.04.14-.1.18-.17l.5-1c.17-.27.56-.27.7 0z"/><circle cx="151.13" cy="137.66" r="2.31" fill="#FFB700"/><path fill="#26A353" d="M166.76 141.43c-.16 0-.33-.03-.49-.08-.78-.27-1.2-1.12-.93-1.91l1.96-5.66c.27-.78 1.12-1.2 1.91-.93.78.27 1.2 1.12.93 1.91l-1.96 5.66c-.21.62-.8 1.01-1.42 1.01z"/><path fill="#4588EB" d="M184.83 130.36c-.48 0-.96-.23-1.25-.67l-3.32-4.98c-.46-.69-.27-1.62.42-2.08s1.62-.27 2.08.42l3.32 4.98c.46.69.27 1.62-.42 2.08-.26.17-.55.25-.83.25z"/><circle cx="191.69" cy="148.63" r="2.31" fill="#FFB700"/><path fill="#EE4D31" d="M199.4 180.47c-.25 0-.51-.06-.74-.2-.72-.41-.97-1.33-.56-2.05l2.97-5.2c.41-.72 1.33-.97 2.05-.56s.97 1.33.56 2.05l-2.97 5.2c-.29.48-.79.76-1.31.76z"/><circle cx="51.98" cy="137.28" r="2.31" fill="#FFB700"/><path fill="#EE4D31" d="M37.73 139.16c-.48 0-.96-.23-1.25-.67l-3.32-4.98c-.46-.69-.27-1.62.42-2.08.69-.46 1.62-.27 2.08.42l3.32 4.98c.46.69.27 1.62-.42 2.08-.26.17-.55.25-.83.25z"/><path fill="#4588EB" d="M19.3 134c-.18 0-.36-.03-.54-.1-.77-.3-1.16-1.17-.86-1.94l2.15-5.59c.3-.77 1.17-1.16 1.94-.86.77.3 1.16 1.17.86 1.94l-2.15 5.59c-.23.6-.8.96-1.4.96z"/><circle cx="12.52" cy="147.93" r="2.31" fill="#00A54D"/><circle cx="2.31" cy="177.97" r="2.31" fill="#FFB700"/><path fill="#BABFC5" d="M96.3 171.92l6.51-11.5c1.19-2.1 4.06-2.49 5.77-.78 1.71 1.71 1.32 4.58-.78 5.77l-11.5 6.51z"/><path fill="#D8DADE" d="M81.57 171.92h-1.71l-9.25-7.29-3.03-4.99-9.12 9.12c-.66.66-1.07 1.58-1.07 2.59s.41 1.93 1.07 2.59c0 0 .01.01.02.01 2.45 2.22 10.91 7.24 21.38 7.24l1.71-9.27z"/><linearGradient id="e" x1="57.39" x2="81.57" y1="41.585" y2="41.585" gradientTransform="matrix(1 0 0 -1 0 212)" gradientUnits="userSpaceOnUse"><stop offset="0" style="stop-color:#d9dbdf;stop-opacity:0"/><stop offset="1" style="stop-color:#c1c3c7"/></linearGradient><path fill="url(#e)" d="M81.57 171.92h-1.71l-9.25-7.29-3.03-4.99-9.12 9.12c-.66.66-1.07 1.58-1.07 2.59s.41 1.93 1.07 2.59c0 0 .01.01.02.01 2.45 2.22 10.91 7.24 21.38 7.24l1.71-9.27z"/><path fill="#BABFC5" d="M79.86 171.92l-6.51-11.5c-1.19-2.1-4.06-2.49-5.77-.78-1.71 1.71-1.32 4.58.78 5.77l11.5 6.51z"/><path fill="#D8DADE" d="M64.8 178.95c-1.69 0-3.06 1.37-3.06 3.06 0 .51.14.99.36 1.41h-.01l7.1 12.82 10.79-9.61.44-2.07v-2.96c-4.21-1.74-10.55-2.65-15.62-2.65z"/><path fill="#D8DADE" d="M64.8 178.95c-1.69 0-3.06 1.37-3.06 3.06 0 .51.14.99.36 1.41h-.01l7.1 12.82 10.79-9.61.44-2.07v-2.96c-4.21-1.74-10.55-2.65-15.62-2.65z"/><path fill="#BABFC5" d="M79.97 186.64l-5.45 9.63c-1 1.76-3.4 2.09-4.83.66-1.43-1.43-1.1-3.83.66-4.83l9.62-5.46z"/><path fill="#D8DADE" d="M114.43 182.02c0-1.69-1.37-3.06-3.06-3.06-5.07 0-11.41.91-15.61 2.65v2.96l.44 2.07 10.79 9.61 7.1-12.82h-.01c.21-.43.35-.9.35-1.41z"/><path fill="#BABFC5" d="M96.19 186.64l5.45 9.63c1 1.76 3.4 2.09 4.83.66 1.43-1.43 1.1-3.83-.66-4.83l-9.62-5.46z"/><path fill="#FFF" d="M91.73 187.7l-3.62 2.83-3.62-2.83h-3.96c-.76 0-1.38-.62-1.38-1.38v-14.2c0-.76.62-1.38 1.38-1.38H95.7c.76 0 1.38.62 1.38 1.38v14.2c0 .76-.62 1.38-1.38 1.38h-3.97z"/><path fill="#969EA5" d="M88.1 174.43l1.66 3.29 3.38 1.51-3.38 1.58-1.66 3.23-1.65-3.23-3.41-1.58 3.41-1.51z"/><linearGradient id="f" x1="91.2466" x2="101.8923" y1="212.2979" y2="151.9232" gradientTransform="matrix(1 0 0 -1 0 212)" gradientUnits="userSpaceOnUse"><stop offset="0" style="stop-color:#ee4d31"/><stop offset="1" style="stop-color:#e4422a"/></linearGradient><path fill="url(#f)" d="M110.09 55.33l11.95-11.95c-10.18 4.28-21.94 1.98-29.76-5.83l-5.8-5.78c-7.57-7.55-7.58-19.81-.03-27.39 1.92-1.93 4.15-3.36 6.53-4.31-5.5-.48-11.17 1.38-15.39 5.59-7.56 7.56-7.56 19.82 0 27.39l25.78 25.78c.89.89 2.33.89 3.21 0l2.11-2.11 1.33-1.33.07-.06z"/><linearGradient id="g" x1="146.075" x2="146.075" y1="70.07" gradientTransform="matrix(1 0 0 -1 0 212)" gradientUnits="userSpaceOnUse"><stop offset="0" style="stop-color:#babfc5;stop-opacity:.6"/><stop offset=".1639" style="stop-color:#ccd0d5;stop-opacity:.5017"/><stop offset=".3699" style="stop-color:#dbdde1;stop-opacity:.3781"/><stop offset=".6154" style="stop-color:#e3e6e9;stop-opacity:.2308"/><stop offset="1" style="stop-color:#e6e8eb;stop-opacity:0"/></linearGradient><path fill="url(#g)" d="M133.75 141.93h24.65V212h-24.65z"/><path fill="#EDEEF0" d="M192.17 183.64l-33.81-.08-24.56-41.7 33.81.08z"/></svg>
