<?xml version="1.0" encoding="utf-8"?>
<!-- Generator: Adobe Illustrator 24.3.0, SVG Export Plug-In . SVG Version: 6.00 Build 0)  -->
<svg version="1.1" id="Layer_1" xmlns="http://www.w3.org/2000/svg" xmlns:xlink="http://www.w3.org/1999/xlink" x="0px" y="0px"
	 width="290px" height="200px" viewBox="0 0 290 200" enable-background="new 0 0 290 200" xml:space="preserve">
<polygon fill="#70757A" points="75.57,41.39 75.53,165.67 189.87,165.67 189.87,41.39 "/>
<linearGradient id="SVGID_1_" gradientUnits="userSpaceOnUse" x1="132.6931" y1="28.2243" x2="132.6931" y2="109.8033">
	<stop  offset="0" style="stop-color:#FFFFFF"/>
	<stop  offset="1" style="stop-color:#FFFFFF;stop-opacity:0"/>
</linearGradient>
<rect x="75.55" y="41.39" opacity="0.4" fill="url(#SVGID_1_)" width="114.29" height="124.28"/>
<rect x="82.46" y="121.87" fill="#DADCE0" width="32.08" height="33.28"/>
<rect x="151.36" y="121.87" fill="#DADCE0" width="32.08" height="33.28"/>
<rect x="125.02" y="131.51" fill="#DADCE0" width="16.33" height="30.86"/>
<rect x="125.02" y="124.28" fill="#DADCE0" width="16.33" height="5.39"/>
<linearGradient id="SVGID_2_" gradientUnits="userSpaceOnUse" x1="161.4659" y1="137.0455" x2="161.4659" y2="194.1584">
	<stop  offset="0" style="stop-color:#202124"/>
	<stop  offset="1" style="stop-color:#202124;stop-opacity:0"/>
</linearGradient>
<path opacity="0.3" fill="url(#SVGID_2_)" d="M71.2,167.12c0,0-6.05,9.55-16.39,9.55c-12.35,0-17.95-10.98-17.95-10.98l174.78-0.02
	c-1.22,3.66-5.49,5.21-8.63,3.32l-0.28,1.27l83.36,29.74H155.15l-66.51-28.67C77.66,176.54,71.2,167.12,71.2,167.12z"/>
<path fill="none" stroke="#70757A" stroke-width="0.5" stroke-miterlimit="10" d="M109.25,140.03c-11.16-6.21-21.36,0-21.36,0
	l-1.62-5.34c0,0,11.69-6.21,24.47,0L109.25,140.03z"/>
<line fill="none" stroke="#70757A" stroke-width="0.5" stroke-miterlimit="10" x1="94.54" y1="141.56" x2="102.73" y2="141.56"/>
<line fill="none" stroke="#70757A" stroke-width="0.5" stroke-miterlimit="10" x1="96.4" y1="128.6" x2="100.58" y2="128.6"/>
<path fill="none" stroke="#70757A" stroke-width="0.5" stroke-miterlimit="10" d="M178.14,140.03c-11.16-6.21-21.36,0-21.36,0
	l-1.62-5.34c0,0,11.69-6.21,24.47,0L178.14,140.03z"/>
<line fill="none" stroke="#70757A" stroke-width="0.5" stroke-miterlimit="10" x1="163.43" y1="141.56" x2="171.63" y2="141.56"/>
<line fill="none" stroke="#70757A" stroke-width="0.5" stroke-miterlimit="10" x1="165.29" y1="128.6" x2="169.47" y2="128.6"/>
<polygon fill="#E6EBF0" points="189.87,162.12 144.54,162.12 144.54,121.62 121.83,121.62 121.83,162.12 75.53,162.12 75.53,162.62 
	121.83,162.62 121.83,165.58 122.33,165.58 122.33,122.12 144.04,122.12 144.04,165.58 144.54,165.58 144.54,162.62 189.87,162.62 
	"/>
<linearGradient id="SVGID_3_" gradientUnits="userSpaceOnUse" x1="132.6968" y1="33.5735" x2="132.6968" y2="146.9529">
	<stop  offset="0" style="stop-color:#202124"/>
	<stop  offset="1" style="stop-color:#202124;stop-opacity:0"/>
</linearGradient>
<polygon fill="url(#SVGID_3_)" points="189.87,117.35 153.27,165.93 75.53,165.57 75.53,111.22 189.84,111.22 "/>
<path fill="#F1F3F4" d="M94.54,165.69c-2.64-4.36-7.11-7.23-12.17-7.23c-4.47,0-8.48,2.24-11.17,5.77
	c-3.79-5.74-9.87-9.47-16.73-9.47c-7.43,0-13.94,4.36-17.61,10.93H94.54z"/>
<path fill="#DADCE0" d="M56.52,165.69l-4.34-10.78c-0.42,0.05-0.83,0.12-1.24,0.19l4.26,10.58H56.52z"/>
<path fill="#DADCE0" d="M50.64,165.69l-7.13-7.42c-0.34,0.23-0.66,0.48-0.99,0.73l6.42,6.68H50.64z"/>
<path fill="#DADCE0" d="M63.44,165.69l4.34-5.51c-0.3-0.28-0.6-0.55-0.92-0.81l-4.98,6.32H63.44z"/>
<path fill="#DADCE0" d="M82.19,165.69l-0.66-7.18c-0.41,0.03-0.82,0.06-1.22,0.13l0.65,7.05H82.19z"/>
<path fill="#DADCE0" d="M86.9,165.69l3.88-4.26c-0.32-0.25-0.66-0.49-1-0.71l-4.54,4.98H86.9z"/>
<path fill="#F1F3F4" d="M205.97,161.55c-1.08,0-2.1,0.29-2.97,0.8c-0.63-4.48-4.48-7.93-9.13-7.93c-3.63,0-6.77,2.1-8.27,5.15
	c-0.31-0.05-0.63-0.08-0.95-0.08c-3.41,0-6.18,2.77-6.18,6.18h6.4h5.95h9.49h2.56h8.76C210.85,163.28,208.61,161.55,205.97,161.55z"
	/>
<path fill="#DADCE0" d="M183.04,159.71c1.37,1.54,3.51,3.98,5.26,5.96h1.63c-1.13-1.28-3.66-4.15-5.44-6.17
	C183.99,159.51,183.5,159.58,183.04,159.71z"/>
<path fill="#DADCE0" d="M201.53,158.52l-3.2,7.15h1.34l2.6-5.81C202.06,159.39,201.81,158.94,201.53,158.52z"/>
<rect x="71.08" y="74.91" fill="#70757A" width="121.25" height="34.89"/>
<path fill="#70757A" d="M192.33,109.78v4.28c0,1.85-1.51,3.35-3.37,3.35h0c-1.86,0-3.37-1.5-3.37-3.35v-0.01
	c0,1.86-1.5,3.36-3.36,3.36h-0.02c-1.86,0-3.36-1.5-3.36-3.36c0,1.86-1.5,3.36-3.36,3.36h-0.02c-1.86,0-3.36-1.5-3.36-3.36
	c0,1.86-1.5,3.36-3.36,3.36h-0.02c-1.86,0-3.36-1.5-3.36-3.36c0,1.86-1.5,3.36-3.36,3.36h-0.02c-1.86,0-3.36-1.5-3.36-3.36
	c0,1.86-1.5,3.36-3.36,3.36h-0.02c-1.86,0-3.36-1.5-3.36-3.36c0,1.86-1.5,3.36-3.36,3.36h-0.02c-1.86,0-3.36-1.5-3.36-3.36
	c0,1.86-1.5,3.36-3.36,3.36h-0.02c-1.86,0-3.36-1.5-3.36-3.36c0,1.86-1.5,3.36-3.36,3.36h-0.02c-1.86,0-3.36-1.5-3.36-3.36
	c0,1.86-1.5,3.36-3.36,3.36h-0.02c-1.86,0-3.36-1.5-3.36-3.36c0,1.86-1.5,3.36-3.36,3.36h-0.02c-1.86,0-3.36-1.5-3.36-3.36
	c0,1.86-1.5,3.36-3.36,3.36h-0.02c-1.86,0-3.36-1.5-3.36-3.36c0,1.86-1.5,3.36-3.36,3.36h-0.02c-1.86,0-3.36-1.5-3.36-3.36
	c0,1.86-1.5,3.36-3.36,3.36h-0.02c-1.86,0-3.36-1.5-3.36-3.36c0,1.86-1.5,3.36-3.36,3.36h-0.02c-1.86,0-3.36-1.5-3.36-3.36
	c0,1.86-1.5,3.36-3.36,3.36h-0.02c-1.86,0-3.36-1.5-3.36-3.36c0,1.86-1.5,3.36-3.36,3.36h-0.02c-1.86,0-3.36-1.5-3.36-3.36
	c0,1.86-1.5,3.36-3.36,3.36h-0.02c-1.86,0-3.36-1.5-3.36-3.36v-4.32L192.33,109.78z"/>
<path fill="#DADCE0" d="M84.7,74.91l-0.14,36.27v3.02c0.04,1.82,1.53,3.29,3.36,3.29h0.02c1.86,0,3.36-1.5,3.36-3.36
	c0,1.86,1.5,3.36,3.36,3.36h0.02c1.8,0,3.27-1.42,3.35-3.21v-3.1l0.14-36.27H84.7z"/>
<path fill="#DADCE0" d="M111.65,74.91l-0.14,36.27h0v3.02c0.04,1.82,1.53,3.29,3.36,3.29h0.02c1.86,0,3.36-1.5,3.36-3.36
	c0,1.86,1.5,3.36,3.36,3.36h0.02c1.8,0,3.27-1.42,3.35-3.21v-3.1l0.14-36.27H111.65z"/>
<path fill="#DADCE0" d="M138.59,74.91l-0.14,36.27h0v3.02c0.04,1.82,1.53,3.29,3.36,3.29h0.02c1.86,0,3.36-1.5,3.36-3.36
	c0,1.86,1.5,3.36,3.36,3.36h0.02c1.8,0,3.27-1.42,3.35-3.21v-3.1l0.14-36.27H138.59z"/>
<path fill="#DADCE0" d="M165.51,74.91l-0.14,36.27h0.02v3.02c0.04,1.82,1.53,3.29,3.36,3.29h0.02c1.86,0,3.36-1.5,3.36-3.36
	c0,1.86,1.5,3.36,3.36,3.36h0.02c1.8,0,3.27-1.42,3.35-3.21v-3.1l0.14-36.27H165.51z"/>
<linearGradient id="SVGID_4_" gradientUnits="userSpaceOnUse" x1="131.706" y1="75.4348" x2="131.706" y2="118.479">
	<stop  offset="0" style="stop-color:#202124"/>
	<stop  offset="1" style="stop-color:#202124;stop-opacity:0"/>
</linearGradient>
<path fill="url(#SVGID_4_)" d="M192.33,109.84v4.28c0,1.85-1.51,3.35-3.37,3.35h0c-1.86,0-3.37-1.5-3.37-3.35v-0.01
	c0,1.86-1.5,3.36-3.36,3.36h-0.02c-1.86,0-3.36-1.5-3.36-3.36c0,1.86-1.5,3.36-3.36,3.36h-0.02c-1.86,0-3.36-1.5-3.36-3.36
	c0,1.86-1.5,3.36-3.36,3.36h-0.02c-1.86,0-3.36-1.5-3.36-3.36c0,1.86-1.5,3.36-3.36,3.36h-0.02c-1.86,0-3.36-1.5-3.36-3.36
	c0,1.86-1.5,3.36-3.36,3.36h-0.02c-1.86,0-3.36-1.5-3.36-3.36c0,1.86-1.5,3.36-3.36,3.36h-0.02c-1.86,0-3.36-1.5-3.36-3.36
	c0,1.86-1.5,3.36-3.36,3.36h-0.02c-1.86,0-3.36-1.5-3.36-3.36c0,1.86-1.5,3.36-3.36,3.36h-0.02c-1.86,0-3.36-1.5-3.36-3.36
	c0,1.86-1.5,3.36-3.36,3.36h-0.02c-1.86,0-3.36-1.5-3.36-3.36c0,1.86-1.5,3.36-3.36,3.36h-0.02c-1.86,0-3.36-1.5-3.36-3.36
	c0,1.86-1.5,3.36-3.36,3.36h-0.02c-1.86,0-3.36-1.5-3.36-3.36c0,1.86-1.5,3.36-3.36,3.36h-0.02c-1.86,0-3.36-1.5-3.36-3.36
	c0,1.86-1.5,3.36-3.36,3.36h-0.02c-1.86,0-3.36-1.5-3.36-3.36c0,1.86-1.5,3.36-3.36,3.36h-0.02c-1.86,0-3.36-1.5-3.36-3.36
	c0,1.86-1.5,3.36-3.36,3.36h-0.02c-1.86,0-3.36-1.5-3.36-3.36c0,1.86-1.5,3.36-3.36,3.36h-0.02c-1.86,0-3.36-1.5-3.36-3.36
	c0,1.86-1.5,3.36-3.36,3.36h-0.02c-1.86,0-3.36-1.5-3.36-3.36v-4.32L192.33,109.84z"/>
<rect x="79.94" y="45.61" fill="#DADCE0" width="107.05" height="26.47"/>
<rect x="79.93" y="68.95" fill="#70757A" width="107.07" height="0.5"/>
<path fill="#70757A" d="M114.37,66.92l-3.23-10.66l0.18-0.1c0.22-0.12,22.6-11.72,46.73,0l0.19,0.09l-2.97,10.66l-0.28-0.15
	c-20.82-11.59-40.14-0.12-40.33,0L114.37,66.92z M135.22,61.08c5.97,0,12.76,1.28,19.72,5.09l2.69-9.65
	c-22.67-10.9-43.73-1.08-45.9-0.01l2.93,9.65C116.24,65.29,124.38,61.08,135.22,61.08z"/>
<rect x="79.93" y="48.23" fill="#70757A" width="107.05" height="0.5"/>
<linearGradient id="SVGID_5_" gradientUnits="userSpaceOnUse" x1="228.4706" y1="-28.1401" x2="147.0787" y2="104.1216">
	<stop  offset="0" style="stop-color:#202124"/>
	<stop  offset="1" style="stop-color:#202124;stop-opacity:0"/>
</linearGradient>
<polygon fill="url(#SVGID_5_)" points="192.33,109.8 192.16,79.77 157.33,40.8 94.84,109.8 "/>
<path fill="#E8EAED" d="M221.01,77.16l-59.35,2.4c-1.47,0.06-2.7-1.08-2.76-2.55l-2.43-60.13c-0.05-1.3,0.96-2.39,2.26-2.45
	l59.95-2.42c1.3-0.05,2.39,0.96,2.45,2.26l2.43,60.12C223.61,75.85,222.48,77.09,221.01,77.16z"/>
<path fill="#FFFFFF" d="M159.03,16.91l58.74-2.38l1.69,41.81l-58.74,2.38L159.03,16.91z"/>
<linearGradient id="SVGID_6_" gradientUnits="userSpaceOnUse" x1="341.0174" y1="31.1324" x2="201.4302" y2="144.939" gradientTransform="matrix(0.9999 0.0132 -0.0132 0.9999 0.3869 -79.4261)">
	<stop  offset="0" style="stop-color:#202124"/>
	<stop  offset="1" style="stop-color:#202124;stop-opacity:0"/>
</linearGradient>
<path fill="url(#SVGID_6_)" d="M223.55,74.39l-2.02-49.83c-0.15,0.25-57.84,55.24-58.11,54.96L221,77.16
	C222.48,77.09,223.61,75.85,223.55,74.39z"/>
<path fill="#E8EAED" d="M268.64,80.73l-56.72-17.64c-1.4-0.44-2.18-1.93-1.75-3.33l17.87-57.45c0.38-1.24,1.71-1.94,2.95-1.54
	l57.3,17.82c1.24,0.38,1.94,1.71,1.54,2.95L271.96,79C271.52,80.38,270.03,81.17,268.64,80.73z"/>
<path fill="#FFFFFF" d="M230.43,3.21l56.14,17.46l-12.42,39.95l-56.14-17.46L230.43,3.21z"/>
</svg>
