<?xml version="1.0" encoding="utf-8"?>
<!-- Generator: Adobe Illustrator 24.3.0, SVG Export Plug-In . SVG Version: 6.00 Build 0)  -->
<svg version="1.1" id="Layer_1" xmlns="http://www.w3.org/2000/svg" xmlns:xlink="http://www.w3.org/1999/xlink" x="0px" y="0px"
	 width="290px" height="200px" viewBox="0 0 290 200" enable-background="new 0 0 290 200" xml:space="preserve">
<path fill="#E8EAED" d="M141.9,181.02l-128.83,6.91c-3.19,0.18-5.89-2.26-6.07-5.45l-7-130.53c-0.16-2.81,2.02-5.23,4.83-5.38
	l130.13-6.98c2.81-0.16,5.23,2.02,5.38,4.83l7,130.51C147.53,178.12,145.09,180.85,141.9,181.02z"/>
<path fill="#FFFFFF" d="M6,52.03l128.03-6.84l4.87,90.76l-128.03,6.84L6,52.03z"/>
<path fill="#EFF0F2" d="M128.2,108.37c0-28.93-23.46-52.39-52.39-52.39c-28.93,0-52.39,23.46-52.39,52.39
	c0,12.56,4.43,24.09,11.8,33.11l84.48-4.52C125.07,128.75,128.2,118.93,128.2,108.37z"/>
<linearGradient id="SVGID_2_" gradientUnits="userSpaceOnUse" x1="581.0573" y1="206.7518" x2="49.1926" y2="85.2662">
	<stop  offset="0" style="stop-color:#202124"/>
	<stop  offset="1" style="stop-color:#202124;stop-opacity:0"/>
</linearGradient>
<path fill="url(#SVGID_2_)" d="M128.18,108.38c0-28.93-23.46-52.39-52.39-52.39c-16.18,0-30.65,7.34-40.26,18.87
	c2.57-1.88,5.34-3.57,8.32-5.01c26.31-12.66,57.96-1.72,70.7,24.44c6.82,14.02,6.82,29.55,1.31,42.91l3.79-0.22
	C125.04,128.76,128.18,118.95,128.18,108.38z"/>
<circle fill="#81C995" cx="92.35" cy="86.55" r="14.38"/>
<circle fill="#DADCE0" cx="46.49" cy="94.66" r="14.06"/>
<circle fill="#34A853" cx="46.49" cy="94.66" r="14.06"/>
<path fill="#EA4335" d="M70.44,139.64c-1.14-0.27-2.19-0.71-3.23-1.39c-4.71-3.1-6.02-9.43-2.93-14.14
	c3.1-4.71,9.43-6.02,14.14-2.93c4.71,3.1,6.02,9.43,2.93,14.14c-1.29,1.97-3.06,3.3-5.15,4L70.44,139.64z"/>
<circle fill="#EA4335" cx="86.94" cy="77.51" r="10.21"/>
<circle fill="#EA4335" cx="51.27" cy="123.67" r="10.79"/>
<circle fill="#34A853" cx="57" cy="107.2" r="14.64"/>
<circle fill="#34A853" cx="42.75" cy="109.17" r="10.98"/>
<linearGradient id="SVGID_3_" gradientUnits="userSpaceOnUse" x1="78.7739" y1="49.3699" x2="50.5247" y2="111.1564">
	<stop  offset="0" style="stop-color:#202124"/>
	<stop  offset="1" style="stop-color:#202124;stop-opacity:0"/>
</linearGradient>
<path fill="url(#SVGID_3_)" d="M71.54,105.61c-0.88-8.04-8.11-13.84-16.15-12.96c-4.22,0.46-7.81,2.68-10.15,5.84
	c-1.18-0.28-2.42-0.37-3.7-0.23c-6.03,0.66-10.38,6.08-9.72,12.11c0.66,6.03,6.08,10.38,12.11,9.72c1.49-0.16,2.88-0.62,4.11-1.3
	c2.89,2.23,6.61,3.4,10.53,2.97C66.62,120.87,72.42,113.64,71.54,105.61z"/>
<path fill="#F1F3F4" d="M41.77,109.97c-0.32,0-0.58-0.25-0.59-0.57c-0.01-0.33,0.25-0.6,0.57-0.61l32.82-1.03
	c0.33-0.04,0.6,0.25,0.61,0.57c0.01,0.33-0.25,0.6-0.57,0.61l-32.82,1.03C41.78,109.97,41.78,109.97,41.77,109.97z"/>
<path fill="#34A853" d="M84.54,76.86c-0.12-1.26-0.46-2.52-1.04-3.72c-2.63-5.44-9.17-7.71-14.61-5.08s-7.71,9.17-5.08,14.61
	c0.65,1.35,1.54,2.5,2.6,3.43c-1.2,3.51-1.07,7.48,0.68,11.08c3.52,7.26,12.25,10.3,19.52,6.79c7.26-3.52,10.3-12.25,6.79-19.52
	C91.54,80.65,88.27,78.01,84.54,76.86z"/>
<path fill="#F1F3F4" d="M95.42,108.56c-0.18,0-0.35-0.08-0.47-0.23L71.34,77.92c-0.2-0.26-0.15-0.63,0.1-0.83
	c0.26-0.2,0.63-0.15,0.83,0.1l23.61,30.41c0.2,0.26,0.15,0.63-0.1,0.83C95.68,108.52,95.55,108.56,95.42,108.56z"/>
<path fill="#F1F3F4" d="M79.21,87.19l-9.23-0.66c-0.33-0.02-0.57-0.31-0.55-0.63c0.02-0.33,0.31-0.57,0.63-0.55l8.05,0.57l0.58-8.11
	c0.02-0.33,0.3-0.57,0.63-0.55c0.33,0.02,0.57,0.31,0.55,0.63L79.21,87.19z"/>
<polyline fill="none" stroke="#F1F3F4" stroke-width="1.1828" stroke-linecap="round" stroke-linejoin="round" stroke-miterlimit="10" points="
	74.82,93.08 84.35,93.75 85.03,84.16 "/>
<circle fill="#81C995" cx="64.85" cy="99.54" r="14.64"/>
<circle fill="#81C995" cx="79.4" cy="100.85" r="10.98"/>
<path fill="#F1F3F4" d="M77.81,101.68c-0.03,0-0.05,0-0.08,0l-34.78-4.52c-0.32-0.04-0.55-0.34-0.51-0.66
	c0.04-0.32,0.34-0.55,0.66-0.51l34.78,4.52c0.32,0.04,0.55,0.34,0.51,0.66C78.36,101.47,78.1,101.68,77.81,101.68z"/>
<path fill="#F1F3F4" d="M72.17,107.46c-0.17,0-0.33-0.07-0.45-0.2l-6.3-7.27c-0.1-0.12-0.15-0.27-0.14-0.43
	c0.01-0.16,0.08-0.3,0.2-0.4l7.22-6.26c0.25-0.21,0.62-0.19,0.83,0.06c0.21,0.25,0.19,0.62-0.06,0.83l-6.77,5.87l5.91,6.82
	c0.21,0.25,0.19,0.62-0.06,0.83C72.44,107.41,72.3,107.46,72.17,107.46z"/>
<path fill="#F1F3F4" d="M63.04,106.2c-0.17,0-0.33-0.07-0.45-0.2l-6.3-7.27c-0.21-0.25-0.19-0.62,0.06-0.83l7.22-6.26
	c0.25-0.21,0.62-0.19,0.83,0.06c0.21,0.25,0.19,0.62-0.06,0.83l-6.77,5.87l5.91,6.82c0.21,0.25,0.19,0.62-0.06,0.83
	C63.31,106.15,63.17,106.2,63.04,106.2z"/>
<path fill="#34A853" d="M104.25,137.83c0.42-0.18,0.83-0.39,1.23-0.63c5.13-3.03,6.83-9.65,3.8-14.78s-9.65-6.83-14.78-3.8
	s-6.83,9.65-3.8,14.78c1.42,2.4,3.62,4.05,6.08,4.81L104.25,137.83z"/>
<path fill="#F1F3F4" d="M85.72,136.42c-0.21,0-0.41-0.11-0.52-0.3c-0.16-0.29-0.06-0.65,0.23-0.8l22.81-12.67
	c0.29-0.16,0.65-0.05,0.8,0.23c0.16,0.29,0.06,0.65-0.23,0.8L86,136.34C85.91,136.39,85.82,136.42,85.72,136.42z"/>
<circle fill="#34A853" cx="109.36" cy="122.52" r="8.09"/>
<path fill="#F1F3F4" d="M107.7,129.71c-0.04,0-0.09,0-0.13-0.01l-6.98-1.56c-0.32-0.07-0.52-0.39-0.45-0.71l1.55-6.93
	c0.07-0.32,0.39-0.52,0.71-0.45c0.32,0.07,0.52,0.39,0.45,0.71l-1.42,6.36l6.4,1.43c0.32,0.07,0.52,0.39,0.45,0.71
	C108.21,129.52,107.97,129.71,107.7,129.71z"/>
<path fill="#F1F3F4" d="M101.68,132.99c-0.04,0-0.09,0-0.13-0.01l-6.98-1.56c-0.15-0.03-0.29-0.13-0.37-0.26
	c-0.08-0.13-0.11-0.29-0.08-0.45l1.55-6.94c0.07-0.32,0.39-0.52,0.71-0.45c0.32,0.07,0.52,0.39,0.45,0.71l-1.42,6.36l6.4,1.43
	c0.32,0.07,0.52,0.39,0.45,0.71C102.19,132.8,101.95,132.99,101.68,132.99z"/>
<circle fill="#EA4335" cx="84.45" cy="121.98" r="7.9"/>
<circle fill="#EA4335" cx="102.66" cy="101.15" r="6.36"/>
<path fill="#34A853" d="M74.59,127.91c-7.23,0-13.19,5.34-14.21,12.28l28.1-1.55C86.87,132.48,81.27,127.91,74.59,127.91z"/>
<linearGradient id="SVGID_4_" gradientUnits="userSpaceOnUse" x1="74.8355" y1="106.8922" x2="74.418" y2="140.847">
	<stop  offset="0" style="stop-color:#202124"/>
	<stop  offset="1" style="stop-color:#202124;stop-opacity:0"/>
</linearGradient>
<path fill="url(#SVGID_4_)" d="M74.59,127.83c-7.24,0-13.21,5.35-14.21,12.31l28.13-1.5C86.91,132.43,81.29,127.83,74.59,127.83z"/>
<linearGradient id="SVGID_5_" gradientUnits="userSpaceOnUse" x1="429.0834" y1="-144.0265" x2="64.2092" y2="181.1875">
	<stop  offset="0" style="stop-color:#202124"/>
	<stop  offset="1" style="stop-color:#202124;stop-opacity:0"/>
</linearGradient>
<path fill="url(#SVGID_5_)" d="M147.35,174.96l-5.8-108.16c0,0-82.16,57.9-135.56,95.51l1.1,20.36c0.17,3.09,2.8,5.45,5.89,5.29
	l128.9-6.92C145.09,180.85,147.53,178.12,147.35,174.96z"/>
<path fill="#E8EAED" d="M245.46,187.43l-123.69-36.68c-3.06-0.91-4.78-4.12-3.9-7.18l37.17-125.28c0.8-2.7,3.65-4.25,6.36-3.43
	l124.95,37.06c2.7,0.8,4.25,3.65,3.43,6.36l-37.15,125.31C251.7,186.58,248.49,188.33,245.46,187.43z"/>
<path fill="#FFFFFF" d="M160.26,20.15L283.5,56.69l-24.94,87.4l-124.14-36.81L160.26,20.15z"/>
<linearGradient id="SVGID_6_" gradientUnits="userSpaceOnUse" x1="231.8162" y1="269.5319" x2="231.8162" y2="286.8663" gradientTransform="matrix(0.9577 0.2878 -0.2878 0.9577 60.0828 -216.6619)">
	<stop  offset="0" style="stop-color:#202124"/>
	<stop  offset="1" style="stop-color:#202124;stop-opacity:0"/>
</linearGradient>
<path opacity="0.3" fill="url(#SVGID_6_)" d="M167.01,106.77c0,0-4.47,3.87-9.64,2.31c-6.18-1.86-7.34-8.2-7.34-8.2l87.52,26.29
	c-1.16,1.65-3.53,1.78-4.82,0.36l-0.33,0.59l18.69,13.77l-61.61-18.29l-14.36-12.11C168.83,112.46,167.01,106.77,167.01,106.77z"/>
<polygon fill="#FBBC04" points="188.12,44.47 169.4,106.69 226.65,123.9 245.35,61.67 "/>
<polygon fill="#F8F9FA" points="222.8,120.72 204.68,115.17 210.64,95.17 210.71,94.93 199.12,91.39 193.02,111.72 177.8,107.09 
	177.66,107.57 192.88,112.2 192.46,113.61 192.93,113.76 199.45,92.02 210.09,95.26 203.61,117 204.09,117.15 204.53,115.65 
	222.66,121.2 "/>
<radialGradient id="SVGID_7_" cx="193.4968" cy="35.4035" r="52.7278" gradientUnits="userSpaceOnUse">
	<stop  offset="0.1761" style="stop-color:#FEF7E0"/>
	<stop  offset="1" style="stop-color:#FFFFFF;stop-opacity:0"/>
</radialGradient>
<polygon opacity="0.4" fill="url(#SVGID_7_)" points="188.12,44.47 169.4,106.69 226.63,123.89 245.35,61.67 "/>
<path id="SVGID_1_" fill="#E8EAED" d="M235.34,124.26c-0.54-0.16-1.09-0.17-1.61-0.05c0.36-2.34-1.05-4.64-3.38-5.34
	c-1.82-0.55-3.71,0.03-4.92,1.33c-0.15-0.07-0.3-0.13-0.46-0.18c-1.71-0.51-3.51,0.46-4.02,2.16l3.21,0.96l2.98,0.9l4.75,1.43
	l1.28,0.38l4.39,1.32C237.52,125.86,236.66,124.66,235.34,124.26z"/>
<rect x="176.6" y="87.85" transform="matrix(0.9577 0.2878 -0.2878 0.9577 35.6108 -49.1515)" fill="#F8F9FA" width="16.77" height="17.4"/>
<rect x="211.1" y="98.22" transform="matrix(0.9577 0.2878 -0.2878 0.9577 40.0533 -58.6406)" fill="#F8F9FA" width="16.77" height="17.4"/>
<rect x="196.82" y="97.93" transform="matrix(0.9577 0.2878 -0.2878 0.9577 39.0091 -53.3842)" fill="#F8F9FA" width="8.54" height="16.14"/>
<rect x="199.82" y="94.59" transform="matrix(0.9577 0.2878 -0.2878 0.9577 36.2595 -54.6714)" fill="#F8F9FA" width="8.54" height="2.82"/>
<path fill="#FBBC04" d="M190.17,99.18l-0.14-0.14c-4.53-4.66-10.49-3.19-10.54-3.17l-0.19,0.05l-0.01-3.24l0.12-0.02
	c0.07-0.01,6.93-1.31,12.39,3.72l0.09,0.09L190.17,99.18z M181.81,95.33c2.19,0,5.5,0.56,8.31,3.36l1.38-2.18
	c-4.93-4.46-10.96-3.73-11.9-3.58l0.01,2.6C179.95,95.46,180.75,95.33,181.81,95.33z"/>
<polygon fill="#FBBC04" points="186.6,98.87 182.5,97.63 182.59,97.34 186.69,98.57 "/>
<polygon fill="#FBBC04" points="187.48,92.05 185.38,91.42 185.47,91.13 187.57,91.75 "/>
<path fill="#FBBC04" d="M224.66,109.54l-0.14-0.14c-4.53-4.67-10.49-3.19-10.54-3.17l-0.19,0.05l-0.01-3.24l0.12-0.02
	c0.07-0.01,6.93-1.31,12.38,3.72l0.09,0.09L224.66,109.54z M216.31,105.69c2.19,0,5.5,0.56,8.31,3.36l1.38-2.18
	c-4.92-4.45-10.96-3.73-11.9-3.58l0.01,2.6C214.45,105.82,215.24,105.69,216.31,105.69z"/>
<rect x="218.94" y="106.33" transform="matrix(0.2877 -0.9577 0.9577 0.2877 52.1774 287.0927)" fill="#FBBC04" width="0.31" height="4.28"/>
<rect x="220.82" y="100.86" transform="matrix(0.2881 -0.9576 0.9576 0.2881 59.6824 284.1867)" fill="#FBBC04" width="0.31" height="2.19"/>
<linearGradient id="SVGID_8_" gradientUnits="userSpaceOnUse" x1="227.6379" y1="209.4176" x2="227.6379" y2="268.3125" gradientTransform="matrix(0.9577 0.2878 -0.2878 0.9577 60.0828 -216.6619)">
	<stop  offset="0" style="stop-color:#202124"/>
	<stop  offset="1" style="stop-color:#202124;stop-opacity:0"/>
</linearGradient>
<polygon fill="url(#SVGID_8_)" points="233.92,99.7 211.98,119.44 169.41,106.65 177.59,79.43 234.83,96.63 "/>
<path fill="#E8EAED" d="M173.91,104.12c-2.24-0.67-4.58-0.15-6.46,1.21c-1.03-3.45-3.52-6.23-6.95-7.26
	c-3.72-1.12-7.64,0.09-10.46,2.82l28.89,8.68C178.25,106.98,176.44,104.88,173.91,104.12z"/>
<path fill="#DADCE0" d="M159.88,103.85l-0.55-6.04c-0.22-0.04-0.43-0.06-0.65-0.08l0.54,5.92L159.88,103.85z"/>
<path fill="#DADCE0" d="M156.93,102.96l-2.45-4.77c-0.2,0.07-0.41,0.13-0.61,0.21l2.21,4.3L156.93,102.96z"/>
<path fill="#DADCE0" d="M163.34,104.89l3-2.11c-0.11-0.19-0.23-0.36-0.35-0.54l-3.43,2.41L163.34,104.89z"/>
<path fill="#DADCE0" d="M172.73,107.71l0.75-3.69c-0.21-0.05-0.42-0.09-0.63-0.12l-0.74,3.63L172.73,107.71z"/>
<path fill="#DADCE0" d="M175.09,108.42l2.58-1.55c-0.12-0.18-0.26-0.34-0.4-0.51l-3.01,1.81L175.09,108.42z"/>
<rect x="176.86" y="69.31" transform="matrix(0.9577 0.2878 -0.2878 0.9577 31.3947 -56.7009)" fill="#E8EAED" width="63.4" height="18.24"/>
<path fill="#70757A" d="M241.54,78.82l-60.72-18.24l-5.25,17.47l-0.65,2.16c-0.28,0.93,0.25,1.91,1.18,2.19l0.01,0
	c0.93,0.28,1.91-0.25,2.19-1.18c-0.28,0.93,0.25,1.91,1.18,2.19l0.01,0c0.93,0.28,1.91-0.25,2.19-1.18
	c-0.28,0.93,0.25,1.91,1.18,2.19l0.01,0c0.93,0.28,1.91-0.25,2.19-1.18c-0.28,0.93,0.25,1.91,1.18,2.19l0.01,0
	c0.93,0.28,1.91-0.25,2.19-1.18c-0.28,0.93,0.25,1.91,1.18,2.19l0.01,0c0.93,0.28,1.91-0.25,2.19-1.18
	c-0.28,0.93,0.25,1.91,1.18,2.19l0.01,0c0.93,0.28,1.91-0.25,2.19-1.18c-0.28,0.93,0.25,1.91,1.18,2.19l0.01,0
	c0.93,0.28,1.91-0.25,2.19-1.18c-0.28,0.93,0.25,1.91,1.18,2.19l0.01,0c0.93,0.28,1.91-0.25,2.19-1.18
	c-0.28,0.93,0.25,1.91,1.18,2.19l0.01,0c0.93,0.28,1.91-0.25,2.19-1.18c-0.28,0.93,0.25,1.91,1.18,2.19l0.01,0
	c0.93,0.28,1.91-0.25,2.19-1.18c-0.28,0.93,0.25,1.91,1.18,2.19l0.01,0c0.93,0.28,1.91-0.25,2.19-1.18
	c-0.28,0.93,0.25,1.91,1.18,2.19l0.01,0c0.93,0.28,1.91-0.25,2.19-1.18c-0.28,0.93,0.25,1.91,1.18,2.19l0.01,0
	c0.93,0.28,1.91-0.25,2.19-1.18c-0.28,0.93,0.25,1.91,1.18,2.19l0.01,0c0.93,0.28,1.91-0.25,2.19-1.18
	c-0.28,0.93,0.25,1.91,1.18,2.19l0.01,0c0.93,0.28,1.91-0.25,2.19-1.18c-0.28,0.93,0.25,1.91,1.18,2.19l0.01,0
	c0.93,0.28,1.91-0.25,2.19-1.18c-0.28,0.93,0.25,1.91,1.18,2.19l0.01,0c0.93,0.28,1.91-0.25,2.19-1.18l0,0
	c-0.28,0.93,0.25,1.91,1.18,2.19s1.91-0.24,2.19-1.17l0.64-2.14l-0.03-0.03l0.04,0.01L241.54,78.82z"/>
<path fill="#FFFFFF" d="M187.65,62.62l-5.53,18.14l-0.45,1.51c-0.25,0.92,0.27,1.88,1.19,2.15l0.01,0c0.93,0.28,1.91-0.25,2.19-1.18
	c-0.28,0.93,0.25,1.91,1.18,2.19l0.01,0c0.9,0.27,1.85-0.22,2.16-1.1l0.47-1.55l5.53-18.14L187.65,62.62z"/>
<path fill="#FFFFFF" d="M201.14,66.68l-5.51,18.1l0,0l-0.46,1.55c-0.25,0.92,0.27,1.88,1.19,2.15l0.01,0
	c0.93,0.28,1.91-0.25,2.19-1.18c-0.28,0.93,0.25,1.91,1.18,2.19l0.01,0c0.9,0.27,1.85-0.22,2.16-1.1l0.47-1.55l5.53-18.14
	L201.14,66.68z"/>
<path fill="#FFFFFF" d="M214.63,70.74l-5.53,18.14l0,0l-0.45,1.51c-0.25,0.92,0.27,1.88,1.19,2.15l0.01,0
	c0.93,0.28,1.91-0.25,2.19-1.18c-0.28,0.93,0.25,1.91,1.18,2.19l0.01,0c0.9,0.27,1.85-0.22,2.16-1.1l0.47-1.55l5.53-18.14
	L214.63,70.74z"/>
<path fill="#FFFFFF" d="M228.11,74.79l-5.53,18.14l0.01,0l-0.45,1.51c-0.25,0.92,0.27,1.88,1.19,2.15l0.01,0
	c0.93,0.28,1.91-0.25,2.19-1.18c-0.28,0.93,0.25,1.91,1.18,2.19l0.01,0c0.9,0.27,1.85-0.22,2.16-1.1l0.47-1.55l5.53-18.14
	L228.11,74.79z"/>
<linearGradient id="SVGID_9_" gradientUnits="userSpaceOnUse" x1="227.1198" y1="248.6573" x2="227.1198" y2="256.4175" gradientTransform="matrix(0.9577 0.2878 -0.2878 0.9577 60.0828 -216.6619)">
	<stop  offset="0.1061" style="stop-color:#202124;stop-opacity:0.1"/>
	<stop  offset="1" style="stop-color:#202124;stop-opacity:0"/>
</linearGradient>
<path fill="url(#SVGID_9_)" d="M232.92,95.28l-3.37-1.01l-3.37-1.01l-3.37-1.01l-3.37-1.01l-3.37-1.01l-3.37-1.01l-3.37-1.01
	l-3.37-1.01l-3.37-1.01l-3.37-1.01l-3.37-1.01l-3.37-1.01l-3.37-1.01l-3.37-1.01l-3.37-1.01l-3.37-1.01l-3.37-1.01l-0.65,2.16
	c-0.28,0.93,0.25,1.91,1.18,2.19l0.01,0c0.93,0.28,1.91-0.25,2.19-1.18c-0.28,0.93,0.25,1.91,1.18,2.19l0.01,0
	c0.93,0.28,1.91-0.25,2.19-1.18c-0.28,0.93,0.25,1.91,1.18,2.19l0.01,0c0.93,0.28,1.91-0.25,2.19-1.18
	c-0.28,0.93,0.25,1.91,1.18,2.19l0.01,0c0.93,0.28,1.91-0.25,2.19-1.18c-0.28,0.93,0.25,1.91,1.18,2.19l0.01,0
	c0.93,0.28,1.91-0.25,2.19-1.18c-0.28,0.93,0.25,1.91,1.18,2.19l0.01,0c0.93,0.28,1.91-0.25,2.19-1.18
	c-0.28,0.93,0.25,1.91,1.18,2.19l0.01,0c0.93,0.28,1.91-0.25,2.19-1.18c-0.28,0.93,0.25,1.91,1.18,2.19l0.01,0
	c0.93,0.28,1.91-0.25,2.19-1.18c-0.28,0.93,0.25,1.91,1.18,2.19l0.01,0c0.93,0.28,1.91-0.25,2.19-1.18
	c-0.28,0.93,0.25,1.91,1.18,2.19l0.01,0c0.93,0.28,1.91-0.25,2.19-1.18c-0.28,0.93,0.25,1.91,1.18,2.19l0.01,0
	c0.93,0.28,1.91-0.25,2.19-1.18c-0.28,0.93,0.25,1.91,1.18,2.19l0.01,0c0.93,0.28,1.91-0.25,2.19-1.18
	c-0.28,0.93,0.25,1.91,1.18,2.19l0.01,0c0.93,0.28,1.91-0.25,2.19-1.18c-0.28,0.93,0.25,1.91,1.18,2.19l0.01,0
	c0.93,0.28,1.91-0.25,2.19-1.18c-0.28,0.93,0.25,1.91,1.18,2.19l0.01,0c0.93,0.28,1.91-0.25,2.19-1.18
	c-0.28,0.93,0.25,1.91,1.18,2.19l0.01,0c0.93,0.28,1.91-0.25,2.19-1.18c-0.28,0.93,0.25,1.91,1.18,2.19l0.01,0
	c0.93,0.28,1.91-0.25,2.19-1.18l0,0c-0.28,0.93,0.25,1.91,1.18,2.19l0,0c0.93,0.28,1.91-0.24,2.19-1.17l0.64-2.14L232.92,95.28z"/>
<path fill="#DADCE0" d="M224.14,119.9c0.45,0.98,1.16,2.52,1.73,3.77l0.81,0.24c-0.37-0.81-1.21-2.63-1.79-3.9
	C224.64,119.94,224.39,119.9,224.14,119.9z"/>
<path fill="#DADCE0" d="M233.6,122.22l-2.52,3.01l0.67,0.2l2-2.39C233.72,122.76,233.67,122.49,233.6,122.22z"/>
<path fill="#FFFFFF" d="M224.29,69.11l-0.36-0.36c-8.6-8.85-19.82-6.04-19.93-6.01l-0.5,0.13l-0.01-6.41l0.33-0.06
	c0.11-0.03,13.19-2.51,23.63,7.09l0.24,0.24L224.29,69.11z M208.32,61.82c4.17,0,10.55,1.06,15.88,6.49l2.84-4.49
	c-9.78-8.95-21.97-7.12-23.06-6.93l0.01,5.34C204.44,62.13,206.05,61.82,208.32,61.82z"/>
<polygon fill="#FFFFFF" points="240.9,76.6 183.67,59.21 183.81,58.73 241.04,76.12 "/>
<rect x="215.99" y="24.86" transform="matrix(0.2898 -0.9571 0.9571 0.2898 101.1708 245.8497)" fill="#FFFFFF" width="0.5" height="59.78"/>
</svg>
